G75*
%MOIN*%
%OFA0B0*%
%FSLAX25Y25*%
%IPPOS*%
%LPD*%
%AMOC8*
5,1,8,0,0,1.08239X$1,22.5*
%
%ADD10C,0.13300*%
%ADD11C,0.09658*%
%ADD12C,0.10924*%
%ADD13C,0.16550*%
%ADD14C,0.06400*%
%ADD15R,0.06350X0.06350*%
%ADD16C,0.06800*%
%ADD17OC8,0.07100*%
%ADD18C,0.07100*%
%ADD19C,0.07200*%
%ADD20C,0.06400*%
%ADD21OC8,0.06400*%
%ADD22OC8,0.07200*%
%ADD23C,0.08200*%
%ADD24C,0.18300*%
%ADD25C,0.15800*%
%ADD26R,0.09500X0.09500*%
%ADD27R,0.09050X0.09050*%
%ADD28C,0.07600*%
%ADD29C,0.13800*%
%ADD30C,0.10800*%
%ADD31OC8,0.10800*%
%ADD32R,0.08200X0.08200*%
%ADD33C,0.20800*%
D10*
X0041500Y0016300D03*
X0041500Y0336300D03*
X0413870Y0390300D03*
X0416500Y0366300D03*
X0413870Y0512300D03*
X0709130Y0512300D03*
X0709130Y0390300D03*
X0736500Y0366300D03*
X0736500Y0016300D03*
X0416500Y0016300D03*
X0736500Y0786300D03*
X0041500Y0786300D03*
D11*
X0451500Y0321300D03*
X0476500Y0331300D03*
X0526500Y0321300D03*
X0551500Y0331300D03*
X0601500Y0321300D03*
X0626500Y0331300D03*
X0676500Y0321300D03*
X0701500Y0331300D03*
X0701500Y0256300D03*
X0676500Y0246300D03*
X0626500Y0256300D03*
X0601500Y0246300D03*
X0551500Y0256300D03*
X0526500Y0246300D03*
X0476500Y0256300D03*
X0451500Y0246300D03*
X0476500Y0181300D03*
X0451500Y0171300D03*
X0476500Y0106300D03*
X0451500Y0096300D03*
X0471500Y0061300D03*
X0446500Y0051300D03*
X0521500Y0051300D03*
X0546500Y0061300D03*
X0526500Y0096300D03*
X0551500Y0106300D03*
X0596500Y0051300D03*
X0621500Y0061300D03*
X0601500Y0096300D03*
X0626500Y0106300D03*
X0671500Y0051300D03*
X0696500Y0061300D03*
X0676500Y0096300D03*
X0701500Y0106300D03*
X0676500Y0171300D03*
X0701500Y0181300D03*
X0626500Y0181300D03*
X0601500Y0171300D03*
X0551500Y0181300D03*
X0526500Y0171300D03*
D12*
X0516500Y0191300D03*
X0481500Y0191300D03*
X0441500Y0191300D03*
X0441500Y0116300D03*
X0481500Y0116300D03*
X0516500Y0116300D03*
X0556500Y0116300D03*
X0591500Y0116300D03*
X0631500Y0116300D03*
X0666500Y0116300D03*
X0706500Y0116300D03*
X0706500Y0041300D03*
X0666500Y0041300D03*
X0631500Y0041300D03*
X0591500Y0041300D03*
X0556500Y0041300D03*
X0516500Y0041300D03*
X0481500Y0041300D03*
X0441500Y0041300D03*
X0556500Y0191300D03*
X0591500Y0191300D03*
X0631500Y0191300D03*
X0666500Y0191300D03*
X0706500Y0191300D03*
X0706500Y0266300D03*
X0666500Y0266300D03*
X0631500Y0266300D03*
X0591500Y0266300D03*
X0556500Y0266300D03*
X0516500Y0266300D03*
X0481500Y0266300D03*
X0441500Y0266300D03*
X0441500Y0341300D03*
X0481500Y0341300D03*
X0516500Y0341300D03*
X0556500Y0341300D03*
X0591500Y0341300D03*
X0631500Y0341300D03*
X0666500Y0341300D03*
X0706500Y0341300D03*
D13*
X0686500Y0341300D03*
X0686500Y0266300D03*
X0686500Y0191300D03*
X0686500Y0116300D03*
X0686500Y0041300D03*
X0611500Y0041300D03*
X0611500Y0116300D03*
X0611500Y0191300D03*
X0611500Y0266300D03*
X0611500Y0341300D03*
X0536500Y0341300D03*
X0536500Y0266300D03*
X0536500Y0191300D03*
X0536500Y0116300D03*
X0536500Y0041300D03*
X0461500Y0041300D03*
X0461500Y0116300D03*
X0461500Y0191300D03*
X0461500Y0266300D03*
X0461500Y0341300D03*
D14*
X0401500Y0348500D02*
X0401500Y0354100D01*
X0391500Y0354100D02*
X0391500Y0348500D01*
X0381500Y0348500D02*
X0381500Y0354100D01*
X0371500Y0354100D02*
X0371500Y0348500D01*
X0361500Y0348500D02*
X0361500Y0354100D01*
X0351500Y0354100D02*
X0351500Y0348500D01*
X0341500Y0348500D02*
X0341500Y0354100D01*
X0331500Y0354100D02*
X0331500Y0348500D01*
X0321500Y0348500D02*
X0321500Y0354100D01*
X0311500Y0354100D02*
X0311500Y0348500D01*
X0311500Y0324100D02*
X0311500Y0318500D01*
X0321500Y0318500D02*
X0321500Y0324100D01*
X0331500Y0324100D02*
X0331500Y0318500D01*
X0341500Y0318500D02*
X0341500Y0324100D01*
X0351500Y0324100D02*
X0351500Y0318500D01*
X0361500Y0318500D02*
X0361500Y0324100D01*
X0371500Y0324100D02*
X0371500Y0318500D01*
X0381500Y0318500D02*
X0381500Y0324100D01*
X0391500Y0324100D02*
X0391500Y0318500D01*
X0401500Y0318500D02*
X0401500Y0324100D01*
X0401500Y0304100D02*
X0401500Y0298500D01*
X0391500Y0298500D02*
X0391500Y0304100D01*
X0381500Y0304100D02*
X0381500Y0298500D01*
X0371500Y0298500D02*
X0371500Y0304100D01*
X0361500Y0304100D02*
X0361500Y0298500D01*
X0351500Y0298500D02*
X0351500Y0304100D01*
X0341500Y0304100D02*
X0341500Y0298500D01*
X0331500Y0298500D02*
X0331500Y0304100D01*
X0331500Y0274100D02*
X0331500Y0268500D01*
X0341500Y0268500D02*
X0341500Y0274100D01*
X0351500Y0274100D02*
X0351500Y0268500D01*
X0361500Y0268500D02*
X0361500Y0274100D01*
X0371500Y0274100D02*
X0371500Y0268500D01*
X0381500Y0268500D02*
X0381500Y0274100D01*
X0391500Y0274100D02*
X0391500Y0268500D01*
X0401500Y0268500D02*
X0401500Y0274100D01*
X0401500Y0249100D02*
X0401500Y0243500D01*
X0391500Y0243500D02*
X0391500Y0249100D01*
X0381500Y0249100D02*
X0381500Y0243500D01*
X0371500Y0243500D02*
X0371500Y0249100D01*
X0361500Y0249100D02*
X0361500Y0243500D01*
X0351500Y0243500D02*
X0351500Y0249100D01*
X0341500Y0249100D02*
X0341500Y0243500D01*
X0331500Y0243500D02*
X0331500Y0249100D01*
X0321500Y0249100D02*
X0321500Y0243500D01*
X0311500Y0243500D02*
X0311500Y0249100D01*
X0311500Y0219100D02*
X0311500Y0213500D01*
X0321500Y0213500D02*
X0321500Y0219100D01*
X0331500Y0219100D02*
X0331500Y0213500D01*
X0341500Y0213500D02*
X0341500Y0219100D01*
X0351500Y0219100D02*
X0351500Y0213500D01*
X0351500Y0199100D02*
X0351500Y0193500D01*
X0341500Y0193500D02*
X0341500Y0199100D01*
X0331500Y0199100D02*
X0331500Y0193500D01*
X0321500Y0193500D02*
X0321500Y0199100D01*
X0311500Y0199100D02*
X0311500Y0193500D01*
X0311500Y0169100D02*
X0311500Y0163500D01*
X0321500Y0163500D02*
X0321500Y0169100D01*
X0331500Y0169100D02*
X0331500Y0163500D01*
X0341500Y0163500D02*
X0341500Y0169100D01*
X0351500Y0169100D02*
X0351500Y0163500D01*
X0351500Y0149100D02*
X0351500Y0143500D01*
X0341500Y0143500D02*
X0341500Y0149100D01*
X0331500Y0149100D02*
X0331500Y0143500D01*
X0321500Y0143500D02*
X0321500Y0149100D01*
X0311500Y0149100D02*
X0311500Y0143500D01*
X0311500Y0119100D02*
X0311500Y0113500D01*
X0311500Y0104100D02*
X0311500Y0098500D01*
X0321500Y0098500D02*
X0321500Y0104100D01*
X0321500Y0113500D02*
X0321500Y0119100D01*
X0331500Y0119100D02*
X0331500Y0113500D01*
X0331500Y0104100D02*
X0331500Y0098500D01*
X0341500Y0098500D02*
X0341500Y0104100D01*
X0341500Y0113500D02*
X0341500Y0119100D01*
X0351500Y0119100D02*
X0351500Y0113500D01*
X0351500Y0104100D02*
X0351500Y0098500D01*
X0361500Y0098500D02*
X0361500Y0104100D01*
X0361500Y0113500D02*
X0361500Y0119100D01*
X0371500Y0119100D02*
X0371500Y0113500D01*
X0371500Y0104100D02*
X0371500Y0098500D01*
X0381500Y0098500D02*
X0381500Y0104100D01*
X0381500Y0113500D02*
X0381500Y0119100D01*
X0391500Y0119100D02*
X0391500Y0113500D01*
X0391500Y0104100D02*
X0391500Y0098500D01*
X0401500Y0098500D02*
X0401500Y0104100D01*
X0401500Y0113500D02*
X0401500Y0119100D01*
X0401500Y0143500D02*
X0401500Y0149100D01*
X0401500Y0163500D02*
X0401500Y0169100D01*
X0391500Y0169100D02*
X0391500Y0163500D01*
X0381500Y0163500D02*
X0381500Y0169100D01*
X0371500Y0169100D02*
X0371500Y0163500D01*
X0361500Y0163500D02*
X0361500Y0169100D01*
X0361500Y0149100D02*
X0361500Y0143500D01*
X0371500Y0143500D02*
X0371500Y0149100D01*
X0381500Y0149100D02*
X0381500Y0143500D01*
X0391500Y0143500D02*
X0391500Y0149100D01*
X0391500Y0193500D02*
X0391500Y0199100D01*
X0381500Y0199100D02*
X0381500Y0193500D01*
X0371500Y0193500D02*
X0371500Y0199100D01*
X0361500Y0199100D02*
X0361500Y0193500D01*
X0361500Y0213500D02*
X0361500Y0219100D01*
X0371500Y0219100D02*
X0371500Y0213500D01*
X0381500Y0213500D02*
X0381500Y0219100D01*
X0391500Y0219100D02*
X0391500Y0213500D01*
X0401500Y0213500D02*
X0401500Y0219100D01*
X0401500Y0199100D02*
X0401500Y0193500D01*
X0401500Y0074100D02*
X0401500Y0068500D01*
X0391500Y0068500D02*
X0391500Y0074100D01*
X0381500Y0074100D02*
X0381500Y0068500D01*
X0371500Y0068500D02*
X0371500Y0074100D01*
X0361500Y0074100D02*
X0361500Y0068500D01*
X0351500Y0068500D02*
X0351500Y0074100D01*
X0341500Y0074100D02*
X0341500Y0068500D01*
X0331500Y0068500D02*
X0331500Y0074100D01*
X0321500Y0074100D02*
X0321500Y0068500D01*
X0311500Y0068500D02*
X0311500Y0074100D01*
X0311500Y0054100D02*
X0311500Y0048500D01*
X0321500Y0048500D02*
X0321500Y0054100D01*
X0331500Y0054100D02*
X0331500Y0048500D01*
X0341500Y0048500D02*
X0341500Y0054100D01*
X0351500Y0054100D02*
X0351500Y0048500D01*
X0361500Y0048500D02*
X0361500Y0054100D01*
X0371500Y0054100D02*
X0371500Y0048500D01*
X0381500Y0048500D02*
X0381500Y0054100D01*
X0391500Y0054100D02*
X0391500Y0048500D01*
X0401500Y0048500D02*
X0401500Y0054100D01*
X0401500Y0024100D02*
X0401500Y0018500D01*
X0391500Y0018500D02*
X0391500Y0024100D01*
X0381500Y0024100D02*
X0381500Y0018500D01*
X0371500Y0018500D02*
X0371500Y0024100D01*
X0361500Y0024100D02*
X0361500Y0018500D01*
X0351500Y0018500D02*
X0351500Y0024100D01*
X0341500Y0024100D02*
X0341500Y0018500D01*
X0331500Y0018500D02*
X0331500Y0024100D01*
X0321500Y0024100D02*
X0321500Y0018500D01*
X0311500Y0018500D02*
X0311500Y0024100D01*
X0281500Y0038500D02*
X0281500Y0044100D01*
X0281500Y0048500D02*
X0281500Y0054100D01*
X0271500Y0054100D02*
X0271500Y0048500D01*
X0271500Y0044100D02*
X0271500Y0038500D01*
X0261500Y0038500D02*
X0261500Y0044100D01*
X0261500Y0048500D02*
X0261500Y0054100D01*
X0251500Y0054100D02*
X0251500Y0048500D01*
X0251500Y0044100D02*
X0251500Y0038500D01*
X0241500Y0038500D02*
X0241500Y0044100D01*
X0216500Y0024100D02*
X0216500Y0018500D01*
X0206500Y0018500D02*
X0206500Y0024100D01*
X0196500Y0024100D02*
X0196500Y0018500D01*
X0186500Y0018500D02*
X0186500Y0024100D01*
X0176500Y0024100D02*
X0176500Y0018500D01*
X0166500Y0018500D02*
X0166500Y0024100D01*
X0156500Y0024100D02*
X0156500Y0018500D01*
X0146500Y0018500D02*
X0146500Y0024100D01*
X0136500Y0024100D02*
X0136500Y0018500D01*
X0126500Y0018500D02*
X0126500Y0024100D01*
X0116500Y0024100D02*
X0116500Y0018500D01*
X0106500Y0018500D02*
X0106500Y0024100D01*
X0096500Y0024100D02*
X0096500Y0018500D01*
X0086500Y0018500D02*
X0086500Y0024100D01*
X0076500Y0024100D02*
X0076500Y0018500D01*
X0066500Y0018500D02*
X0066500Y0024100D01*
X0066500Y0078500D02*
X0066500Y0084100D01*
X0076500Y0084100D02*
X0076500Y0078500D01*
X0086500Y0078500D02*
X0086500Y0084100D01*
X0096500Y0084100D02*
X0096500Y0078500D01*
X0106500Y0078500D02*
X0106500Y0084100D01*
X0116500Y0084100D02*
X0116500Y0078500D01*
X0126500Y0078500D02*
X0126500Y0084100D01*
X0136500Y0084100D02*
X0136500Y0078500D01*
X0146500Y0078500D02*
X0146500Y0084100D01*
X0156500Y0084100D02*
X0156500Y0078500D01*
X0166500Y0078500D02*
X0166500Y0084100D01*
X0176500Y0084100D02*
X0176500Y0078500D01*
X0186500Y0078500D02*
X0186500Y0084100D01*
X0196500Y0084100D02*
X0196500Y0078500D01*
X0206500Y0078500D02*
X0206500Y0084100D01*
X0216500Y0084100D02*
X0216500Y0078500D01*
X0251500Y0078500D02*
X0251500Y0084100D01*
X0261500Y0084100D02*
X0261500Y0078500D01*
X0271500Y0078500D02*
X0271500Y0084100D01*
X0281500Y0084100D02*
X0281500Y0078500D01*
X0246500Y0208500D02*
X0246500Y0214100D01*
X0236500Y0214100D02*
X0236500Y0208500D01*
X0226500Y0208500D02*
X0226500Y0214100D01*
X0216500Y0214100D02*
X0216500Y0208500D01*
X0206500Y0208500D02*
X0206500Y0214100D01*
X0196500Y0214100D02*
X0196500Y0208500D01*
X0186500Y0208500D02*
X0186500Y0214100D01*
X0176500Y0214100D02*
X0176500Y0208500D01*
X0176500Y0238500D02*
X0176500Y0244100D01*
X0186500Y0244100D02*
X0186500Y0238500D01*
X0196500Y0238500D02*
X0196500Y0244100D01*
X0206500Y0244100D02*
X0206500Y0238500D01*
X0216500Y0238500D02*
X0216500Y0244100D01*
X0226500Y0244100D02*
X0226500Y0238500D01*
X0236500Y0238500D02*
X0236500Y0244100D01*
X0231500Y0253500D02*
X0231500Y0259100D01*
X0241500Y0259100D02*
X0241500Y0253500D01*
X0251500Y0253500D02*
X0251500Y0259100D01*
X0246500Y0244100D02*
X0246500Y0238500D01*
X0221500Y0253500D02*
X0221500Y0259100D01*
X0211500Y0259100D02*
X0211500Y0253500D01*
X0201500Y0253500D02*
X0201500Y0259100D01*
X0201500Y0288500D02*
X0201500Y0294100D01*
X0211500Y0294100D02*
X0211500Y0288500D01*
X0221500Y0288500D02*
X0221500Y0294100D01*
X0231500Y0294100D02*
X0231500Y0288500D01*
X0241500Y0288500D02*
X0241500Y0294100D01*
X0251500Y0294100D02*
X0251500Y0288500D01*
X0261500Y0288500D02*
X0261500Y0294100D01*
X0261500Y0318500D02*
X0261500Y0324100D01*
X0251500Y0324100D02*
X0251500Y0318500D01*
X0241500Y0318500D02*
X0241500Y0324100D01*
X0231500Y0324100D02*
X0231500Y0318500D01*
X0221500Y0318500D02*
X0221500Y0324100D01*
X0211500Y0324100D02*
X0211500Y0318500D01*
X0201500Y0318500D02*
X0201500Y0324100D01*
X0191500Y0324100D02*
X0191500Y0318500D01*
X0191500Y0294100D02*
X0191500Y0288500D01*
X0161500Y0288500D02*
X0161500Y0294100D01*
X0151500Y0294100D02*
X0151500Y0288500D01*
X0141500Y0288500D02*
X0141500Y0294100D01*
X0131500Y0294100D02*
X0131500Y0288500D01*
X0121500Y0288500D02*
X0121500Y0294100D01*
X0111500Y0294100D02*
X0111500Y0288500D01*
X0101500Y0288500D02*
X0101500Y0294100D01*
X0101500Y0318500D02*
X0101500Y0324100D01*
X0111500Y0324100D02*
X0111500Y0318500D01*
X0121500Y0318500D02*
X0121500Y0324100D01*
X0131500Y0324100D02*
X0131500Y0318500D01*
X0141500Y0318500D02*
X0141500Y0324100D01*
X0151500Y0324100D02*
X0151500Y0318500D01*
X0161500Y0318500D02*
X0161500Y0324100D01*
X0161500Y0368500D02*
X0161500Y0374100D01*
X0171500Y0374100D02*
X0171500Y0368500D01*
X0181500Y0368500D02*
X0181500Y0374100D01*
X0191500Y0374100D02*
X0191500Y0368500D01*
X0201500Y0368500D02*
X0201500Y0374100D01*
X0211500Y0374100D02*
X0211500Y0368500D01*
X0221500Y0368500D02*
X0221500Y0374100D01*
X0231500Y0374100D02*
X0231500Y0368500D01*
X0241500Y0368500D02*
X0241500Y0374100D01*
X0251500Y0374100D02*
X0251500Y0368500D01*
X0261500Y0368500D02*
X0261500Y0374100D01*
X0271500Y0374100D02*
X0271500Y0368500D01*
X0281500Y0368500D02*
X0281500Y0374100D01*
X0291500Y0374100D02*
X0291500Y0368500D01*
X0291500Y0428500D02*
X0291500Y0434100D01*
X0281500Y0434100D02*
X0281500Y0428500D01*
X0271500Y0428500D02*
X0271500Y0434100D01*
X0261500Y0434100D02*
X0261500Y0428500D01*
X0251500Y0428500D02*
X0251500Y0434100D01*
X0241500Y0434100D02*
X0241500Y0428500D01*
X0231500Y0428500D02*
X0231500Y0434100D01*
X0221500Y0434100D02*
X0221500Y0428500D01*
X0211500Y0428500D02*
X0211500Y0434100D01*
X0201500Y0434100D02*
X0201500Y0428500D01*
X0191500Y0428500D02*
X0191500Y0434100D01*
X0181500Y0434100D02*
X0181500Y0428500D01*
X0171500Y0428500D02*
X0171500Y0434100D01*
X0161500Y0434100D02*
X0161500Y0428500D01*
X0151500Y0428500D02*
X0151500Y0434100D01*
X0141500Y0434100D02*
X0141500Y0428500D01*
X0131500Y0428500D02*
X0131500Y0434100D01*
X0121500Y0434100D02*
X0121500Y0428500D01*
X0111500Y0428500D02*
X0111500Y0434100D01*
X0101500Y0434100D02*
X0101500Y0428500D01*
X0131500Y0463500D02*
X0131500Y0469100D01*
X0141500Y0469100D02*
X0141500Y0463500D01*
X0151500Y0463500D02*
X0151500Y0469100D01*
X0161500Y0469100D02*
X0161500Y0463500D01*
X0171500Y0463500D02*
X0171500Y0469100D01*
X0181500Y0469100D02*
X0181500Y0463500D01*
X0191500Y0463500D02*
X0191500Y0469100D01*
X0201500Y0469100D02*
X0201500Y0463500D01*
X0211500Y0463500D02*
X0211500Y0469100D01*
X0221500Y0469100D02*
X0221500Y0463500D01*
X0231500Y0463500D02*
X0231500Y0469100D01*
X0241500Y0469100D02*
X0241500Y0463500D01*
X0251500Y0463500D02*
X0251500Y0469100D01*
X0261500Y0469100D02*
X0261500Y0463500D01*
X0261500Y0523500D02*
X0261500Y0529100D01*
X0251500Y0529100D02*
X0251500Y0523500D01*
X0241500Y0523500D02*
X0241500Y0529100D01*
X0231500Y0529100D02*
X0231500Y0523500D01*
X0221500Y0523500D02*
X0221500Y0529100D01*
X0211500Y0529100D02*
X0211500Y0523500D01*
X0201500Y0523500D02*
X0201500Y0529100D01*
X0191500Y0529100D02*
X0191500Y0523500D01*
X0181500Y0523500D02*
X0181500Y0529100D01*
X0171500Y0529100D02*
X0171500Y0523500D01*
X0161500Y0523500D02*
X0161500Y0529100D01*
X0151500Y0529100D02*
X0151500Y0523500D01*
X0141500Y0523500D02*
X0141500Y0529100D01*
X0131500Y0529100D02*
X0131500Y0523500D01*
X0131500Y0558500D02*
X0131500Y0564100D01*
X0141500Y0564100D02*
X0141500Y0558500D01*
X0151500Y0558500D02*
X0151500Y0564100D01*
X0161500Y0564100D02*
X0161500Y0558500D01*
X0171500Y0558500D02*
X0171500Y0564100D01*
X0181500Y0564100D02*
X0181500Y0558500D01*
X0191500Y0558500D02*
X0191500Y0564100D01*
X0201500Y0564100D02*
X0201500Y0558500D01*
X0211500Y0558500D02*
X0211500Y0564100D01*
X0221500Y0564100D02*
X0221500Y0558500D01*
X0231500Y0558500D02*
X0231500Y0564100D01*
X0241500Y0564100D02*
X0241500Y0558500D01*
X0251500Y0558500D02*
X0251500Y0564100D01*
X0261500Y0564100D02*
X0261500Y0558500D01*
X0271500Y0558500D02*
X0271500Y0564100D01*
X0271500Y0618500D02*
X0271500Y0624100D01*
X0261500Y0624100D02*
X0261500Y0618500D01*
X0251500Y0618500D02*
X0251500Y0624100D01*
X0241500Y0624100D02*
X0241500Y0618500D01*
X0231500Y0618500D02*
X0231500Y0624100D01*
X0221500Y0624100D02*
X0221500Y0618500D01*
X0211500Y0618500D02*
X0211500Y0624100D01*
X0201500Y0624100D02*
X0201500Y0618500D01*
X0191500Y0618500D02*
X0191500Y0624100D01*
X0181500Y0624100D02*
X0181500Y0618500D01*
X0171500Y0618500D02*
X0171500Y0624100D01*
X0161500Y0624100D02*
X0161500Y0618500D01*
X0151500Y0618500D02*
X0151500Y0624100D01*
X0141500Y0624100D02*
X0141500Y0618500D01*
X0131500Y0618500D02*
X0131500Y0624100D01*
X0121500Y0624100D02*
X0121500Y0618500D01*
X0111500Y0618500D02*
X0111500Y0624100D01*
X0101500Y0624100D02*
X0101500Y0618500D01*
X0091500Y0618500D02*
X0091500Y0624100D01*
X0081500Y0624100D02*
X0081500Y0618500D01*
X0081500Y0564100D02*
X0081500Y0558500D01*
X0091500Y0558500D02*
X0091500Y0564100D01*
X0101500Y0564100D02*
X0101500Y0558500D01*
X0111500Y0558500D02*
X0111500Y0564100D01*
X0121500Y0564100D02*
X0121500Y0558500D01*
X0181500Y0663500D02*
X0181500Y0669100D01*
X0191500Y0669100D02*
X0191500Y0663500D01*
X0201500Y0663500D02*
X0201500Y0669100D01*
X0211500Y0669100D02*
X0211500Y0663500D01*
X0221500Y0663500D02*
X0221500Y0669100D01*
X0231500Y0669100D02*
X0231500Y0663500D01*
X0241500Y0663500D02*
X0241500Y0669100D01*
X0251500Y0669100D02*
X0251500Y0663500D01*
X0251500Y0693500D02*
X0251500Y0699100D01*
X0241500Y0699100D02*
X0241500Y0693500D01*
X0231500Y0693500D02*
X0231500Y0699100D01*
X0221500Y0699100D02*
X0221500Y0693500D01*
X0211500Y0693500D02*
X0211500Y0699100D01*
X0201500Y0699100D02*
X0201500Y0693500D01*
X0191500Y0693500D02*
X0191500Y0699100D01*
X0181500Y0699100D02*
X0181500Y0693500D01*
X0296500Y0689100D02*
X0296500Y0683500D01*
X0306500Y0683500D02*
X0306500Y0689100D01*
X0316500Y0689100D02*
X0316500Y0683500D01*
X0326500Y0683500D02*
X0326500Y0689100D01*
X0336500Y0689100D02*
X0336500Y0683500D01*
X0346500Y0683500D02*
X0346500Y0689100D01*
X0356500Y0689100D02*
X0356500Y0683500D01*
X0366500Y0683500D02*
X0366500Y0689100D01*
X0376500Y0689100D02*
X0376500Y0683500D01*
X0386500Y0683500D02*
X0386500Y0689100D01*
X0386500Y0713500D02*
X0386500Y0719100D01*
X0376500Y0719100D02*
X0376500Y0713500D01*
X0366500Y0713500D02*
X0366500Y0719100D01*
X0356500Y0719100D02*
X0356500Y0713500D01*
X0346500Y0713500D02*
X0346500Y0719100D01*
X0336500Y0719100D02*
X0336500Y0713500D01*
X0326500Y0713500D02*
X0326500Y0719100D01*
X0316500Y0719100D02*
X0316500Y0713500D01*
X0306500Y0713500D02*
X0306500Y0719100D01*
X0296500Y0719100D02*
X0296500Y0713500D01*
X0296500Y0664100D02*
X0296500Y0658500D01*
X0306500Y0658500D02*
X0306500Y0664100D01*
X0316500Y0664100D02*
X0316500Y0658500D01*
X0326500Y0658500D02*
X0326500Y0664100D01*
X0336500Y0664100D02*
X0336500Y0658500D01*
X0346500Y0658500D02*
X0346500Y0664100D01*
X0356500Y0664100D02*
X0356500Y0658500D01*
X0366500Y0658500D02*
X0366500Y0664100D01*
X0376500Y0664100D02*
X0376500Y0658500D01*
X0386500Y0658500D02*
X0386500Y0664100D01*
X0386500Y0634100D02*
X0386500Y0628500D01*
X0376500Y0628500D02*
X0376500Y0634100D01*
X0366500Y0634100D02*
X0366500Y0628500D01*
X0356500Y0628500D02*
X0356500Y0634100D01*
X0346500Y0634100D02*
X0346500Y0628500D01*
X0336500Y0628500D02*
X0336500Y0634100D01*
X0326500Y0634100D02*
X0326500Y0628500D01*
X0316500Y0628500D02*
X0316500Y0634100D01*
X0306500Y0634100D02*
X0306500Y0628500D01*
X0296500Y0628500D02*
X0296500Y0634100D01*
X0386500Y0604100D02*
X0386500Y0598500D01*
X0396500Y0598500D02*
X0396500Y0604100D01*
X0406500Y0604100D02*
X0406500Y0598500D01*
X0416500Y0598500D02*
X0416500Y0604100D01*
X0426500Y0604100D02*
X0426500Y0598500D01*
X0436500Y0598500D02*
X0436500Y0604100D01*
X0446500Y0604100D02*
X0446500Y0598500D01*
X0456500Y0598500D02*
X0456500Y0604100D01*
X0466500Y0604100D02*
X0466500Y0598500D01*
X0476500Y0598500D02*
X0476500Y0604100D01*
X0486500Y0604100D02*
X0486500Y0598500D01*
X0496500Y0598500D02*
X0496500Y0604100D01*
X0501500Y0608500D02*
X0501500Y0614100D01*
X0511500Y0614100D02*
X0511500Y0608500D01*
X0506500Y0604100D02*
X0506500Y0598500D01*
X0516500Y0598500D02*
X0516500Y0604100D01*
X0521500Y0608500D02*
X0521500Y0614100D01*
X0526500Y0604100D02*
X0526500Y0598500D01*
X0536500Y0598500D02*
X0536500Y0604100D01*
X0531500Y0608500D02*
X0531500Y0614100D01*
X0541500Y0614100D02*
X0541500Y0608500D01*
X0546500Y0604100D02*
X0546500Y0598500D01*
X0556500Y0598500D02*
X0556500Y0604100D01*
X0551500Y0608500D02*
X0551500Y0614100D01*
X0566500Y0604100D02*
X0566500Y0598500D01*
X0576500Y0598500D02*
X0576500Y0604100D01*
X0576500Y0633500D02*
X0576500Y0639100D01*
X0586500Y0639100D02*
X0586500Y0633500D01*
X0596500Y0633500D02*
X0596500Y0639100D01*
X0606500Y0639100D02*
X0606500Y0633500D01*
X0606500Y0663500D02*
X0606500Y0669100D01*
X0596500Y0669100D02*
X0596500Y0663500D01*
X0586500Y0663500D02*
X0586500Y0669100D01*
X0576500Y0669100D02*
X0576500Y0663500D01*
X0566500Y0663500D02*
X0566500Y0669100D01*
X0556500Y0669100D02*
X0556500Y0663500D01*
X0546500Y0663500D02*
X0546500Y0669100D01*
X0541500Y0688500D02*
X0541500Y0694100D01*
X0531500Y0694100D02*
X0531500Y0688500D01*
X0521500Y0688500D02*
X0521500Y0694100D01*
X0511500Y0694100D02*
X0511500Y0688500D01*
X0511500Y0718500D02*
X0511500Y0724100D01*
X0521500Y0724100D02*
X0521500Y0718500D01*
X0531500Y0718500D02*
X0531500Y0724100D01*
X0541500Y0724100D02*
X0541500Y0718500D01*
X0551500Y0718500D02*
X0551500Y0724100D01*
X0561500Y0724100D02*
X0561500Y0718500D01*
X0571500Y0718500D02*
X0571500Y0724100D01*
X0571500Y0694100D02*
X0571500Y0688500D01*
X0561500Y0688500D02*
X0561500Y0694100D01*
X0551500Y0694100D02*
X0551500Y0688500D01*
X0546500Y0639100D02*
X0546500Y0633500D01*
X0556500Y0633500D02*
X0556500Y0639100D01*
X0566500Y0639100D02*
X0566500Y0633500D01*
X0611500Y0599100D02*
X0611500Y0593500D01*
X0621500Y0593500D02*
X0621500Y0599100D01*
X0631500Y0599100D02*
X0631500Y0593500D01*
X0641500Y0593500D02*
X0641500Y0599100D01*
X0651500Y0599100D02*
X0651500Y0593500D01*
X0661500Y0593500D02*
X0661500Y0599100D01*
X0671500Y0599100D02*
X0671500Y0593500D01*
X0671500Y0569100D02*
X0671500Y0563500D01*
X0661500Y0563500D02*
X0661500Y0569100D01*
X0651500Y0569100D02*
X0651500Y0563500D01*
X0641500Y0563500D02*
X0641500Y0569100D01*
X0631500Y0569100D02*
X0631500Y0563500D01*
X0621500Y0563500D02*
X0621500Y0569100D01*
X0611500Y0569100D02*
X0611500Y0563500D01*
X0611500Y0534100D02*
X0611500Y0528500D01*
X0621500Y0528500D02*
X0621500Y0534100D01*
X0631500Y0534100D02*
X0631500Y0528500D01*
X0641500Y0528500D02*
X0641500Y0534100D01*
X0651500Y0534100D02*
X0651500Y0528500D01*
X0661500Y0528500D02*
X0661500Y0534100D01*
X0671500Y0534100D02*
X0671500Y0528500D01*
X0669300Y0466300D02*
X0663700Y0466300D01*
X0663700Y0456300D02*
X0669300Y0456300D01*
X0678700Y0456300D02*
X0684300Y0456300D01*
X0684300Y0446300D02*
X0678700Y0446300D01*
X0669300Y0446300D02*
X0663700Y0446300D01*
X0678700Y0436300D02*
X0684300Y0436300D01*
X0684300Y0426300D02*
X0678700Y0426300D01*
X0669300Y0426300D02*
X0663700Y0426300D01*
X0663700Y0406300D02*
X0669300Y0406300D01*
X0678700Y0406300D02*
X0684300Y0406300D01*
X0708700Y0406300D02*
X0714300Y0406300D01*
X0714300Y0426300D02*
X0708700Y0426300D01*
X0708700Y0446300D02*
X0714300Y0446300D01*
X0714300Y0456300D02*
X0708700Y0456300D01*
X0708700Y0466300D02*
X0714300Y0466300D01*
X0684300Y0466300D02*
X0678700Y0466300D01*
X0639300Y0466300D02*
X0633700Y0466300D01*
X0624300Y0466300D02*
X0618700Y0466300D01*
X0618700Y0456300D02*
X0624300Y0456300D01*
X0633700Y0456300D02*
X0639300Y0456300D01*
X0639300Y0446300D02*
X0633700Y0446300D01*
X0624300Y0446300D02*
X0618700Y0446300D01*
X0633700Y0436300D02*
X0639300Y0436300D01*
X0639300Y0426300D02*
X0633700Y0426300D01*
X0624300Y0426300D02*
X0618700Y0426300D01*
X0618700Y0406300D02*
X0624300Y0406300D01*
X0633700Y0406300D02*
X0639300Y0406300D01*
X0594300Y0406300D02*
X0588700Y0406300D01*
X0579300Y0406300D02*
X0573700Y0406300D01*
X0573700Y0426300D02*
X0579300Y0426300D01*
X0588700Y0426300D02*
X0594300Y0426300D01*
X0594300Y0436300D02*
X0588700Y0436300D01*
X0588700Y0446300D02*
X0594300Y0446300D01*
X0594300Y0456300D02*
X0588700Y0456300D01*
X0579300Y0456300D02*
X0573700Y0456300D01*
X0573700Y0446300D02*
X0579300Y0446300D01*
X0579300Y0466300D02*
X0573700Y0466300D01*
X0588700Y0466300D02*
X0594300Y0466300D01*
X0549300Y0466300D02*
X0543700Y0466300D01*
X0534300Y0466300D02*
X0528700Y0466300D01*
X0528700Y0456300D02*
X0534300Y0456300D01*
X0543700Y0456300D02*
X0549300Y0456300D01*
X0549300Y0446300D02*
X0543700Y0446300D01*
X0534300Y0446300D02*
X0528700Y0446300D01*
X0543700Y0436300D02*
X0549300Y0436300D01*
X0549300Y0426300D02*
X0543700Y0426300D01*
X0534300Y0426300D02*
X0528700Y0426300D01*
X0528700Y0406300D02*
X0534300Y0406300D01*
X0543700Y0406300D02*
X0549300Y0406300D01*
X0504300Y0406300D02*
X0498700Y0406300D01*
X0489300Y0406300D02*
X0483700Y0406300D01*
X0483700Y0426300D02*
X0489300Y0426300D01*
X0498700Y0426300D02*
X0504300Y0426300D01*
X0504300Y0436300D02*
X0498700Y0436300D01*
X0498700Y0446300D02*
X0504300Y0446300D01*
X0504300Y0456300D02*
X0498700Y0456300D01*
X0489300Y0456300D02*
X0483700Y0456300D01*
X0483700Y0446300D02*
X0489300Y0446300D01*
X0489300Y0466300D02*
X0483700Y0466300D01*
X0498700Y0466300D02*
X0504300Y0466300D01*
X0459300Y0466300D02*
X0453700Y0466300D01*
X0453700Y0456300D02*
X0459300Y0456300D01*
X0459300Y0446300D02*
X0453700Y0446300D01*
X0444300Y0446300D02*
X0438700Y0446300D01*
X0438700Y0456300D02*
X0444300Y0456300D01*
X0444300Y0466300D02*
X0438700Y0466300D01*
X0414300Y0466300D02*
X0408700Y0466300D01*
X0399300Y0466300D02*
X0393700Y0466300D01*
X0393700Y0456300D02*
X0399300Y0456300D01*
X0408700Y0456300D02*
X0414300Y0456300D01*
X0414300Y0446300D02*
X0408700Y0446300D01*
X0399300Y0446300D02*
X0393700Y0446300D01*
X0408700Y0436300D02*
X0414300Y0436300D01*
X0414300Y0426300D02*
X0408700Y0426300D01*
X0399300Y0426300D02*
X0393700Y0426300D01*
X0393700Y0406300D02*
X0399300Y0406300D01*
X0408700Y0406300D02*
X0414300Y0406300D01*
X0438700Y0406300D02*
X0444300Y0406300D01*
X0453700Y0406300D02*
X0459300Y0406300D01*
X0459300Y0426300D02*
X0453700Y0426300D01*
X0453700Y0436300D02*
X0459300Y0436300D01*
X0444300Y0426300D02*
X0438700Y0426300D01*
X0369300Y0426300D02*
X0363700Y0426300D01*
X0363700Y0436300D02*
X0369300Y0436300D01*
X0369300Y0446300D02*
X0363700Y0446300D01*
X0363700Y0456300D02*
X0369300Y0456300D01*
X0369300Y0466300D02*
X0363700Y0466300D01*
X0363700Y0406300D02*
X0369300Y0406300D01*
X0386500Y0538500D02*
X0386500Y0544100D01*
X0396500Y0544100D02*
X0396500Y0538500D01*
X0406500Y0538500D02*
X0406500Y0544100D01*
X0416500Y0544100D02*
X0416500Y0538500D01*
X0426500Y0538500D02*
X0426500Y0544100D01*
X0436500Y0544100D02*
X0436500Y0538500D01*
X0446500Y0538500D02*
X0446500Y0544100D01*
X0456500Y0544100D02*
X0456500Y0538500D01*
X0466500Y0538500D02*
X0466500Y0544100D01*
X0476500Y0544100D02*
X0476500Y0538500D01*
X0486500Y0538500D02*
X0486500Y0544100D01*
X0496500Y0544100D02*
X0496500Y0538500D01*
X0506500Y0538500D02*
X0506500Y0544100D01*
X0516500Y0544100D02*
X0516500Y0538500D01*
X0526500Y0538500D02*
X0526500Y0544100D01*
X0536500Y0544100D02*
X0536500Y0538500D01*
X0546500Y0538500D02*
X0546500Y0544100D01*
X0556500Y0544100D02*
X0556500Y0538500D01*
X0566500Y0538500D02*
X0566500Y0544100D01*
X0576500Y0544100D02*
X0576500Y0538500D01*
X0703700Y0661300D02*
X0709300Y0661300D01*
X0733700Y0661300D02*
X0739300Y0661300D01*
X0721500Y0708500D02*
X0721500Y0714100D01*
X0711500Y0714100D02*
X0711500Y0708500D01*
X0701500Y0708500D02*
X0701500Y0714100D01*
X0701500Y0738500D02*
X0701500Y0744100D01*
X0711500Y0744100D02*
X0711500Y0738500D01*
X0721500Y0738500D02*
X0721500Y0744100D01*
X0728700Y0341300D02*
X0734300Y0341300D01*
X0734300Y0331300D02*
X0728700Y0331300D01*
X0728700Y0321300D02*
X0734300Y0321300D01*
X0734300Y0311300D02*
X0728700Y0311300D01*
X0728700Y0301300D02*
X0734300Y0301300D01*
X0734300Y0291300D02*
X0728700Y0291300D01*
X0728700Y0281300D02*
X0734300Y0281300D01*
X0734300Y0271300D02*
X0728700Y0271300D01*
X0728700Y0261300D02*
X0734300Y0261300D01*
X0734300Y0201300D02*
X0728700Y0201300D01*
X0728700Y0191300D02*
X0734300Y0191300D01*
X0734300Y0181300D02*
X0728700Y0181300D01*
X0728700Y0171300D02*
X0734300Y0171300D01*
X0734300Y0161300D02*
X0728700Y0161300D01*
X0728700Y0151300D02*
X0734300Y0151300D01*
X0734300Y0141300D02*
X0728700Y0141300D01*
X0728700Y0131300D02*
X0734300Y0131300D01*
X0734300Y0121300D02*
X0728700Y0121300D01*
X0728700Y0076300D02*
X0734300Y0076300D01*
X0734300Y0066300D02*
X0728700Y0066300D01*
X0728700Y0056300D02*
X0734300Y0056300D01*
X0734300Y0046300D02*
X0728700Y0046300D01*
X0728700Y0036300D02*
X0734300Y0036300D01*
X0146500Y0208500D02*
X0146500Y0214100D01*
X0136500Y0214100D02*
X0136500Y0208500D01*
X0126500Y0208500D02*
X0126500Y0214100D01*
X0116500Y0214100D02*
X0116500Y0208500D01*
X0106500Y0208500D02*
X0106500Y0214100D01*
X0096500Y0214100D02*
X0096500Y0208500D01*
X0086500Y0208500D02*
X0086500Y0214100D01*
X0076500Y0214100D02*
X0076500Y0208500D01*
X0076500Y0238500D02*
X0076500Y0244100D01*
X0086500Y0244100D02*
X0086500Y0238500D01*
X0096500Y0238500D02*
X0096500Y0244100D01*
X0106500Y0244100D02*
X0106500Y0238500D01*
X0116500Y0238500D02*
X0116500Y0244100D01*
X0126500Y0244100D02*
X0126500Y0238500D01*
X0136500Y0238500D02*
X0136500Y0244100D01*
X0131500Y0253500D02*
X0131500Y0259100D01*
X0141500Y0259100D02*
X0141500Y0253500D01*
X0151500Y0253500D02*
X0151500Y0259100D01*
X0146500Y0244100D02*
X0146500Y0238500D01*
X0121500Y0253500D02*
X0121500Y0259100D01*
X0111500Y0259100D02*
X0111500Y0253500D01*
X0101500Y0253500D02*
X0101500Y0259100D01*
X0101500Y0368500D02*
X0101500Y0374100D01*
X0111500Y0374100D02*
X0111500Y0368500D01*
X0121500Y0368500D02*
X0121500Y0374100D01*
X0131500Y0374100D02*
X0131500Y0368500D01*
X0141500Y0368500D02*
X0141500Y0374100D01*
X0151500Y0374100D02*
X0151500Y0368500D01*
D15*
X0366500Y0416300D03*
X0396500Y0416300D03*
X0411500Y0416300D03*
X0396500Y0436300D03*
X0441500Y0436300D03*
X0441500Y0416300D03*
X0456500Y0416300D03*
X0486500Y0416300D03*
X0501500Y0416300D03*
X0486500Y0436300D03*
X0531500Y0436300D03*
X0531500Y0416300D03*
X0546500Y0416300D03*
X0576500Y0416300D03*
X0591500Y0416300D03*
X0576500Y0436300D03*
X0621500Y0436300D03*
X0621500Y0416300D03*
X0636500Y0416300D03*
X0666500Y0416300D03*
X0681500Y0416300D03*
X0666500Y0436300D03*
X0711500Y0436300D03*
X0711500Y0416300D03*
X0565510Y0512300D03*
X0555510Y0512300D03*
X0545510Y0512300D03*
X0535510Y0512300D03*
X0525510Y0512300D03*
X0515510Y0512300D03*
X0505510Y0512300D03*
X0495510Y0512300D03*
X0485510Y0512300D03*
X0475510Y0512300D03*
X0465510Y0512300D03*
X0455510Y0512300D03*
X0445510Y0512300D03*
X0435510Y0512300D03*
X0736500Y0695600D03*
X0736500Y0711300D03*
X0736500Y0719200D03*
X0736500Y0727100D03*
D16*
X0733500Y0606300D02*
X0739500Y0606300D01*
X0739500Y0596300D02*
X0733500Y0596300D01*
X0476500Y0688300D02*
X0476500Y0694300D01*
X0466500Y0694300D02*
X0466500Y0688300D01*
X0326500Y0539300D02*
X0326500Y0533300D01*
X0316500Y0533300D02*
X0316500Y0539300D01*
X0306500Y0539300D02*
X0306500Y0533300D01*
X0348500Y0416300D02*
X0354500Y0416300D01*
X0354500Y0406300D02*
X0348500Y0406300D01*
X0076500Y0638300D02*
X0076500Y0644300D01*
X0066500Y0644300D02*
X0066500Y0638300D01*
X0064500Y0601300D02*
X0058500Y0601300D01*
X0058500Y0591300D02*
X0064500Y0591300D01*
X0064500Y0581300D02*
X0058500Y0581300D01*
X0044500Y0581300D02*
X0038500Y0581300D01*
X0038500Y0591300D02*
X0044500Y0591300D01*
X0044500Y0601300D02*
X0038500Y0601300D01*
X0273500Y0761300D02*
X0279500Y0761300D01*
X0279500Y0771300D02*
X0273500Y0771300D01*
D17*
X0341500Y0441300D03*
D18*
X0341500Y0431300D03*
D19*
X0054700Y0621300D02*
X0048300Y0621300D01*
X0048300Y0631300D02*
X0054700Y0631300D01*
X0054700Y0641300D02*
X0048300Y0641300D01*
X0048300Y0651300D02*
X0054700Y0651300D01*
X0054700Y0661300D02*
X0048300Y0661300D01*
X0048300Y0671300D02*
X0054700Y0671300D01*
X0256500Y0783100D02*
X0256500Y0789500D01*
X0266500Y0789500D02*
X0266500Y0783100D01*
X0276500Y0783100D02*
X0276500Y0789500D01*
X0286500Y0789500D02*
X0286500Y0783100D01*
X0296500Y0783100D02*
X0296500Y0789500D01*
X0306500Y0789500D02*
X0306500Y0783100D01*
X0326500Y0783100D02*
X0326500Y0789500D01*
X0336500Y0789500D02*
X0336500Y0783100D01*
X0346500Y0783100D02*
X0346500Y0789500D01*
X0356500Y0789500D02*
X0356500Y0783100D01*
X0366500Y0783100D02*
X0366500Y0789500D01*
X0376500Y0789500D02*
X0376500Y0783100D01*
X0386500Y0783100D02*
X0386500Y0789500D01*
X0396500Y0789500D02*
X0396500Y0783100D01*
X0406500Y0783100D02*
X0406500Y0789500D01*
X0416500Y0789500D02*
X0416500Y0783100D01*
X0426500Y0783100D02*
X0426500Y0789500D01*
X0436500Y0789500D02*
X0436500Y0783100D01*
X0446500Y0783100D02*
X0446500Y0789500D01*
X0456500Y0789500D02*
X0456500Y0783100D01*
X0466500Y0783100D02*
X0466500Y0789500D01*
X0476500Y0789500D02*
X0476500Y0783100D01*
X0486500Y0783100D02*
X0486500Y0789500D01*
X0496500Y0789500D02*
X0496500Y0783100D01*
X0506500Y0783100D02*
X0506500Y0789500D01*
X0516500Y0789500D02*
X0516500Y0783100D01*
X0526500Y0783100D02*
X0526500Y0789500D01*
X0536500Y0789500D02*
X0536500Y0783100D01*
X0546500Y0783100D02*
X0546500Y0789500D01*
X0556500Y0789500D02*
X0556500Y0783100D01*
X0566500Y0783100D02*
X0566500Y0789500D01*
X0576500Y0789500D02*
X0576500Y0783100D01*
X0586500Y0783100D02*
X0586500Y0789500D01*
X0596500Y0789500D02*
X0596500Y0783100D01*
X0606500Y0783100D02*
X0606500Y0789500D01*
X0616500Y0789500D02*
X0616500Y0783100D01*
X0626500Y0783100D02*
X0626500Y0789500D01*
X0636500Y0789500D02*
X0636500Y0783100D01*
X0646500Y0783100D02*
X0646500Y0789500D01*
X0656500Y0789500D02*
X0656500Y0783100D01*
X0666500Y0783100D02*
X0666500Y0789500D01*
X0676500Y0789500D02*
X0676500Y0783100D01*
X0686500Y0783100D02*
X0686500Y0789500D01*
X0696500Y0789500D02*
X0696500Y0783100D01*
X0706500Y0783100D02*
X0706500Y0789500D01*
X0716500Y0789500D02*
X0716500Y0783100D01*
X0709700Y0641300D02*
X0703300Y0641300D01*
X0703300Y0621300D02*
X0709700Y0621300D01*
X0733300Y0621300D02*
X0739700Y0621300D01*
X0739700Y0641300D02*
X0733300Y0641300D01*
X0733300Y0581300D02*
X0739700Y0581300D01*
X0739700Y0561300D02*
X0733300Y0561300D01*
X0709700Y0561300D02*
X0703300Y0561300D01*
X0703300Y0581300D02*
X0709700Y0581300D01*
D20*
X0671500Y0641300D03*
X0661500Y0641300D03*
X0651500Y0641300D03*
X0641500Y0641300D03*
X0641500Y0671300D03*
X0651500Y0671300D03*
X0661500Y0671300D03*
X0671500Y0671300D03*
X0666500Y0691300D03*
X0656500Y0691300D03*
X0646500Y0691300D03*
X0636500Y0691300D03*
X0636500Y0721300D03*
X0646500Y0721300D03*
X0656500Y0721300D03*
X0666500Y0721300D03*
X0476500Y0666300D03*
X0476500Y0636300D03*
X0446500Y0636300D03*
X0446500Y0666300D03*
X0326500Y0511300D03*
X0326500Y0481300D03*
X0296500Y0481300D03*
X0296500Y0511300D03*
D21*
X0276500Y0511300D03*
X0276500Y0501300D03*
X0246500Y0441300D03*
X0236500Y0441300D03*
X0301500Y0351300D03*
X0301500Y0341300D03*
X0301500Y0246300D03*
X0301500Y0236300D03*
X0301500Y0196300D03*
X0301500Y0186300D03*
X0301500Y0146300D03*
X0301500Y0136300D03*
X0301500Y0101300D03*
X0301500Y0091300D03*
X0301500Y0051300D03*
X0301500Y0041300D03*
X0166500Y0231300D03*
X0166500Y0241300D03*
X0181500Y0311300D03*
X0181500Y0321300D03*
X0091500Y0321300D03*
X0091500Y0311300D03*
X0066500Y0241300D03*
X0066500Y0231300D03*
X0086500Y0171300D03*
X0086500Y0161300D03*
X0056500Y0081300D03*
X0056500Y0071300D03*
X0381500Y0486300D03*
X0371600Y0496300D03*
X0391400Y0496300D03*
X0481500Y0531300D03*
X0491500Y0531300D03*
X0606500Y0546300D03*
X0616500Y0546300D03*
X0626500Y0546300D03*
X0636500Y0546300D03*
X0646500Y0546300D03*
X0656500Y0546300D03*
X0666500Y0546300D03*
X0676500Y0546300D03*
X0686500Y0546300D03*
X0696500Y0546300D03*
X0691500Y0571300D03*
X0691500Y0601300D03*
X0671500Y0621300D03*
X0666500Y0631300D03*
X0656500Y0631300D03*
X0641500Y0621300D03*
X0621500Y0646300D03*
X0631500Y0661300D03*
X0631500Y0671300D03*
X0621500Y0676300D03*
X0606500Y0696300D03*
X0596600Y0706300D03*
X0586500Y0691300D03*
X0586500Y0721300D03*
X0616400Y0706300D03*
X0626500Y0711300D03*
X0626500Y0721300D03*
X0636500Y0731300D03*
X0646500Y0731300D03*
X0656500Y0731300D03*
X0666500Y0731300D03*
X0676500Y0721300D03*
X0686500Y0721300D03*
X0711500Y0701300D03*
X0721500Y0701300D03*
X0721500Y0671300D03*
X0711500Y0671300D03*
X0706500Y0651300D03*
X0691500Y0651300D03*
X0691500Y0641300D03*
X0681500Y0661300D03*
X0681500Y0671300D03*
X0676500Y0691300D03*
X0686500Y0691300D03*
X0736500Y0651300D03*
X0721500Y0606300D03*
X0721500Y0596300D03*
X0601500Y0596300D03*
X0601500Y0586300D03*
X0536500Y0656300D03*
X0536500Y0666300D03*
X0501500Y0711300D03*
X0501500Y0721300D03*
X0426500Y0666300D03*
X0426500Y0656300D03*
X0306500Y0766300D03*
X0296500Y0766300D03*
X0286500Y0766300D03*
X0286500Y0776300D03*
X0296500Y0776300D03*
X0306500Y0776300D03*
X0266500Y0776300D03*
X0266500Y0766300D03*
X0286500Y0716300D03*
X0286500Y0706300D03*
X0286500Y0656300D03*
X0286500Y0646300D03*
X0246500Y0656300D03*
X0236500Y0656300D03*
X0221500Y0656300D03*
X0211500Y0656300D03*
X0196500Y0656300D03*
X0186500Y0656300D03*
X0166500Y0676300D03*
X0166500Y0686300D03*
X0181500Y0706300D03*
X0191500Y0706300D03*
X0136500Y0641300D03*
X0116500Y0641300D03*
X0071500Y0631300D03*
X0061500Y0631300D03*
X0061500Y0651300D03*
X0071500Y0651300D03*
X0071500Y0661300D03*
X0071500Y0671300D03*
X0061500Y0671300D03*
X0061500Y0661300D03*
X0146500Y0551300D03*
X0156500Y0551300D03*
X0176500Y0536300D03*
X0186500Y0536300D03*
D22*
X0061500Y0536300D03*
X0061500Y0546300D03*
X0051500Y0546300D03*
X0051500Y0536300D03*
X0051500Y0526300D03*
X0051500Y0516300D03*
X0051500Y0506300D03*
X0061500Y0506300D03*
X0061500Y0516300D03*
X0061500Y0526300D03*
X0061500Y0476300D03*
X0061500Y0466300D03*
X0061500Y0456300D03*
X0061500Y0446300D03*
X0061500Y0436300D03*
X0061500Y0426300D03*
X0061500Y0416300D03*
X0061500Y0406300D03*
X0061500Y0396300D03*
X0061500Y0386300D03*
X0061500Y0376300D03*
X0061500Y0366300D03*
X0051500Y0366300D03*
X0051500Y0376300D03*
X0051500Y0386300D03*
X0051500Y0396300D03*
X0051500Y0406300D03*
X0051500Y0416300D03*
X0051500Y0426300D03*
X0051500Y0436300D03*
X0051500Y0446300D03*
X0051500Y0456300D03*
X0051500Y0466300D03*
X0051500Y0476300D03*
X0366500Y0671300D03*
X0501500Y0626300D03*
X0511500Y0626300D03*
X0666500Y0761300D03*
X0666500Y0771300D03*
X0676500Y0771300D03*
X0676500Y0761300D03*
X0686500Y0761300D03*
X0686500Y0771300D03*
X0696500Y0771300D03*
X0696500Y0761300D03*
X0706500Y0761300D03*
X0706500Y0771300D03*
X0716500Y0771300D03*
X0716500Y0761300D03*
D23*
X0208311Y0755709D03*
X0202839Y0766891D03*
X0197406Y0755709D03*
X0186500Y0755709D03*
X0181067Y0766891D03*
X0191933Y0766891D03*
X0175594Y0755709D03*
X0170161Y0766891D03*
X0166500Y0171300D03*
X0156500Y0171300D03*
X0146500Y0171300D03*
X0136500Y0171300D03*
X0126500Y0171300D03*
X0116500Y0171300D03*
X0106500Y0171300D03*
X0096500Y0171300D03*
X0096500Y0111300D03*
X0106500Y0111300D03*
X0116500Y0111300D03*
X0126500Y0111300D03*
X0136500Y0111300D03*
X0146500Y0111300D03*
X0156500Y0111300D03*
X0166500Y0111300D03*
X0176500Y0111300D03*
X0186500Y0111300D03*
X0196500Y0111300D03*
X0206500Y0111300D03*
X0216500Y0111300D03*
X0226500Y0111300D03*
X0236500Y0111300D03*
X0246500Y0111300D03*
X0246500Y0171300D03*
X0236500Y0171300D03*
X0226500Y0171300D03*
X0216500Y0171300D03*
X0206500Y0171300D03*
X0196500Y0171300D03*
X0186500Y0171300D03*
X0176500Y0171300D03*
D24*
X0096500Y0749095D03*
D25*
X0077602Y0761300D03*
X0096500Y0773111D03*
D26*
X0736500Y0735300D03*
X0736500Y0687300D03*
D27*
X0736500Y0680600D03*
X0736500Y0742000D03*
D28*
X0109900Y0716300D02*
X0103100Y0716300D01*
X0103100Y0706300D02*
X0109900Y0706300D01*
X0109900Y0696300D02*
X0103100Y0696300D01*
D29*
X0047500Y0706300D03*
D30*
X0051500Y0741300D03*
X0136500Y0716300D03*
D31*
X0136500Y0696300D03*
X0051500Y0761300D03*
D32*
X0164689Y0755709D03*
D33*
X0137287Y0761300D03*
X0235713Y0761300D03*
M02*
