%
M48
M72
T01C0.02300
T02C0.03150
T03C0.03200
T04C0.03600
T05C0.04000
T06C0.04400
T07C0.05500
T08C0.05800
T09C0.05906
T10C0.06750
T11C0.09000
T12C0.12500
T13C0.13000
T14C0.15750
%
T01
X64000Y67550
X82750Y73800
X85250Y63800
X84000Y90050
X80250Y93800
X81500Y101300
X69000Y115050
X65250Y130050
X57750Y126300
X46500Y143800
X42750Y153800
X61500Y147550
X72750Y157550
X81500Y143800
X92750Y163800
X121500Y196300
X132750Y222550
X117750Y227550
X157750Y258800
X166500Y282550
X176500Y292550
X194000Y306300
X185250Y326300
X220250Y346300
X231500Y355050
X239000Y347550
X250250Y347550
X270250Y347550
X276500Y358800
X272750Y392550
X292750Y407550
X292750Y420050
X312750Y423800
X320250Y405050
X329000Y398800
X340250Y407550
X352750Y383800
X356500Y375050
X366500Y385050
X381500Y371300
X400250Y367550
X429000Y381300
X435250Y411300
X472750Y425050
X477750Y437550
X480250Y411300
X524000Y450050
X546500Y476300
X550250Y482550
X539000Y486300
X507750Y502550
X505250Y482550
X486500Y506300
X472750Y530050
X456500Y523800
X452750Y530050
X437750Y556300
X425250Y577550
X415250Y580050
X407750Y558800
X395250Y562550
X387750Y552550
X382750Y533800
X362750Y518800
X362750Y493800
X351500Y477550
X337750Y486300
X325250Y473800
X332750Y465050
X336500Y470050
X351500Y450050
X332750Y440050
X306500Y463800
X289000Y450050
X281500Y456300
X252750Y448800
X226500Y443800
X197750Y458800
X190250Y475050
X200250Y491300
X202750Y517550
X230250Y502550
X234000Y512550
X272750Y496300
X306500Y507550
X310250Y517550
X316500Y507550
X351500Y548800
X357750Y571300
X352750Y583800
X345250Y578800
X337750Y580050
X337750Y592550
X345250Y600050
X356500Y612550
X357750Y620050
X367750Y615050
X377750Y608800
X390250Y623800
X397750Y627550
X417750Y650050
X447750Y678800
X440250Y712550
X400250Y703800
X375250Y728800
X371500Y745050
X347750Y752550
X321500Y760050
X291500Y770050
X232750Y736300
X232750Y730050
X205250Y730050
X144000Y691300
X156500Y665050
X186500Y646300
X212750Y650050
X226500Y603800
X197750Y592550
X187750Y596300
X187750Y553800
X176500Y555050
X147750Y543800
X140250Y543800
X119000Y533800
X107750Y536300
X107750Y530050
X97750Y550050
X122750Y577550
X92750Y600050
X175250Y510050
X172750Y493800
X169000Y483800
X156500Y455050
X150250Y452550
X155250Y447550
X140250Y445050
X132750Y455050
X122750Y470050
X115250Y462550
X112750Y473800
X124000Y481300
X132750Y481300
X140250Y477550
X176500Y447550
X180250Y440050
X170250Y413800
X180250Y406300
X185250Y398800
X191500Y398800
X196500Y396300
X201500Y392550
X205250Y382550
X211500Y388800
X220250Y382550
X216500Y400050
X236500Y406300
X256500Y418800
X205250Y363800
X156500Y362550
X149000Y335050
X116500Y352550
X117750Y385050
X102750Y403800
X90250Y410050
X92750Y420050
X89000Y425050
X94000Y445050
X76500Y458800
X84000Y477550
X69000Y492550
X62750Y492550
X57750Y497550
X41500Y491300
X69000Y438800
X69000Y416300
X69000Y406300
X69000Y397550
X75250Y376300
X67750Y371300
X67750Y352550
X70250Y338800
X85250Y298800
X65250Y278800
X81500Y271300
X126500Y275050
X172750Y227550
X177750Y196300
X181500Y191300
X192750Y191300
X200250Y187550
X202750Y195050
X222750Y195050
X247750Y202550
X221500Y228800
X215250Y228800
X244000Y267550
X235250Y282550
X235250Y300050
X270250Y313800
X297750Y312550
X297750Y328800
X320250Y360050
X312750Y363800
X336500Y375050
X375250Y343800
X400250Y336300
X406500Y336300
X381500Y312550
X385250Y308800
X372750Y312550
X362750Y290050
X366500Y286300
X372750Y286300
X380250Y258800
X372750Y255050
X395250Y238800
X372750Y226300
X356500Y210050
X356500Y202550
X352750Y177550
X345250Y178800
X326500Y182550
X294000Y151300
X280250Y165050
X286500Y170050
X252750Y161300
X247750Y147550
X242750Y117550
X241500Y106300
X255250Y106300
X255250Y117550
X265250Y117550
X272750Y125050
X294000Y115050
X260250Y90050
X236500Y60050
X286500Y35050
X326500Y45050
X350250Y33800
X359000Y32550
X366500Y27550
X362750Y10050
X376500Y5050
X385250Y13800
X400250Y32550
X405250Y43800
X362750Y60050
X362750Y86300
X342750Y90050
X345250Y123800
X341500Y132550
X364000Y155050
X400250Y183800
X410250Y187550
X415250Y135050
X449000Y138800
X474000Y157550
X492750Y188800
X492750Y203800
X495250Y226300
X499000Y282550
X510250Y286300
X525250Y293800
X546500Y308800
X507750Y317550
X485250Y315050
X470250Y300050
X430250Y290050
X420250Y293800
X410250Y293800
X342750Y312550
X335250Y328800
X324000Y265050
X342750Y235050
X316500Y230050
X291500Y228800
X289000Y223800
X269000Y248800
X276500Y267550
X286500Y260050
X199000Y155050
X170250Y155050
X152750Y147550
X131500Y147550
X132750Y155050
X151500Y182550
X159000Y196300
X94000Y122550
X105250Y97550
X170250Y35050
X56500Y173800
X49000Y215050
X147750Y388800
X159000Y420050
X155250Y423800
X105250Y502550
X94000Y498800
X260250Y640050
X270250Y647550
X277750Y622550
X287750Y618800
X295250Y611300
X291500Y607550
X285250Y607550
X276500Y607550
X291500Y598800
X291500Y583800
X277750Y572550
X270250Y571300
X266500Y567550
X281500Y557550
X270250Y537550
X305250Y557550
X325250Y590050
X317750Y600050
X325250Y605050
X321500Y608800
X307750Y610050
X321500Y650050
X350250Y647550
X355250Y670050
X336500Y700050
X326500Y700050
X292750Y693800
X377750Y580050
X405250Y530050
X397750Y510050
X412750Y500050
X424000Y517550
X431500Y487550
X465250Y486300
X464000Y475050
X515250Y531300
X525250Y521300
X535250Y552550
X505250Y567550
X481500Y552550
X481500Y586300
X467750Y590050
X455250Y627550
X471500Y645050
X495250Y645050
X532750Y636300
X540250Y640050
X561500Y630050
X575250Y625050
X571500Y648800
X585250Y652550
X617750Y687550
X591500Y695050
X562750Y710050
X582750Y726300
X597750Y745050
X614000Y745050
X580250Y752550
X505250Y716300
X487750Y720050
X491500Y745050
X491500Y760050
X467750Y775050
X464000Y767550
X457750Y763800
X579000Y577550
X567750Y570050
X566500Y521300
X611500Y486300
X636500Y476300
X646500Y476300
X607750Y457550
X582750Y437550
X580250Y397550
X642750Y421300
X659000Y315050
X611500Y232550
X580250Y173800
X565250Y165050
X537750Y158800
X482750Y86300
X466500Y76300
X450250Y71300
X550250Y240050
X517750Y353800
X511500Y361300
X507750Y357550
X495250Y351300
X377750Y421300
X377750Y455050
X616500Y573800
X626500Y560050
X676500Y607550
X687750Y616300
X684000Y620050
X696500Y647550
X666500Y685050
X637750Y651300
X65250Y695050
T02
X366500Y416300
X396500Y416300
X411500Y416300
X396500Y436300
X441500Y436300
X441500Y416300
X456500Y416300
X486500Y416300
X501500Y416300
X486500Y436300
X531500Y436300
X531500Y416300
X546500Y416300
X576500Y416300
X591500Y416300
X576500Y436300
X621500Y436300
X621500Y416300
X636500Y416300
X666500Y416300
X681500Y416300
X666500Y436300
X711500Y436300
X711500Y416300
X565510Y512300
X555510Y512300
X545510Y512300
X535510Y512300
X525510Y512300
X515510Y512300
X505510Y512300
X495510Y512300
X485510Y512300
X475510Y512300
X465510Y512300
X455510Y512300
X445510Y512300
X435510Y512300
X736500Y695600
X736500Y711300
X736500Y719200
X736500Y727100
T03
X721500Y741300
X711500Y741300
X701500Y741300
X686500Y721300
X676500Y721300
X666500Y721300
X666500Y731300
X656500Y731300
X656500Y721300
X646500Y721300
X646500Y731300
X636500Y731300
X636500Y721300
X626500Y721300
X626500Y711300
X616400Y706300
X606500Y696300
X596600Y706300
X586500Y691300
X571500Y691300
X561500Y691300
X551500Y691300
X541500Y691300
X531500Y691300
X521500Y691300
X511500Y691300
X501500Y711300
X501500Y721300
X511500Y721300
X521500Y721300
X531500Y721300
X541500Y721300
X551500Y721300
X561500Y721300
X571500Y721300
X586500Y721300
X621500Y676300
X631500Y671300
X631500Y661300
X641500Y671300
X651500Y671300
X661500Y671300
X671500Y671300
X681500Y671300
X681500Y661300
X691500Y651300
X691500Y641300
X706500Y651300
X706500Y661300
X711500Y671300
X721500Y671300
X736500Y661300
X736500Y651300
X721500Y606300
X721500Y596300
X691500Y601300
X671500Y596300
X661500Y596300
X651500Y596300
X641500Y596300
X631500Y596300
X621500Y596300
X611500Y596300
X601500Y596300
X601500Y586300
X611500Y566300
X621500Y566300
X631500Y566300
X641500Y566300
X651500Y566300
X661500Y566300
X671500Y566300
X666500Y546300
X656500Y546300
X646500Y546300
X636500Y546300
X626500Y546300
X616500Y546300
X606500Y546300
X611500Y531300
X621500Y531300
X631500Y531300
X641500Y531300
X651500Y531300
X661500Y531300
X671500Y531300
X676500Y546300
X686500Y546300
X696500Y546300
X691500Y571300
X671500Y621300
X666500Y631300
X656500Y631300
X651500Y641300
X641500Y641300
X641500Y621300
X661500Y641300
X671500Y641300
X666500Y691300
X656500Y691300
X646500Y691300
X636500Y691300
X606500Y666300
X596500Y666300
X586500Y666300
X576500Y666300
X566500Y666300
X556500Y666300
X546500Y666300
X536500Y666300
X536500Y656300
X546500Y636300
X556500Y636300
X566500Y636300
X576500Y636300
X586500Y636300
X596500Y636300
X606500Y636300
X621500Y646300
X576500Y601300
X566500Y601300
X556500Y601300
X546500Y601300
X536500Y601300
X526500Y601300
X516500Y601300
X506500Y601300
X496500Y601300
X486500Y601300
X476500Y601300
X466500Y601300
X456500Y601300
X446500Y601300
X436500Y601300
X426500Y601300
X416500Y601300
X406500Y601300
X396500Y601300
X386500Y601300
X386500Y631300
X376500Y631300
X366500Y631300
X356500Y631300
X346500Y631300
X336500Y631300
X326500Y631300
X316500Y631300
X306500Y631300
X296500Y631300
X286500Y646300
X286500Y656300
X296500Y661300
X306500Y661300
X316500Y661300
X326500Y661300
X336500Y661300
X346500Y661300
X356500Y661300
X366500Y661300
X376500Y661300
X386500Y661300
X386500Y686300
X376500Y686300
X366500Y686300
X356500Y686300
X346500Y686300
X336500Y686300
X326500Y686300
X316500Y686300
X306500Y686300
X296500Y686300
X286500Y706300
X286500Y716300
X296500Y716300
X306500Y716300
X316500Y716300
X326500Y716300
X336500Y716300
X346500Y716300
X356500Y716300
X366500Y716300
X376500Y716300
X386500Y716300
X426500Y666300
X426500Y656300
X446500Y666300
X446500Y636300
X476500Y636300
X476500Y666300
X501500Y611300
X511500Y611300
X521500Y611300
X531500Y611300
X541500Y611300
X551500Y611300
X546500Y541300
X556500Y541300
X566500Y541300
X576500Y541300
X536500Y541300
X526500Y541300
X516500Y541300
X506500Y541300
X496500Y541300
X486500Y541300
X476500Y541300
X481500Y531300
X491500Y531300
X466500Y541300
X456500Y541300
X446500Y541300
X436500Y541300
X426500Y541300
X416500Y541300
X406500Y541300
X396500Y541300
X386500Y541300
X391400Y496300
X381500Y486300
X371600Y496300
X366500Y466300
X366500Y456300
X366500Y446300
X366500Y436300
X366500Y426300
X366500Y406300
X341500Y431300
X341500Y441300
X326500Y481300
X326500Y511300
X296500Y511300
X276500Y511300
X276500Y501300
X296500Y481300
X261500Y466300
X251500Y466300
X241500Y466300
X231500Y466300
X221500Y466300
X211500Y466300
X201500Y466300
X191500Y466300
X181500Y466300
X171500Y466300
X161500Y466300
X151500Y466300
X141500Y466300
X131500Y466300
X131500Y431300
X141500Y431300
X151500Y431300
X161500Y431300
X171500Y431300
X181500Y431300
X191500Y431300
X201500Y431300
X211500Y431300
X221500Y431300
X231500Y431300
X241500Y431300
X251500Y431300
X246500Y441300
X236500Y441300
X261500Y431300
X271500Y431300
X281500Y431300
X291500Y431300
X291500Y371300
X281500Y371300
X271500Y371300
X261500Y371300
X251500Y371300
X241500Y371300
X231500Y371300
X221500Y371300
X211500Y371300
X201500Y371300
X191500Y371300
X181500Y371300
X171500Y371300
X161500Y371300
X151500Y371300
X141500Y371300
X131500Y371300
X121500Y371300
X111500Y371300
X101500Y371300
X101500Y321300
X111500Y321300
X121500Y321300
X131500Y321300
X141500Y321300
X151500Y321300
X161500Y321300
X181500Y321300
X181500Y311300
X191500Y321300
X201500Y321300
X211500Y321300
X221500Y321300
X231500Y321300
X241500Y321300
X251500Y321300
X261500Y321300
X261500Y291300
X251500Y291300
X241500Y291300
X231500Y291300
X221500Y291300
X211500Y291300
X201500Y291300
X191500Y291300
X161500Y291300
X151500Y291300
X141500Y291300
X131500Y291300
X121500Y291300
X111500Y291300
X101500Y291300
X91500Y311300
X91500Y321300
X101500Y256300
X111500Y256300
X121500Y256300
X131500Y256300
X141500Y256300
X151500Y256300
X146500Y241300
X136500Y241300
X126500Y241300
X116500Y241300
X106500Y241300
X96500Y241300
X86500Y241300
X76500Y241300
X66500Y241300
X66500Y231300
X76500Y211300
X86500Y211300
X96500Y211300
X106500Y211300
X116500Y211300
X126500Y211300
X136500Y211300
X146500Y211300
X166500Y231300
X166500Y241300
X176500Y241300
X186500Y241300
X196500Y241300
X206500Y241300
X216500Y241300
X226500Y241300
X236500Y241300
X246500Y241300
X241500Y256300
X231500Y256300
X221500Y256300
X211500Y256300
X201500Y256300
X196500Y211300
X186500Y211300
X176500Y211300
X206500Y211300
X216500Y211300
X226500Y211300
X236500Y211300
X246500Y211300
X251500Y256300
X301500Y246300
X301500Y236300
X311500Y246300
X321500Y246300
X331500Y246300
X341500Y246300
X351500Y246300
X361500Y246300
X371500Y246300
X381500Y246300
X391500Y246300
X401500Y246300
X401500Y271300
X391500Y271300
X381500Y271300
X371500Y271300
X361500Y271300
X351500Y271300
X341500Y271300
X331500Y271300
X331500Y301300
X341500Y301300
X351500Y301300
X361500Y301300
X371500Y301300
X381500Y301300
X391500Y301300
X401500Y301300
X401500Y321300
X391500Y321300
X381500Y321300
X371500Y321300
X361500Y321300
X351500Y321300
X341500Y321300
X331500Y321300
X321500Y321300
X311500Y321300
X301500Y341300
X301500Y351300
X311500Y351300
X321500Y351300
X331500Y351300
X341500Y351300
X351500Y351300
X361500Y351300
X371500Y351300
X381500Y351300
X391500Y351300
X401500Y351300
X396500Y406300
X411500Y406300
X411500Y426300
X411500Y436300
X411500Y446300
X411500Y456300
X411500Y466300
X396500Y466300
X396500Y456300
X396500Y446300
X396500Y426300
X441500Y426300
X456500Y426300
X456500Y436300
X456500Y446300
X456500Y456300
X456500Y466300
X441500Y466300
X441500Y456300
X441500Y446300
X441500Y406300
X456500Y406300
X486500Y406300
X501500Y406300
X501500Y426300
X501500Y436300
X501500Y446300
X501500Y456300
X501500Y466300
X486500Y466300
X486500Y456300
X486500Y446300
X486500Y426300
X531500Y426300
X546500Y426300
X546500Y436300
X546500Y446300
X546500Y456300
X546500Y466300
X531500Y466300
X531500Y456300
X531500Y446300
X531500Y406300
X546500Y406300
X576500Y406300
X591500Y406300
X591500Y426300
X591500Y436300
X591500Y446300
X591500Y456300
X591500Y466300
X576500Y466300
X576500Y456300
X576500Y446300
X576500Y426300
X621500Y426300
X636500Y426300
X636500Y436300
X636500Y446300
X636500Y456300
X636500Y466300
X621500Y466300
X621500Y456300
X621500Y446300
X621500Y406300
X636500Y406300
X666500Y406300
X681500Y406300
X681500Y426300
X681500Y436300
X681500Y446300
X681500Y456300
X681500Y466300
X666500Y466300
X666500Y456300
X666500Y446300
X666500Y426300
X711500Y426300
X711500Y406300
X711500Y446300
X711500Y456300
X711500Y466300
X731500Y341300
X731500Y331300
X731500Y321300
X731500Y311300
X731500Y301300
X731500Y291300
X731500Y281300
X731500Y271300
X731500Y261300
X731500Y201300
X731500Y191300
X731500Y181300
X731500Y171300
X731500Y161300
X731500Y151300
X731500Y141300
X731500Y131300
X731500Y121300
X731500Y76300
X731500Y66300
X731500Y56300
X731500Y46300
X731500Y36300
X401500Y21300
X391500Y21300
X381500Y21300
X371500Y21300
X361500Y21300
X351500Y21300
X341500Y21300
X331500Y21300
X321500Y21300
X311500Y21300
X301500Y41300
X301500Y51300
X311500Y51300
X321500Y51300
X331500Y51300
X341500Y51300
X351500Y51300
X361500Y51300
X371500Y51300
X381500Y51300
X391500Y51300
X401500Y51300
X401500Y71300
X391500Y71300
X381500Y71300
X371500Y71300
X361500Y71300
X351500Y71300
X341500Y71300
X331500Y71300
X321500Y71300
X311500Y71300
X301500Y91300
X301500Y101300
X311500Y101300
X321500Y101300
X331500Y101300
X341500Y101300
X351500Y101300
X361500Y101300
X371500Y101300
X381500Y101300
X391500Y101300
X401500Y101300
X401500Y116300
X391500Y116300
X381500Y116300
X371500Y116300
X361500Y116300
X351500Y116300
X341500Y116300
X331500Y116300
X321500Y116300
X311500Y116300
X301500Y136300
X301500Y146300
X311500Y146300
X321500Y146300
X331500Y146300
X341500Y146300
X351500Y146300
X361500Y146300
X371500Y146300
X381500Y146300
X391500Y146300
X401500Y146300
X401500Y166300
X391500Y166300
X381500Y166300
X371500Y166300
X361500Y166300
X351500Y166300
X341500Y166300
X331500Y166300
X321500Y166300
X311500Y166300
X301500Y186300
X301500Y196300
X311500Y196300
X321500Y196300
X331500Y196300
X341500Y196300
X351500Y196300
X361500Y196300
X371500Y196300
X381500Y196300
X391500Y196300
X401500Y196300
X401500Y216300
X391500Y216300
X381500Y216300
X371500Y216300
X361500Y216300
X351500Y216300
X341500Y216300
X331500Y216300
X321500Y216300
X311500Y216300
X281500Y81300
X271500Y81300
X261500Y81300
X251500Y81300
X251500Y51300
X251500Y41300
X241500Y41300
X261500Y41300
X261500Y51300
X271500Y51300
X271500Y41300
X281500Y41300
X281500Y51300
X216500Y21300
X206500Y21300
X196500Y21300
X186500Y21300
X176500Y21300
X166500Y21300
X156500Y21300
X146500Y21300
X136500Y21300
X126500Y21300
X116500Y21300
X106500Y21300
X96500Y21300
X86500Y21300
X76500Y21300
X66500Y21300
X56500Y71300
X56500Y81300
X66500Y81300
X76500Y81300
X86500Y81300
X96500Y81300
X106500Y81300
X116500Y81300
X126500Y81300
X136500Y81300
X146500Y81300
X156500Y81300
X166500Y81300
X176500Y81300
X186500Y81300
X196500Y81300
X206500Y81300
X216500Y81300
X86500Y161300
X86500Y171300
X101500Y431300
X111500Y431300
X121500Y431300
X131500Y526300
X141500Y526300
X151500Y526300
X161500Y526300
X171500Y526300
X181500Y526300
X191500Y526300
X201500Y526300
X211500Y526300
X221500Y526300
X231500Y526300
X241500Y526300
X251500Y526300
X261500Y526300
X261500Y561300
X271500Y561300
X251500Y561300
X241500Y561300
X231500Y561300
X221500Y561300
X211500Y561300
X201500Y561300
X191500Y561300
X181500Y561300
X171500Y561300
X161500Y561300
X151500Y561300
X141500Y561300
X131500Y561300
X121500Y561300
X111500Y561300
X101500Y561300
X91500Y561300
X81500Y561300
X81500Y621300
X91500Y621300
X101500Y621300
X111500Y621300
X121500Y621300
X131500Y621300
X141500Y621300
X151500Y621300
X161500Y621300
X171500Y621300
X181500Y621300
X191500Y621300
X201500Y621300
X211500Y621300
X221500Y621300
X231500Y621300
X241500Y621300
X251500Y621300
X261500Y621300
X271500Y621300
X246500Y656300
X241500Y666300
X231500Y666300
X236500Y656300
X221500Y656300
X221500Y666300
X211500Y666300
X211500Y656300
X201500Y666300
X196500Y656300
X186500Y656300
X181500Y666300
X191500Y666300
X166500Y676300
X166500Y686300
X181500Y696300
X181500Y706300
X191500Y706300
X191500Y696300
X201500Y696300
X211500Y696300
X221500Y696300
X231500Y696300
X241500Y696300
X251500Y696300
X251500Y666300
X266500Y766300
X266500Y776300
X286500Y776300
X296500Y776300
X306500Y776300
X306500Y766300
X296500Y766300
X286500Y766300
X136500Y641300
X116500Y641300
X71500Y631300
X61500Y631300
X61500Y651300
X71500Y651300
X71500Y661300
X71500Y671300
X61500Y671300
X61500Y661300
X146500Y551300
X156500Y551300
X176500Y536300
X186500Y536300
X676500Y691300
X686500Y691300
X701500Y711300
X711500Y711300
X711500Y701300
X721500Y701300
X721500Y711300
T04
X736500Y606300
X736500Y596300
X476500Y691300
X466500Y691300
X326500Y536300
X316500Y536300
X306500Y536300
X351500Y416300
X351500Y406300
X76500Y641300
X66500Y641300
X61500Y601300
X61500Y591300
X61500Y581300
X41500Y581300
X41500Y591300
X41500Y601300
X276500Y761300
X276500Y771300
T05
X276500Y786300
X286500Y786300
X296500Y786300
X306500Y786300
X326500Y786300
X336500Y786300
X346500Y786300
X356500Y786300
X366500Y786300
X376500Y786300
X386500Y786300
X396500Y786300
X406500Y786300
X416500Y786300
X426500Y786300
X436500Y786300
X446500Y786300
X456500Y786300
X466500Y786300
X476500Y786300
X486500Y786300
X496500Y786300
X506500Y786300
X516500Y786300
X526500Y786300
X536500Y786300
X546500Y786300
X556500Y786300
X566500Y786300
X576500Y786300
X586500Y786300
X596500Y786300
X606500Y786300
X616500Y786300
X626500Y786300
X636500Y786300
X646500Y786300
X656500Y786300
X666500Y786300
X676500Y786300
X686500Y786300
X696500Y786300
X706500Y786300
X716500Y786300
X716500Y771300
X716500Y761300
X706500Y761300
X706500Y771300
X696500Y771300
X696500Y761300
X686500Y761300
X686500Y771300
X676500Y771300
X676500Y761300
X666500Y761300
X666500Y771300
X706500Y641300
X706500Y621300
X736500Y621300
X736500Y641300
X736500Y581300
X736500Y561300
X706500Y561300
X706500Y581300
X511500Y626300
X501500Y626300
X366500Y671300
X266500Y786300
X256500Y786300
X208311Y755709
X202839Y766891
X197406Y755709
X186500Y755709
X181067Y766891
X191933Y766891
X175594Y755709
X164689Y755709
X170161Y766891
X136500Y716300
X136500Y696300
X51500Y671300
X51500Y661300
X51500Y651300
X51500Y641300
X51500Y631300
X51500Y621300
X51500Y546300
X51500Y536300
X51500Y526300
X51500Y516300
X51500Y506300
X61500Y506300
X61500Y516300
X61500Y526300
X61500Y536300
X61500Y546300
X61500Y476300
X61500Y466300
X61500Y456300
X61500Y446300
X61500Y436300
X61500Y426300
X61500Y416300
X61500Y406300
X61500Y396300
X61500Y386300
X61500Y376300
X61500Y366300
X51500Y366300
X51500Y376300
X51500Y386300
X51500Y396300
X51500Y406300
X51500Y416300
X51500Y426300
X51500Y436300
X51500Y446300
X51500Y456300
X51500Y466300
X51500Y476300
X51500Y741300
X51500Y761300
X96500Y171300
X106500Y171300
X116500Y171300
X126500Y171300
X136500Y171300
X146500Y171300
X156500Y171300
X166500Y171300
X176500Y171300
X186500Y171300
X196500Y171300
X206500Y171300
X216500Y171300
X226500Y171300
X236500Y171300
X246500Y171300
X246500Y111300
X236500Y111300
X226500Y111300
X216500Y111300
X206500Y111300
X196500Y111300
X186500Y111300
X176500Y111300
X166500Y111300
X156500Y111300
X146500Y111300
X136500Y111300
X126500Y111300
X116500Y111300
X106500Y111300
X96500Y111300
T06
X106500Y696300
X106500Y706300
X106500Y716300
T07
X736500Y742000
X736500Y680600
T08
X736500Y687300
X736500Y735300
T09
X701500Y331300
X676500Y321300
X626500Y331300
X601500Y321300
X551500Y331300
X526500Y321300
X476500Y331300
X451500Y321300
X476500Y256300
X451500Y246300
X476500Y181300
X451500Y171300
X476500Y106300
X451500Y96300
X471500Y61300
X446500Y51300
X521500Y51300
X546500Y61300
X526500Y96300
X551500Y106300
X596500Y51300
X621500Y61300
X601500Y96300
X626500Y106300
X671500Y51300
X696500Y61300
X676500Y96300
X701500Y106300
X676500Y171300
X701500Y181300
X676500Y246300
X701500Y256300
X626500Y256300
X601500Y246300
X551500Y256300
X526500Y246300
X551500Y181300
X526500Y171300
X601500Y171300
X626500Y181300
T10
X631500Y191300
X666500Y191300
X706500Y191300
X706500Y116300
X666500Y116300
X631500Y116300
X591500Y116300
X556500Y116300
X516500Y116300
X481500Y116300
X441500Y116300
X441500Y41300
X481500Y41300
X516500Y41300
X556500Y41300
X591500Y41300
X631500Y41300
X666500Y41300
X706500Y41300
X591500Y191300
X556500Y191300
X516500Y191300
X481500Y191300
X441500Y191300
X441500Y266300
X481500Y266300
X516500Y266300
X556500Y266300
X591500Y266300
X631500Y266300
X666500Y266300
X706500Y266300
X706500Y341300
X666500Y341300
X631500Y341300
X591500Y341300
X556500Y341300
X516500Y341300
X481500Y341300
X441500Y341300
T11
X77602Y761300
X96500Y773111
T12
X41500Y16300
X41500Y336300
X413870Y390300
X416500Y366300
X413870Y512300
X709130Y512300
X709130Y390300
X736500Y366300
X736500Y16300
X416500Y16300
X96500Y749095
X41500Y786300
X736500Y786300
T13
X235713Y761300
X137287Y761300
X47500Y706300
T14
X461500Y341300
X461500Y266300
X461500Y191300
X461500Y116300
X461500Y41300
X536500Y41300
X536500Y116300
X536500Y191300
X536500Y266300
X536500Y341300
X611500Y341300
X611500Y266300
X611500Y191300
X611500Y116300
X611500Y41300
X686500Y41300
X686500Y116300
X686500Y191300
X686500Y266300
X686500Y341300
M30
