G75*
%MOIN*%
%OFA0B0*%
%FSLAX25Y25*%
%IPPOS*%
%LPD*%
%AMOC8*
5,1,8,0,0,1.08239X$1,22.5*
%
%ADD10C,0.00000*%
D10*
X0026500Y0001300D02*
X0026500Y0801300D01*
X0751500Y0801300D01*
X0751500Y0001300D01*
X0026500Y0001300D01*
X0035250Y0016300D02*
X0035252Y0016458D01*
X0035258Y0016615D01*
X0035268Y0016773D01*
X0035282Y0016930D01*
X0035300Y0017086D01*
X0035321Y0017243D01*
X0035347Y0017398D01*
X0035377Y0017553D01*
X0035410Y0017707D01*
X0035448Y0017860D01*
X0035489Y0018013D01*
X0035534Y0018164D01*
X0035583Y0018314D01*
X0035636Y0018462D01*
X0035692Y0018610D01*
X0035753Y0018755D01*
X0035816Y0018900D01*
X0035884Y0019042D01*
X0035955Y0019183D01*
X0036029Y0019322D01*
X0036107Y0019459D01*
X0036189Y0019594D01*
X0036273Y0019727D01*
X0036362Y0019858D01*
X0036453Y0019986D01*
X0036548Y0020113D01*
X0036645Y0020236D01*
X0036746Y0020358D01*
X0036850Y0020476D01*
X0036957Y0020592D01*
X0037067Y0020705D01*
X0037179Y0020816D01*
X0037295Y0020923D01*
X0037413Y0021028D01*
X0037533Y0021130D01*
X0037656Y0021228D01*
X0037782Y0021324D01*
X0037910Y0021416D01*
X0038040Y0021505D01*
X0038172Y0021591D01*
X0038307Y0021673D01*
X0038444Y0021752D01*
X0038582Y0021827D01*
X0038722Y0021899D01*
X0038865Y0021967D01*
X0039008Y0022032D01*
X0039154Y0022093D01*
X0039301Y0022150D01*
X0039449Y0022204D01*
X0039599Y0022254D01*
X0039749Y0022300D01*
X0039901Y0022342D01*
X0040054Y0022381D01*
X0040208Y0022415D01*
X0040363Y0022446D01*
X0040518Y0022472D01*
X0040674Y0022495D01*
X0040831Y0022514D01*
X0040988Y0022529D01*
X0041145Y0022540D01*
X0041303Y0022547D01*
X0041461Y0022550D01*
X0041618Y0022549D01*
X0041776Y0022544D01*
X0041933Y0022535D01*
X0042091Y0022522D01*
X0042247Y0022505D01*
X0042404Y0022484D01*
X0042559Y0022460D01*
X0042714Y0022431D01*
X0042869Y0022398D01*
X0043022Y0022362D01*
X0043175Y0022321D01*
X0043326Y0022277D01*
X0043476Y0022229D01*
X0043625Y0022178D01*
X0043773Y0022122D01*
X0043919Y0022063D01*
X0044064Y0022000D01*
X0044207Y0021933D01*
X0044348Y0021863D01*
X0044487Y0021790D01*
X0044625Y0021713D01*
X0044761Y0021632D01*
X0044894Y0021548D01*
X0045025Y0021461D01*
X0045154Y0021370D01*
X0045281Y0021276D01*
X0045406Y0021179D01*
X0045527Y0021079D01*
X0045647Y0020976D01*
X0045763Y0020870D01*
X0045877Y0020761D01*
X0045989Y0020649D01*
X0046097Y0020535D01*
X0046202Y0020417D01*
X0046305Y0020297D01*
X0046404Y0020175D01*
X0046500Y0020050D01*
X0046593Y0019922D01*
X0046683Y0019793D01*
X0046769Y0019661D01*
X0046853Y0019527D01*
X0046932Y0019391D01*
X0047009Y0019253D01*
X0047081Y0019113D01*
X0047150Y0018971D01*
X0047216Y0018828D01*
X0047278Y0018683D01*
X0047336Y0018536D01*
X0047391Y0018388D01*
X0047442Y0018239D01*
X0047489Y0018088D01*
X0047532Y0017937D01*
X0047571Y0017784D01*
X0047607Y0017630D01*
X0047638Y0017476D01*
X0047666Y0017321D01*
X0047690Y0017165D01*
X0047710Y0017008D01*
X0047726Y0016851D01*
X0047738Y0016694D01*
X0047746Y0016537D01*
X0047750Y0016379D01*
X0047750Y0016221D01*
X0047746Y0016063D01*
X0047738Y0015906D01*
X0047726Y0015749D01*
X0047710Y0015592D01*
X0047690Y0015435D01*
X0047666Y0015279D01*
X0047638Y0015124D01*
X0047607Y0014970D01*
X0047571Y0014816D01*
X0047532Y0014663D01*
X0047489Y0014512D01*
X0047442Y0014361D01*
X0047391Y0014212D01*
X0047336Y0014064D01*
X0047278Y0013917D01*
X0047216Y0013772D01*
X0047150Y0013629D01*
X0047081Y0013487D01*
X0047009Y0013347D01*
X0046932Y0013209D01*
X0046853Y0013073D01*
X0046769Y0012939D01*
X0046683Y0012807D01*
X0046593Y0012678D01*
X0046500Y0012550D01*
X0046404Y0012425D01*
X0046305Y0012303D01*
X0046202Y0012183D01*
X0046097Y0012065D01*
X0045989Y0011951D01*
X0045877Y0011839D01*
X0045763Y0011730D01*
X0045647Y0011624D01*
X0045527Y0011521D01*
X0045406Y0011421D01*
X0045281Y0011324D01*
X0045154Y0011230D01*
X0045025Y0011139D01*
X0044894Y0011052D01*
X0044761Y0010968D01*
X0044625Y0010887D01*
X0044487Y0010810D01*
X0044348Y0010737D01*
X0044207Y0010667D01*
X0044064Y0010600D01*
X0043919Y0010537D01*
X0043773Y0010478D01*
X0043625Y0010422D01*
X0043476Y0010371D01*
X0043326Y0010323D01*
X0043175Y0010279D01*
X0043022Y0010238D01*
X0042869Y0010202D01*
X0042714Y0010169D01*
X0042559Y0010140D01*
X0042404Y0010116D01*
X0042247Y0010095D01*
X0042091Y0010078D01*
X0041933Y0010065D01*
X0041776Y0010056D01*
X0041618Y0010051D01*
X0041461Y0010050D01*
X0041303Y0010053D01*
X0041145Y0010060D01*
X0040988Y0010071D01*
X0040831Y0010086D01*
X0040674Y0010105D01*
X0040518Y0010128D01*
X0040363Y0010154D01*
X0040208Y0010185D01*
X0040054Y0010219D01*
X0039901Y0010258D01*
X0039749Y0010300D01*
X0039599Y0010346D01*
X0039449Y0010396D01*
X0039301Y0010450D01*
X0039154Y0010507D01*
X0039008Y0010568D01*
X0038865Y0010633D01*
X0038722Y0010701D01*
X0038582Y0010773D01*
X0038444Y0010848D01*
X0038307Y0010927D01*
X0038172Y0011009D01*
X0038040Y0011095D01*
X0037910Y0011184D01*
X0037782Y0011276D01*
X0037656Y0011372D01*
X0037533Y0011470D01*
X0037413Y0011572D01*
X0037295Y0011677D01*
X0037179Y0011784D01*
X0037067Y0011895D01*
X0036957Y0012008D01*
X0036850Y0012124D01*
X0036746Y0012242D01*
X0036645Y0012364D01*
X0036548Y0012487D01*
X0036453Y0012614D01*
X0036362Y0012742D01*
X0036273Y0012873D01*
X0036189Y0013006D01*
X0036107Y0013141D01*
X0036029Y0013278D01*
X0035955Y0013417D01*
X0035884Y0013558D01*
X0035816Y0013700D01*
X0035753Y0013845D01*
X0035692Y0013990D01*
X0035636Y0014138D01*
X0035583Y0014286D01*
X0035534Y0014436D01*
X0035489Y0014587D01*
X0035448Y0014740D01*
X0035410Y0014893D01*
X0035377Y0015047D01*
X0035347Y0015202D01*
X0035321Y0015357D01*
X0035300Y0015514D01*
X0035282Y0015670D01*
X0035268Y0015827D01*
X0035258Y0015985D01*
X0035252Y0016142D01*
X0035250Y0016300D01*
X0035250Y0336300D02*
X0035252Y0336458D01*
X0035258Y0336615D01*
X0035268Y0336773D01*
X0035282Y0336930D01*
X0035300Y0337086D01*
X0035321Y0337243D01*
X0035347Y0337398D01*
X0035377Y0337553D01*
X0035410Y0337707D01*
X0035448Y0337860D01*
X0035489Y0338013D01*
X0035534Y0338164D01*
X0035583Y0338314D01*
X0035636Y0338462D01*
X0035692Y0338610D01*
X0035753Y0338755D01*
X0035816Y0338900D01*
X0035884Y0339042D01*
X0035955Y0339183D01*
X0036029Y0339322D01*
X0036107Y0339459D01*
X0036189Y0339594D01*
X0036273Y0339727D01*
X0036362Y0339858D01*
X0036453Y0339986D01*
X0036548Y0340113D01*
X0036645Y0340236D01*
X0036746Y0340358D01*
X0036850Y0340476D01*
X0036957Y0340592D01*
X0037067Y0340705D01*
X0037179Y0340816D01*
X0037295Y0340923D01*
X0037413Y0341028D01*
X0037533Y0341130D01*
X0037656Y0341228D01*
X0037782Y0341324D01*
X0037910Y0341416D01*
X0038040Y0341505D01*
X0038172Y0341591D01*
X0038307Y0341673D01*
X0038444Y0341752D01*
X0038582Y0341827D01*
X0038722Y0341899D01*
X0038865Y0341967D01*
X0039008Y0342032D01*
X0039154Y0342093D01*
X0039301Y0342150D01*
X0039449Y0342204D01*
X0039599Y0342254D01*
X0039749Y0342300D01*
X0039901Y0342342D01*
X0040054Y0342381D01*
X0040208Y0342415D01*
X0040363Y0342446D01*
X0040518Y0342472D01*
X0040674Y0342495D01*
X0040831Y0342514D01*
X0040988Y0342529D01*
X0041145Y0342540D01*
X0041303Y0342547D01*
X0041461Y0342550D01*
X0041618Y0342549D01*
X0041776Y0342544D01*
X0041933Y0342535D01*
X0042091Y0342522D01*
X0042247Y0342505D01*
X0042404Y0342484D01*
X0042559Y0342460D01*
X0042714Y0342431D01*
X0042869Y0342398D01*
X0043022Y0342362D01*
X0043175Y0342321D01*
X0043326Y0342277D01*
X0043476Y0342229D01*
X0043625Y0342178D01*
X0043773Y0342122D01*
X0043919Y0342063D01*
X0044064Y0342000D01*
X0044207Y0341933D01*
X0044348Y0341863D01*
X0044487Y0341790D01*
X0044625Y0341713D01*
X0044761Y0341632D01*
X0044894Y0341548D01*
X0045025Y0341461D01*
X0045154Y0341370D01*
X0045281Y0341276D01*
X0045406Y0341179D01*
X0045527Y0341079D01*
X0045647Y0340976D01*
X0045763Y0340870D01*
X0045877Y0340761D01*
X0045989Y0340649D01*
X0046097Y0340535D01*
X0046202Y0340417D01*
X0046305Y0340297D01*
X0046404Y0340175D01*
X0046500Y0340050D01*
X0046593Y0339922D01*
X0046683Y0339793D01*
X0046769Y0339661D01*
X0046853Y0339527D01*
X0046932Y0339391D01*
X0047009Y0339253D01*
X0047081Y0339113D01*
X0047150Y0338971D01*
X0047216Y0338828D01*
X0047278Y0338683D01*
X0047336Y0338536D01*
X0047391Y0338388D01*
X0047442Y0338239D01*
X0047489Y0338088D01*
X0047532Y0337937D01*
X0047571Y0337784D01*
X0047607Y0337630D01*
X0047638Y0337476D01*
X0047666Y0337321D01*
X0047690Y0337165D01*
X0047710Y0337008D01*
X0047726Y0336851D01*
X0047738Y0336694D01*
X0047746Y0336537D01*
X0047750Y0336379D01*
X0047750Y0336221D01*
X0047746Y0336063D01*
X0047738Y0335906D01*
X0047726Y0335749D01*
X0047710Y0335592D01*
X0047690Y0335435D01*
X0047666Y0335279D01*
X0047638Y0335124D01*
X0047607Y0334970D01*
X0047571Y0334816D01*
X0047532Y0334663D01*
X0047489Y0334512D01*
X0047442Y0334361D01*
X0047391Y0334212D01*
X0047336Y0334064D01*
X0047278Y0333917D01*
X0047216Y0333772D01*
X0047150Y0333629D01*
X0047081Y0333487D01*
X0047009Y0333347D01*
X0046932Y0333209D01*
X0046853Y0333073D01*
X0046769Y0332939D01*
X0046683Y0332807D01*
X0046593Y0332678D01*
X0046500Y0332550D01*
X0046404Y0332425D01*
X0046305Y0332303D01*
X0046202Y0332183D01*
X0046097Y0332065D01*
X0045989Y0331951D01*
X0045877Y0331839D01*
X0045763Y0331730D01*
X0045647Y0331624D01*
X0045527Y0331521D01*
X0045406Y0331421D01*
X0045281Y0331324D01*
X0045154Y0331230D01*
X0045025Y0331139D01*
X0044894Y0331052D01*
X0044761Y0330968D01*
X0044625Y0330887D01*
X0044487Y0330810D01*
X0044348Y0330737D01*
X0044207Y0330667D01*
X0044064Y0330600D01*
X0043919Y0330537D01*
X0043773Y0330478D01*
X0043625Y0330422D01*
X0043476Y0330371D01*
X0043326Y0330323D01*
X0043175Y0330279D01*
X0043022Y0330238D01*
X0042869Y0330202D01*
X0042714Y0330169D01*
X0042559Y0330140D01*
X0042404Y0330116D01*
X0042247Y0330095D01*
X0042091Y0330078D01*
X0041933Y0330065D01*
X0041776Y0330056D01*
X0041618Y0330051D01*
X0041461Y0330050D01*
X0041303Y0330053D01*
X0041145Y0330060D01*
X0040988Y0330071D01*
X0040831Y0330086D01*
X0040674Y0330105D01*
X0040518Y0330128D01*
X0040363Y0330154D01*
X0040208Y0330185D01*
X0040054Y0330219D01*
X0039901Y0330258D01*
X0039749Y0330300D01*
X0039599Y0330346D01*
X0039449Y0330396D01*
X0039301Y0330450D01*
X0039154Y0330507D01*
X0039008Y0330568D01*
X0038865Y0330633D01*
X0038722Y0330701D01*
X0038582Y0330773D01*
X0038444Y0330848D01*
X0038307Y0330927D01*
X0038172Y0331009D01*
X0038040Y0331095D01*
X0037910Y0331184D01*
X0037782Y0331276D01*
X0037656Y0331372D01*
X0037533Y0331470D01*
X0037413Y0331572D01*
X0037295Y0331677D01*
X0037179Y0331784D01*
X0037067Y0331895D01*
X0036957Y0332008D01*
X0036850Y0332124D01*
X0036746Y0332242D01*
X0036645Y0332364D01*
X0036548Y0332487D01*
X0036453Y0332614D01*
X0036362Y0332742D01*
X0036273Y0332873D01*
X0036189Y0333006D01*
X0036107Y0333141D01*
X0036029Y0333278D01*
X0035955Y0333417D01*
X0035884Y0333558D01*
X0035816Y0333700D01*
X0035753Y0333845D01*
X0035692Y0333990D01*
X0035636Y0334138D01*
X0035583Y0334286D01*
X0035534Y0334436D01*
X0035489Y0334587D01*
X0035448Y0334740D01*
X0035410Y0334893D01*
X0035377Y0335047D01*
X0035347Y0335202D01*
X0035321Y0335357D01*
X0035300Y0335514D01*
X0035282Y0335670D01*
X0035268Y0335827D01*
X0035258Y0335985D01*
X0035252Y0336142D01*
X0035250Y0336300D01*
X0041000Y0706300D02*
X0041002Y0706461D01*
X0041008Y0706621D01*
X0041018Y0706782D01*
X0041032Y0706942D01*
X0041050Y0707102D01*
X0041071Y0707261D01*
X0041097Y0707420D01*
X0041127Y0707578D01*
X0041160Y0707735D01*
X0041198Y0707892D01*
X0041239Y0708047D01*
X0041284Y0708201D01*
X0041333Y0708354D01*
X0041386Y0708506D01*
X0041442Y0708657D01*
X0041503Y0708806D01*
X0041566Y0708954D01*
X0041634Y0709100D01*
X0041705Y0709244D01*
X0041779Y0709386D01*
X0041857Y0709527D01*
X0041939Y0709665D01*
X0042024Y0709802D01*
X0042112Y0709936D01*
X0042204Y0710068D01*
X0042299Y0710198D01*
X0042397Y0710326D01*
X0042498Y0710451D01*
X0042602Y0710573D01*
X0042709Y0710693D01*
X0042819Y0710810D01*
X0042932Y0710925D01*
X0043048Y0711036D01*
X0043167Y0711145D01*
X0043288Y0711250D01*
X0043412Y0711353D01*
X0043538Y0711453D01*
X0043666Y0711549D01*
X0043797Y0711642D01*
X0043931Y0711732D01*
X0044066Y0711819D01*
X0044204Y0711902D01*
X0044343Y0711982D01*
X0044485Y0712058D01*
X0044628Y0712131D01*
X0044773Y0712200D01*
X0044920Y0712266D01*
X0045068Y0712328D01*
X0045218Y0712386D01*
X0045369Y0712441D01*
X0045522Y0712492D01*
X0045676Y0712539D01*
X0045831Y0712582D01*
X0045987Y0712621D01*
X0046143Y0712657D01*
X0046301Y0712688D01*
X0046459Y0712716D01*
X0046618Y0712740D01*
X0046778Y0712760D01*
X0046938Y0712776D01*
X0047098Y0712788D01*
X0047259Y0712796D01*
X0047420Y0712800D01*
X0047580Y0712800D01*
X0047741Y0712796D01*
X0047902Y0712788D01*
X0048062Y0712776D01*
X0048222Y0712760D01*
X0048382Y0712740D01*
X0048541Y0712716D01*
X0048699Y0712688D01*
X0048857Y0712657D01*
X0049013Y0712621D01*
X0049169Y0712582D01*
X0049324Y0712539D01*
X0049478Y0712492D01*
X0049631Y0712441D01*
X0049782Y0712386D01*
X0049932Y0712328D01*
X0050080Y0712266D01*
X0050227Y0712200D01*
X0050372Y0712131D01*
X0050515Y0712058D01*
X0050657Y0711982D01*
X0050796Y0711902D01*
X0050934Y0711819D01*
X0051069Y0711732D01*
X0051203Y0711642D01*
X0051334Y0711549D01*
X0051462Y0711453D01*
X0051588Y0711353D01*
X0051712Y0711250D01*
X0051833Y0711145D01*
X0051952Y0711036D01*
X0052068Y0710925D01*
X0052181Y0710810D01*
X0052291Y0710693D01*
X0052398Y0710573D01*
X0052502Y0710451D01*
X0052603Y0710326D01*
X0052701Y0710198D01*
X0052796Y0710068D01*
X0052888Y0709936D01*
X0052976Y0709802D01*
X0053061Y0709665D01*
X0053143Y0709527D01*
X0053221Y0709386D01*
X0053295Y0709244D01*
X0053366Y0709100D01*
X0053434Y0708954D01*
X0053497Y0708806D01*
X0053558Y0708657D01*
X0053614Y0708506D01*
X0053667Y0708354D01*
X0053716Y0708201D01*
X0053761Y0708047D01*
X0053802Y0707892D01*
X0053840Y0707735D01*
X0053873Y0707578D01*
X0053903Y0707420D01*
X0053929Y0707261D01*
X0053950Y0707102D01*
X0053968Y0706942D01*
X0053982Y0706782D01*
X0053992Y0706621D01*
X0053998Y0706461D01*
X0054000Y0706300D01*
X0053998Y0706139D01*
X0053992Y0705979D01*
X0053982Y0705818D01*
X0053968Y0705658D01*
X0053950Y0705498D01*
X0053929Y0705339D01*
X0053903Y0705180D01*
X0053873Y0705022D01*
X0053840Y0704865D01*
X0053802Y0704708D01*
X0053761Y0704553D01*
X0053716Y0704399D01*
X0053667Y0704246D01*
X0053614Y0704094D01*
X0053558Y0703943D01*
X0053497Y0703794D01*
X0053434Y0703646D01*
X0053366Y0703500D01*
X0053295Y0703356D01*
X0053221Y0703214D01*
X0053143Y0703073D01*
X0053061Y0702935D01*
X0052976Y0702798D01*
X0052888Y0702664D01*
X0052796Y0702532D01*
X0052701Y0702402D01*
X0052603Y0702274D01*
X0052502Y0702149D01*
X0052398Y0702027D01*
X0052291Y0701907D01*
X0052181Y0701790D01*
X0052068Y0701675D01*
X0051952Y0701564D01*
X0051833Y0701455D01*
X0051712Y0701350D01*
X0051588Y0701247D01*
X0051462Y0701147D01*
X0051334Y0701051D01*
X0051203Y0700958D01*
X0051069Y0700868D01*
X0050934Y0700781D01*
X0050796Y0700698D01*
X0050657Y0700618D01*
X0050515Y0700542D01*
X0050372Y0700469D01*
X0050227Y0700400D01*
X0050080Y0700334D01*
X0049932Y0700272D01*
X0049782Y0700214D01*
X0049631Y0700159D01*
X0049478Y0700108D01*
X0049324Y0700061D01*
X0049169Y0700018D01*
X0049013Y0699979D01*
X0048857Y0699943D01*
X0048699Y0699912D01*
X0048541Y0699884D01*
X0048382Y0699860D01*
X0048222Y0699840D01*
X0048062Y0699824D01*
X0047902Y0699812D01*
X0047741Y0699804D01*
X0047580Y0699800D01*
X0047420Y0699800D01*
X0047259Y0699804D01*
X0047098Y0699812D01*
X0046938Y0699824D01*
X0046778Y0699840D01*
X0046618Y0699860D01*
X0046459Y0699884D01*
X0046301Y0699912D01*
X0046143Y0699943D01*
X0045987Y0699979D01*
X0045831Y0700018D01*
X0045676Y0700061D01*
X0045522Y0700108D01*
X0045369Y0700159D01*
X0045218Y0700214D01*
X0045068Y0700272D01*
X0044920Y0700334D01*
X0044773Y0700400D01*
X0044628Y0700469D01*
X0044485Y0700542D01*
X0044343Y0700618D01*
X0044204Y0700698D01*
X0044066Y0700781D01*
X0043931Y0700868D01*
X0043797Y0700958D01*
X0043666Y0701051D01*
X0043538Y0701147D01*
X0043412Y0701247D01*
X0043288Y0701350D01*
X0043167Y0701455D01*
X0043048Y0701564D01*
X0042932Y0701675D01*
X0042819Y0701790D01*
X0042709Y0701907D01*
X0042602Y0702027D01*
X0042498Y0702149D01*
X0042397Y0702274D01*
X0042299Y0702402D01*
X0042204Y0702532D01*
X0042112Y0702664D01*
X0042024Y0702798D01*
X0041939Y0702935D01*
X0041857Y0703073D01*
X0041779Y0703214D01*
X0041705Y0703356D01*
X0041634Y0703500D01*
X0041566Y0703646D01*
X0041503Y0703794D01*
X0041442Y0703943D01*
X0041386Y0704094D01*
X0041333Y0704246D01*
X0041284Y0704399D01*
X0041239Y0704553D01*
X0041198Y0704708D01*
X0041160Y0704865D01*
X0041127Y0705022D01*
X0041097Y0705180D01*
X0041071Y0705339D01*
X0041050Y0705498D01*
X0041032Y0705658D01*
X0041018Y0705818D01*
X0041008Y0705979D01*
X0041002Y0706139D01*
X0041000Y0706300D01*
X0035250Y0786300D02*
X0035252Y0786458D01*
X0035258Y0786615D01*
X0035268Y0786773D01*
X0035282Y0786930D01*
X0035300Y0787086D01*
X0035321Y0787243D01*
X0035347Y0787398D01*
X0035377Y0787553D01*
X0035410Y0787707D01*
X0035448Y0787860D01*
X0035489Y0788013D01*
X0035534Y0788164D01*
X0035583Y0788314D01*
X0035636Y0788462D01*
X0035692Y0788610D01*
X0035753Y0788755D01*
X0035816Y0788900D01*
X0035884Y0789042D01*
X0035955Y0789183D01*
X0036029Y0789322D01*
X0036107Y0789459D01*
X0036189Y0789594D01*
X0036273Y0789727D01*
X0036362Y0789858D01*
X0036453Y0789986D01*
X0036548Y0790113D01*
X0036645Y0790236D01*
X0036746Y0790358D01*
X0036850Y0790476D01*
X0036957Y0790592D01*
X0037067Y0790705D01*
X0037179Y0790816D01*
X0037295Y0790923D01*
X0037413Y0791028D01*
X0037533Y0791130D01*
X0037656Y0791228D01*
X0037782Y0791324D01*
X0037910Y0791416D01*
X0038040Y0791505D01*
X0038172Y0791591D01*
X0038307Y0791673D01*
X0038444Y0791752D01*
X0038582Y0791827D01*
X0038722Y0791899D01*
X0038865Y0791967D01*
X0039008Y0792032D01*
X0039154Y0792093D01*
X0039301Y0792150D01*
X0039449Y0792204D01*
X0039599Y0792254D01*
X0039749Y0792300D01*
X0039901Y0792342D01*
X0040054Y0792381D01*
X0040208Y0792415D01*
X0040363Y0792446D01*
X0040518Y0792472D01*
X0040674Y0792495D01*
X0040831Y0792514D01*
X0040988Y0792529D01*
X0041145Y0792540D01*
X0041303Y0792547D01*
X0041461Y0792550D01*
X0041618Y0792549D01*
X0041776Y0792544D01*
X0041933Y0792535D01*
X0042091Y0792522D01*
X0042247Y0792505D01*
X0042404Y0792484D01*
X0042559Y0792460D01*
X0042714Y0792431D01*
X0042869Y0792398D01*
X0043022Y0792362D01*
X0043175Y0792321D01*
X0043326Y0792277D01*
X0043476Y0792229D01*
X0043625Y0792178D01*
X0043773Y0792122D01*
X0043919Y0792063D01*
X0044064Y0792000D01*
X0044207Y0791933D01*
X0044348Y0791863D01*
X0044487Y0791790D01*
X0044625Y0791713D01*
X0044761Y0791632D01*
X0044894Y0791548D01*
X0045025Y0791461D01*
X0045154Y0791370D01*
X0045281Y0791276D01*
X0045406Y0791179D01*
X0045527Y0791079D01*
X0045647Y0790976D01*
X0045763Y0790870D01*
X0045877Y0790761D01*
X0045989Y0790649D01*
X0046097Y0790535D01*
X0046202Y0790417D01*
X0046305Y0790297D01*
X0046404Y0790175D01*
X0046500Y0790050D01*
X0046593Y0789922D01*
X0046683Y0789793D01*
X0046769Y0789661D01*
X0046853Y0789527D01*
X0046932Y0789391D01*
X0047009Y0789253D01*
X0047081Y0789113D01*
X0047150Y0788971D01*
X0047216Y0788828D01*
X0047278Y0788683D01*
X0047336Y0788536D01*
X0047391Y0788388D01*
X0047442Y0788239D01*
X0047489Y0788088D01*
X0047532Y0787937D01*
X0047571Y0787784D01*
X0047607Y0787630D01*
X0047638Y0787476D01*
X0047666Y0787321D01*
X0047690Y0787165D01*
X0047710Y0787008D01*
X0047726Y0786851D01*
X0047738Y0786694D01*
X0047746Y0786537D01*
X0047750Y0786379D01*
X0047750Y0786221D01*
X0047746Y0786063D01*
X0047738Y0785906D01*
X0047726Y0785749D01*
X0047710Y0785592D01*
X0047690Y0785435D01*
X0047666Y0785279D01*
X0047638Y0785124D01*
X0047607Y0784970D01*
X0047571Y0784816D01*
X0047532Y0784663D01*
X0047489Y0784512D01*
X0047442Y0784361D01*
X0047391Y0784212D01*
X0047336Y0784064D01*
X0047278Y0783917D01*
X0047216Y0783772D01*
X0047150Y0783629D01*
X0047081Y0783487D01*
X0047009Y0783347D01*
X0046932Y0783209D01*
X0046853Y0783073D01*
X0046769Y0782939D01*
X0046683Y0782807D01*
X0046593Y0782678D01*
X0046500Y0782550D01*
X0046404Y0782425D01*
X0046305Y0782303D01*
X0046202Y0782183D01*
X0046097Y0782065D01*
X0045989Y0781951D01*
X0045877Y0781839D01*
X0045763Y0781730D01*
X0045647Y0781624D01*
X0045527Y0781521D01*
X0045406Y0781421D01*
X0045281Y0781324D01*
X0045154Y0781230D01*
X0045025Y0781139D01*
X0044894Y0781052D01*
X0044761Y0780968D01*
X0044625Y0780887D01*
X0044487Y0780810D01*
X0044348Y0780737D01*
X0044207Y0780667D01*
X0044064Y0780600D01*
X0043919Y0780537D01*
X0043773Y0780478D01*
X0043625Y0780422D01*
X0043476Y0780371D01*
X0043326Y0780323D01*
X0043175Y0780279D01*
X0043022Y0780238D01*
X0042869Y0780202D01*
X0042714Y0780169D01*
X0042559Y0780140D01*
X0042404Y0780116D01*
X0042247Y0780095D01*
X0042091Y0780078D01*
X0041933Y0780065D01*
X0041776Y0780056D01*
X0041618Y0780051D01*
X0041461Y0780050D01*
X0041303Y0780053D01*
X0041145Y0780060D01*
X0040988Y0780071D01*
X0040831Y0780086D01*
X0040674Y0780105D01*
X0040518Y0780128D01*
X0040363Y0780154D01*
X0040208Y0780185D01*
X0040054Y0780219D01*
X0039901Y0780258D01*
X0039749Y0780300D01*
X0039599Y0780346D01*
X0039449Y0780396D01*
X0039301Y0780450D01*
X0039154Y0780507D01*
X0039008Y0780568D01*
X0038865Y0780633D01*
X0038722Y0780701D01*
X0038582Y0780773D01*
X0038444Y0780848D01*
X0038307Y0780927D01*
X0038172Y0781009D01*
X0038040Y0781095D01*
X0037910Y0781184D01*
X0037782Y0781276D01*
X0037656Y0781372D01*
X0037533Y0781470D01*
X0037413Y0781572D01*
X0037295Y0781677D01*
X0037179Y0781784D01*
X0037067Y0781895D01*
X0036957Y0782008D01*
X0036850Y0782124D01*
X0036746Y0782242D01*
X0036645Y0782364D01*
X0036548Y0782487D01*
X0036453Y0782614D01*
X0036362Y0782742D01*
X0036273Y0782873D01*
X0036189Y0783006D01*
X0036107Y0783141D01*
X0036029Y0783278D01*
X0035955Y0783417D01*
X0035884Y0783558D01*
X0035816Y0783700D01*
X0035753Y0783845D01*
X0035692Y0783990D01*
X0035636Y0784138D01*
X0035583Y0784286D01*
X0035534Y0784436D01*
X0035489Y0784587D01*
X0035448Y0784740D01*
X0035410Y0784893D01*
X0035377Y0785047D01*
X0035347Y0785202D01*
X0035321Y0785357D01*
X0035300Y0785514D01*
X0035282Y0785670D01*
X0035268Y0785827D01*
X0035258Y0785985D01*
X0035252Y0786142D01*
X0035250Y0786300D01*
X0407620Y0512300D02*
X0407622Y0512458D01*
X0407628Y0512615D01*
X0407638Y0512773D01*
X0407652Y0512930D01*
X0407670Y0513086D01*
X0407691Y0513243D01*
X0407717Y0513398D01*
X0407747Y0513553D01*
X0407780Y0513707D01*
X0407818Y0513860D01*
X0407859Y0514013D01*
X0407904Y0514164D01*
X0407953Y0514314D01*
X0408006Y0514462D01*
X0408062Y0514610D01*
X0408123Y0514755D01*
X0408186Y0514900D01*
X0408254Y0515042D01*
X0408325Y0515183D01*
X0408399Y0515322D01*
X0408477Y0515459D01*
X0408559Y0515594D01*
X0408643Y0515727D01*
X0408732Y0515858D01*
X0408823Y0515986D01*
X0408918Y0516113D01*
X0409015Y0516236D01*
X0409116Y0516358D01*
X0409220Y0516476D01*
X0409327Y0516592D01*
X0409437Y0516705D01*
X0409549Y0516816D01*
X0409665Y0516923D01*
X0409783Y0517028D01*
X0409903Y0517130D01*
X0410026Y0517228D01*
X0410152Y0517324D01*
X0410280Y0517416D01*
X0410410Y0517505D01*
X0410542Y0517591D01*
X0410677Y0517673D01*
X0410814Y0517752D01*
X0410952Y0517827D01*
X0411092Y0517899D01*
X0411235Y0517967D01*
X0411378Y0518032D01*
X0411524Y0518093D01*
X0411671Y0518150D01*
X0411819Y0518204D01*
X0411969Y0518254D01*
X0412119Y0518300D01*
X0412271Y0518342D01*
X0412424Y0518381D01*
X0412578Y0518415D01*
X0412733Y0518446D01*
X0412888Y0518472D01*
X0413044Y0518495D01*
X0413201Y0518514D01*
X0413358Y0518529D01*
X0413515Y0518540D01*
X0413673Y0518547D01*
X0413831Y0518550D01*
X0413988Y0518549D01*
X0414146Y0518544D01*
X0414303Y0518535D01*
X0414461Y0518522D01*
X0414617Y0518505D01*
X0414774Y0518484D01*
X0414929Y0518460D01*
X0415084Y0518431D01*
X0415239Y0518398D01*
X0415392Y0518362D01*
X0415545Y0518321D01*
X0415696Y0518277D01*
X0415846Y0518229D01*
X0415995Y0518178D01*
X0416143Y0518122D01*
X0416289Y0518063D01*
X0416434Y0518000D01*
X0416577Y0517933D01*
X0416718Y0517863D01*
X0416857Y0517790D01*
X0416995Y0517713D01*
X0417131Y0517632D01*
X0417264Y0517548D01*
X0417395Y0517461D01*
X0417524Y0517370D01*
X0417651Y0517276D01*
X0417776Y0517179D01*
X0417897Y0517079D01*
X0418017Y0516976D01*
X0418133Y0516870D01*
X0418247Y0516761D01*
X0418359Y0516649D01*
X0418467Y0516535D01*
X0418572Y0516417D01*
X0418675Y0516297D01*
X0418774Y0516175D01*
X0418870Y0516050D01*
X0418963Y0515922D01*
X0419053Y0515793D01*
X0419139Y0515661D01*
X0419223Y0515527D01*
X0419302Y0515391D01*
X0419379Y0515253D01*
X0419451Y0515113D01*
X0419520Y0514971D01*
X0419586Y0514828D01*
X0419648Y0514683D01*
X0419706Y0514536D01*
X0419761Y0514388D01*
X0419812Y0514239D01*
X0419859Y0514088D01*
X0419902Y0513937D01*
X0419941Y0513784D01*
X0419977Y0513630D01*
X0420008Y0513476D01*
X0420036Y0513321D01*
X0420060Y0513165D01*
X0420080Y0513008D01*
X0420096Y0512851D01*
X0420108Y0512694D01*
X0420116Y0512537D01*
X0420120Y0512379D01*
X0420120Y0512221D01*
X0420116Y0512063D01*
X0420108Y0511906D01*
X0420096Y0511749D01*
X0420080Y0511592D01*
X0420060Y0511435D01*
X0420036Y0511279D01*
X0420008Y0511124D01*
X0419977Y0510970D01*
X0419941Y0510816D01*
X0419902Y0510663D01*
X0419859Y0510512D01*
X0419812Y0510361D01*
X0419761Y0510212D01*
X0419706Y0510064D01*
X0419648Y0509917D01*
X0419586Y0509772D01*
X0419520Y0509629D01*
X0419451Y0509487D01*
X0419379Y0509347D01*
X0419302Y0509209D01*
X0419223Y0509073D01*
X0419139Y0508939D01*
X0419053Y0508807D01*
X0418963Y0508678D01*
X0418870Y0508550D01*
X0418774Y0508425D01*
X0418675Y0508303D01*
X0418572Y0508183D01*
X0418467Y0508065D01*
X0418359Y0507951D01*
X0418247Y0507839D01*
X0418133Y0507730D01*
X0418017Y0507624D01*
X0417897Y0507521D01*
X0417776Y0507421D01*
X0417651Y0507324D01*
X0417524Y0507230D01*
X0417395Y0507139D01*
X0417264Y0507052D01*
X0417131Y0506968D01*
X0416995Y0506887D01*
X0416857Y0506810D01*
X0416718Y0506737D01*
X0416577Y0506667D01*
X0416434Y0506600D01*
X0416289Y0506537D01*
X0416143Y0506478D01*
X0415995Y0506422D01*
X0415846Y0506371D01*
X0415696Y0506323D01*
X0415545Y0506279D01*
X0415392Y0506238D01*
X0415239Y0506202D01*
X0415084Y0506169D01*
X0414929Y0506140D01*
X0414774Y0506116D01*
X0414617Y0506095D01*
X0414461Y0506078D01*
X0414303Y0506065D01*
X0414146Y0506056D01*
X0413988Y0506051D01*
X0413831Y0506050D01*
X0413673Y0506053D01*
X0413515Y0506060D01*
X0413358Y0506071D01*
X0413201Y0506086D01*
X0413044Y0506105D01*
X0412888Y0506128D01*
X0412733Y0506154D01*
X0412578Y0506185D01*
X0412424Y0506219D01*
X0412271Y0506258D01*
X0412119Y0506300D01*
X0411969Y0506346D01*
X0411819Y0506396D01*
X0411671Y0506450D01*
X0411524Y0506507D01*
X0411378Y0506568D01*
X0411235Y0506633D01*
X0411092Y0506701D01*
X0410952Y0506773D01*
X0410814Y0506848D01*
X0410677Y0506927D01*
X0410542Y0507009D01*
X0410410Y0507095D01*
X0410280Y0507184D01*
X0410152Y0507276D01*
X0410026Y0507372D01*
X0409903Y0507470D01*
X0409783Y0507572D01*
X0409665Y0507677D01*
X0409549Y0507784D01*
X0409437Y0507895D01*
X0409327Y0508008D01*
X0409220Y0508124D01*
X0409116Y0508242D01*
X0409015Y0508364D01*
X0408918Y0508487D01*
X0408823Y0508614D01*
X0408732Y0508742D01*
X0408643Y0508873D01*
X0408559Y0509006D01*
X0408477Y0509141D01*
X0408399Y0509278D01*
X0408325Y0509417D01*
X0408254Y0509558D01*
X0408186Y0509700D01*
X0408123Y0509845D01*
X0408062Y0509990D01*
X0408006Y0510138D01*
X0407953Y0510286D01*
X0407904Y0510436D01*
X0407859Y0510587D01*
X0407818Y0510740D01*
X0407780Y0510893D01*
X0407747Y0511047D01*
X0407717Y0511202D01*
X0407691Y0511357D01*
X0407670Y0511514D01*
X0407652Y0511670D01*
X0407638Y0511827D01*
X0407628Y0511985D01*
X0407622Y0512142D01*
X0407620Y0512300D01*
X0407620Y0390300D02*
X0407622Y0390458D01*
X0407628Y0390615D01*
X0407638Y0390773D01*
X0407652Y0390930D01*
X0407670Y0391086D01*
X0407691Y0391243D01*
X0407717Y0391398D01*
X0407747Y0391553D01*
X0407780Y0391707D01*
X0407818Y0391860D01*
X0407859Y0392013D01*
X0407904Y0392164D01*
X0407953Y0392314D01*
X0408006Y0392462D01*
X0408062Y0392610D01*
X0408123Y0392755D01*
X0408186Y0392900D01*
X0408254Y0393042D01*
X0408325Y0393183D01*
X0408399Y0393322D01*
X0408477Y0393459D01*
X0408559Y0393594D01*
X0408643Y0393727D01*
X0408732Y0393858D01*
X0408823Y0393986D01*
X0408918Y0394113D01*
X0409015Y0394236D01*
X0409116Y0394358D01*
X0409220Y0394476D01*
X0409327Y0394592D01*
X0409437Y0394705D01*
X0409549Y0394816D01*
X0409665Y0394923D01*
X0409783Y0395028D01*
X0409903Y0395130D01*
X0410026Y0395228D01*
X0410152Y0395324D01*
X0410280Y0395416D01*
X0410410Y0395505D01*
X0410542Y0395591D01*
X0410677Y0395673D01*
X0410814Y0395752D01*
X0410952Y0395827D01*
X0411092Y0395899D01*
X0411235Y0395967D01*
X0411378Y0396032D01*
X0411524Y0396093D01*
X0411671Y0396150D01*
X0411819Y0396204D01*
X0411969Y0396254D01*
X0412119Y0396300D01*
X0412271Y0396342D01*
X0412424Y0396381D01*
X0412578Y0396415D01*
X0412733Y0396446D01*
X0412888Y0396472D01*
X0413044Y0396495D01*
X0413201Y0396514D01*
X0413358Y0396529D01*
X0413515Y0396540D01*
X0413673Y0396547D01*
X0413831Y0396550D01*
X0413988Y0396549D01*
X0414146Y0396544D01*
X0414303Y0396535D01*
X0414461Y0396522D01*
X0414617Y0396505D01*
X0414774Y0396484D01*
X0414929Y0396460D01*
X0415084Y0396431D01*
X0415239Y0396398D01*
X0415392Y0396362D01*
X0415545Y0396321D01*
X0415696Y0396277D01*
X0415846Y0396229D01*
X0415995Y0396178D01*
X0416143Y0396122D01*
X0416289Y0396063D01*
X0416434Y0396000D01*
X0416577Y0395933D01*
X0416718Y0395863D01*
X0416857Y0395790D01*
X0416995Y0395713D01*
X0417131Y0395632D01*
X0417264Y0395548D01*
X0417395Y0395461D01*
X0417524Y0395370D01*
X0417651Y0395276D01*
X0417776Y0395179D01*
X0417897Y0395079D01*
X0418017Y0394976D01*
X0418133Y0394870D01*
X0418247Y0394761D01*
X0418359Y0394649D01*
X0418467Y0394535D01*
X0418572Y0394417D01*
X0418675Y0394297D01*
X0418774Y0394175D01*
X0418870Y0394050D01*
X0418963Y0393922D01*
X0419053Y0393793D01*
X0419139Y0393661D01*
X0419223Y0393527D01*
X0419302Y0393391D01*
X0419379Y0393253D01*
X0419451Y0393113D01*
X0419520Y0392971D01*
X0419586Y0392828D01*
X0419648Y0392683D01*
X0419706Y0392536D01*
X0419761Y0392388D01*
X0419812Y0392239D01*
X0419859Y0392088D01*
X0419902Y0391937D01*
X0419941Y0391784D01*
X0419977Y0391630D01*
X0420008Y0391476D01*
X0420036Y0391321D01*
X0420060Y0391165D01*
X0420080Y0391008D01*
X0420096Y0390851D01*
X0420108Y0390694D01*
X0420116Y0390537D01*
X0420120Y0390379D01*
X0420120Y0390221D01*
X0420116Y0390063D01*
X0420108Y0389906D01*
X0420096Y0389749D01*
X0420080Y0389592D01*
X0420060Y0389435D01*
X0420036Y0389279D01*
X0420008Y0389124D01*
X0419977Y0388970D01*
X0419941Y0388816D01*
X0419902Y0388663D01*
X0419859Y0388512D01*
X0419812Y0388361D01*
X0419761Y0388212D01*
X0419706Y0388064D01*
X0419648Y0387917D01*
X0419586Y0387772D01*
X0419520Y0387629D01*
X0419451Y0387487D01*
X0419379Y0387347D01*
X0419302Y0387209D01*
X0419223Y0387073D01*
X0419139Y0386939D01*
X0419053Y0386807D01*
X0418963Y0386678D01*
X0418870Y0386550D01*
X0418774Y0386425D01*
X0418675Y0386303D01*
X0418572Y0386183D01*
X0418467Y0386065D01*
X0418359Y0385951D01*
X0418247Y0385839D01*
X0418133Y0385730D01*
X0418017Y0385624D01*
X0417897Y0385521D01*
X0417776Y0385421D01*
X0417651Y0385324D01*
X0417524Y0385230D01*
X0417395Y0385139D01*
X0417264Y0385052D01*
X0417131Y0384968D01*
X0416995Y0384887D01*
X0416857Y0384810D01*
X0416718Y0384737D01*
X0416577Y0384667D01*
X0416434Y0384600D01*
X0416289Y0384537D01*
X0416143Y0384478D01*
X0415995Y0384422D01*
X0415846Y0384371D01*
X0415696Y0384323D01*
X0415545Y0384279D01*
X0415392Y0384238D01*
X0415239Y0384202D01*
X0415084Y0384169D01*
X0414929Y0384140D01*
X0414774Y0384116D01*
X0414617Y0384095D01*
X0414461Y0384078D01*
X0414303Y0384065D01*
X0414146Y0384056D01*
X0413988Y0384051D01*
X0413831Y0384050D01*
X0413673Y0384053D01*
X0413515Y0384060D01*
X0413358Y0384071D01*
X0413201Y0384086D01*
X0413044Y0384105D01*
X0412888Y0384128D01*
X0412733Y0384154D01*
X0412578Y0384185D01*
X0412424Y0384219D01*
X0412271Y0384258D01*
X0412119Y0384300D01*
X0411969Y0384346D01*
X0411819Y0384396D01*
X0411671Y0384450D01*
X0411524Y0384507D01*
X0411378Y0384568D01*
X0411235Y0384633D01*
X0411092Y0384701D01*
X0410952Y0384773D01*
X0410814Y0384848D01*
X0410677Y0384927D01*
X0410542Y0385009D01*
X0410410Y0385095D01*
X0410280Y0385184D01*
X0410152Y0385276D01*
X0410026Y0385372D01*
X0409903Y0385470D01*
X0409783Y0385572D01*
X0409665Y0385677D01*
X0409549Y0385784D01*
X0409437Y0385895D01*
X0409327Y0386008D01*
X0409220Y0386124D01*
X0409116Y0386242D01*
X0409015Y0386364D01*
X0408918Y0386487D01*
X0408823Y0386614D01*
X0408732Y0386742D01*
X0408643Y0386873D01*
X0408559Y0387006D01*
X0408477Y0387141D01*
X0408399Y0387278D01*
X0408325Y0387417D01*
X0408254Y0387558D01*
X0408186Y0387700D01*
X0408123Y0387845D01*
X0408062Y0387990D01*
X0408006Y0388138D01*
X0407953Y0388286D01*
X0407904Y0388436D01*
X0407859Y0388587D01*
X0407818Y0388740D01*
X0407780Y0388893D01*
X0407747Y0389047D01*
X0407717Y0389202D01*
X0407691Y0389357D01*
X0407670Y0389514D01*
X0407652Y0389670D01*
X0407638Y0389827D01*
X0407628Y0389985D01*
X0407622Y0390142D01*
X0407620Y0390300D01*
X0410250Y0366300D02*
X0410252Y0366458D01*
X0410258Y0366615D01*
X0410268Y0366773D01*
X0410282Y0366930D01*
X0410300Y0367086D01*
X0410321Y0367243D01*
X0410347Y0367398D01*
X0410377Y0367553D01*
X0410410Y0367707D01*
X0410448Y0367860D01*
X0410489Y0368013D01*
X0410534Y0368164D01*
X0410583Y0368314D01*
X0410636Y0368462D01*
X0410692Y0368610D01*
X0410753Y0368755D01*
X0410816Y0368900D01*
X0410884Y0369042D01*
X0410955Y0369183D01*
X0411029Y0369322D01*
X0411107Y0369459D01*
X0411189Y0369594D01*
X0411273Y0369727D01*
X0411362Y0369858D01*
X0411453Y0369986D01*
X0411548Y0370113D01*
X0411645Y0370236D01*
X0411746Y0370358D01*
X0411850Y0370476D01*
X0411957Y0370592D01*
X0412067Y0370705D01*
X0412179Y0370816D01*
X0412295Y0370923D01*
X0412413Y0371028D01*
X0412533Y0371130D01*
X0412656Y0371228D01*
X0412782Y0371324D01*
X0412910Y0371416D01*
X0413040Y0371505D01*
X0413172Y0371591D01*
X0413307Y0371673D01*
X0413444Y0371752D01*
X0413582Y0371827D01*
X0413722Y0371899D01*
X0413865Y0371967D01*
X0414008Y0372032D01*
X0414154Y0372093D01*
X0414301Y0372150D01*
X0414449Y0372204D01*
X0414599Y0372254D01*
X0414749Y0372300D01*
X0414901Y0372342D01*
X0415054Y0372381D01*
X0415208Y0372415D01*
X0415363Y0372446D01*
X0415518Y0372472D01*
X0415674Y0372495D01*
X0415831Y0372514D01*
X0415988Y0372529D01*
X0416145Y0372540D01*
X0416303Y0372547D01*
X0416461Y0372550D01*
X0416618Y0372549D01*
X0416776Y0372544D01*
X0416933Y0372535D01*
X0417091Y0372522D01*
X0417247Y0372505D01*
X0417404Y0372484D01*
X0417559Y0372460D01*
X0417714Y0372431D01*
X0417869Y0372398D01*
X0418022Y0372362D01*
X0418175Y0372321D01*
X0418326Y0372277D01*
X0418476Y0372229D01*
X0418625Y0372178D01*
X0418773Y0372122D01*
X0418919Y0372063D01*
X0419064Y0372000D01*
X0419207Y0371933D01*
X0419348Y0371863D01*
X0419487Y0371790D01*
X0419625Y0371713D01*
X0419761Y0371632D01*
X0419894Y0371548D01*
X0420025Y0371461D01*
X0420154Y0371370D01*
X0420281Y0371276D01*
X0420406Y0371179D01*
X0420527Y0371079D01*
X0420647Y0370976D01*
X0420763Y0370870D01*
X0420877Y0370761D01*
X0420989Y0370649D01*
X0421097Y0370535D01*
X0421202Y0370417D01*
X0421305Y0370297D01*
X0421404Y0370175D01*
X0421500Y0370050D01*
X0421593Y0369922D01*
X0421683Y0369793D01*
X0421769Y0369661D01*
X0421853Y0369527D01*
X0421932Y0369391D01*
X0422009Y0369253D01*
X0422081Y0369113D01*
X0422150Y0368971D01*
X0422216Y0368828D01*
X0422278Y0368683D01*
X0422336Y0368536D01*
X0422391Y0368388D01*
X0422442Y0368239D01*
X0422489Y0368088D01*
X0422532Y0367937D01*
X0422571Y0367784D01*
X0422607Y0367630D01*
X0422638Y0367476D01*
X0422666Y0367321D01*
X0422690Y0367165D01*
X0422710Y0367008D01*
X0422726Y0366851D01*
X0422738Y0366694D01*
X0422746Y0366537D01*
X0422750Y0366379D01*
X0422750Y0366221D01*
X0422746Y0366063D01*
X0422738Y0365906D01*
X0422726Y0365749D01*
X0422710Y0365592D01*
X0422690Y0365435D01*
X0422666Y0365279D01*
X0422638Y0365124D01*
X0422607Y0364970D01*
X0422571Y0364816D01*
X0422532Y0364663D01*
X0422489Y0364512D01*
X0422442Y0364361D01*
X0422391Y0364212D01*
X0422336Y0364064D01*
X0422278Y0363917D01*
X0422216Y0363772D01*
X0422150Y0363629D01*
X0422081Y0363487D01*
X0422009Y0363347D01*
X0421932Y0363209D01*
X0421853Y0363073D01*
X0421769Y0362939D01*
X0421683Y0362807D01*
X0421593Y0362678D01*
X0421500Y0362550D01*
X0421404Y0362425D01*
X0421305Y0362303D01*
X0421202Y0362183D01*
X0421097Y0362065D01*
X0420989Y0361951D01*
X0420877Y0361839D01*
X0420763Y0361730D01*
X0420647Y0361624D01*
X0420527Y0361521D01*
X0420406Y0361421D01*
X0420281Y0361324D01*
X0420154Y0361230D01*
X0420025Y0361139D01*
X0419894Y0361052D01*
X0419761Y0360968D01*
X0419625Y0360887D01*
X0419487Y0360810D01*
X0419348Y0360737D01*
X0419207Y0360667D01*
X0419064Y0360600D01*
X0418919Y0360537D01*
X0418773Y0360478D01*
X0418625Y0360422D01*
X0418476Y0360371D01*
X0418326Y0360323D01*
X0418175Y0360279D01*
X0418022Y0360238D01*
X0417869Y0360202D01*
X0417714Y0360169D01*
X0417559Y0360140D01*
X0417404Y0360116D01*
X0417247Y0360095D01*
X0417091Y0360078D01*
X0416933Y0360065D01*
X0416776Y0360056D01*
X0416618Y0360051D01*
X0416461Y0360050D01*
X0416303Y0360053D01*
X0416145Y0360060D01*
X0415988Y0360071D01*
X0415831Y0360086D01*
X0415674Y0360105D01*
X0415518Y0360128D01*
X0415363Y0360154D01*
X0415208Y0360185D01*
X0415054Y0360219D01*
X0414901Y0360258D01*
X0414749Y0360300D01*
X0414599Y0360346D01*
X0414449Y0360396D01*
X0414301Y0360450D01*
X0414154Y0360507D01*
X0414008Y0360568D01*
X0413865Y0360633D01*
X0413722Y0360701D01*
X0413582Y0360773D01*
X0413444Y0360848D01*
X0413307Y0360927D01*
X0413172Y0361009D01*
X0413040Y0361095D01*
X0412910Y0361184D01*
X0412782Y0361276D01*
X0412656Y0361372D01*
X0412533Y0361470D01*
X0412413Y0361572D01*
X0412295Y0361677D01*
X0412179Y0361784D01*
X0412067Y0361895D01*
X0411957Y0362008D01*
X0411850Y0362124D01*
X0411746Y0362242D01*
X0411645Y0362364D01*
X0411548Y0362487D01*
X0411453Y0362614D01*
X0411362Y0362742D01*
X0411273Y0362873D01*
X0411189Y0363006D01*
X0411107Y0363141D01*
X0411029Y0363278D01*
X0410955Y0363417D01*
X0410884Y0363558D01*
X0410816Y0363700D01*
X0410753Y0363845D01*
X0410692Y0363990D01*
X0410636Y0364138D01*
X0410583Y0364286D01*
X0410534Y0364436D01*
X0410489Y0364587D01*
X0410448Y0364740D01*
X0410410Y0364893D01*
X0410377Y0365047D01*
X0410347Y0365202D01*
X0410321Y0365357D01*
X0410300Y0365514D01*
X0410282Y0365670D01*
X0410268Y0365827D01*
X0410258Y0365985D01*
X0410252Y0366142D01*
X0410250Y0366300D01*
X0453625Y0341300D02*
X0453627Y0341493D01*
X0453634Y0341686D01*
X0453646Y0341879D01*
X0453663Y0342072D01*
X0453684Y0342264D01*
X0453710Y0342456D01*
X0453741Y0342646D01*
X0453776Y0342836D01*
X0453816Y0343025D01*
X0453861Y0343213D01*
X0453910Y0343400D01*
X0453964Y0343586D01*
X0454022Y0343770D01*
X0454085Y0343953D01*
X0454153Y0344134D01*
X0454224Y0344314D01*
X0454301Y0344491D01*
X0454381Y0344667D01*
X0454466Y0344841D01*
X0454555Y0345012D01*
X0454648Y0345182D01*
X0454745Y0345349D01*
X0454847Y0345513D01*
X0454952Y0345675D01*
X0455062Y0345834D01*
X0455175Y0345991D01*
X0455292Y0346145D01*
X0455413Y0346296D01*
X0455537Y0346444D01*
X0455665Y0346589D01*
X0455797Y0346730D01*
X0455932Y0346868D01*
X0456070Y0347003D01*
X0456211Y0347135D01*
X0456356Y0347263D01*
X0456504Y0347387D01*
X0456655Y0347508D01*
X0456809Y0347625D01*
X0456966Y0347738D01*
X0457125Y0347848D01*
X0457287Y0347953D01*
X0457451Y0348055D01*
X0457618Y0348152D01*
X0457788Y0348245D01*
X0457959Y0348334D01*
X0458133Y0348419D01*
X0458309Y0348499D01*
X0458486Y0348576D01*
X0458666Y0348647D01*
X0458847Y0348715D01*
X0459030Y0348778D01*
X0459214Y0348836D01*
X0459400Y0348890D01*
X0459587Y0348939D01*
X0459775Y0348984D01*
X0459964Y0349024D01*
X0460154Y0349059D01*
X0460344Y0349090D01*
X0460536Y0349116D01*
X0460728Y0349137D01*
X0460921Y0349154D01*
X0461114Y0349166D01*
X0461307Y0349173D01*
X0461500Y0349175D01*
X0461693Y0349173D01*
X0461886Y0349166D01*
X0462079Y0349154D01*
X0462272Y0349137D01*
X0462464Y0349116D01*
X0462656Y0349090D01*
X0462846Y0349059D01*
X0463036Y0349024D01*
X0463225Y0348984D01*
X0463413Y0348939D01*
X0463600Y0348890D01*
X0463786Y0348836D01*
X0463970Y0348778D01*
X0464153Y0348715D01*
X0464334Y0348647D01*
X0464514Y0348576D01*
X0464691Y0348499D01*
X0464867Y0348419D01*
X0465041Y0348334D01*
X0465212Y0348245D01*
X0465382Y0348152D01*
X0465549Y0348055D01*
X0465713Y0347953D01*
X0465875Y0347848D01*
X0466034Y0347738D01*
X0466191Y0347625D01*
X0466345Y0347508D01*
X0466496Y0347387D01*
X0466644Y0347263D01*
X0466789Y0347135D01*
X0466930Y0347003D01*
X0467068Y0346868D01*
X0467203Y0346730D01*
X0467335Y0346589D01*
X0467463Y0346444D01*
X0467587Y0346296D01*
X0467708Y0346145D01*
X0467825Y0345991D01*
X0467938Y0345834D01*
X0468048Y0345675D01*
X0468153Y0345513D01*
X0468255Y0345349D01*
X0468352Y0345182D01*
X0468445Y0345012D01*
X0468534Y0344841D01*
X0468619Y0344667D01*
X0468699Y0344491D01*
X0468776Y0344314D01*
X0468847Y0344134D01*
X0468915Y0343953D01*
X0468978Y0343770D01*
X0469036Y0343586D01*
X0469090Y0343400D01*
X0469139Y0343213D01*
X0469184Y0343025D01*
X0469224Y0342836D01*
X0469259Y0342646D01*
X0469290Y0342456D01*
X0469316Y0342264D01*
X0469337Y0342072D01*
X0469354Y0341879D01*
X0469366Y0341686D01*
X0469373Y0341493D01*
X0469375Y0341300D01*
X0469373Y0341107D01*
X0469366Y0340914D01*
X0469354Y0340721D01*
X0469337Y0340528D01*
X0469316Y0340336D01*
X0469290Y0340144D01*
X0469259Y0339954D01*
X0469224Y0339764D01*
X0469184Y0339575D01*
X0469139Y0339387D01*
X0469090Y0339200D01*
X0469036Y0339014D01*
X0468978Y0338830D01*
X0468915Y0338647D01*
X0468847Y0338466D01*
X0468776Y0338286D01*
X0468699Y0338109D01*
X0468619Y0337933D01*
X0468534Y0337759D01*
X0468445Y0337588D01*
X0468352Y0337418D01*
X0468255Y0337251D01*
X0468153Y0337087D01*
X0468048Y0336925D01*
X0467938Y0336766D01*
X0467825Y0336609D01*
X0467708Y0336455D01*
X0467587Y0336304D01*
X0467463Y0336156D01*
X0467335Y0336011D01*
X0467203Y0335870D01*
X0467068Y0335732D01*
X0466930Y0335597D01*
X0466789Y0335465D01*
X0466644Y0335337D01*
X0466496Y0335213D01*
X0466345Y0335092D01*
X0466191Y0334975D01*
X0466034Y0334862D01*
X0465875Y0334752D01*
X0465713Y0334647D01*
X0465549Y0334545D01*
X0465382Y0334448D01*
X0465212Y0334355D01*
X0465041Y0334266D01*
X0464867Y0334181D01*
X0464691Y0334101D01*
X0464514Y0334024D01*
X0464334Y0333953D01*
X0464153Y0333885D01*
X0463970Y0333822D01*
X0463786Y0333764D01*
X0463600Y0333710D01*
X0463413Y0333661D01*
X0463225Y0333616D01*
X0463036Y0333576D01*
X0462846Y0333541D01*
X0462656Y0333510D01*
X0462464Y0333484D01*
X0462272Y0333463D01*
X0462079Y0333446D01*
X0461886Y0333434D01*
X0461693Y0333427D01*
X0461500Y0333425D01*
X0461307Y0333427D01*
X0461114Y0333434D01*
X0460921Y0333446D01*
X0460728Y0333463D01*
X0460536Y0333484D01*
X0460344Y0333510D01*
X0460154Y0333541D01*
X0459964Y0333576D01*
X0459775Y0333616D01*
X0459587Y0333661D01*
X0459400Y0333710D01*
X0459214Y0333764D01*
X0459030Y0333822D01*
X0458847Y0333885D01*
X0458666Y0333953D01*
X0458486Y0334024D01*
X0458309Y0334101D01*
X0458133Y0334181D01*
X0457959Y0334266D01*
X0457788Y0334355D01*
X0457618Y0334448D01*
X0457451Y0334545D01*
X0457287Y0334647D01*
X0457125Y0334752D01*
X0456966Y0334862D01*
X0456809Y0334975D01*
X0456655Y0335092D01*
X0456504Y0335213D01*
X0456356Y0335337D01*
X0456211Y0335465D01*
X0456070Y0335597D01*
X0455932Y0335732D01*
X0455797Y0335870D01*
X0455665Y0336011D01*
X0455537Y0336156D01*
X0455413Y0336304D01*
X0455292Y0336455D01*
X0455175Y0336609D01*
X0455062Y0336766D01*
X0454952Y0336925D01*
X0454847Y0337087D01*
X0454745Y0337251D01*
X0454648Y0337418D01*
X0454555Y0337588D01*
X0454466Y0337759D01*
X0454381Y0337933D01*
X0454301Y0338109D01*
X0454224Y0338286D01*
X0454153Y0338466D01*
X0454085Y0338647D01*
X0454022Y0338830D01*
X0453964Y0339014D01*
X0453910Y0339200D01*
X0453861Y0339387D01*
X0453816Y0339575D01*
X0453776Y0339764D01*
X0453741Y0339954D01*
X0453710Y0340144D01*
X0453684Y0340336D01*
X0453663Y0340528D01*
X0453646Y0340721D01*
X0453634Y0340914D01*
X0453627Y0341107D01*
X0453625Y0341300D01*
X0453625Y0266300D02*
X0453627Y0266493D01*
X0453634Y0266686D01*
X0453646Y0266879D01*
X0453663Y0267072D01*
X0453684Y0267264D01*
X0453710Y0267456D01*
X0453741Y0267646D01*
X0453776Y0267836D01*
X0453816Y0268025D01*
X0453861Y0268213D01*
X0453910Y0268400D01*
X0453964Y0268586D01*
X0454022Y0268770D01*
X0454085Y0268953D01*
X0454153Y0269134D01*
X0454224Y0269314D01*
X0454301Y0269491D01*
X0454381Y0269667D01*
X0454466Y0269841D01*
X0454555Y0270012D01*
X0454648Y0270182D01*
X0454745Y0270349D01*
X0454847Y0270513D01*
X0454952Y0270675D01*
X0455062Y0270834D01*
X0455175Y0270991D01*
X0455292Y0271145D01*
X0455413Y0271296D01*
X0455537Y0271444D01*
X0455665Y0271589D01*
X0455797Y0271730D01*
X0455932Y0271868D01*
X0456070Y0272003D01*
X0456211Y0272135D01*
X0456356Y0272263D01*
X0456504Y0272387D01*
X0456655Y0272508D01*
X0456809Y0272625D01*
X0456966Y0272738D01*
X0457125Y0272848D01*
X0457287Y0272953D01*
X0457451Y0273055D01*
X0457618Y0273152D01*
X0457788Y0273245D01*
X0457959Y0273334D01*
X0458133Y0273419D01*
X0458309Y0273499D01*
X0458486Y0273576D01*
X0458666Y0273647D01*
X0458847Y0273715D01*
X0459030Y0273778D01*
X0459214Y0273836D01*
X0459400Y0273890D01*
X0459587Y0273939D01*
X0459775Y0273984D01*
X0459964Y0274024D01*
X0460154Y0274059D01*
X0460344Y0274090D01*
X0460536Y0274116D01*
X0460728Y0274137D01*
X0460921Y0274154D01*
X0461114Y0274166D01*
X0461307Y0274173D01*
X0461500Y0274175D01*
X0461693Y0274173D01*
X0461886Y0274166D01*
X0462079Y0274154D01*
X0462272Y0274137D01*
X0462464Y0274116D01*
X0462656Y0274090D01*
X0462846Y0274059D01*
X0463036Y0274024D01*
X0463225Y0273984D01*
X0463413Y0273939D01*
X0463600Y0273890D01*
X0463786Y0273836D01*
X0463970Y0273778D01*
X0464153Y0273715D01*
X0464334Y0273647D01*
X0464514Y0273576D01*
X0464691Y0273499D01*
X0464867Y0273419D01*
X0465041Y0273334D01*
X0465212Y0273245D01*
X0465382Y0273152D01*
X0465549Y0273055D01*
X0465713Y0272953D01*
X0465875Y0272848D01*
X0466034Y0272738D01*
X0466191Y0272625D01*
X0466345Y0272508D01*
X0466496Y0272387D01*
X0466644Y0272263D01*
X0466789Y0272135D01*
X0466930Y0272003D01*
X0467068Y0271868D01*
X0467203Y0271730D01*
X0467335Y0271589D01*
X0467463Y0271444D01*
X0467587Y0271296D01*
X0467708Y0271145D01*
X0467825Y0270991D01*
X0467938Y0270834D01*
X0468048Y0270675D01*
X0468153Y0270513D01*
X0468255Y0270349D01*
X0468352Y0270182D01*
X0468445Y0270012D01*
X0468534Y0269841D01*
X0468619Y0269667D01*
X0468699Y0269491D01*
X0468776Y0269314D01*
X0468847Y0269134D01*
X0468915Y0268953D01*
X0468978Y0268770D01*
X0469036Y0268586D01*
X0469090Y0268400D01*
X0469139Y0268213D01*
X0469184Y0268025D01*
X0469224Y0267836D01*
X0469259Y0267646D01*
X0469290Y0267456D01*
X0469316Y0267264D01*
X0469337Y0267072D01*
X0469354Y0266879D01*
X0469366Y0266686D01*
X0469373Y0266493D01*
X0469375Y0266300D01*
X0469373Y0266107D01*
X0469366Y0265914D01*
X0469354Y0265721D01*
X0469337Y0265528D01*
X0469316Y0265336D01*
X0469290Y0265144D01*
X0469259Y0264954D01*
X0469224Y0264764D01*
X0469184Y0264575D01*
X0469139Y0264387D01*
X0469090Y0264200D01*
X0469036Y0264014D01*
X0468978Y0263830D01*
X0468915Y0263647D01*
X0468847Y0263466D01*
X0468776Y0263286D01*
X0468699Y0263109D01*
X0468619Y0262933D01*
X0468534Y0262759D01*
X0468445Y0262588D01*
X0468352Y0262418D01*
X0468255Y0262251D01*
X0468153Y0262087D01*
X0468048Y0261925D01*
X0467938Y0261766D01*
X0467825Y0261609D01*
X0467708Y0261455D01*
X0467587Y0261304D01*
X0467463Y0261156D01*
X0467335Y0261011D01*
X0467203Y0260870D01*
X0467068Y0260732D01*
X0466930Y0260597D01*
X0466789Y0260465D01*
X0466644Y0260337D01*
X0466496Y0260213D01*
X0466345Y0260092D01*
X0466191Y0259975D01*
X0466034Y0259862D01*
X0465875Y0259752D01*
X0465713Y0259647D01*
X0465549Y0259545D01*
X0465382Y0259448D01*
X0465212Y0259355D01*
X0465041Y0259266D01*
X0464867Y0259181D01*
X0464691Y0259101D01*
X0464514Y0259024D01*
X0464334Y0258953D01*
X0464153Y0258885D01*
X0463970Y0258822D01*
X0463786Y0258764D01*
X0463600Y0258710D01*
X0463413Y0258661D01*
X0463225Y0258616D01*
X0463036Y0258576D01*
X0462846Y0258541D01*
X0462656Y0258510D01*
X0462464Y0258484D01*
X0462272Y0258463D01*
X0462079Y0258446D01*
X0461886Y0258434D01*
X0461693Y0258427D01*
X0461500Y0258425D01*
X0461307Y0258427D01*
X0461114Y0258434D01*
X0460921Y0258446D01*
X0460728Y0258463D01*
X0460536Y0258484D01*
X0460344Y0258510D01*
X0460154Y0258541D01*
X0459964Y0258576D01*
X0459775Y0258616D01*
X0459587Y0258661D01*
X0459400Y0258710D01*
X0459214Y0258764D01*
X0459030Y0258822D01*
X0458847Y0258885D01*
X0458666Y0258953D01*
X0458486Y0259024D01*
X0458309Y0259101D01*
X0458133Y0259181D01*
X0457959Y0259266D01*
X0457788Y0259355D01*
X0457618Y0259448D01*
X0457451Y0259545D01*
X0457287Y0259647D01*
X0457125Y0259752D01*
X0456966Y0259862D01*
X0456809Y0259975D01*
X0456655Y0260092D01*
X0456504Y0260213D01*
X0456356Y0260337D01*
X0456211Y0260465D01*
X0456070Y0260597D01*
X0455932Y0260732D01*
X0455797Y0260870D01*
X0455665Y0261011D01*
X0455537Y0261156D01*
X0455413Y0261304D01*
X0455292Y0261455D01*
X0455175Y0261609D01*
X0455062Y0261766D01*
X0454952Y0261925D01*
X0454847Y0262087D01*
X0454745Y0262251D01*
X0454648Y0262418D01*
X0454555Y0262588D01*
X0454466Y0262759D01*
X0454381Y0262933D01*
X0454301Y0263109D01*
X0454224Y0263286D01*
X0454153Y0263466D01*
X0454085Y0263647D01*
X0454022Y0263830D01*
X0453964Y0264014D01*
X0453910Y0264200D01*
X0453861Y0264387D01*
X0453816Y0264575D01*
X0453776Y0264764D01*
X0453741Y0264954D01*
X0453710Y0265144D01*
X0453684Y0265336D01*
X0453663Y0265528D01*
X0453646Y0265721D01*
X0453634Y0265914D01*
X0453627Y0266107D01*
X0453625Y0266300D01*
X0453625Y0191300D02*
X0453627Y0191493D01*
X0453634Y0191686D01*
X0453646Y0191879D01*
X0453663Y0192072D01*
X0453684Y0192264D01*
X0453710Y0192456D01*
X0453741Y0192646D01*
X0453776Y0192836D01*
X0453816Y0193025D01*
X0453861Y0193213D01*
X0453910Y0193400D01*
X0453964Y0193586D01*
X0454022Y0193770D01*
X0454085Y0193953D01*
X0454153Y0194134D01*
X0454224Y0194314D01*
X0454301Y0194491D01*
X0454381Y0194667D01*
X0454466Y0194841D01*
X0454555Y0195012D01*
X0454648Y0195182D01*
X0454745Y0195349D01*
X0454847Y0195513D01*
X0454952Y0195675D01*
X0455062Y0195834D01*
X0455175Y0195991D01*
X0455292Y0196145D01*
X0455413Y0196296D01*
X0455537Y0196444D01*
X0455665Y0196589D01*
X0455797Y0196730D01*
X0455932Y0196868D01*
X0456070Y0197003D01*
X0456211Y0197135D01*
X0456356Y0197263D01*
X0456504Y0197387D01*
X0456655Y0197508D01*
X0456809Y0197625D01*
X0456966Y0197738D01*
X0457125Y0197848D01*
X0457287Y0197953D01*
X0457451Y0198055D01*
X0457618Y0198152D01*
X0457788Y0198245D01*
X0457959Y0198334D01*
X0458133Y0198419D01*
X0458309Y0198499D01*
X0458486Y0198576D01*
X0458666Y0198647D01*
X0458847Y0198715D01*
X0459030Y0198778D01*
X0459214Y0198836D01*
X0459400Y0198890D01*
X0459587Y0198939D01*
X0459775Y0198984D01*
X0459964Y0199024D01*
X0460154Y0199059D01*
X0460344Y0199090D01*
X0460536Y0199116D01*
X0460728Y0199137D01*
X0460921Y0199154D01*
X0461114Y0199166D01*
X0461307Y0199173D01*
X0461500Y0199175D01*
X0461693Y0199173D01*
X0461886Y0199166D01*
X0462079Y0199154D01*
X0462272Y0199137D01*
X0462464Y0199116D01*
X0462656Y0199090D01*
X0462846Y0199059D01*
X0463036Y0199024D01*
X0463225Y0198984D01*
X0463413Y0198939D01*
X0463600Y0198890D01*
X0463786Y0198836D01*
X0463970Y0198778D01*
X0464153Y0198715D01*
X0464334Y0198647D01*
X0464514Y0198576D01*
X0464691Y0198499D01*
X0464867Y0198419D01*
X0465041Y0198334D01*
X0465212Y0198245D01*
X0465382Y0198152D01*
X0465549Y0198055D01*
X0465713Y0197953D01*
X0465875Y0197848D01*
X0466034Y0197738D01*
X0466191Y0197625D01*
X0466345Y0197508D01*
X0466496Y0197387D01*
X0466644Y0197263D01*
X0466789Y0197135D01*
X0466930Y0197003D01*
X0467068Y0196868D01*
X0467203Y0196730D01*
X0467335Y0196589D01*
X0467463Y0196444D01*
X0467587Y0196296D01*
X0467708Y0196145D01*
X0467825Y0195991D01*
X0467938Y0195834D01*
X0468048Y0195675D01*
X0468153Y0195513D01*
X0468255Y0195349D01*
X0468352Y0195182D01*
X0468445Y0195012D01*
X0468534Y0194841D01*
X0468619Y0194667D01*
X0468699Y0194491D01*
X0468776Y0194314D01*
X0468847Y0194134D01*
X0468915Y0193953D01*
X0468978Y0193770D01*
X0469036Y0193586D01*
X0469090Y0193400D01*
X0469139Y0193213D01*
X0469184Y0193025D01*
X0469224Y0192836D01*
X0469259Y0192646D01*
X0469290Y0192456D01*
X0469316Y0192264D01*
X0469337Y0192072D01*
X0469354Y0191879D01*
X0469366Y0191686D01*
X0469373Y0191493D01*
X0469375Y0191300D01*
X0469373Y0191107D01*
X0469366Y0190914D01*
X0469354Y0190721D01*
X0469337Y0190528D01*
X0469316Y0190336D01*
X0469290Y0190144D01*
X0469259Y0189954D01*
X0469224Y0189764D01*
X0469184Y0189575D01*
X0469139Y0189387D01*
X0469090Y0189200D01*
X0469036Y0189014D01*
X0468978Y0188830D01*
X0468915Y0188647D01*
X0468847Y0188466D01*
X0468776Y0188286D01*
X0468699Y0188109D01*
X0468619Y0187933D01*
X0468534Y0187759D01*
X0468445Y0187588D01*
X0468352Y0187418D01*
X0468255Y0187251D01*
X0468153Y0187087D01*
X0468048Y0186925D01*
X0467938Y0186766D01*
X0467825Y0186609D01*
X0467708Y0186455D01*
X0467587Y0186304D01*
X0467463Y0186156D01*
X0467335Y0186011D01*
X0467203Y0185870D01*
X0467068Y0185732D01*
X0466930Y0185597D01*
X0466789Y0185465D01*
X0466644Y0185337D01*
X0466496Y0185213D01*
X0466345Y0185092D01*
X0466191Y0184975D01*
X0466034Y0184862D01*
X0465875Y0184752D01*
X0465713Y0184647D01*
X0465549Y0184545D01*
X0465382Y0184448D01*
X0465212Y0184355D01*
X0465041Y0184266D01*
X0464867Y0184181D01*
X0464691Y0184101D01*
X0464514Y0184024D01*
X0464334Y0183953D01*
X0464153Y0183885D01*
X0463970Y0183822D01*
X0463786Y0183764D01*
X0463600Y0183710D01*
X0463413Y0183661D01*
X0463225Y0183616D01*
X0463036Y0183576D01*
X0462846Y0183541D01*
X0462656Y0183510D01*
X0462464Y0183484D01*
X0462272Y0183463D01*
X0462079Y0183446D01*
X0461886Y0183434D01*
X0461693Y0183427D01*
X0461500Y0183425D01*
X0461307Y0183427D01*
X0461114Y0183434D01*
X0460921Y0183446D01*
X0460728Y0183463D01*
X0460536Y0183484D01*
X0460344Y0183510D01*
X0460154Y0183541D01*
X0459964Y0183576D01*
X0459775Y0183616D01*
X0459587Y0183661D01*
X0459400Y0183710D01*
X0459214Y0183764D01*
X0459030Y0183822D01*
X0458847Y0183885D01*
X0458666Y0183953D01*
X0458486Y0184024D01*
X0458309Y0184101D01*
X0458133Y0184181D01*
X0457959Y0184266D01*
X0457788Y0184355D01*
X0457618Y0184448D01*
X0457451Y0184545D01*
X0457287Y0184647D01*
X0457125Y0184752D01*
X0456966Y0184862D01*
X0456809Y0184975D01*
X0456655Y0185092D01*
X0456504Y0185213D01*
X0456356Y0185337D01*
X0456211Y0185465D01*
X0456070Y0185597D01*
X0455932Y0185732D01*
X0455797Y0185870D01*
X0455665Y0186011D01*
X0455537Y0186156D01*
X0455413Y0186304D01*
X0455292Y0186455D01*
X0455175Y0186609D01*
X0455062Y0186766D01*
X0454952Y0186925D01*
X0454847Y0187087D01*
X0454745Y0187251D01*
X0454648Y0187418D01*
X0454555Y0187588D01*
X0454466Y0187759D01*
X0454381Y0187933D01*
X0454301Y0188109D01*
X0454224Y0188286D01*
X0454153Y0188466D01*
X0454085Y0188647D01*
X0454022Y0188830D01*
X0453964Y0189014D01*
X0453910Y0189200D01*
X0453861Y0189387D01*
X0453816Y0189575D01*
X0453776Y0189764D01*
X0453741Y0189954D01*
X0453710Y0190144D01*
X0453684Y0190336D01*
X0453663Y0190528D01*
X0453646Y0190721D01*
X0453634Y0190914D01*
X0453627Y0191107D01*
X0453625Y0191300D01*
X0453625Y0116300D02*
X0453627Y0116493D01*
X0453634Y0116686D01*
X0453646Y0116879D01*
X0453663Y0117072D01*
X0453684Y0117264D01*
X0453710Y0117456D01*
X0453741Y0117646D01*
X0453776Y0117836D01*
X0453816Y0118025D01*
X0453861Y0118213D01*
X0453910Y0118400D01*
X0453964Y0118586D01*
X0454022Y0118770D01*
X0454085Y0118953D01*
X0454153Y0119134D01*
X0454224Y0119314D01*
X0454301Y0119491D01*
X0454381Y0119667D01*
X0454466Y0119841D01*
X0454555Y0120012D01*
X0454648Y0120182D01*
X0454745Y0120349D01*
X0454847Y0120513D01*
X0454952Y0120675D01*
X0455062Y0120834D01*
X0455175Y0120991D01*
X0455292Y0121145D01*
X0455413Y0121296D01*
X0455537Y0121444D01*
X0455665Y0121589D01*
X0455797Y0121730D01*
X0455932Y0121868D01*
X0456070Y0122003D01*
X0456211Y0122135D01*
X0456356Y0122263D01*
X0456504Y0122387D01*
X0456655Y0122508D01*
X0456809Y0122625D01*
X0456966Y0122738D01*
X0457125Y0122848D01*
X0457287Y0122953D01*
X0457451Y0123055D01*
X0457618Y0123152D01*
X0457788Y0123245D01*
X0457959Y0123334D01*
X0458133Y0123419D01*
X0458309Y0123499D01*
X0458486Y0123576D01*
X0458666Y0123647D01*
X0458847Y0123715D01*
X0459030Y0123778D01*
X0459214Y0123836D01*
X0459400Y0123890D01*
X0459587Y0123939D01*
X0459775Y0123984D01*
X0459964Y0124024D01*
X0460154Y0124059D01*
X0460344Y0124090D01*
X0460536Y0124116D01*
X0460728Y0124137D01*
X0460921Y0124154D01*
X0461114Y0124166D01*
X0461307Y0124173D01*
X0461500Y0124175D01*
X0461693Y0124173D01*
X0461886Y0124166D01*
X0462079Y0124154D01*
X0462272Y0124137D01*
X0462464Y0124116D01*
X0462656Y0124090D01*
X0462846Y0124059D01*
X0463036Y0124024D01*
X0463225Y0123984D01*
X0463413Y0123939D01*
X0463600Y0123890D01*
X0463786Y0123836D01*
X0463970Y0123778D01*
X0464153Y0123715D01*
X0464334Y0123647D01*
X0464514Y0123576D01*
X0464691Y0123499D01*
X0464867Y0123419D01*
X0465041Y0123334D01*
X0465212Y0123245D01*
X0465382Y0123152D01*
X0465549Y0123055D01*
X0465713Y0122953D01*
X0465875Y0122848D01*
X0466034Y0122738D01*
X0466191Y0122625D01*
X0466345Y0122508D01*
X0466496Y0122387D01*
X0466644Y0122263D01*
X0466789Y0122135D01*
X0466930Y0122003D01*
X0467068Y0121868D01*
X0467203Y0121730D01*
X0467335Y0121589D01*
X0467463Y0121444D01*
X0467587Y0121296D01*
X0467708Y0121145D01*
X0467825Y0120991D01*
X0467938Y0120834D01*
X0468048Y0120675D01*
X0468153Y0120513D01*
X0468255Y0120349D01*
X0468352Y0120182D01*
X0468445Y0120012D01*
X0468534Y0119841D01*
X0468619Y0119667D01*
X0468699Y0119491D01*
X0468776Y0119314D01*
X0468847Y0119134D01*
X0468915Y0118953D01*
X0468978Y0118770D01*
X0469036Y0118586D01*
X0469090Y0118400D01*
X0469139Y0118213D01*
X0469184Y0118025D01*
X0469224Y0117836D01*
X0469259Y0117646D01*
X0469290Y0117456D01*
X0469316Y0117264D01*
X0469337Y0117072D01*
X0469354Y0116879D01*
X0469366Y0116686D01*
X0469373Y0116493D01*
X0469375Y0116300D01*
X0469373Y0116107D01*
X0469366Y0115914D01*
X0469354Y0115721D01*
X0469337Y0115528D01*
X0469316Y0115336D01*
X0469290Y0115144D01*
X0469259Y0114954D01*
X0469224Y0114764D01*
X0469184Y0114575D01*
X0469139Y0114387D01*
X0469090Y0114200D01*
X0469036Y0114014D01*
X0468978Y0113830D01*
X0468915Y0113647D01*
X0468847Y0113466D01*
X0468776Y0113286D01*
X0468699Y0113109D01*
X0468619Y0112933D01*
X0468534Y0112759D01*
X0468445Y0112588D01*
X0468352Y0112418D01*
X0468255Y0112251D01*
X0468153Y0112087D01*
X0468048Y0111925D01*
X0467938Y0111766D01*
X0467825Y0111609D01*
X0467708Y0111455D01*
X0467587Y0111304D01*
X0467463Y0111156D01*
X0467335Y0111011D01*
X0467203Y0110870D01*
X0467068Y0110732D01*
X0466930Y0110597D01*
X0466789Y0110465D01*
X0466644Y0110337D01*
X0466496Y0110213D01*
X0466345Y0110092D01*
X0466191Y0109975D01*
X0466034Y0109862D01*
X0465875Y0109752D01*
X0465713Y0109647D01*
X0465549Y0109545D01*
X0465382Y0109448D01*
X0465212Y0109355D01*
X0465041Y0109266D01*
X0464867Y0109181D01*
X0464691Y0109101D01*
X0464514Y0109024D01*
X0464334Y0108953D01*
X0464153Y0108885D01*
X0463970Y0108822D01*
X0463786Y0108764D01*
X0463600Y0108710D01*
X0463413Y0108661D01*
X0463225Y0108616D01*
X0463036Y0108576D01*
X0462846Y0108541D01*
X0462656Y0108510D01*
X0462464Y0108484D01*
X0462272Y0108463D01*
X0462079Y0108446D01*
X0461886Y0108434D01*
X0461693Y0108427D01*
X0461500Y0108425D01*
X0461307Y0108427D01*
X0461114Y0108434D01*
X0460921Y0108446D01*
X0460728Y0108463D01*
X0460536Y0108484D01*
X0460344Y0108510D01*
X0460154Y0108541D01*
X0459964Y0108576D01*
X0459775Y0108616D01*
X0459587Y0108661D01*
X0459400Y0108710D01*
X0459214Y0108764D01*
X0459030Y0108822D01*
X0458847Y0108885D01*
X0458666Y0108953D01*
X0458486Y0109024D01*
X0458309Y0109101D01*
X0458133Y0109181D01*
X0457959Y0109266D01*
X0457788Y0109355D01*
X0457618Y0109448D01*
X0457451Y0109545D01*
X0457287Y0109647D01*
X0457125Y0109752D01*
X0456966Y0109862D01*
X0456809Y0109975D01*
X0456655Y0110092D01*
X0456504Y0110213D01*
X0456356Y0110337D01*
X0456211Y0110465D01*
X0456070Y0110597D01*
X0455932Y0110732D01*
X0455797Y0110870D01*
X0455665Y0111011D01*
X0455537Y0111156D01*
X0455413Y0111304D01*
X0455292Y0111455D01*
X0455175Y0111609D01*
X0455062Y0111766D01*
X0454952Y0111925D01*
X0454847Y0112087D01*
X0454745Y0112251D01*
X0454648Y0112418D01*
X0454555Y0112588D01*
X0454466Y0112759D01*
X0454381Y0112933D01*
X0454301Y0113109D01*
X0454224Y0113286D01*
X0454153Y0113466D01*
X0454085Y0113647D01*
X0454022Y0113830D01*
X0453964Y0114014D01*
X0453910Y0114200D01*
X0453861Y0114387D01*
X0453816Y0114575D01*
X0453776Y0114764D01*
X0453741Y0114954D01*
X0453710Y0115144D01*
X0453684Y0115336D01*
X0453663Y0115528D01*
X0453646Y0115721D01*
X0453634Y0115914D01*
X0453627Y0116107D01*
X0453625Y0116300D01*
X0453625Y0041300D02*
X0453627Y0041493D01*
X0453634Y0041686D01*
X0453646Y0041879D01*
X0453663Y0042072D01*
X0453684Y0042264D01*
X0453710Y0042456D01*
X0453741Y0042646D01*
X0453776Y0042836D01*
X0453816Y0043025D01*
X0453861Y0043213D01*
X0453910Y0043400D01*
X0453964Y0043586D01*
X0454022Y0043770D01*
X0454085Y0043953D01*
X0454153Y0044134D01*
X0454224Y0044314D01*
X0454301Y0044491D01*
X0454381Y0044667D01*
X0454466Y0044841D01*
X0454555Y0045012D01*
X0454648Y0045182D01*
X0454745Y0045349D01*
X0454847Y0045513D01*
X0454952Y0045675D01*
X0455062Y0045834D01*
X0455175Y0045991D01*
X0455292Y0046145D01*
X0455413Y0046296D01*
X0455537Y0046444D01*
X0455665Y0046589D01*
X0455797Y0046730D01*
X0455932Y0046868D01*
X0456070Y0047003D01*
X0456211Y0047135D01*
X0456356Y0047263D01*
X0456504Y0047387D01*
X0456655Y0047508D01*
X0456809Y0047625D01*
X0456966Y0047738D01*
X0457125Y0047848D01*
X0457287Y0047953D01*
X0457451Y0048055D01*
X0457618Y0048152D01*
X0457788Y0048245D01*
X0457959Y0048334D01*
X0458133Y0048419D01*
X0458309Y0048499D01*
X0458486Y0048576D01*
X0458666Y0048647D01*
X0458847Y0048715D01*
X0459030Y0048778D01*
X0459214Y0048836D01*
X0459400Y0048890D01*
X0459587Y0048939D01*
X0459775Y0048984D01*
X0459964Y0049024D01*
X0460154Y0049059D01*
X0460344Y0049090D01*
X0460536Y0049116D01*
X0460728Y0049137D01*
X0460921Y0049154D01*
X0461114Y0049166D01*
X0461307Y0049173D01*
X0461500Y0049175D01*
X0461693Y0049173D01*
X0461886Y0049166D01*
X0462079Y0049154D01*
X0462272Y0049137D01*
X0462464Y0049116D01*
X0462656Y0049090D01*
X0462846Y0049059D01*
X0463036Y0049024D01*
X0463225Y0048984D01*
X0463413Y0048939D01*
X0463600Y0048890D01*
X0463786Y0048836D01*
X0463970Y0048778D01*
X0464153Y0048715D01*
X0464334Y0048647D01*
X0464514Y0048576D01*
X0464691Y0048499D01*
X0464867Y0048419D01*
X0465041Y0048334D01*
X0465212Y0048245D01*
X0465382Y0048152D01*
X0465549Y0048055D01*
X0465713Y0047953D01*
X0465875Y0047848D01*
X0466034Y0047738D01*
X0466191Y0047625D01*
X0466345Y0047508D01*
X0466496Y0047387D01*
X0466644Y0047263D01*
X0466789Y0047135D01*
X0466930Y0047003D01*
X0467068Y0046868D01*
X0467203Y0046730D01*
X0467335Y0046589D01*
X0467463Y0046444D01*
X0467587Y0046296D01*
X0467708Y0046145D01*
X0467825Y0045991D01*
X0467938Y0045834D01*
X0468048Y0045675D01*
X0468153Y0045513D01*
X0468255Y0045349D01*
X0468352Y0045182D01*
X0468445Y0045012D01*
X0468534Y0044841D01*
X0468619Y0044667D01*
X0468699Y0044491D01*
X0468776Y0044314D01*
X0468847Y0044134D01*
X0468915Y0043953D01*
X0468978Y0043770D01*
X0469036Y0043586D01*
X0469090Y0043400D01*
X0469139Y0043213D01*
X0469184Y0043025D01*
X0469224Y0042836D01*
X0469259Y0042646D01*
X0469290Y0042456D01*
X0469316Y0042264D01*
X0469337Y0042072D01*
X0469354Y0041879D01*
X0469366Y0041686D01*
X0469373Y0041493D01*
X0469375Y0041300D01*
X0469373Y0041107D01*
X0469366Y0040914D01*
X0469354Y0040721D01*
X0469337Y0040528D01*
X0469316Y0040336D01*
X0469290Y0040144D01*
X0469259Y0039954D01*
X0469224Y0039764D01*
X0469184Y0039575D01*
X0469139Y0039387D01*
X0469090Y0039200D01*
X0469036Y0039014D01*
X0468978Y0038830D01*
X0468915Y0038647D01*
X0468847Y0038466D01*
X0468776Y0038286D01*
X0468699Y0038109D01*
X0468619Y0037933D01*
X0468534Y0037759D01*
X0468445Y0037588D01*
X0468352Y0037418D01*
X0468255Y0037251D01*
X0468153Y0037087D01*
X0468048Y0036925D01*
X0467938Y0036766D01*
X0467825Y0036609D01*
X0467708Y0036455D01*
X0467587Y0036304D01*
X0467463Y0036156D01*
X0467335Y0036011D01*
X0467203Y0035870D01*
X0467068Y0035732D01*
X0466930Y0035597D01*
X0466789Y0035465D01*
X0466644Y0035337D01*
X0466496Y0035213D01*
X0466345Y0035092D01*
X0466191Y0034975D01*
X0466034Y0034862D01*
X0465875Y0034752D01*
X0465713Y0034647D01*
X0465549Y0034545D01*
X0465382Y0034448D01*
X0465212Y0034355D01*
X0465041Y0034266D01*
X0464867Y0034181D01*
X0464691Y0034101D01*
X0464514Y0034024D01*
X0464334Y0033953D01*
X0464153Y0033885D01*
X0463970Y0033822D01*
X0463786Y0033764D01*
X0463600Y0033710D01*
X0463413Y0033661D01*
X0463225Y0033616D01*
X0463036Y0033576D01*
X0462846Y0033541D01*
X0462656Y0033510D01*
X0462464Y0033484D01*
X0462272Y0033463D01*
X0462079Y0033446D01*
X0461886Y0033434D01*
X0461693Y0033427D01*
X0461500Y0033425D01*
X0461307Y0033427D01*
X0461114Y0033434D01*
X0460921Y0033446D01*
X0460728Y0033463D01*
X0460536Y0033484D01*
X0460344Y0033510D01*
X0460154Y0033541D01*
X0459964Y0033576D01*
X0459775Y0033616D01*
X0459587Y0033661D01*
X0459400Y0033710D01*
X0459214Y0033764D01*
X0459030Y0033822D01*
X0458847Y0033885D01*
X0458666Y0033953D01*
X0458486Y0034024D01*
X0458309Y0034101D01*
X0458133Y0034181D01*
X0457959Y0034266D01*
X0457788Y0034355D01*
X0457618Y0034448D01*
X0457451Y0034545D01*
X0457287Y0034647D01*
X0457125Y0034752D01*
X0456966Y0034862D01*
X0456809Y0034975D01*
X0456655Y0035092D01*
X0456504Y0035213D01*
X0456356Y0035337D01*
X0456211Y0035465D01*
X0456070Y0035597D01*
X0455932Y0035732D01*
X0455797Y0035870D01*
X0455665Y0036011D01*
X0455537Y0036156D01*
X0455413Y0036304D01*
X0455292Y0036455D01*
X0455175Y0036609D01*
X0455062Y0036766D01*
X0454952Y0036925D01*
X0454847Y0037087D01*
X0454745Y0037251D01*
X0454648Y0037418D01*
X0454555Y0037588D01*
X0454466Y0037759D01*
X0454381Y0037933D01*
X0454301Y0038109D01*
X0454224Y0038286D01*
X0454153Y0038466D01*
X0454085Y0038647D01*
X0454022Y0038830D01*
X0453964Y0039014D01*
X0453910Y0039200D01*
X0453861Y0039387D01*
X0453816Y0039575D01*
X0453776Y0039764D01*
X0453741Y0039954D01*
X0453710Y0040144D01*
X0453684Y0040336D01*
X0453663Y0040528D01*
X0453646Y0040721D01*
X0453634Y0040914D01*
X0453627Y0041107D01*
X0453625Y0041300D01*
X0410250Y0016300D02*
X0410252Y0016458D01*
X0410258Y0016615D01*
X0410268Y0016773D01*
X0410282Y0016930D01*
X0410300Y0017086D01*
X0410321Y0017243D01*
X0410347Y0017398D01*
X0410377Y0017553D01*
X0410410Y0017707D01*
X0410448Y0017860D01*
X0410489Y0018013D01*
X0410534Y0018164D01*
X0410583Y0018314D01*
X0410636Y0018462D01*
X0410692Y0018610D01*
X0410753Y0018755D01*
X0410816Y0018900D01*
X0410884Y0019042D01*
X0410955Y0019183D01*
X0411029Y0019322D01*
X0411107Y0019459D01*
X0411189Y0019594D01*
X0411273Y0019727D01*
X0411362Y0019858D01*
X0411453Y0019986D01*
X0411548Y0020113D01*
X0411645Y0020236D01*
X0411746Y0020358D01*
X0411850Y0020476D01*
X0411957Y0020592D01*
X0412067Y0020705D01*
X0412179Y0020816D01*
X0412295Y0020923D01*
X0412413Y0021028D01*
X0412533Y0021130D01*
X0412656Y0021228D01*
X0412782Y0021324D01*
X0412910Y0021416D01*
X0413040Y0021505D01*
X0413172Y0021591D01*
X0413307Y0021673D01*
X0413444Y0021752D01*
X0413582Y0021827D01*
X0413722Y0021899D01*
X0413865Y0021967D01*
X0414008Y0022032D01*
X0414154Y0022093D01*
X0414301Y0022150D01*
X0414449Y0022204D01*
X0414599Y0022254D01*
X0414749Y0022300D01*
X0414901Y0022342D01*
X0415054Y0022381D01*
X0415208Y0022415D01*
X0415363Y0022446D01*
X0415518Y0022472D01*
X0415674Y0022495D01*
X0415831Y0022514D01*
X0415988Y0022529D01*
X0416145Y0022540D01*
X0416303Y0022547D01*
X0416461Y0022550D01*
X0416618Y0022549D01*
X0416776Y0022544D01*
X0416933Y0022535D01*
X0417091Y0022522D01*
X0417247Y0022505D01*
X0417404Y0022484D01*
X0417559Y0022460D01*
X0417714Y0022431D01*
X0417869Y0022398D01*
X0418022Y0022362D01*
X0418175Y0022321D01*
X0418326Y0022277D01*
X0418476Y0022229D01*
X0418625Y0022178D01*
X0418773Y0022122D01*
X0418919Y0022063D01*
X0419064Y0022000D01*
X0419207Y0021933D01*
X0419348Y0021863D01*
X0419487Y0021790D01*
X0419625Y0021713D01*
X0419761Y0021632D01*
X0419894Y0021548D01*
X0420025Y0021461D01*
X0420154Y0021370D01*
X0420281Y0021276D01*
X0420406Y0021179D01*
X0420527Y0021079D01*
X0420647Y0020976D01*
X0420763Y0020870D01*
X0420877Y0020761D01*
X0420989Y0020649D01*
X0421097Y0020535D01*
X0421202Y0020417D01*
X0421305Y0020297D01*
X0421404Y0020175D01*
X0421500Y0020050D01*
X0421593Y0019922D01*
X0421683Y0019793D01*
X0421769Y0019661D01*
X0421853Y0019527D01*
X0421932Y0019391D01*
X0422009Y0019253D01*
X0422081Y0019113D01*
X0422150Y0018971D01*
X0422216Y0018828D01*
X0422278Y0018683D01*
X0422336Y0018536D01*
X0422391Y0018388D01*
X0422442Y0018239D01*
X0422489Y0018088D01*
X0422532Y0017937D01*
X0422571Y0017784D01*
X0422607Y0017630D01*
X0422638Y0017476D01*
X0422666Y0017321D01*
X0422690Y0017165D01*
X0422710Y0017008D01*
X0422726Y0016851D01*
X0422738Y0016694D01*
X0422746Y0016537D01*
X0422750Y0016379D01*
X0422750Y0016221D01*
X0422746Y0016063D01*
X0422738Y0015906D01*
X0422726Y0015749D01*
X0422710Y0015592D01*
X0422690Y0015435D01*
X0422666Y0015279D01*
X0422638Y0015124D01*
X0422607Y0014970D01*
X0422571Y0014816D01*
X0422532Y0014663D01*
X0422489Y0014512D01*
X0422442Y0014361D01*
X0422391Y0014212D01*
X0422336Y0014064D01*
X0422278Y0013917D01*
X0422216Y0013772D01*
X0422150Y0013629D01*
X0422081Y0013487D01*
X0422009Y0013347D01*
X0421932Y0013209D01*
X0421853Y0013073D01*
X0421769Y0012939D01*
X0421683Y0012807D01*
X0421593Y0012678D01*
X0421500Y0012550D01*
X0421404Y0012425D01*
X0421305Y0012303D01*
X0421202Y0012183D01*
X0421097Y0012065D01*
X0420989Y0011951D01*
X0420877Y0011839D01*
X0420763Y0011730D01*
X0420647Y0011624D01*
X0420527Y0011521D01*
X0420406Y0011421D01*
X0420281Y0011324D01*
X0420154Y0011230D01*
X0420025Y0011139D01*
X0419894Y0011052D01*
X0419761Y0010968D01*
X0419625Y0010887D01*
X0419487Y0010810D01*
X0419348Y0010737D01*
X0419207Y0010667D01*
X0419064Y0010600D01*
X0418919Y0010537D01*
X0418773Y0010478D01*
X0418625Y0010422D01*
X0418476Y0010371D01*
X0418326Y0010323D01*
X0418175Y0010279D01*
X0418022Y0010238D01*
X0417869Y0010202D01*
X0417714Y0010169D01*
X0417559Y0010140D01*
X0417404Y0010116D01*
X0417247Y0010095D01*
X0417091Y0010078D01*
X0416933Y0010065D01*
X0416776Y0010056D01*
X0416618Y0010051D01*
X0416461Y0010050D01*
X0416303Y0010053D01*
X0416145Y0010060D01*
X0415988Y0010071D01*
X0415831Y0010086D01*
X0415674Y0010105D01*
X0415518Y0010128D01*
X0415363Y0010154D01*
X0415208Y0010185D01*
X0415054Y0010219D01*
X0414901Y0010258D01*
X0414749Y0010300D01*
X0414599Y0010346D01*
X0414449Y0010396D01*
X0414301Y0010450D01*
X0414154Y0010507D01*
X0414008Y0010568D01*
X0413865Y0010633D01*
X0413722Y0010701D01*
X0413582Y0010773D01*
X0413444Y0010848D01*
X0413307Y0010927D01*
X0413172Y0011009D01*
X0413040Y0011095D01*
X0412910Y0011184D01*
X0412782Y0011276D01*
X0412656Y0011372D01*
X0412533Y0011470D01*
X0412413Y0011572D01*
X0412295Y0011677D01*
X0412179Y0011784D01*
X0412067Y0011895D01*
X0411957Y0012008D01*
X0411850Y0012124D01*
X0411746Y0012242D01*
X0411645Y0012364D01*
X0411548Y0012487D01*
X0411453Y0012614D01*
X0411362Y0012742D01*
X0411273Y0012873D01*
X0411189Y0013006D01*
X0411107Y0013141D01*
X0411029Y0013278D01*
X0410955Y0013417D01*
X0410884Y0013558D01*
X0410816Y0013700D01*
X0410753Y0013845D01*
X0410692Y0013990D01*
X0410636Y0014138D01*
X0410583Y0014286D01*
X0410534Y0014436D01*
X0410489Y0014587D01*
X0410448Y0014740D01*
X0410410Y0014893D01*
X0410377Y0015047D01*
X0410347Y0015202D01*
X0410321Y0015357D01*
X0410300Y0015514D01*
X0410282Y0015670D01*
X0410268Y0015827D01*
X0410258Y0015985D01*
X0410252Y0016142D01*
X0410250Y0016300D01*
X0528625Y0041300D02*
X0528627Y0041493D01*
X0528634Y0041686D01*
X0528646Y0041879D01*
X0528663Y0042072D01*
X0528684Y0042264D01*
X0528710Y0042456D01*
X0528741Y0042646D01*
X0528776Y0042836D01*
X0528816Y0043025D01*
X0528861Y0043213D01*
X0528910Y0043400D01*
X0528964Y0043586D01*
X0529022Y0043770D01*
X0529085Y0043953D01*
X0529153Y0044134D01*
X0529224Y0044314D01*
X0529301Y0044491D01*
X0529381Y0044667D01*
X0529466Y0044841D01*
X0529555Y0045012D01*
X0529648Y0045182D01*
X0529745Y0045349D01*
X0529847Y0045513D01*
X0529952Y0045675D01*
X0530062Y0045834D01*
X0530175Y0045991D01*
X0530292Y0046145D01*
X0530413Y0046296D01*
X0530537Y0046444D01*
X0530665Y0046589D01*
X0530797Y0046730D01*
X0530932Y0046868D01*
X0531070Y0047003D01*
X0531211Y0047135D01*
X0531356Y0047263D01*
X0531504Y0047387D01*
X0531655Y0047508D01*
X0531809Y0047625D01*
X0531966Y0047738D01*
X0532125Y0047848D01*
X0532287Y0047953D01*
X0532451Y0048055D01*
X0532618Y0048152D01*
X0532788Y0048245D01*
X0532959Y0048334D01*
X0533133Y0048419D01*
X0533309Y0048499D01*
X0533486Y0048576D01*
X0533666Y0048647D01*
X0533847Y0048715D01*
X0534030Y0048778D01*
X0534214Y0048836D01*
X0534400Y0048890D01*
X0534587Y0048939D01*
X0534775Y0048984D01*
X0534964Y0049024D01*
X0535154Y0049059D01*
X0535344Y0049090D01*
X0535536Y0049116D01*
X0535728Y0049137D01*
X0535921Y0049154D01*
X0536114Y0049166D01*
X0536307Y0049173D01*
X0536500Y0049175D01*
X0536693Y0049173D01*
X0536886Y0049166D01*
X0537079Y0049154D01*
X0537272Y0049137D01*
X0537464Y0049116D01*
X0537656Y0049090D01*
X0537846Y0049059D01*
X0538036Y0049024D01*
X0538225Y0048984D01*
X0538413Y0048939D01*
X0538600Y0048890D01*
X0538786Y0048836D01*
X0538970Y0048778D01*
X0539153Y0048715D01*
X0539334Y0048647D01*
X0539514Y0048576D01*
X0539691Y0048499D01*
X0539867Y0048419D01*
X0540041Y0048334D01*
X0540212Y0048245D01*
X0540382Y0048152D01*
X0540549Y0048055D01*
X0540713Y0047953D01*
X0540875Y0047848D01*
X0541034Y0047738D01*
X0541191Y0047625D01*
X0541345Y0047508D01*
X0541496Y0047387D01*
X0541644Y0047263D01*
X0541789Y0047135D01*
X0541930Y0047003D01*
X0542068Y0046868D01*
X0542203Y0046730D01*
X0542335Y0046589D01*
X0542463Y0046444D01*
X0542587Y0046296D01*
X0542708Y0046145D01*
X0542825Y0045991D01*
X0542938Y0045834D01*
X0543048Y0045675D01*
X0543153Y0045513D01*
X0543255Y0045349D01*
X0543352Y0045182D01*
X0543445Y0045012D01*
X0543534Y0044841D01*
X0543619Y0044667D01*
X0543699Y0044491D01*
X0543776Y0044314D01*
X0543847Y0044134D01*
X0543915Y0043953D01*
X0543978Y0043770D01*
X0544036Y0043586D01*
X0544090Y0043400D01*
X0544139Y0043213D01*
X0544184Y0043025D01*
X0544224Y0042836D01*
X0544259Y0042646D01*
X0544290Y0042456D01*
X0544316Y0042264D01*
X0544337Y0042072D01*
X0544354Y0041879D01*
X0544366Y0041686D01*
X0544373Y0041493D01*
X0544375Y0041300D01*
X0544373Y0041107D01*
X0544366Y0040914D01*
X0544354Y0040721D01*
X0544337Y0040528D01*
X0544316Y0040336D01*
X0544290Y0040144D01*
X0544259Y0039954D01*
X0544224Y0039764D01*
X0544184Y0039575D01*
X0544139Y0039387D01*
X0544090Y0039200D01*
X0544036Y0039014D01*
X0543978Y0038830D01*
X0543915Y0038647D01*
X0543847Y0038466D01*
X0543776Y0038286D01*
X0543699Y0038109D01*
X0543619Y0037933D01*
X0543534Y0037759D01*
X0543445Y0037588D01*
X0543352Y0037418D01*
X0543255Y0037251D01*
X0543153Y0037087D01*
X0543048Y0036925D01*
X0542938Y0036766D01*
X0542825Y0036609D01*
X0542708Y0036455D01*
X0542587Y0036304D01*
X0542463Y0036156D01*
X0542335Y0036011D01*
X0542203Y0035870D01*
X0542068Y0035732D01*
X0541930Y0035597D01*
X0541789Y0035465D01*
X0541644Y0035337D01*
X0541496Y0035213D01*
X0541345Y0035092D01*
X0541191Y0034975D01*
X0541034Y0034862D01*
X0540875Y0034752D01*
X0540713Y0034647D01*
X0540549Y0034545D01*
X0540382Y0034448D01*
X0540212Y0034355D01*
X0540041Y0034266D01*
X0539867Y0034181D01*
X0539691Y0034101D01*
X0539514Y0034024D01*
X0539334Y0033953D01*
X0539153Y0033885D01*
X0538970Y0033822D01*
X0538786Y0033764D01*
X0538600Y0033710D01*
X0538413Y0033661D01*
X0538225Y0033616D01*
X0538036Y0033576D01*
X0537846Y0033541D01*
X0537656Y0033510D01*
X0537464Y0033484D01*
X0537272Y0033463D01*
X0537079Y0033446D01*
X0536886Y0033434D01*
X0536693Y0033427D01*
X0536500Y0033425D01*
X0536307Y0033427D01*
X0536114Y0033434D01*
X0535921Y0033446D01*
X0535728Y0033463D01*
X0535536Y0033484D01*
X0535344Y0033510D01*
X0535154Y0033541D01*
X0534964Y0033576D01*
X0534775Y0033616D01*
X0534587Y0033661D01*
X0534400Y0033710D01*
X0534214Y0033764D01*
X0534030Y0033822D01*
X0533847Y0033885D01*
X0533666Y0033953D01*
X0533486Y0034024D01*
X0533309Y0034101D01*
X0533133Y0034181D01*
X0532959Y0034266D01*
X0532788Y0034355D01*
X0532618Y0034448D01*
X0532451Y0034545D01*
X0532287Y0034647D01*
X0532125Y0034752D01*
X0531966Y0034862D01*
X0531809Y0034975D01*
X0531655Y0035092D01*
X0531504Y0035213D01*
X0531356Y0035337D01*
X0531211Y0035465D01*
X0531070Y0035597D01*
X0530932Y0035732D01*
X0530797Y0035870D01*
X0530665Y0036011D01*
X0530537Y0036156D01*
X0530413Y0036304D01*
X0530292Y0036455D01*
X0530175Y0036609D01*
X0530062Y0036766D01*
X0529952Y0036925D01*
X0529847Y0037087D01*
X0529745Y0037251D01*
X0529648Y0037418D01*
X0529555Y0037588D01*
X0529466Y0037759D01*
X0529381Y0037933D01*
X0529301Y0038109D01*
X0529224Y0038286D01*
X0529153Y0038466D01*
X0529085Y0038647D01*
X0529022Y0038830D01*
X0528964Y0039014D01*
X0528910Y0039200D01*
X0528861Y0039387D01*
X0528816Y0039575D01*
X0528776Y0039764D01*
X0528741Y0039954D01*
X0528710Y0040144D01*
X0528684Y0040336D01*
X0528663Y0040528D01*
X0528646Y0040721D01*
X0528634Y0040914D01*
X0528627Y0041107D01*
X0528625Y0041300D01*
X0528625Y0116300D02*
X0528627Y0116493D01*
X0528634Y0116686D01*
X0528646Y0116879D01*
X0528663Y0117072D01*
X0528684Y0117264D01*
X0528710Y0117456D01*
X0528741Y0117646D01*
X0528776Y0117836D01*
X0528816Y0118025D01*
X0528861Y0118213D01*
X0528910Y0118400D01*
X0528964Y0118586D01*
X0529022Y0118770D01*
X0529085Y0118953D01*
X0529153Y0119134D01*
X0529224Y0119314D01*
X0529301Y0119491D01*
X0529381Y0119667D01*
X0529466Y0119841D01*
X0529555Y0120012D01*
X0529648Y0120182D01*
X0529745Y0120349D01*
X0529847Y0120513D01*
X0529952Y0120675D01*
X0530062Y0120834D01*
X0530175Y0120991D01*
X0530292Y0121145D01*
X0530413Y0121296D01*
X0530537Y0121444D01*
X0530665Y0121589D01*
X0530797Y0121730D01*
X0530932Y0121868D01*
X0531070Y0122003D01*
X0531211Y0122135D01*
X0531356Y0122263D01*
X0531504Y0122387D01*
X0531655Y0122508D01*
X0531809Y0122625D01*
X0531966Y0122738D01*
X0532125Y0122848D01*
X0532287Y0122953D01*
X0532451Y0123055D01*
X0532618Y0123152D01*
X0532788Y0123245D01*
X0532959Y0123334D01*
X0533133Y0123419D01*
X0533309Y0123499D01*
X0533486Y0123576D01*
X0533666Y0123647D01*
X0533847Y0123715D01*
X0534030Y0123778D01*
X0534214Y0123836D01*
X0534400Y0123890D01*
X0534587Y0123939D01*
X0534775Y0123984D01*
X0534964Y0124024D01*
X0535154Y0124059D01*
X0535344Y0124090D01*
X0535536Y0124116D01*
X0535728Y0124137D01*
X0535921Y0124154D01*
X0536114Y0124166D01*
X0536307Y0124173D01*
X0536500Y0124175D01*
X0536693Y0124173D01*
X0536886Y0124166D01*
X0537079Y0124154D01*
X0537272Y0124137D01*
X0537464Y0124116D01*
X0537656Y0124090D01*
X0537846Y0124059D01*
X0538036Y0124024D01*
X0538225Y0123984D01*
X0538413Y0123939D01*
X0538600Y0123890D01*
X0538786Y0123836D01*
X0538970Y0123778D01*
X0539153Y0123715D01*
X0539334Y0123647D01*
X0539514Y0123576D01*
X0539691Y0123499D01*
X0539867Y0123419D01*
X0540041Y0123334D01*
X0540212Y0123245D01*
X0540382Y0123152D01*
X0540549Y0123055D01*
X0540713Y0122953D01*
X0540875Y0122848D01*
X0541034Y0122738D01*
X0541191Y0122625D01*
X0541345Y0122508D01*
X0541496Y0122387D01*
X0541644Y0122263D01*
X0541789Y0122135D01*
X0541930Y0122003D01*
X0542068Y0121868D01*
X0542203Y0121730D01*
X0542335Y0121589D01*
X0542463Y0121444D01*
X0542587Y0121296D01*
X0542708Y0121145D01*
X0542825Y0120991D01*
X0542938Y0120834D01*
X0543048Y0120675D01*
X0543153Y0120513D01*
X0543255Y0120349D01*
X0543352Y0120182D01*
X0543445Y0120012D01*
X0543534Y0119841D01*
X0543619Y0119667D01*
X0543699Y0119491D01*
X0543776Y0119314D01*
X0543847Y0119134D01*
X0543915Y0118953D01*
X0543978Y0118770D01*
X0544036Y0118586D01*
X0544090Y0118400D01*
X0544139Y0118213D01*
X0544184Y0118025D01*
X0544224Y0117836D01*
X0544259Y0117646D01*
X0544290Y0117456D01*
X0544316Y0117264D01*
X0544337Y0117072D01*
X0544354Y0116879D01*
X0544366Y0116686D01*
X0544373Y0116493D01*
X0544375Y0116300D01*
X0544373Y0116107D01*
X0544366Y0115914D01*
X0544354Y0115721D01*
X0544337Y0115528D01*
X0544316Y0115336D01*
X0544290Y0115144D01*
X0544259Y0114954D01*
X0544224Y0114764D01*
X0544184Y0114575D01*
X0544139Y0114387D01*
X0544090Y0114200D01*
X0544036Y0114014D01*
X0543978Y0113830D01*
X0543915Y0113647D01*
X0543847Y0113466D01*
X0543776Y0113286D01*
X0543699Y0113109D01*
X0543619Y0112933D01*
X0543534Y0112759D01*
X0543445Y0112588D01*
X0543352Y0112418D01*
X0543255Y0112251D01*
X0543153Y0112087D01*
X0543048Y0111925D01*
X0542938Y0111766D01*
X0542825Y0111609D01*
X0542708Y0111455D01*
X0542587Y0111304D01*
X0542463Y0111156D01*
X0542335Y0111011D01*
X0542203Y0110870D01*
X0542068Y0110732D01*
X0541930Y0110597D01*
X0541789Y0110465D01*
X0541644Y0110337D01*
X0541496Y0110213D01*
X0541345Y0110092D01*
X0541191Y0109975D01*
X0541034Y0109862D01*
X0540875Y0109752D01*
X0540713Y0109647D01*
X0540549Y0109545D01*
X0540382Y0109448D01*
X0540212Y0109355D01*
X0540041Y0109266D01*
X0539867Y0109181D01*
X0539691Y0109101D01*
X0539514Y0109024D01*
X0539334Y0108953D01*
X0539153Y0108885D01*
X0538970Y0108822D01*
X0538786Y0108764D01*
X0538600Y0108710D01*
X0538413Y0108661D01*
X0538225Y0108616D01*
X0538036Y0108576D01*
X0537846Y0108541D01*
X0537656Y0108510D01*
X0537464Y0108484D01*
X0537272Y0108463D01*
X0537079Y0108446D01*
X0536886Y0108434D01*
X0536693Y0108427D01*
X0536500Y0108425D01*
X0536307Y0108427D01*
X0536114Y0108434D01*
X0535921Y0108446D01*
X0535728Y0108463D01*
X0535536Y0108484D01*
X0535344Y0108510D01*
X0535154Y0108541D01*
X0534964Y0108576D01*
X0534775Y0108616D01*
X0534587Y0108661D01*
X0534400Y0108710D01*
X0534214Y0108764D01*
X0534030Y0108822D01*
X0533847Y0108885D01*
X0533666Y0108953D01*
X0533486Y0109024D01*
X0533309Y0109101D01*
X0533133Y0109181D01*
X0532959Y0109266D01*
X0532788Y0109355D01*
X0532618Y0109448D01*
X0532451Y0109545D01*
X0532287Y0109647D01*
X0532125Y0109752D01*
X0531966Y0109862D01*
X0531809Y0109975D01*
X0531655Y0110092D01*
X0531504Y0110213D01*
X0531356Y0110337D01*
X0531211Y0110465D01*
X0531070Y0110597D01*
X0530932Y0110732D01*
X0530797Y0110870D01*
X0530665Y0111011D01*
X0530537Y0111156D01*
X0530413Y0111304D01*
X0530292Y0111455D01*
X0530175Y0111609D01*
X0530062Y0111766D01*
X0529952Y0111925D01*
X0529847Y0112087D01*
X0529745Y0112251D01*
X0529648Y0112418D01*
X0529555Y0112588D01*
X0529466Y0112759D01*
X0529381Y0112933D01*
X0529301Y0113109D01*
X0529224Y0113286D01*
X0529153Y0113466D01*
X0529085Y0113647D01*
X0529022Y0113830D01*
X0528964Y0114014D01*
X0528910Y0114200D01*
X0528861Y0114387D01*
X0528816Y0114575D01*
X0528776Y0114764D01*
X0528741Y0114954D01*
X0528710Y0115144D01*
X0528684Y0115336D01*
X0528663Y0115528D01*
X0528646Y0115721D01*
X0528634Y0115914D01*
X0528627Y0116107D01*
X0528625Y0116300D01*
X0528625Y0191300D02*
X0528627Y0191493D01*
X0528634Y0191686D01*
X0528646Y0191879D01*
X0528663Y0192072D01*
X0528684Y0192264D01*
X0528710Y0192456D01*
X0528741Y0192646D01*
X0528776Y0192836D01*
X0528816Y0193025D01*
X0528861Y0193213D01*
X0528910Y0193400D01*
X0528964Y0193586D01*
X0529022Y0193770D01*
X0529085Y0193953D01*
X0529153Y0194134D01*
X0529224Y0194314D01*
X0529301Y0194491D01*
X0529381Y0194667D01*
X0529466Y0194841D01*
X0529555Y0195012D01*
X0529648Y0195182D01*
X0529745Y0195349D01*
X0529847Y0195513D01*
X0529952Y0195675D01*
X0530062Y0195834D01*
X0530175Y0195991D01*
X0530292Y0196145D01*
X0530413Y0196296D01*
X0530537Y0196444D01*
X0530665Y0196589D01*
X0530797Y0196730D01*
X0530932Y0196868D01*
X0531070Y0197003D01*
X0531211Y0197135D01*
X0531356Y0197263D01*
X0531504Y0197387D01*
X0531655Y0197508D01*
X0531809Y0197625D01*
X0531966Y0197738D01*
X0532125Y0197848D01*
X0532287Y0197953D01*
X0532451Y0198055D01*
X0532618Y0198152D01*
X0532788Y0198245D01*
X0532959Y0198334D01*
X0533133Y0198419D01*
X0533309Y0198499D01*
X0533486Y0198576D01*
X0533666Y0198647D01*
X0533847Y0198715D01*
X0534030Y0198778D01*
X0534214Y0198836D01*
X0534400Y0198890D01*
X0534587Y0198939D01*
X0534775Y0198984D01*
X0534964Y0199024D01*
X0535154Y0199059D01*
X0535344Y0199090D01*
X0535536Y0199116D01*
X0535728Y0199137D01*
X0535921Y0199154D01*
X0536114Y0199166D01*
X0536307Y0199173D01*
X0536500Y0199175D01*
X0536693Y0199173D01*
X0536886Y0199166D01*
X0537079Y0199154D01*
X0537272Y0199137D01*
X0537464Y0199116D01*
X0537656Y0199090D01*
X0537846Y0199059D01*
X0538036Y0199024D01*
X0538225Y0198984D01*
X0538413Y0198939D01*
X0538600Y0198890D01*
X0538786Y0198836D01*
X0538970Y0198778D01*
X0539153Y0198715D01*
X0539334Y0198647D01*
X0539514Y0198576D01*
X0539691Y0198499D01*
X0539867Y0198419D01*
X0540041Y0198334D01*
X0540212Y0198245D01*
X0540382Y0198152D01*
X0540549Y0198055D01*
X0540713Y0197953D01*
X0540875Y0197848D01*
X0541034Y0197738D01*
X0541191Y0197625D01*
X0541345Y0197508D01*
X0541496Y0197387D01*
X0541644Y0197263D01*
X0541789Y0197135D01*
X0541930Y0197003D01*
X0542068Y0196868D01*
X0542203Y0196730D01*
X0542335Y0196589D01*
X0542463Y0196444D01*
X0542587Y0196296D01*
X0542708Y0196145D01*
X0542825Y0195991D01*
X0542938Y0195834D01*
X0543048Y0195675D01*
X0543153Y0195513D01*
X0543255Y0195349D01*
X0543352Y0195182D01*
X0543445Y0195012D01*
X0543534Y0194841D01*
X0543619Y0194667D01*
X0543699Y0194491D01*
X0543776Y0194314D01*
X0543847Y0194134D01*
X0543915Y0193953D01*
X0543978Y0193770D01*
X0544036Y0193586D01*
X0544090Y0193400D01*
X0544139Y0193213D01*
X0544184Y0193025D01*
X0544224Y0192836D01*
X0544259Y0192646D01*
X0544290Y0192456D01*
X0544316Y0192264D01*
X0544337Y0192072D01*
X0544354Y0191879D01*
X0544366Y0191686D01*
X0544373Y0191493D01*
X0544375Y0191300D01*
X0544373Y0191107D01*
X0544366Y0190914D01*
X0544354Y0190721D01*
X0544337Y0190528D01*
X0544316Y0190336D01*
X0544290Y0190144D01*
X0544259Y0189954D01*
X0544224Y0189764D01*
X0544184Y0189575D01*
X0544139Y0189387D01*
X0544090Y0189200D01*
X0544036Y0189014D01*
X0543978Y0188830D01*
X0543915Y0188647D01*
X0543847Y0188466D01*
X0543776Y0188286D01*
X0543699Y0188109D01*
X0543619Y0187933D01*
X0543534Y0187759D01*
X0543445Y0187588D01*
X0543352Y0187418D01*
X0543255Y0187251D01*
X0543153Y0187087D01*
X0543048Y0186925D01*
X0542938Y0186766D01*
X0542825Y0186609D01*
X0542708Y0186455D01*
X0542587Y0186304D01*
X0542463Y0186156D01*
X0542335Y0186011D01*
X0542203Y0185870D01*
X0542068Y0185732D01*
X0541930Y0185597D01*
X0541789Y0185465D01*
X0541644Y0185337D01*
X0541496Y0185213D01*
X0541345Y0185092D01*
X0541191Y0184975D01*
X0541034Y0184862D01*
X0540875Y0184752D01*
X0540713Y0184647D01*
X0540549Y0184545D01*
X0540382Y0184448D01*
X0540212Y0184355D01*
X0540041Y0184266D01*
X0539867Y0184181D01*
X0539691Y0184101D01*
X0539514Y0184024D01*
X0539334Y0183953D01*
X0539153Y0183885D01*
X0538970Y0183822D01*
X0538786Y0183764D01*
X0538600Y0183710D01*
X0538413Y0183661D01*
X0538225Y0183616D01*
X0538036Y0183576D01*
X0537846Y0183541D01*
X0537656Y0183510D01*
X0537464Y0183484D01*
X0537272Y0183463D01*
X0537079Y0183446D01*
X0536886Y0183434D01*
X0536693Y0183427D01*
X0536500Y0183425D01*
X0536307Y0183427D01*
X0536114Y0183434D01*
X0535921Y0183446D01*
X0535728Y0183463D01*
X0535536Y0183484D01*
X0535344Y0183510D01*
X0535154Y0183541D01*
X0534964Y0183576D01*
X0534775Y0183616D01*
X0534587Y0183661D01*
X0534400Y0183710D01*
X0534214Y0183764D01*
X0534030Y0183822D01*
X0533847Y0183885D01*
X0533666Y0183953D01*
X0533486Y0184024D01*
X0533309Y0184101D01*
X0533133Y0184181D01*
X0532959Y0184266D01*
X0532788Y0184355D01*
X0532618Y0184448D01*
X0532451Y0184545D01*
X0532287Y0184647D01*
X0532125Y0184752D01*
X0531966Y0184862D01*
X0531809Y0184975D01*
X0531655Y0185092D01*
X0531504Y0185213D01*
X0531356Y0185337D01*
X0531211Y0185465D01*
X0531070Y0185597D01*
X0530932Y0185732D01*
X0530797Y0185870D01*
X0530665Y0186011D01*
X0530537Y0186156D01*
X0530413Y0186304D01*
X0530292Y0186455D01*
X0530175Y0186609D01*
X0530062Y0186766D01*
X0529952Y0186925D01*
X0529847Y0187087D01*
X0529745Y0187251D01*
X0529648Y0187418D01*
X0529555Y0187588D01*
X0529466Y0187759D01*
X0529381Y0187933D01*
X0529301Y0188109D01*
X0529224Y0188286D01*
X0529153Y0188466D01*
X0529085Y0188647D01*
X0529022Y0188830D01*
X0528964Y0189014D01*
X0528910Y0189200D01*
X0528861Y0189387D01*
X0528816Y0189575D01*
X0528776Y0189764D01*
X0528741Y0189954D01*
X0528710Y0190144D01*
X0528684Y0190336D01*
X0528663Y0190528D01*
X0528646Y0190721D01*
X0528634Y0190914D01*
X0528627Y0191107D01*
X0528625Y0191300D01*
X0528625Y0266300D02*
X0528627Y0266493D01*
X0528634Y0266686D01*
X0528646Y0266879D01*
X0528663Y0267072D01*
X0528684Y0267264D01*
X0528710Y0267456D01*
X0528741Y0267646D01*
X0528776Y0267836D01*
X0528816Y0268025D01*
X0528861Y0268213D01*
X0528910Y0268400D01*
X0528964Y0268586D01*
X0529022Y0268770D01*
X0529085Y0268953D01*
X0529153Y0269134D01*
X0529224Y0269314D01*
X0529301Y0269491D01*
X0529381Y0269667D01*
X0529466Y0269841D01*
X0529555Y0270012D01*
X0529648Y0270182D01*
X0529745Y0270349D01*
X0529847Y0270513D01*
X0529952Y0270675D01*
X0530062Y0270834D01*
X0530175Y0270991D01*
X0530292Y0271145D01*
X0530413Y0271296D01*
X0530537Y0271444D01*
X0530665Y0271589D01*
X0530797Y0271730D01*
X0530932Y0271868D01*
X0531070Y0272003D01*
X0531211Y0272135D01*
X0531356Y0272263D01*
X0531504Y0272387D01*
X0531655Y0272508D01*
X0531809Y0272625D01*
X0531966Y0272738D01*
X0532125Y0272848D01*
X0532287Y0272953D01*
X0532451Y0273055D01*
X0532618Y0273152D01*
X0532788Y0273245D01*
X0532959Y0273334D01*
X0533133Y0273419D01*
X0533309Y0273499D01*
X0533486Y0273576D01*
X0533666Y0273647D01*
X0533847Y0273715D01*
X0534030Y0273778D01*
X0534214Y0273836D01*
X0534400Y0273890D01*
X0534587Y0273939D01*
X0534775Y0273984D01*
X0534964Y0274024D01*
X0535154Y0274059D01*
X0535344Y0274090D01*
X0535536Y0274116D01*
X0535728Y0274137D01*
X0535921Y0274154D01*
X0536114Y0274166D01*
X0536307Y0274173D01*
X0536500Y0274175D01*
X0536693Y0274173D01*
X0536886Y0274166D01*
X0537079Y0274154D01*
X0537272Y0274137D01*
X0537464Y0274116D01*
X0537656Y0274090D01*
X0537846Y0274059D01*
X0538036Y0274024D01*
X0538225Y0273984D01*
X0538413Y0273939D01*
X0538600Y0273890D01*
X0538786Y0273836D01*
X0538970Y0273778D01*
X0539153Y0273715D01*
X0539334Y0273647D01*
X0539514Y0273576D01*
X0539691Y0273499D01*
X0539867Y0273419D01*
X0540041Y0273334D01*
X0540212Y0273245D01*
X0540382Y0273152D01*
X0540549Y0273055D01*
X0540713Y0272953D01*
X0540875Y0272848D01*
X0541034Y0272738D01*
X0541191Y0272625D01*
X0541345Y0272508D01*
X0541496Y0272387D01*
X0541644Y0272263D01*
X0541789Y0272135D01*
X0541930Y0272003D01*
X0542068Y0271868D01*
X0542203Y0271730D01*
X0542335Y0271589D01*
X0542463Y0271444D01*
X0542587Y0271296D01*
X0542708Y0271145D01*
X0542825Y0270991D01*
X0542938Y0270834D01*
X0543048Y0270675D01*
X0543153Y0270513D01*
X0543255Y0270349D01*
X0543352Y0270182D01*
X0543445Y0270012D01*
X0543534Y0269841D01*
X0543619Y0269667D01*
X0543699Y0269491D01*
X0543776Y0269314D01*
X0543847Y0269134D01*
X0543915Y0268953D01*
X0543978Y0268770D01*
X0544036Y0268586D01*
X0544090Y0268400D01*
X0544139Y0268213D01*
X0544184Y0268025D01*
X0544224Y0267836D01*
X0544259Y0267646D01*
X0544290Y0267456D01*
X0544316Y0267264D01*
X0544337Y0267072D01*
X0544354Y0266879D01*
X0544366Y0266686D01*
X0544373Y0266493D01*
X0544375Y0266300D01*
X0544373Y0266107D01*
X0544366Y0265914D01*
X0544354Y0265721D01*
X0544337Y0265528D01*
X0544316Y0265336D01*
X0544290Y0265144D01*
X0544259Y0264954D01*
X0544224Y0264764D01*
X0544184Y0264575D01*
X0544139Y0264387D01*
X0544090Y0264200D01*
X0544036Y0264014D01*
X0543978Y0263830D01*
X0543915Y0263647D01*
X0543847Y0263466D01*
X0543776Y0263286D01*
X0543699Y0263109D01*
X0543619Y0262933D01*
X0543534Y0262759D01*
X0543445Y0262588D01*
X0543352Y0262418D01*
X0543255Y0262251D01*
X0543153Y0262087D01*
X0543048Y0261925D01*
X0542938Y0261766D01*
X0542825Y0261609D01*
X0542708Y0261455D01*
X0542587Y0261304D01*
X0542463Y0261156D01*
X0542335Y0261011D01*
X0542203Y0260870D01*
X0542068Y0260732D01*
X0541930Y0260597D01*
X0541789Y0260465D01*
X0541644Y0260337D01*
X0541496Y0260213D01*
X0541345Y0260092D01*
X0541191Y0259975D01*
X0541034Y0259862D01*
X0540875Y0259752D01*
X0540713Y0259647D01*
X0540549Y0259545D01*
X0540382Y0259448D01*
X0540212Y0259355D01*
X0540041Y0259266D01*
X0539867Y0259181D01*
X0539691Y0259101D01*
X0539514Y0259024D01*
X0539334Y0258953D01*
X0539153Y0258885D01*
X0538970Y0258822D01*
X0538786Y0258764D01*
X0538600Y0258710D01*
X0538413Y0258661D01*
X0538225Y0258616D01*
X0538036Y0258576D01*
X0537846Y0258541D01*
X0537656Y0258510D01*
X0537464Y0258484D01*
X0537272Y0258463D01*
X0537079Y0258446D01*
X0536886Y0258434D01*
X0536693Y0258427D01*
X0536500Y0258425D01*
X0536307Y0258427D01*
X0536114Y0258434D01*
X0535921Y0258446D01*
X0535728Y0258463D01*
X0535536Y0258484D01*
X0535344Y0258510D01*
X0535154Y0258541D01*
X0534964Y0258576D01*
X0534775Y0258616D01*
X0534587Y0258661D01*
X0534400Y0258710D01*
X0534214Y0258764D01*
X0534030Y0258822D01*
X0533847Y0258885D01*
X0533666Y0258953D01*
X0533486Y0259024D01*
X0533309Y0259101D01*
X0533133Y0259181D01*
X0532959Y0259266D01*
X0532788Y0259355D01*
X0532618Y0259448D01*
X0532451Y0259545D01*
X0532287Y0259647D01*
X0532125Y0259752D01*
X0531966Y0259862D01*
X0531809Y0259975D01*
X0531655Y0260092D01*
X0531504Y0260213D01*
X0531356Y0260337D01*
X0531211Y0260465D01*
X0531070Y0260597D01*
X0530932Y0260732D01*
X0530797Y0260870D01*
X0530665Y0261011D01*
X0530537Y0261156D01*
X0530413Y0261304D01*
X0530292Y0261455D01*
X0530175Y0261609D01*
X0530062Y0261766D01*
X0529952Y0261925D01*
X0529847Y0262087D01*
X0529745Y0262251D01*
X0529648Y0262418D01*
X0529555Y0262588D01*
X0529466Y0262759D01*
X0529381Y0262933D01*
X0529301Y0263109D01*
X0529224Y0263286D01*
X0529153Y0263466D01*
X0529085Y0263647D01*
X0529022Y0263830D01*
X0528964Y0264014D01*
X0528910Y0264200D01*
X0528861Y0264387D01*
X0528816Y0264575D01*
X0528776Y0264764D01*
X0528741Y0264954D01*
X0528710Y0265144D01*
X0528684Y0265336D01*
X0528663Y0265528D01*
X0528646Y0265721D01*
X0528634Y0265914D01*
X0528627Y0266107D01*
X0528625Y0266300D01*
X0528625Y0341300D02*
X0528627Y0341493D01*
X0528634Y0341686D01*
X0528646Y0341879D01*
X0528663Y0342072D01*
X0528684Y0342264D01*
X0528710Y0342456D01*
X0528741Y0342646D01*
X0528776Y0342836D01*
X0528816Y0343025D01*
X0528861Y0343213D01*
X0528910Y0343400D01*
X0528964Y0343586D01*
X0529022Y0343770D01*
X0529085Y0343953D01*
X0529153Y0344134D01*
X0529224Y0344314D01*
X0529301Y0344491D01*
X0529381Y0344667D01*
X0529466Y0344841D01*
X0529555Y0345012D01*
X0529648Y0345182D01*
X0529745Y0345349D01*
X0529847Y0345513D01*
X0529952Y0345675D01*
X0530062Y0345834D01*
X0530175Y0345991D01*
X0530292Y0346145D01*
X0530413Y0346296D01*
X0530537Y0346444D01*
X0530665Y0346589D01*
X0530797Y0346730D01*
X0530932Y0346868D01*
X0531070Y0347003D01*
X0531211Y0347135D01*
X0531356Y0347263D01*
X0531504Y0347387D01*
X0531655Y0347508D01*
X0531809Y0347625D01*
X0531966Y0347738D01*
X0532125Y0347848D01*
X0532287Y0347953D01*
X0532451Y0348055D01*
X0532618Y0348152D01*
X0532788Y0348245D01*
X0532959Y0348334D01*
X0533133Y0348419D01*
X0533309Y0348499D01*
X0533486Y0348576D01*
X0533666Y0348647D01*
X0533847Y0348715D01*
X0534030Y0348778D01*
X0534214Y0348836D01*
X0534400Y0348890D01*
X0534587Y0348939D01*
X0534775Y0348984D01*
X0534964Y0349024D01*
X0535154Y0349059D01*
X0535344Y0349090D01*
X0535536Y0349116D01*
X0535728Y0349137D01*
X0535921Y0349154D01*
X0536114Y0349166D01*
X0536307Y0349173D01*
X0536500Y0349175D01*
X0536693Y0349173D01*
X0536886Y0349166D01*
X0537079Y0349154D01*
X0537272Y0349137D01*
X0537464Y0349116D01*
X0537656Y0349090D01*
X0537846Y0349059D01*
X0538036Y0349024D01*
X0538225Y0348984D01*
X0538413Y0348939D01*
X0538600Y0348890D01*
X0538786Y0348836D01*
X0538970Y0348778D01*
X0539153Y0348715D01*
X0539334Y0348647D01*
X0539514Y0348576D01*
X0539691Y0348499D01*
X0539867Y0348419D01*
X0540041Y0348334D01*
X0540212Y0348245D01*
X0540382Y0348152D01*
X0540549Y0348055D01*
X0540713Y0347953D01*
X0540875Y0347848D01*
X0541034Y0347738D01*
X0541191Y0347625D01*
X0541345Y0347508D01*
X0541496Y0347387D01*
X0541644Y0347263D01*
X0541789Y0347135D01*
X0541930Y0347003D01*
X0542068Y0346868D01*
X0542203Y0346730D01*
X0542335Y0346589D01*
X0542463Y0346444D01*
X0542587Y0346296D01*
X0542708Y0346145D01*
X0542825Y0345991D01*
X0542938Y0345834D01*
X0543048Y0345675D01*
X0543153Y0345513D01*
X0543255Y0345349D01*
X0543352Y0345182D01*
X0543445Y0345012D01*
X0543534Y0344841D01*
X0543619Y0344667D01*
X0543699Y0344491D01*
X0543776Y0344314D01*
X0543847Y0344134D01*
X0543915Y0343953D01*
X0543978Y0343770D01*
X0544036Y0343586D01*
X0544090Y0343400D01*
X0544139Y0343213D01*
X0544184Y0343025D01*
X0544224Y0342836D01*
X0544259Y0342646D01*
X0544290Y0342456D01*
X0544316Y0342264D01*
X0544337Y0342072D01*
X0544354Y0341879D01*
X0544366Y0341686D01*
X0544373Y0341493D01*
X0544375Y0341300D01*
X0544373Y0341107D01*
X0544366Y0340914D01*
X0544354Y0340721D01*
X0544337Y0340528D01*
X0544316Y0340336D01*
X0544290Y0340144D01*
X0544259Y0339954D01*
X0544224Y0339764D01*
X0544184Y0339575D01*
X0544139Y0339387D01*
X0544090Y0339200D01*
X0544036Y0339014D01*
X0543978Y0338830D01*
X0543915Y0338647D01*
X0543847Y0338466D01*
X0543776Y0338286D01*
X0543699Y0338109D01*
X0543619Y0337933D01*
X0543534Y0337759D01*
X0543445Y0337588D01*
X0543352Y0337418D01*
X0543255Y0337251D01*
X0543153Y0337087D01*
X0543048Y0336925D01*
X0542938Y0336766D01*
X0542825Y0336609D01*
X0542708Y0336455D01*
X0542587Y0336304D01*
X0542463Y0336156D01*
X0542335Y0336011D01*
X0542203Y0335870D01*
X0542068Y0335732D01*
X0541930Y0335597D01*
X0541789Y0335465D01*
X0541644Y0335337D01*
X0541496Y0335213D01*
X0541345Y0335092D01*
X0541191Y0334975D01*
X0541034Y0334862D01*
X0540875Y0334752D01*
X0540713Y0334647D01*
X0540549Y0334545D01*
X0540382Y0334448D01*
X0540212Y0334355D01*
X0540041Y0334266D01*
X0539867Y0334181D01*
X0539691Y0334101D01*
X0539514Y0334024D01*
X0539334Y0333953D01*
X0539153Y0333885D01*
X0538970Y0333822D01*
X0538786Y0333764D01*
X0538600Y0333710D01*
X0538413Y0333661D01*
X0538225Y0333616D01*
X0538036Y0333576D01*
X0537846Y0333541D01*
X0537656Y0333510D01*
X0537464Y0333484D01*
X0537272Y0333463D01*
X0537079Y0333446D01*
X0536886Y0333434D01*
X0536693Y0333427D01*
X0536500Y0333425D01*
X0536307Y0333427D01*
X0536114Y0333434D01*
X0535921Y0333446D01*
X0535728Y0333463D01*
X0535536Y0333484D01*
X0535344Y0333510D01*
X0535154Y0333541D01*
X0534964Y0333576D01*
X0534775Y0333616D01*
X0534587Y0333661D01*
X0534400Y0333710D01*
X0534214Y0333764D01*
X0534030Y0333822D01*
X0533847Y0333885D01*
X0533666Y0333953D01*
X0533486Y0334024D01*
X0533309Y0334101D01*
X0533133Y0334181D01*
X0532959Y0334266D01*
X0532788Y0334355D01*
X0532618Y0334448D01*
X0532451Y0334545D01*
X0532287Y0334647D01*
X0532125Y0334752D01*
X0531966Y0334862D01*
X0531809Y0334975D01*
X0531655Y0335092D01*
X0531504Y0335213D01*
X0531356Y0335337D01*
X0531211Y0335465D01*
X0531070Y0335597D01*
X0530932Y0335732D01*
X0530797Y0335870D01*
X0530665Y0336011D01*
X0530537Y0336156D01*
X0530413Y0336304D01*
X0530292Y0336455D01*
X0530175Y0336609D01*
X0530062Y0336766D01*
X0529952Y0336925D01*
X0529847Y0337087D01*
X0529745Y0337251D01*
X0529648Y0337418D01*
X0529555Y0337588D01*
X0529466Y0337759D01*
X0529381Y0337933D01*
X0529301Y0338109D01*
X0529224Y0338286D01*
X0529153Y0338466D01*
X0529085Y0338647D01*
X0529022Y0338830D01*
X0528964Y0339014D01*
X0528910Y0339200D01*
X0528861Y0339387D01*
X0528816Y0339575D01*
X0528776Y0339764D01*
X0528741Y0339954D01*
X0528710Y0340144D01*
X0528684Y0340336D01*
X0528663Y0340528D01*
X0528646Y0340721D01*
X0528634Y0340914D01*
X0528627Y0341107D01*
X0528625Y0341300D01*
X0603625Y0341300D02*
X0603627Y0341493D01*
X0603634Y0341686D01*
X0603646Y0341879D01*
X0603663Y0342072D01*
X0603684Y0342264D01*
X0603710Y0342456D01*
X0603741Y0342646D01*
X0603776Y0342836D01*
X0603816Y0343025D01*
X0603861Y0343213D01*
X0603910Y0343400D01*
X0603964Y0343586D01*
X0604022Y0343770D01*
X0604085Y0343953D01*
X0604153Y0344134D01*
X0604224Y0344314D01*
X0604301Y0344491D01*
X0604381Y0344667D01*
X0604466Y0344841D01*
X0604555Y0345012D01*
X0604648Y0345182D01*
X0604745Y0345349D01*
X0604847Y0345513D01*
X0604952Y0345675D01*
X0605062Y0345834D01*
X0605175Y0345991D01*
X0605292Y0346145D01*
X0605413Y0346296D01*
X0605537Y0346444D01*
X0605665Y0346589D01*
X0605797Y0346730D01*
X0605932Y0346868D01*
X0606070Y0347003D01*
X0606211Y0347135D01*
X0606356Y0347263D01*
X0606504Y0347387D01*
X0606655Y0347508D01*
X0606809Y0347625D01*
X0606966Y0347738D01*
X0607125Y0347848D01*
X0607287Y0347953D01*
X0607451Y0348055D01*
X0607618Y0348152D01*
X0607788Y0348245D01*
X0607959Y0348334D01*
X0608133Y0348419D01*
X0608309Y0348499D01*
X0608486Y0348576D01*
X0608666Y0348647D01*
X0608847Y0348715D01*
X0609030Y0348778D01*
X0609214Y0348836D01*
X0609400Y0348890D01*
X0609587Y0348939D01*
X0609775Y0348984D01*
X0609964Y0349024D01*
X0610154Y0349059D01*
X0610344Y0349090D01*
X0610536Y0349116D01*
X0610728Y0349137D01*
X0610921Y0349154D01*
X0611114Y0349166D01*
X0611307Y0349173D01*
X0611500Y0349175D01*
X0611693Y0349173D01*
X0611886Y0349166D01*
X0612079Y0349154D01*
X0612272Y0349137D01*
X0612464Y0349116D01*
X0612656Y0349090D01*
X0612846Y0349059D01*
X0613036Y0349024D01*
X0613225Y0348984D01*
X0613413Y0348939D01*
X0613600Y0348890D01*
X0613786Y0348836D01*
X0613970Y0348778D01*
X0614153Y0348715D01*
X0614334Y0348647D01*
X0614514Y0348576D01*
X0614691Y0348499D01*
X0614867Y0348419D01*
X0615041Y0348334D01*
X0615212Y0348245D01*
X0615382Y0348152D01*
X0615549Y0348055D01*
X0615713Y0347953D01*
X0615875Y0347848D01*
X0616034Y0347738D01*
X0616191Y0347625D01*
X0616345Y0347508D01*
X0616496Y0347387D01*
X0616644Y0347263D01*
X0616789Y0347135D01*
X0616930Y0347003D01*
X0617068Y0346868D01*
X0617203Y0346730D01*
X0617335Y0346589D01*
X0617463Y0346444D01*
X0617587Y0346296D01*
X0617708Y0346145D01*
X0617825Y0345991D01*
X0617938Y0345834D01*
X0618048Y0345675D01*
X0618153Y0345513D01*
X0618255Y0345349D01*
X0618352Y0345182D01*
X0618445Y0345012D01*
X0618534Y0344841D01*
X0618619Y0344667D01*
X0618699Y0344491D01*
X0618776Y0344314D01*
X0618847Y0344134D01*
X0618915Y0343953D01*
X0618978Y0343770D01*
X0619036Y0343586D01*
X0619090Y0343400D01*
X0619139Y0343213D01*
X0619184Y0343025D01*
X0619224Y0342836D01*
X0619259Y0342646D01*
X0619290Y0342456D01*
X0619316Y0342264D01*
X0619337Y0342072D01*
X0619354Y0341879D01*
X0619366Y0341686D01*
X0619373Y0341493D01*
X0619375Y0341300D01*
X0619373Y0341107D01*
X0619366Y0340914D01*
X0619354Y0340721D01*
X0619337Y0340528D01*
X0619316Y0340336D01*
X0619290Y0340144D01*
X0619259Y0339954D01*
X0619224Y0339764D01*
X0619184Y0339575D01*
X0619139Y0339387D01*
X0619090Y0339200D01*
X0619036Y0339014D01*
X0618978Y0338830D01*
X0618915Y0338647D01*
X0618847Y0338466D01*
X0618776Y0338286D01*
X0618699Y0338109D01*
X0618619Y0337933D01*
X0618534Y0337759D01*
X0618445Y0337588D01*
X0618352Y0337418D01*
X0618255Y0337251D01*
X0618153Y0337087D01*
X0618048Y0336925D01*
X0617938Y0336766D01*
X0617825Y0336609D01*
X0617708Y0336455D01*
X0617587Y0336304D01*
X0617463Y0336156D01*
X0617335Y0336011D01*
X0617203Y0335870D01*
X0617068Y0335732D01*
X0616930Y0335597D01*
X0616789Y0335465D01*
X0616644Y0335337D01*
X0616496Y0335213D01*
X0616345Y0335092D01*
X0616191Y0334975D01*
X0616034Y0334862D01*
X0615875Y0334752D01*
X0615713Y0334647D01*
X0615549Y0334545D01*
X0615382Y0334448D01*
X0615212Y0334355D01*
X0615041Y0334266D01*
X0614867Y0334181D01*
X0614691Y0334101D01*
X0614514Y0334024D01*
X0614334Y0333953D01*
X0614153Y0333885D01*
X0613970Y0333822D01*
X0613786Y0333764D01*
X0613600Y0333710D01*
X0613413Y0333661D01*
X0613225Y0333616D01*
X0613036Y0333576D01*
X0612846Y0333541D01*
X0612656Y0333510D01*
X0612464Y0333484D01*
X0612272Y0333463D01*
X0612079Y0333446D01*
X0611886Y0333434D01*
X0611693Y0333427D01*
X0611500Y0333425D01*
X0611307Y0333427D01*
X0611114Y0333434D01*
X0610921Y0333446D01*
X0610728Y0333463D01*
X0610536Y0333484D01*
X0610344Y0333510D01*
X0610154Y0333541D01*
X0609964Y0333576D01*
X0609775Y0333616D01*
X0609587Y0333661D01*
X0609400Y0333710D01*
X0609214Y0333764D01*
X0609030Y0333822D01*
X0608847Y0333885D01*
X0608666Y0333953D01*
X0608486Y0334024D01*
X0608309Y0334101D01*
X0608133Y0334181D01*
X0607959Y0334266D01*
X0607788Y0334355D01*
X0607618Y0334448D01*
X0607451Y0334545D01*
X0607287Y0334647D01*
X0607125Y0334752D01*
X0606966Y0334862D01*
X0606809Y0334975D01*
X0606655Y0335092D01*
X0606504Y0335213D01*
X0606356Y0335337D01*
X0606211Y0335465D01*
X0606070Y0335597D01*
X0605932Y0335732D01*
X0605797Y0335870D01*
X0605665Y0336011D01*
X0605537Y0336156D01*
X0605413Y0336304D01*
X0605292Y0336455D01*
X0605175Y0336609D01*
X0605062Y0336766D01*
X0604952Y0336925D01*
X0604847Y0337087D01*
X0604745Y0337251D01*
X0604648Y0337418D01*
X0604555Y0337588D01*
X0604466Y0337759D01*
X0604381Y0337933D01*
X0604301Y0338109D01*
X0604224Y0338286D01*
X0604153Y0338466D01*
X0604085Y0338647D01*
X0604022Y0338830D01*
X0603964Y0339014D01*
X0603910Y0339200D01*
X0603861Y0339387D01*
X0603816Y0339575D01*
X0603776Y0339764D01*
X0603741Y0339954D01*
X0603710Y0340144D01*
X0603684Y0340336D01*
X0603663Y0340528D01*
X0603646Y0340721D01*
X0603634Y0340914D01*
X0603627Y0341107D01*
X0603625Y0341300D01*
X0603625Y0266300D02*
X0603627Y0266493D01*
X0603634Y0266686D01*
X0603646Y0266879D01*
X0603663Y0267072D01*
X0603684Y0267264D01*
X0603710Y0267456D01*
X0603741Y0267646D01*
X0603776Y0267836D01*
X0603816Y0268025D01*
X0603861Y0268213D01*
X0603910Y0268400D01*
X0603964Y0268586D01*
X0604022Y0268770D01*
X0604085Y0268953D01*
X0604153Y0269134D01*
X0604224Y0269314D01*
X0604301Y0269491D01*
X0604381Y0269667D01*
X0604466Y0269841D01*
X0604555Y0270012D01*
X0604648Y0270182D01*
X0604745Y0270349D01*
X0604847Y0270513D01*
X0604952Y0270675D01*
X0605062Y0270834D01*
X0605175Y0270991D01*
X0605292Y0271145D01*
X0605413Y0271296D01*
X0605537Y0271444D01*
X0605665Y0271589D01*
X0605797Y0271730D01*
X0605932Y0271868D01*
X0606070Y0272003D01*
X0606211Y0272135D01*
X0606356Y0272263D01*
X0606504Y0272387D01*
X0606655Y0272508D01*
X0606809Y0272625D01*
X0606966Y0272738D01*
X0607125Y0272848D01*
X0607287Y0272953D01*
X0607451Y0273055D01*
X0607618Y0273152D01*
X0607788Y0273245D01*
X0607959Y0273334D01*
X0608133Y0273419D01*
X0608309Y0273499D01*
X0608486Y0273576D01*
X0608666Y0273647D01*
X0608847Y0273715D01*
X0609030Y0273778D01*
X0609214Y0273836D01*
X0609400Y0273890D01*
X0609587Y0273939D01*
X0609775Y0273984D01*
X0609964Y0274024D01*
X0610154Y0274059D01*
X0610344Y0274090D01*
X0610536Y0274116D01*
X0610728Y0274137D01*
X0610921Y0274154D01*
X0611114Y0274166D01*
X0611307Y0274173D01*
X0611500Y0274175D01*
X0611693Y0274173D01*
X0611886Y0274166D01*
X0612079Y0274154D01*
X0612272Y0274137D01*
X0612464Y0274116D01*
X0612656Y0274090D01*
X0612846Y0274059D01*
X0613036Y0274024D01*
X0613225Y0273984D01*
X0613413Y0273939D01*
X0613600Y0273890D01*
X0613786Y0273836D01*
X0613970Y0273778D01*
X0614153Y0273715D01*
X0614334Y0273647D01*
X0614514Y0273576D01*
X0614691Y0273499D01*
X0614867Y0273419D01*
X0615041Y0273334D01*
X0615212Y0273245D01*
X0615382Y0273152D01*
X0615549Y0273055D01*
X0615713Y0272953D01*
X0615875Y0272848D01*
X0616034Y0272738D01*
X0616191Y0272625D01*
X0616345Y0272508D01*
X0616496Y0272387D01*
X0616644Y0272263D01*
X0616789Y0272135D01*
X0616930Y0272003D01*
X0617068Y0271868D01*
X0617203Y0271730D01*
X0617335Y0271589D01*
X0617463Y0271444D01*
X0617587Y0271296D01*
X0617708Y0271145D01*
X0617825Y0270991D01*
X0617938Y0270834D01*
X0618048Y0270675D01*
X0618153Y0270513D01*
X0618255Y0270349D01*
X0618352Y0270182D01*
X0618445Y0270012D01*
X0618534Y0269841D01*
X0618619Y0269667D01*
X0618699Y0269491D01*
X0618776Y0269314D01*
X0618847Y0269134D01*
X0618915Y0268953D01*
X0618978Y0268770D01*
X0619036Y0268586D01*
X0619090Y0268400D01*
X0619139Y0268213D01*
X0619184Y0268025D01*
X0619224Y0267836D01*
X0619259Y0267646D01*
X0619290Y0267456D01*
X0619316Y0267264D01*
X0619337Y0267072D01*
X0619354Y0266879D01*
X0619366Y0266686D01*
X0619373Y0266493D01*
X0619375Y0266300D01*
X0619373Y0266107D01*
X0619366Y0265914D01*
X0619354Y0265721D01*
X0619337Y0265528D01*
X0619316Y0265336D01*
X0619290Y0265144D01*
X0619259Y0264954D01*
X0619224Y0264764D01*
X0619184Y0264575D01*
X0619139Y0264387D01*
X0619090Y0264200D01*
X0619036Y0264014D01*
X0618978Y0263830D01*
X0618915Y0263647D01*
X0618847Y0263466D01*
X0618776Y0263286D01*
X0618699Y0263109D01*
X0618619Y0262933D01*
X0618534Y0262759D01*
X0618445Y0262588D01*
X0618352Y0262418D01*
X0618255Y0262251D01*
X0618153Y0262087D01*
X0618048Y0261925D01*
X0617938Y0261766D01*
X0617825Y0261609D01*
X0617708Y0261455D01*
X0617587Y0261304D01*
X0617463Y0261156D01*
X0617335Y0261011D01*
X0617203Y0260870D01*
X0617068Y0260732D01*
X0616930Y0260597D01*
X0616789Y0260465D01*
X0616644Y0260337D01*
X0616496Y0260213D01*
X0616345Y0260092D01*
X0616191Y0259975D01*
X0616034Y0259862D01*
X0615875Y0259752D01*
X0615713Y0259647D01*
X0615549Y0259545D01*
X0615382Y0259448D01*
X0615212Y0259355D01*
X0615041Y0259266D01*
X0614867Y0259181D01*
X0614691Y0259101D01*
X0614514Y0259024D01*
X0614334Y0258953D01*
X0614153Y0258885D01*
X0613970Y0258822D01*
X0613786Y0258764D01*
X0613600Y0258710D01*
X0613413Y0258661D01*
X0613225Y0258616D01*
X0613036Y0258576D01*
X0612846Y0258541D01*
X0612656Y0258510D01*
X0612464Y0258484D01*
X0612272Y0258463D01*
X0612079Y0258446D01*
X0611886Y0258434D01*
X0611693Y0258427D01*
X0611500Y0258425D01*
X0611307Y0258427D01*
X0611114Y0258434D01*
X0610921Y0258446D01*
X0610728Y0258463D01*
X0610536Y0258484D01*
X0610344Y0258510D01*
X0610154Y0258541D01*
X0609964Y0258576D01*
X0609775Y0258616D01*
X0609587Y0258661D01*
X0609400Y0258710D01*
X0609214Y0258764D01*
X0609030Y0258822D01*
X0608847Y0258885D01*
X0608666Y0258953D01*
X0608486Y0259024D01*
X0608309Y0259101D01*
X0608133Y0259181D01*
X0607959Y0259266D01*
X0607788Y0259355D01*
X0607618Y0259448D01*
X0607451Y0259545D01*
X0607287Y0259647D01*
X0607125Y0259752D01*
X0606966Y0259862D01*
X0606809Y0259975D01*
X0606655Y0260092D01*
X0606504Y0260213D01*
X0606356Y0260337D01*
X0606211Y0260465D01*
X0606070Y0260597D01*
X0605932Y0260732D01*
X0605797Y0260870D01*
X0605665Y0261011D01*
X0605537Y0261156D01*
X0605413Y0261304D01*
X0605292Y0261455D01*
X0605175Y0261609D01*
X0605062Y0261766D01*
X0604952Y0261925D01*
X0604847Y0262087D01*
X0604745Y0262251D01*
X0604648Y0262418D01*
X0604555Y0262588D01*
X0604466Y0262759D01*
X0604381Y0262933D01*
X0604301Y0263109D01*
X0604224Y0263286D01*
X0604153Y0263466D01*
X0604085Y0263647D01*
X0604022Y0263830D01*
X0603964Y0264014D01*
X0603910Y0264200D01*
X0603861Y0264387D01*
X0603816Y0264575D01*
X0603776Y0264764D01*
X0603741Y0264954D01*
X0603710Y0265144D01*
X0603684Y0265336D01*
X0603663Y0265528D01*
X0603646Y0265721D01*
X0603634Y0265914D01*
X0603627Y0266107D01*
X0603625Y0266300D01*
X0603625Y0191300D02*
X0603627Y0191493D01*
X0603634Y0191686D01*
X0603646Y0191879D01*
X0603663Y0192072D01*
X0603684Y0192264D01*
X0603710Y0192456D01*
X0603741Y0192646D01*
X0603776Y0192836D01*
X0603816Y0193025D01*
X0603861Y0193213D01*
X0603910Y0193400D01*
X0603964Y0193586D01*
X0604022Y0193770D01*
X0604085Y0193953D01*
X0604153Y0194134D01*
X0604224Y0194314D01*
X0604301Y0194491D01*
X0604381Y0194667D01*
X0604466Y0194841D01*
X0604555Y0195012D01*
X0604648Y0195182D01*
X0604745Y0195349D01*
X0604847Y0195513D01*
X0604952Y0195675D01*
X0605062Y0195834D01*
X0605175Y0195991D01*
X0605292Y0196145D01*
X0605413Y0196296D01*
X0605537Y0196444D01*
X0605665Y0196589D01*
X0605797Y0196730D01*
X0605932Y0196868D01*
X0606070Y0197003D01*
X0606211Y0197135D01*
X0606356Y0197263D01*
X0606504Y0197387D01*
X0606655Y0197508D01*
X0606809Y0197625D01*
X0606966Y0197738D01*
X0607125Y0197848D01*
X0607287Y0197953D01*
X0607451Y0198055D01*
X0607618Y0198152D01*
X0607788Y0198245D01*
X0607959Y0198334D01*
X0608133Y0198419D01*
X0608309Y0198499D01*
X0608486Y0198576D01*
X0608666Y0198647D01*
X0608847Y0198715D01*
X0609030Y0198778D01*
X0609214Y0198836D01*
X0609400Y0198890D01*
X0609587Y0198939D01*
X0609775Y0198984D01*
X0609964Y0199024D01*
X0610154Y0199059D01*
X0610344Y0199090D01*
X0610536Y0199116D01*
X0610728Y0199137D01*
X0610921Y0199154D01*
X0611114Y0199166D01*
X0611307Y0199173D01*
X0611500Y0199175D01*
X0611693Y0199173D01*
X0611886Y0199166D01*
X0612079Y0199154D01*
X0612272Y0199137D01*
X0612464Y0199116D01*
X0612656Y0199090D01*
X0612846Y0199059D01*
X0613036Y0199024D01*
X0613225Y0198984D01*
X0613413Y0198939D01*
X0613600Y0198890D01*
X0613786Y0198836D01*
X0613970Y0198778D01*
X0614153Y0198715D01*
X0614334Y0198647D01*
X0614514Y0198576D01*
X0614691Y0198499D01*
X0614867Y0198419D01*
X0615041Y0198334D01*
X0615212Y0198245D01*
X0615382Y0198152D01*
X0615549Y0198055D01*
X0615713Y0197953D01*
X0615875Y0197848D01*
X0616034Y0197738D01*
X0616191Y0197625D01*
X0616345Y0197508D01*
X0616496Y0197387D01*
X0616644Y0197263D01*
X0616789Y0197135D01*
X0616930Y0197003D01*
X0617068Y0196868D01*
X0617203Y0196730D01*
X0617335Y0196589D01*
X0617463Y0196444D01*
X0617587Y0196296D01*
X0617708Y0196145D01*
X0617825Y0195991D01*
X0617938Y0195834D01*
X0618048Y0195675D01*
X0618153Y0195513D01*
X0618255Y0195349D01*
X0618352Y0195182D01*
X0618445Y0195012D01*
X0618534Y0194841D01*
X0618619Y0194667D01*
X0618699Y0194491D01*
X0618776Y0194314D01*
X0618847Y0194134D01*
X0618915Y0193953D01*
X0618978Y0193770D01*
X0619036Y0193586D01*
X0619090Y0193400D01*
X0619139Y0193213D01*
X0619184Y0193025D01*
X0619224Y0192836D01*
X0619259Y0192646D01*
X0619290Y0192456D01*
X0619316Y0192264D01*
X0619337Y0192072D01*
X0619354Y0191879D01*
X0619366Y0191686D01*
X0619373Y0191493D01*
X0619375Y0191300D01*
X0619373Y0191107D01*
X0619366Y0190914D01*
X0619354Y0190721D01*
X0619337Y0190528D01*
X0619316Y0190336D01*
X0619290Y0190144D01*
X0619259Y0189954D01*
X0619224Y0189764D01*
X0619184Y0189575D01*
X0619139Y0189387D01*
X0619090Y0189200D01*
X0619036Y0189014D01*
X0618978Y0188830D01*
X0618915Y0188647D01*
X0618847Y0188466D01*
X0618776Y0188286D01*
X0618699Y0188109D01*
X0618619Y0187933D01*
X0618534Y0187759D01*
X0618445Y0187588D01*
X0618352Y0187418D01*
X0618255Y0187251D01*
X0618153Y0187087D01*
X0618048Y0186925D01*
X0617938Y0186766D01*
X0617825Y0186609D01*
X0617708Y0186455D01*
X0617587Y0186304D01*
X0617463Y0186156D01*
X0617335Y0186011D01*
X0617203Y0185870D01*
X0617068Y0185732D01*
X0616930Y0185597D01*
X0616789Y0185465D01*
X0616644Y0185337D01*
X0616496Y0185213D01*
X0616345Y0185092D01*
X0616191Y0184975D01*
X0616034Y0184862D01*
X0615875Y0184752D01*
X0615713Y0184647D01*
X0615549Y0184545D01*
X0615382Y0184448D01*
X0615212Y0184355D01*
X0615041Y0184266D01*
X0614867Y0184181D01*
X0614691Y0184101D01*
X0614514Y0184024D01*
X0614334Y0183953D01*
X0614153Y0183885D01*
X0613970Y0183822D01*
X0613786Y0183764D01*
X0613600Y0183710D01*
X0613413Y0183661D01*
X0613225Y0183616D01*
X0613036Y0183576D01*
X0612846Y0183541D01*
X0612656Y0183510D01*
X0612464Y0183484D01*
X0612272Y0183463D01*
X0612079Y0183446D01*
X0611886Y0183434D01*
X0611693Y0183427D01*
X0611500Y0183425D01*
X0611307Y0183427D01*
X0611114Y0183434D01*
X0610921Y0183446D01*
X0610728Y0183463D01*
X0610536Y0183484D01*
X0610344Y0183510D01*
X0610154Y0183541D01*
X0609964Y0183576D01*
X0609775Y0183616D01*
X0609587Y0183661D01*
X0609400Y0183710D01*
X0609214Y0183764D01*
X0609030Y0183822D01*
X0608847Y0183885D01*
X0608666Y0183953D01*
X0608486Y0184024D01*
X0608309Y0184101D01*
X0608133Y0184181D01*
X0607959Y0184266D01*
X0607788Y0184355D01*
X0607618Y0184448D01*
X0607451Y0184545D01*
X0607287Y0184647D01*
X0607125Y0184752D01*
X0606966Y0184862D01*
X0606809Y0184975D01*
X0606655Y0185092D01*
X0606504Y0185213D01*
X0606356Y0185337D01*
X0606211Y0185465D01*
X0606070Y0185597D01*
X0605932Y0185732D01*
X0605797Y0185870D01*
X0605665Y0186011D01*
X0605537Y0186156D01*
X0605413Y0186304D01*
X0605292Y0186455D01*
X0605175Y0186609D01*
X0605062Y0186766D01*
X0604952Y0186925D01*
X0604847Y0187087D01*
X0604745Y0187251D01*
X0604648Y0187418D01*
X0604555Y0187588D01*
X0604466Y0187759D01*
X0604381Y0187933D01*
X0604301Y0188109D01*
X0604224Y0188286D01*
X0604153Y0188466D01*
X0604085Y0188647D01*
X0604022Y0188830D01*
X0603964Y0189014D01*
X0603910Y0189200D01*
X0603861Y0189387D01*
X0603816Y0189575D01*
X0603776Y0189764D01*
X0603741Y0189954D01*
X0603710Y0190144D01*
X0603684Y0190336D01*
X0603663Y0190528D01*
X0603646Y0190721D01*
X0603634Y0190914D01*
X0603627Y0191107D01*
X0603625Y0191300D01*
X0603625Y0116300D02*
X0603627Y0116493D01*
X0603634Y0116686D01*
X0603646Y0116879D01*
X0603663Y0117072D01*
X0603684Y0117264D01*
X0603710Y0117456D01*
X0603741Y0117646D01*
X0603776Y0117836D01*
X0603816Y0118025D01*
X0603861Y0118213D01*
X0603910Y0118400D01*
X0603964Y0118586D01*
X0604022Y0118770D01*
X0604085Y0118953D01*
X0604153Y0119134D01*
X0604224Y0119314D01*
X0604301Y0119491D01*
X0604381Y0119667D01*
X0604466Y0119841D01*
X0604555Y0120012D01*
X0604648Y0120182D01*
X0604745Y0120349D01*
X0604847Y0120513D01*
X0604952Y0120675D01*
X0605062Y0120834D01*
X0605175Y0120991D01*
X0605292Y0121145D01*
X0605413Y0121296D01*
X0605537Y0121444D01*
X0605665Y0121589D01*
X0605797Y0121730D01*
X0605932Y0121868D01*
X0606070Y0122003D01*
X0606211Y0122135D01*
X0606356Y0122263D01*
X0606504Y0122387D01*
X0606655Y0122508D01*
X0606809Y0122625D01*
X0606966Y0122738D01*
X0607125Y0122848D01*
X0607287Y0122953D01*
X0607451Y0123055D01*
X0607618Y0123152D01*
X0607788Y0123245D01*
X0607959Y0123334D01*
X0608133Y0123419D01*
X0608309Y0123499D01*
X0608486Y0123576D01*
X0608666Y0123647D01*
X0608847Y0123715D01*
X0609030Y0123778D01*
X0609214Y0123836D01*
X0609400Y0123890D01*
X0609587Y0123939D01*
X0609775Y0123984D01*
X0609964Y0124024D01*
X0610154Y0124059D01*
X0610344Y0124090D01*
X0610536Y0124116D01*
X0610728Y0124137D01*
X0610921Y0124154D01*
X0611114Y0124166D01*
X0611307Y0124173D01*
X0611500Y0124175D01*
X0611693Y0124173D01*
X0611886Y0124166D01*
X0612079Y0124154D01*
X0612272Y0124137D01*
X0612464Y0124116D01*
X0612656Y0124090D01*
X0612846Y0124059D01*
X0613036Y0124024D01*
X0613225Y0123984D01*
X0613413Y0123939D01*
X0613600Y0123890D01*
X0613786Y0123836D01*
X0613970Y0123778D01*
X0614153Y0123715D01*
X0614334Y0123647D01*
X0614514Y0123576D01*
X0614691Y0123499D01*
X0614867Y0123419D01*
X0615041Y0123334D01*
X0615212Y0123245D01*
X0615382Y0123152D01*
X0615549Y0123055D01*
X0615713Y0122953D01*
X0615875Y0122848D01*
X0616034Y0122738D01*
X0616191Y0122625D01*
X0616345Y0122508D01*
X0616496Y0122387D01*
X0616644Y0122263D01*
X0616789Y0122135D01*
X0616930Y0122003D01*
X0617068Y0121868D01*
X0617203Y0121730D01*
X0617335Y0121589D01*
X0617463Y0121444D01*
X0617587Y0121296D01*
X0617708Y0121145D01*
X0617825Y0120991D01*
X0617938Y0120834D01*
X0618048Y0120675D01*
X0618153Y0120513D01*
X0618255Y0120349D01*
X0618352Y0120182D01*
X0618445Y0120012D01*
X0618534Y0119841D01*
X0618619Y0119667D01*
X0618699Y0119491D01*
X0618776Y0119314D01*
X0618847Y0119134D01*
X0618915Y0118953D01*
X0618978Y0118770D01*
X0619036Y0118586D01*
X0619090Y0118400D01*
X0619139Y0118213D01*
X0619184Y0118025D01*
X0619224Y0117836D01*
X0619259Y0117646D01*
X0619290Y0117456D01*
X0619316Y0117264D01*
X0619337Y0117072D01*
X0619354Y0116879D01*
X0619366Y0116686D01*
X0619373Y0116493D01*
X0619375Y0116300D01*
X0619373Y0116107D01*
X0619366Y0115914D01*
X0619354Y0115721D01*
X0619337Y0115528D01*
X0619316Y0115336D01*
X0619290Y0115144D01*
X0619259Y0114954D01*
X0619224Y0114764D01*
X0619184Y0114575D01*
X0619139Y0114387D01*
X0619090Y0114200D01*
X0619036Y0114014D01*
X0618978Y0113830D01*
X0618915Y0113647D01*
X0618847Y0113466D01*
X0618776Y0113286D01*
X0618699Y0113109D01*
X0618619Y0112933D01*
X0618534Y0112759D01*
X0618445Y0112588D01*
X0618352Y0112418D01*
X0618255Y0112251D01*
X0618153Y0112087D01*
X0618048Y0111925D01*
X0617938Y0111766D01*
X0617825Y0111609D01*
X0617708Y0111455D01*
X0617587Y0111304D01*
X0617463Y0111156D01*
X0617335Y0111011D01*
X0617203Y0110870D01*
X0617068Y0110732D01*
X0616930Y0110597D01*
X0616789Y0110465D01*
X0616644Y0110337D01*
X0616496Y0110213D01*
X0616345Y0110092D01*
X0616191Y0109975D01*
X0616034Y0109862D01*
X0615875Y0109752D01*
X0615713Y0109647D01*
X0615549Y0109545D01*
X0615382Y0109448D01*
X0615212Y0109355D01*
X0615041Y0109266D01*
X0614867Y0109181D01*
X0614691Y0109101D01*
X0614514Y0109024D01*
X0614334Y0108953D01*
X0614153Y0108885D01*
X0613970Y0108822D01*
X0613786Y0108764D01*
X0613600Y0108710D01*
X0613413Y0108661D01*
X0613225Y0108616D01*
X0613036Y0108576D01*
X0612846Y0108541D01*
X0612656Y0108510D01*
X0612464Y0108484D01*
X0612272Y0108463D01*
X0612079Y0108446D01*
X0611886Y0108434D01*
X0611693Y0108427D01*
X0611500Y0108425D01*
X0611307Y0108427D01*
X0611114Y0108434D01*
X0610921Y0108446D01*
X0610728Y0108463D01*
X0610536Y0108484D01*
X0610344Y0108510D01*
X0610154Y0108541D01*
X0609964Y0108576D01*
X0609775Y0108616D01*
X0609587Y0108661D01*
X0609400Y0108710D01*
X0609214Y0108764D01*
X0609030Y0108822D01*
X0608847Y0108885D01*
X0608666Y0108953D01*
X0608486Y0109024D01*
X0608309Y0109101D01*
X0608133Y0109181D01*
X0607959Y0109266D01*
X0607788Y0109355D01*
X0607618Y0109448D01*
X0607451Y0109545D01*
X0607287Y0109647D01*
X0607125Y0109752D01*
X0606966Y0109862D01*
X0606809Y0109975D01*
X0606655Y0110092D01*
X0606504Y0110213D01*
X0606356Y0110337D01*
X0606211Y0110465D01*
X0606070Y0110597D01*
X0605932Y0110732D01*
X0605797Y0110870D01*
X0605665Y0111011D01*
X0605537Y0111156D01*
X0605413Y0111304D01*
X0605292Y0111455D01*
X0605175Y0111609D01*
X0605062Y0111766D01*
X0604952Y0111925D01*
X0604847Y0112087D01*
X0604745Y0112251D01*
X0604648Y0112418D01*
X0604555Y0112588D01*
X0604466Y0112759D01*
X0604381Y0112933D01*
X0604301Y0113109D01*
X0604224Y0113286D01*
X0604153Y0113466D01*
X0604085Y0113647D01*
X0604022Y0113830D01*
X0603964Y0114014D01*
X0603910Y0114200D01*
X0603861Y0114387D01*
X0603816Y0114575D01*
X0603776Y0114764D01*
X0603741Y0114954D01*
X0603710Y0115144D01*
X0603684Y0115336D01*
X0603663Y0115528D01*
X0603646Y0115721D01*
X0603634Y0115914D01*
X0603627Y0116107D01*
X0603625Y0116300D01*
X0603625Y0041300D02*
X0603627Y0041493D01*
X0603634Y0041686D01*
X0603646Y0041879D01*
X0603663Y0042072D01*
X0603684Y0042264D01*
X0603710Y0042456D01*
X0603741Y0042646D01*
X0603776Y0042836D01*
X0603816Y0043025D01*
X0603861Y0043213D01*
X0603910Y0043400D01*
X0603964Y0043586D01*
X0604022Y0043770D01*
X0604085Y0043953D01*
X0604153Y0044134D01*
X0604224Y0044314D01*
X0604301Y0044491D01*
X0604381Y0044667D01*
X0604466Y0044841D01*
X0604555Y0045012D01*
X0604648Y0045182D01*
X0604745Y0045349D01*
X0604847Y0045513D01*
X0604952Y0045675D01*
X0605062Y0045834D01*
X0605175Y0045991D01*
X0605292Y0046145D01*
X0605413Y0046296D01*
X0605537Y0046444D01*
X0605665Y0046589D01*
X0605797Y0046730D01*
X0605932Y0046868D01*
X0606070Y0047003D01*
X0606211Y0047135D01*
X0606356Y0047263D01*
X0606504Y0047387D01*
X0606655Y0047508D01*
X0606809Y0047625D01*
X0606966Y0047738D01*
X0607125Y0047848D01*
X0607287Y0047953D01*
X0607451Y0048055D01*
X0607618Y0048152D01*
X0607788Y0048245D01*
X0607959Y0048334D01*
X0608133Y0048419D01*
X0608309Y0048499D01*
X0608486Y0048576D01*
X0608666Y0048647D01*
X0608847Y0048715D01*
X0609030Y0048778D01*
X0609214Y0048836D01*
X0609400Y0048890D01*
X0609587Y0048939D01*
X0609775Y0048984D01*
X0609964Y0049024D01*
X0610154Y0049059D01*
X0610344Y0049090D01*
X0610536Y0049116D01*
X0610728Y0049137D01*
X0610921Y0049154D01*
X0611114Y0049166D01*
X0611307Y0049173D01*
X0611500Y0049175D01*
X0611693Y0049173D01*
X0611886Y0049166D01*
X0612079Y0049154D01*
X0612272Y0049137D01*
X0612464Y0049116D01*
X0612656Y0049090D01*
X0612846Y0049059D01*
X0613036Y0049024D01*
X0613225Y0048984D01*
X0613413Y0048939D01*
X0613600Y0048890D01*
X0613786Y0048836D01*
X0613970Y0048778D01*
X0614153Y0048715D01*
X0614334Y0048647D01*
X0614514Y0048576D01*
X0614691Y0048499D01*
X0614867Y0048419D01*
X0615041Y0048334D01*
X0615212Y0048245D01*
X0615382Y0048152D01*
X0615549Y0048055D01*
X0615713Y0047953D01*
X0615875Y0047848D01*
X0616034Y0047738D01*
X0616191Y0047625D01*
X0616345Y0047508D01*
X0616496Y0047387D01*
X0616644Y0047263D01*
X0616789Y0047135D01*
X0616930Y0047003D01*
X0617068Y0046868D01*
X0617203Y0046730D01*
X0617335Y0046589D01*
X0617463Y0046444D01*
X0617587Y0046296D01*
X0617708Y0046145D01*
X0617825Y0045991D01*
X0617938Y0045834D01*
X0618048Y0045675D01*
X0618153Y0045513D01*
X0618255Y0045349D01*
X0618352Y0045182D01*
X0618445Y0045012D01*
X0618534Y0044841D01*
X0618619Y0044667D01*
X0618699Y0044491D01*
X0618776Y0044314D01*
X0618847Y0044134D01*
X0618915Y0043953D01*
X0618978Y0043770D01*
X0619036Y0043586D01*
X0619090Y0043400D01*
X0619139Y0043213D01*
X0619184Y0043025D01*
X0619224Y0042836D01*
X0619259Y0042646D01*
X0619290Y0042456D01*
X0619316Y0042264D01*
X0619337Y0042072D01*
X0619354Y0041879D01*
X0619366Y0041686D01*
X0619373Y0041493D01*
X0619375Y0041300D01*
X0619373Y0041107D01*
X0619366Y0040914D01*
X0619354Y0040721D01*
X0619337Y0040528D01*
X0619316Y0040336D01*
X0619290Y0040144D01*
X0619259Y0039954D01*
X0619224Y0039764D01*
X0619184Y0039575D01*
X0619139Y0039387D01*
X0619090Y0039200D01*
X0619036Y0039014D01*
X0618978Y0038830D01*
X0618915Y0038647D01*
X0618847Y0038466D01*
X0618776Y0038286D01*
X0618699Y0038109D01*
X0618619Y0037933D01*
X0618534Y0037759D01*
X0618445Y0037588D01*
X0618352Y0037418D01*
X0618255Y0037251D01*
X0618153Y0037087D01*
X0618048Y0036925D01*
X0617938Y0036766D01*
X0617825Y0036609D01*
X0617708Y0036455D01*
X0617587Y0036304D01*
X0617463Y0036156D01*
X0617335Y0036011D01*
X0617203Y0035870D01*
X0617068Y0035732D01*
X0616930Y0035597D01*
X0616789Y0035465D01*
X0616644Y0035337D01*
X0616496Y0035213D01*
X0616345Y0035092D01*
X0616191Y0034975D01*
X0616034Y0034862D01*
X0615875Y0034752D01*
X0615713Y0034647D01*
X0615549Y0034545D01*
X0615382Y0034448D01*
X0615212Y0034355D01*
X0615041Y0034266D01*
X0614867Y0034181D01*
X0614691Y0034101D01*
X0614514Y0034024D01*
X0614334Y0033953D01*
X0614153Y0033885D01*
X0613970Y0033822D01*
X0613786Y0033764D01*
X0613600Y0033710D01*
X0613413Y0033661D01*
X0613225Y0033616D01*
X0613036Y0033576D01*
X0612846Y0033541D01*
X0612656Y0033510D01*
X0612464Y0033484D01*
X0612272Y0033463D01*
X0612079Y0033446D01*
X0611886Y0033434D01*
X0611693Y0033427D01*
X0611500Y0033425D01*
X0611307Y0033427D01*
X0611114Y0033434D01*
X0610921Y0033446D01*
X0610728Y0033463D01*
X0610536Y0033484D01*
X0610344Y0033510D01*
X0610154Y0033541D01*
X0609964Y0033576D01*
X0609775Y0033616D01*
X0609587Y0033661D01*
X0609400Y0033710D01*
X0609214Y0033764D01*
X0609030Y0033822D01*
X0608847Y0033885D01*
X0608666Y0033953D01*
X0608486Y0034024D01*
X0608309Y0034101D01*
X0608133Y0034181D01*
X0607959Y0034266D01*
X0607788Y0034355D01*
X0607618Y0034448D01*
X0607451Y0034545D01*
X0607287Y0034647D01*
X0607125Y0034752D01*
X0606966Y0034862D01*
X0606809Y0034975D01*
X0606655Y0035092D01*
X0606504Y0035213D01*
X0606356Y0035337D01*
X0606211Y0035465D01*
X0606070Y0035597D01*
X0605932Y0035732D01*
X0605797Y0035870D01*
X0605665Y0036011D01*
X0605537Y0036156D01*
X0605413Y0036304D01*
X0605292Y0036455D01*
X0605175Y0036609D01*
X0605062Y0036766D01*
X0604952Y0036925D01*
X0604847Y0037087D01*
X0604745Y0037251D01*
X0604648Y0037418D01*
X0604555Y0037588D01*
X0604466Y0037759D01*
X0604381Y0037933D01*
X0604301Y0038109D01*
X0604224Y0038286D01*
X0604153Y0038466D01*
X0604085Y0038647D01*
X0604022Y0038830D01*
X0603964Y0039014D01*
X0603910Y0039200D01*
X0603861Y0039387D01*
X0603816Y0039575D01*
X0603776Y0039764D01*
X0603741Y0039954D01*
X0603710Y0040144D01*
X0603684Y0040336D01*
X0603663Y0040528D01*
X0603646Y0040721D01*
X0603634Y0040914D01*
X0603627Y0041107D01*
X0603625Y0041300D01*
X0678625Y0041300D02*
X0678627Y0041493D01*
X0678634Y0041686D01*
X0678646Y0041879D01*
X0678663Y0042072D01*
X0678684Y0042264D01*
X0678710Y0042456D01*
X0678741Y0042646D01*
X0678776Y0042836D01*
X0678816Y0043025D01*
X0678861Y0043213D01*
X0678910Y0043400D01*
X0678964Y0043586D01*
X0679022Y0043770D01*
X0679085Y0043953D01*
X0679153Y0044134D01*
X0679224Y0044314D01*
X0679301Y0044491D01*
X0679381Y0044667D01*
X0679466Y0044841D01*
X0679555Y0045012D01*
X0679648Y0045182D01*
X0679745Y0045349D01*
X0679847Y0045513D01*
X0679952Y0045675D01*
X0680062Y0045834D01*
X0680175Y0045991D01*
X0680292Y0046145D01*
X0680413Y0046296D01*
X0680537Y0046444D01*
X0680665Y0046589D01*
X0680797Y0046730D01*
X0680932Y0046868D01*
X0681070Y0047003D01*
X0681211Y0047135D01*
X0681356Y0047263D01*
X0681504Y0047387D01*
X0681655Y0047508D01*
X0681809Y0047625D01*
X0681966Y0047738D01*
X0682125Y0047848D01*
X0682287Y0047953D01*
X0682451Y0048055D01*
X0682618Y0048152D01*
X0682788Y0048245D01*
X0682959Y0048334D01*
X0683133Y0048419D01*
X0683309Y0048499D01*
X0683486Y0048576D01*
X0683666Y0048647D01*
X0683847Y0048715D01*
X0684030Y0048778D01*
X0684214Y0048836D01*
X0684400Y0048890D01*
X0684587Y0048939D01*
X0684775Y0048984D01*
X0684964Y0049024D01*
X0685154Y0049059D01*
X0685344Y0049090D01*
X0685536Y0049116D01*
X0685728Y0049137D01*
X0685921Y0049154D01*
X0686114Y0049166D01*
X0686307Y0049173D01*
X0686500Y0049175D01*
X0686693Y0049173D01*
X0686886Y0049166D01*
X0687079Y0049154D01*
X0687272Y0049137D01*
X0687464Y0049116D01*
X0687656Y0049090D01*
X0687846Y0049059D01*
X0688036Y0049024D01*
X0688225Y0048984D01*
X0688413Y0048939D01*
X0688600Y0048890D01*
X0688786Y0048836D01*
X0688970Y0048778D01*
X0689153Y0048715D01*
X0689334Y0048647D01*
X0689514Y0048576D01*
X0689691Y0048499D01*
X0689867Y0048419D01*
X0690041Y0048334D01*
X0690212Y0048245D01*
X0690382Y0048152D01*
X0690549Y0048055D01*
X0690713Y0047953D01*
X0690875Y0047848D01*
X0691034Y0047738D01*
X0691191Y0047625D01*
X0691345Y0047508D01*
X0691496Y0047387D01*
X0691644Y0047263D01*
X0691789Y0047135D01*
X0691930Y0047003D01*
X0692068Y0046868D01*
X0692203Y0046730D01*
X0692335Y0046589D01*
X0692463Y0046444D01*
X0692587Y0046296D01*
X0692708Y0046145D01*
X0692825Y0045991D01*
X0692938Y0045834D01*
X0693048Y0045675D01*
X0693153Y0045513D01*
X0693255Y0045349D01*
X0693352Y0045182D01*
X0693445Y0045012D01*
X0693534Y0044841D01*
X0693619Y0044667D01*
X0693699Y0044491D01*
X0693776Y0044314D01*
X0693847Y0044134D01*
X0693915Y0043953D01*
X0693978Y0043770D01*
X0694036Y0043586D01*
X0694090Y0043400D01*
X0694139Y0043213D01*
X0694184Y0043025D01*
X0694224Y0042836D01*
X0694259Y0042646D01*
X0694290Y0042456D01*
X0694316Y0042264D01*
X0694337Y0042072D01*
X0694354Y0041879D01*
X0694366Y0041686D01*
X0694373Y0041493D01*
X0694375Y0041300D01*
X0694373Y0041107D01*
X0694366Y0040914D01*
X0694354Y0040721D01*
X0694337Y0040528D01*
X0694316Y0040336D01*
X0694290Y0040144D01*
X0694259Y0039954D01*
X0694224Y0039764D01*
X0694184Y0039575D01*
X0694139Y0039387D01*
X0694090Y0039200D01*
X0694036Y0039014D01*
X0693978Y0038830D01*
X0693915Y0038647D01*
X0693847Y0038466D01*
X0693776Y0038286D01*
X0693699Y0038109D01*
X0693619Y0037933D01*
X0693534Y0037759D01*
X0693445Y0037588D01*
X0693352Y0037418D01*
X0693255Y0037251D01*
X0693153Y0037087D01*
X0693048Y0036925D01*
X0692938Y0036766D01*
X0692825Y0036609D01*
X0692708Y0036455D01*
X0692587Y0036304D01*
X0692463Y0036156D01*
X0692335Y0036011D01*
X0692203Y0035870D01*
X0692068Y0035732D01*
X0691930Y0035597D01*
X0691789Y0035465D01*
X0691644Y0035337D01*
X0691496Y0035213D01*
X0691345Y0035092D01*
X0691191Y0034975D01*
X0691034Y0034862D01*
X0690875Y0034752D01*
X0690713Y0034647D01*
X0690549Y0034545D01*
X0690382Y0034448D01*
X0690212Y0034355D01*
X0690041Y0034266D01*
X0689867Y0034181D01*
X0689691Y0034101D01*
X0689514Y0034024D01*
X0689334Y0033953D01*
X0689153Y0033885D01*
X0688970Y0033822D01*
X0688786Y0033764D01*
X0688600Y0033710D01*
X0688413Y0033661D01*
X0688225Y0033616D01*
X0688036Y0033576D01*
X0687846Y0033541D01*
X0687656Y0033510D01*
X0687464Y0033484D01*
X0687272Y0033463D01*
X0687079Y0033446D01*
X0686886Y0033434D01*
X0686693Y0033427D01*
X0686500Y0033425D01*
X0686307Y0033427D01*
X0686114Y0033434D01*
X0685921Y0033446D01*
X0685728Y0033463D01*
X0685536Y0033484D01*
X0685344Y0033510D01*
X0685154Y0033541D01*
X0684964Y0033576D01*
X0684775Y0033616D01*
X0684587Y0033661D01*
X0684400Y0033710D01*
X0684214Y0033764D01*
X0684030Y0033822D01*
X0683847Y0033885D01*
X0683666Y0033953D01*
X0683486Y0034024D01*
X0683309Y0034101D01*
X0683133Y0034181D01*
X0682959Y0034266D01*
X0682788Y0034355D01*
X0682618Y0034448D01*
X0682451Y0034545D01*
X0682287Y0034647D01*
X0682125Y0034752D01*
X0681966Y0034862D01*
X0681809Y0034975D01*
X0681655Y0035092D01*
X0681504Y0035213D01*
X0681356Y0035337D01*
X0681211Y0035465D01*
X0681070Y0035597D01*
X0680932Y0035732D01*
X0680797Y0035870D01*
X0680665Y0036011D01*
X0680537Y0036156D01*
X0680413Y0036304D01*
X0680292Y0036455D01*
X0680175Y0036609D01*
X0680062Y0036766D01*
X0679952Y0036925D01*
X0679847Y0037087D01*
X0679745Y0037251D01*
X0679648Y0037418D01*
X0679555Y0037588D01*
X0679466Y0037759D01*
X0679381Y0037933D01*
X0679301Y0038109D01*
X0679224Y0038286D01*
X0679153Y0038466D01*
X0679085Y0038647D01*
X0679022Y0038830D01*
X0678964Y0039014D01*
X0678910Y0039200D01*
X0678861Y0039387D01*
X0678816Y0039575D01*
X0678776Y0039764D01*
X0678741Y0039954D01*
X0678710Y0040144D01*
X0678684Y0040336D01*
X0678663Y0040528D01*
X0678646Y0040721D01*
X0678634Y0040914D01*
X0678627Y0041107D01*
X0678625Y0041300D01*
X0730250Y0016300D02*
X0730252Y0016458D01*
X0730258Y0016615D01*
X0730268Y0016773D01*
X0730282Y0016930D01*
X0730300Y0017086D01*
X0730321Y0017243D01*
X0730347Y0017398D01*
X0730377Y0017553D01*
X0730410Y0017707D01*
X0730448Y0017860D01*
X0730489Y0018013D01*
X0730534Y0018164D01*
X0730583Y0018314D01*
X0730636Y0018462D01*
X0730692Y0018610D01*
X0730753Y0018755D01*
X0730816Y0018900D01*
X0730884Y0019042D01*
X0730955Y0019183D01*
X0731029Y0019322D01*
X0731107Y0019459D01*
X0731189Y0019594D01*
X0731273Y0019727D01*
X0731362Y0019858D01*
X0731453Y0019986D01*
X0731548Y0020113D01*
X0731645Y0020236D01*
X0731746Y0020358D01*
X0731850Y0020476D01*
X0731957Y0020592D01*
X0732067Y0020705D01*
X0732179Y0020816D01*
X0732295Y0020923D01*
X0732413Y0021028D01*
X0732533Y0021130D01*
X0732656Y0021228D01*
X0732782Y0021324D01*
X0732910Y0021416D01*
X0733040Y0021505D01*
X0733172Y0021591D01*
X0733307Y0021673D01*
X0733444Y0021752D01*
X0733582Y0021827D01*
X0733722Y0021899D01*
X0733865Y0021967D01*
X0734008Y0022032D01*
X0734154Y0022093D01*
X0734301Y0022150D01*
X0734449Y0022204D01*
X0734599Y0022254D01*
X0734749Y0022300D01*
X0734901Y0022342D01*
X0735054Y0022381D01*
X0735208Y0022415D01*
X0735363Y0022446D01*
X0735518Y0022472D01*
X0735674Y0022495D01*
X0735831Y0022514D01*
X0735988Y0022529D01*
X0736145Y0022540D01*
X0736303Y0022547D01*
X0736461Y0022550D01*
X0736618Y0022549D01*
X0736776Y0022544D01*
X0736933Y0022535D01*
X0737091Y0022522D01*
X0737247Y0022505D01*
X0737404Y0022484D01*
X0737559Y0022460D01*
X0737714Y0022431D01*
X0737869Y0022398D01*
X0738022Y0022362D01*
X0738175Y0022321D01*
X0738326Y0022277D01*
X0738476Y0022229D01*
X0738625Y0022178D01*
X0738773Y0022122D01*
X0738919Y0022063D01*
X0739064Y0022000D01*
X0739207Y0021933D01*
X0739348Y0021863D01*
X0739487Y0021790D01*
X0739625Y0021713D01*
X0739761Y0021632D01*
X0739894Y0021548D01*
X0740025Y0021461D01*
X0740154Y0021370D01*
X0740281Y0021276D01*
X0740406Y0021179D01*
X0740527Y0021079D01*
X0740647Y0020976D01*
X0740763Y0020870D01*
X0740877Y0020761D01*
X0740989Y0020649D01*
X0741097Y0020535D01*
X0741202Y0020417D01*
X0741305Y0020297D01*
X0741404Y0020175D01*
X0741500Y0020050D01*
X0741593Y0019922D01*
X0741683Y0019793D01*
X0741769Y0019661D01*
X0741853Y0019527D01*
X0741932Y0019391D01*
X0742009Y0019253D01*
X0742081Y0019113D01*
X0742150Y0018971D01*
X0742216Y0018828D01*
X0742278Y0018683D01*
X0742336Y0018536D01*
X0742391Y0018388D01*
X0742442Y0018239D01*
X0742489Y0018088D01*
X0742532Y0017937D01*
X0742571Y0017784D01*
X0742607Y0017630D01*
X0742638Y0017476D01*
X0742666Y0017321D01*
X0742690Y0017165D01*
X0742710Y0017008D01*
X0742726Y0016851D01*
X0742738Y0016694D01*
X0742746Y0016537D01*
X0742750Y0016379D01*
X0742750Y0016221D01*
X0742746Y0016063D01*
X0742738Y0015906D01*
X0742726Y0015749D01*
X0742710Y0015592D01*
X0742690Y0015435D01*
X0742666Y0015279D01*
X0742638Y0015124D01*
X0742607Y0014970D01*
X0742571Y0014816D01*
X0742532Y0014663D01*
X0742489Y0014512D01*
X0742442Y0014361D01*
X0742391Y0014212D01*
X0742336Y0014064D01*
X0742278Y0013917D01*
X0742216Y0013772D01*
X0742150Y0013629D01*
X0742081Y0013487D01*
X0742009Y0013347D01*
X0741932Y0013209D01*
X0741853Y0013073D01*
X0741769Y0012939D01*
X0741683Y0012807D01*
X0741593Y0012678D01*
X0741500Y0012550D01*
X0741404Y0012425D01*
X0741305Y0012303D01*
X0741202Y0012183D01*
X0741097Y0012065D01*
X0740989Y0011951D01*
X0740877Y0011839D01*
X0740763Y0011730D01*
X0740647Y0011624D01*
X0740527Y0011521D01*
X0740406Y0011421D01*
X0740281Y0011324D01*
X0740154Y0011230D01*
X0740025Y0011139D01*
X0739894Y0011052D01*
X0739761Y0010968D01*
X0739625Y0010887D01*
X0739487Y0010810D01*
X0739348Y0010737D01*
X0739207Y0010667D01*
X0739064Y0010600D01*
X0738919Y0010537D01*
X0738773Y0010478D01*
X0738625Y0010422D01*
X0738476Y0010371D01*
X0738326Y0010323D01*
X0738175Y0010279D01*
X0738022Y0010238D01*
X0737869Y0010202D01*
X0737714Y0010169D01*
X0737559Y0010140D01*
X0737404Y0010116D01*
X0737247Y0010095D01*
X0737091Y0010078D01*
X0736933Y0010065D01*
X0736776Y0010056D01*
X0736618Y0010051D01*
X0736461Y0010050D01*
X0736303Y0010053D01*
X0736145Y0010060D01*
X0735988Y0010071D01*
X0735831Y0010086D01*
X0735674Y0010105D01*
X0735518Y0010128D01*
X0735363Y0010154D01*
X0735208Y0010185D01*
X0735054Y0010219D01*
X0734901Y0010258D01*
X0734749Y0010300D01*
X0734599Y0010346D01*
X0734449Y0010396D01*
X0734301Y0010450D01*
X0734154Y0010507D01*
X0734008Y0010568D01*
X0733865Y0010633D01*
X0733722Y0010701D01*
X0733582Y0010773D01*
X0733444Y0010848D01*
X0733307Y0010927D01*
X0733172Y0011009D01*
X0733040Y0011095D01*
X0732910Y0011184D01*
X0732782Y0011276D01*
X0732656Y0011372D01*
X0732533Y0011470D01*
X0732413Y0011572D01*
X0732295Y0011677D01*
X0732179Y0011784D01*
X0732067Y0011895D01*
X0731957Y0012008D01*
X0731850Y0012124D01*
X0731746Y0012242D01*
X0731645Y0012364D01*
X0731548Y0012487D01*
X0731453Y0012614D01*
X0731362Y0012742D01*
X0731273Y0012873D01*
X0731189Y0013006D01*
X0731107Y0013141D01*
X0731029Y0013278D01*
X0730955Y0013417D01*
X0730884Y0013558D01*
X0730816Y0013700D01*
X0730753Y0013845D01*
X0730692Y0013990D01*
X0730636Y0014138D01*
X0730583Y0014286D01*
X0730534Y0014436D01*
X0730489Y0014587D01*
X0730448Y0014740D01*
X0730410Y0014893D01*
X0730377Y0015047D01*
X0730347Y0015202D01*
X0730321Y0015357D01*
X0730300Y0015514D01*
X0730282Y0015670D01*
X0730268Y0015827D01*
X0730258Y0015985D01*
X0730252Y0016142D01*
X0730250Y0016300D01*
X0678625Y0116300D02*
X0678627Y0116493D01*
X0678634Y0116686D01*
X0678646Y0116879D01*
X0678663Y0117072D01*
X0678684Y0117264D01*
X0678710Y0117456D01*
X0678741Y0117646D01*
X0678776Y0117836D01*
X0678816Y0118025D01*
X0678861Y0118213D01*
X0678910Y0118400D01*
X0678964Y0118586D01*
X0679022Y0118770D01*
X0679085Y0118953D01*
X0679153Y0119134D01*
X0679224Y0119314D01*
X0679301Y0119491D01*
X0679381Y0119667D01*
X0679466Y0119841D01*
X0679555Y0120012D01*
X0679648Y0120182D01*
X0679745Y0120349D01*
X0679847Y0120513D01*
X0679952Y0120675D01*
X0680062Y0120834D01*
X0680175Y0120991D01*
X0680292Y0121145D01*
X0680413Y0121296D01*
X0680537Y0121444D01*
X0680665Y0121589D01*
X0680797Y0121730D01*
X0680932Y0121868D01*
X0681070Y0122003D01*
X0681211Y0122135D01*
X0681356Y0122263D01*
X0681504Y0122387D01*
X0681655Y0122508D01*
X0681809Y0122625D01*
X0681966Y0122738D01*
X0682125Y0122848D01*
X0682287Y0122953D01*
X0682451Y0123055D01*
X0682618Y0123152D01*
X0682788Y0123245D01*
X0682959Y0123334D01*
X0683133Y0123419D01*
X0683309Y0123499D01*
X0683486Y0123576D01*
X0683666Y0123647D01*
X0683847Y0123715D01*
X0684030Y0123778D01*
X0684214Y0123836D01*
X0684400Y0123890D01*
X0684587Y0123939D01*
X0684775Y0123984D01*
X0684964Y0124024D01*
X0685154Y0124059D01*
X0685344Y0124090D01*
X0685536Y0124116D01*
X0685728Y0124137D01*
X0685921Y0124154D01*
X0686114Y0124166D01*
X0686307Y0124173D01*
X0686500Y0124175D01*
X0686693Y0124173D01*
X0686886Y0124166D01*
X0687079Y0124154D01*
X0687272Y0124137D01*
X0687464Y0124116D01*
X0687656Y0124090D01*
X0687846Y0124059D01*
X0688036Y0124024D01*
X0688225Y0123984D01*
X0688413Y0123939D01*
X0688600Y0123890D01*
X0688786Y0123836D01*
X0688970Y0123778D01*
X0689153Y0123715D01*
X0689334Y0123647D01*
X0689514Y0123576D01*
X0689691Y0123499D01*
X0689867Y0123419D01*
X0690041Y0123334D01*
X0690212Y0123245D01*
X0690382Y0123152D01*
X0690549Y0123055D01*
X0690713Y0122953D01*
X0690875Y0122848D01*
X0691034Y0122738D01*
X0691191Y0122625D01*
X0691345Y0122508D01*
X0691496Y0122387D01*
X0691644Y0122263D01*
X0691789Y0122135D01*
X0691930Y0122003D01*
X0692068Y0121868D01*
X0692203Y0121730D01*
X0692335Y0121589D01*
X0692463Y0121444D01*
X0692587Y0121296D01*
X0692708Y0121145D01*
X0692825Y0120991D01*
X0692938Y0120834D01*
X0693048Y0120675D01*
X0693153Y0120513D01*
X0693255Y0120349D01*
X0693352Y0120182D01*
X0693445Y0120012D01*
X0693534Y0119841D01*
X0693619Y0119667D01*
X0693699Y0119491D01*
X0693776Y0119314D01*
X0693847Y0119134D01*
X0693915Y0118953D01*
X0693978Y0118770D01*
X0694036Y0118586D01*
X0694090Y0118400D01*
X0694139Y0118213D01*
X0694184Y0118025D01*
X0694224Y0117836D01*
X0694259Y0117646D01*
X0694290Y0117456D01*
X0694316Y0117264D01*
X0694337Y0117072D01*
X0694354Y0116879D01*
X0694366Y0116686D01*
X0694373Y0116493D01*
X0694375Y0116300D01*
X0694373Y0116107D01*
X0694366Y0115914D01*
X0694354Y0115721D01*
X0694337Y0115528D01*
X0694316Y0115336D01*
X0694290Y0115144D01*
X0694259Y0114954D01*
X0694224Y0114764D01*
X0694184Y0114575D01*
X0694139Y0114387D01*
X0694090Y0114200D01*
X0694036Y0114014D01*
X0693978Y0113830D01*
X0693915Y0113647D01*
X0693847Y0113466D01*
X0693776Y0113286D01*
X0693699Y0113109D01*
X0693619Y0112933D01*
X0693534Y0112759D01*
X0693445Y0112588D01*
X0693352Y0112418D01*
X0693255Y0112251D01*
X0693153Y0112087D01*
X0693048Y0111925D01*
X0692938Y0111766D01*
X0692825Y0111609D01*
X0692708Y0111455D01*
X0692587Y0111304D01*
X0692463Y0111156D01*
X0692335Y0111011D01*
X0692203Y0110870D01*
X0692068Y0110732D01*
X0691930Y0110597D01*
X0691789Y0110465D01*
X0691644Y0110337D01*
X0691496Y0110213D01*
X0691345Y0110092D01*
X0691191Y0109975D01*
X0691034Y0109862D01*
X0690875Y0109752D01*
X0690713Y0109647D01*
X0690549Y0109545D01*
X0690382Y0109448D01*
X0690212Y0109355D01*
X0690041Y0109266D01*
X0689867Y0109181D01*
X0689691Y0109101D01*
X0689514Y0109024D01*
X0689334Y0108953D01*
X0689153Y0108885D01*
X0688970Y0108822D01*
X0688786Y0108764D01*
X0688600Y0108710D01*
X0688413Y0108661D01*
X0688225Y0108616D01*
X0688036Y0108576D01*
X0687846Y0108541D01*
X0687656Y0108510D01*
X0687464Y0108484D01*
X0687272Y0108463D01*
X0687079Y0108446D01*
X0686886Y0108434D01*
X0686693Y0108427D01*
X0686500Y0108425D01*
X0686307Y0108427D01*
X0686114Y0108434D01*
X0685921Y0108446D01*
X0685728Y0108463D01*
X0685536Y0108484D01*
X0685344Y0108510D01*
X0685154Y0108541D01*
X0684964Y0108576D01*
X0684775Y0108616D01*
X0684587Y0108661D01*
X0684400Y0108710D01*
X0684214Y0108764D01*
X0684030Y0108822D01*
X0683847Y0108885D01*
X0683666Y0108953D01*
X0683486Y0109024D01*
X0683309Y0109101D01*
X0683133Y0109181D01*
X0682959Y0109266D01*
X0682788Y0109355D01*
X0682618Y0109448D01*
X0682451Y0109545D01*
X0682287Y0109647D01*
X0682125Y0109752D01*
X0681966Y0109862D01*
X0681809Y0109975D01*
X0681655Y0110092D01*
X0681504Y0110213D01*
X0681356Y0110337D01*
X0681211Y0110465D01*
X0681070Y0110597D01*
X0680932Y0110732D01*
X0680797Y0110870D01*
X0680665Y0111011D01*
X0680537Y0111156D01*
X0680413Y0111304D01*
X0680292Y0111455D01*
X0680175Y0111609D01*
X0680062Y0111766D01*
X0679952Y0111925D01*
X0679847Y0112087D01*
X0679745Y0112251D01*
X0679648Y0112418D01*
X0679555Y0112588D01*
X0679466Y0112759D01*
X0679381Y0112933D01*
X0679301Y0113109D01*
X0679224Y0113286D01*
X0679153Y0113466D01*
X0679085Y0113647D01*
X0679022Y0113830D01*
X0678964Y0114014D01*
X0678910Y0114200D01*
X0678861Y0114387D01*
X0678816Y0114575D01*
X0678776Y0114764D01*
X0678741Y0114954D01*
X0678710Y0115144D01*
X0678684Y0115336D01*
X0678663Y0115528D01*
X0678646Y0115721D01*
X0678634Y0115914D01*
X0678627Y0116107D01*
X0678625Y0116300D01*
X0678625Y0191300D02*
X0678627Y0191493D01*
X0678634Y0191686D01*
X0678646Y0191879D01*
X0678663Y0192072D01*
X0678684Y0192264D01*
X0678710Y0192456D01*
X0678741Y0192646D01*
X0678776Y0192836D01*
X0678816Y0193025D01*
X0678861Y0193213D01*
X0678910Y0193400D01*
X0678964Y0193586D01*
X0679022Y0193770D01*
X0679085Y0193953D01*
X0679153Y0194134D01*
X0679224Y0194314D01*
X0679301Y0194491D01*
X0679381Y0194667D01*
X0679466Y0194841D01*
X0679555Y0195012D01*
X0679648Y0195182D01*
X0679745Y0195349D01*
X0679847Y0195513D01*
X0679952Y0195675D01*
X0680062Y0195834D01*
X0680175Y0195991D01*
X0680292Y0196145D01*
X0680413Y0196296D01*
X0680537Y0196444D01*
X0680665Y0196589D01*
X0680797Y0196730D01*
X0680932Y0196868D01*
X0681070Y0197003D01*
X0681211Y0197135D01*
X0681356Y0197263D01*
X0681504Y0197387D01*
X0681655Y0197508D01*
X0681809Y0197625D01*
X0681966Y0197738D01*
X0682125Y0197848D01*
X0682287Y0197953D01*
X0682451Y0198055D01*
X0682618Y0198152D01*
X0682788Y0198245D01*
X0682959Y0198334D01*
X0683133Y0198419D01*
X0683309Y0198499D01*
X0683486Y0198576D01*
X0683666Y0198647D01*
X0683847Y0198715D01*
X0684030Y0198778D01*
X0684214Y0198836D01*
X0684400Y0198890D01*
X0684587Y0198939D01*
X0684775Y0198984D01*
X0684964Y0199024D01*
X0685154Y0199059D01*
X0685344Y0199090D01*
X0685536Y0199116D01*
X0685728Y0199137D01*
X0685921Y0199154D01*
X0686114Y0199166D01*
X0686307Y0199173D01*
X0686500Y0199175D01*
X0686693Y0199173D01*
X0686886Y0199166D01*
X0687079Y0199154D01*
X0687272Y0199137D01*
X0687464Y0199116D01*
X0687656Y0199090D01*
X0687846Y0199059D01*
X0688036Y0199024D01*
X0688225Y0198984D01*
X0688413Y0198939D01*
X0688600Y0198890D01*
X0688786Y0198836D01*
X0688970Y0198778D01*
X0689153Y0198715D01*
X0689334Y0198647D01*
X0689514Y0198576D01*
X0689691Y0198499D01*
X0689867Y0198419D01*
X0690041Y0198334D01*
X0690212Y0198245D01*
X0690382Y0198152D01*
X0690549Y0198055D01*
X0690713Y0197953D01*
X0690875Y0197848D01*
X0691034Y0197738D01*
X0691191Y0197625D01*
X0691345Y0197508D01*
X0691496Y0197387D01*
X0691644Y0197263D01*
X0691789Y0197135D01*
X0691930Y0197003D01*
X0692068Y0196868D01*
X0692203Y0196730D01*
X0692335Y0196589D01*
X0692463Y0196444D01*
X0692587Y0196296D01*
X0692708Y0196145D01*
X0692825Y0195991D01*
X0692938Y0195834D01*
X0693048Y0195675D01*
X0693153Y0195513D01*
X0693255Y0195349D01*
X0693352Y0195182D01*
X0693445Y0195012D01*
X0693534Y0194841D01*
X0693619Y0194667D01*
X0693699Y0194491D01*
X0693776Y0194314D01*
X0693847Y0194134D01*
X0693915Y0193953D01*
X0693978Y0193770D01*
X0694036Y0193586D01*
X0694090Y0193400D01*
X0694139Y0193213D01*
X0694184Y0193025D01*
X0694224Y0192836D01*
X0694259Y0192646D01*
X0694290Y0192456D01*
X0694316Y0192264D01*
X0694337Y0192072D01*
X0694354Y0191879D01*
X0694366Y0191686D01*
X0694373Y0191493D01*
X0694375Y0191300D01*
X0694373Y0191107D01*
X0694366Y0190914D01*
X0694354Y0190721D01*
X0694337Y0190528D01*
X0694316Y0190336D01*
X0694290Y0190144D01*
X0694259Y0189954D01*
X0694224Y0189764D01*
X0694184Y0189575D01*
X0694139Y0189387D01*
X0694090Y0189200D01*
X0694036Y0189014D01*
X0693978Y0188830D01*
X0693915Y0188647D01*
X0693847Y0188466D01*
X0693776Y0188286D01*
X0693699Y0188109D01*
X0693619Y0187933D01*
X0693534Y0187759D01*
X0693445Y0187588D01*
X0693352Y0187418D01*
X0693255Y0187251D01*
X0693153Y0187087D01*
X0693048Y0186925D01*
X0692938Y0186766D01*
X0692825Y0186609D01*
X0692708Y0186455D01*
X0692587Y0186304D01*
X0692463Y0186156D01*
X0692335Y0186011D01*
X0692203Y0185870D01*
X0692068Y0185732D01*
X0691930Y0185597D01*
X0691789Y0185465D01*
X0691644Y0185337D01*
X0691496Y0185213D01*
X0691345Y0185092D01*
X0691191Y0184975D01*
X0691034Y0184862D01*
X0690875Y0184752D01*
X0690713Y0184647D01*
X0690549Y0184545D01*
X0690382Y0184448D01*
X0690212Y0184355D01*
X0690041Y0184266D01*
X0689867Y0184181D01*
X0689691Y0184101D01*
X0689514Y0184024D01*
X0689334Y0183953D01*
X0689153Y0183885D01*
X0688970Y0183822D01*
X0688786Y0183764D01*
X0688600Y0183710D01*
X0688413Y0183661D01*
X0688225Y0183616D01*
X0688036Y0183576D01*
X0687846Y0183541D01*
X0687656Y0183510D01*
X0687464Y0183484D01*
X0687272Y0183463D01*
X0687079Y0183446D01*
X0686886Y0183434D01*
X0686693Y0183427D01*
X0686500Y0183425D01*
X0686307Y0183427D01*
X0686114Y0183434D01*
X0685921Y0183446D01*
X0685728Y0183463D01*
X0685536Y0183484D01*
X0685344Y0183510D01*
X0685154Y0183541D01*
X0684964Y0183576D01*
X0684775Y0183616D01*
X0684587Y0183661D01*
X0684400Y0183710D01*
X0684214Y0183764D01*
X0684030Y0183822D01*
X0683847Y0183885D01*
X0683666Y0183953D01*
X0683486Y0184024D01*
X0683309Y0184101D01*
X0683133Y0184181D01*
X0682959Y0184266D01*
X0682788Y0184355D01*
X0682618Y0184448D01*
X0682451Y0184545D01*
X0682287Y0184647D01*
X0682125Y0184752D01*
X0681966Y0184862D01*
X0681809Y0184975D01*
X0681655Y0185092D01*
X0681504Y0185213D01*
X0681356Y0185337D01*
X0681211Y0185465D01*
X0681070Y0185597D01*
X0680932Y0185732D01*
X0680797Y0185870D01*
X0680665Y0186011D01*
X0680537Y0186156D01*
X0680413Y0186304D01*
X0680292Y0186455D01*
X0680175Y0186609D01*
X0680062Y0186766D01*
X0679952Y0186925D01*
X0679847Y0187087D01*
X0679745Y0187251D01*
X0679648Y0187418D01*
X0679555Y0187588D01*
X0679466Y0187759D01*
X0679381Y0187933D01*
X0679301Y0188109D01*
X0679224Y0188286D01*
X0679153Y0188466D01*
X0679085Y0188647D01*
X0679022Y0188830D01*
X0678964Y0189014D01*
X0678910Y0189200D01*
X0678861Y0189387D01*
X0678816Y0189575D01*
X0678776Y0189764D01*
X0678741Y0189954D01*
X0678710Y0190144D01*
X0678684Y0190336D01*
X0678663Y0190528D01*
X0678646Y0190721D01*
X0678634Y0190914D01*
X0678627Y0191107D01*
X0678625Y0191300D01*
X0678625Y0266300D02*
X0678627Y0266493D01*
X0678634Y0266686D01*
X0678646Y0266879D01*
X0678663Y0267072D01*
X0678684Y0267264D01*
X0678710Y0267456D01*
X0678741Y0267646D01*
X0678776Y0267836D01*
X0678816Y0268025D01*
X0678861Y0268213D01*
X0678910Y0268400D01*
X0678964Y0268586D01*
X0679022Y0268770D01*
X0679085Y0268953D01*
X0679153Y0269134D01*
X0679224Y0269314D01*
X0679301Y0269491D01*
X0679381Y0269667D01*
X0679466Y0269841D01*
X0679555Y0270012D01*
X0679648Y0270182D01*
X0679745Y0270349D01*
X0679847Y0270513D01*
X0679952Y0270675D01*
X0680062Y0270834D01*
X0680175Y0270991D01*
X0680292Y0271145D01*
X0680413Y0271296D01*
X0680537Y0271444D01*
X0680665Y0271589D01*
X0680797Y0271730D01*
X0680932Y0271868D01*
X0681070Y0272003D01*
X0681211Y0272135D01*
X0681356Y0272263D01*
X0681504Y0272387D01*
X0681655Y0272508D01*
X0681809Y0272625D01*
X0681966Y0272738D01*
X0682125Y0272848D01*
X0682287Y0272953D01*
X0682451Y0273055D01*
X0682618Y0273152D01*
X0682788Y0273245D01*
X0682959Y0273334D01*
X0683133Y0273419D01*
X0683309Y0273499D01*
X0683486Y0273576D01*
X0683666Y0273647D01*
X0683847Y0273715D01*
X0684030Y0273778D01*
X0684214Y0273836D01*
X0684400Y0273890D01*
X0684587Y0273939D01*
X0684775Y0273984D01*
X0684964Y0274024D01*
X0685154Y0274059D01*
X0685344Y0274090D01*
X0685536Y0274116D01*
X0685728Y0274137D01*
X0685921Y0274154D01*
X0686114Y0274166D01*
X0686307Y0274173D01*
X0686500Y0274175D01*
X0686693Y0274173D01*
X0686886Y0274166D01*
X0687079Y0274154D01*
X0687272Y0274137D01*
X0687464Y0274116D01*
X0687656Y0274090D01*
X0687846Y0274059D01*
X0688036Y0274024D01*
X0688225Y0273984D01*
X0688413Y0273939D01*
X0688600Y0273890D01*
X0688786Y0273836D01*
X0688970Y0273778D01*
X0689153Y0273715D01*
X0689334Y0273647D01*
X0689514Y0273576D01*
X0689691Y0273499D01*
X0689867Y0273419D01*
X0690041Y0273334D01*
X0690212Y0273245D01*
X0690382Y0273152D01*
X0690549Y0273055D01*
X0690713Y0272953D01*
X0690875Y0272848D01*
X0691034Y0272738D01*
X0691191Y0272625D01*
X0691345Y0272508D01*
X0691496Y0272387D01*
X0691644Y0272263D01*
X0691789Y0272135D01*
X0691930Y0272003D01*
X0692068Y0271868D01*
X0692203Y0271730D01*
X0692335Y0271589D01*
X0692463Y0271444D01*
X0692587Y0271296D01*
X0692708Y0271145D01*
X0692825Y0270991D01*
X0692938Y0270834D01*
X0693048Y0270675D01*
X0693153Y0270513D01*
X0693255Y0270349D01*
X0693352Y0270182D01*
X0693445Y0270012D01*
X0693534Y0269841D01*
X0693619Y0269667D01*
X0693699Y0269491D01*
X0693776Y0269314D01*
X0693847Y0269134D01*
X0693915Y0268953D01*
X0693978Y0268770D01*
X0694036Y0268586D01*
X0694090Y0268400D01*
X0694139Y0268213D01*
X0694184Y0268025D01*
X0694224Y0267836D01*
X0694259Y0267646D01*
X0694290Y0267456D01*
X0694316Y0267264D01*
X0694337Y0267072D01*
X0694354Y0266879D01*
X0694366Y0266686D01*
X0694373Y0266493D01*
X0694375Y0266300D01*
X0694373Y0266107D01*
X0694366Y0265914D01*
X0694354Y0265721D01*
X0694337Y0265528D01*
X0694316Y0265336D01*
X0694290Y0265144D01*
X0694259Y0264954D01*
X0694224Y0264764D01*
X0694184Y0264575D01*
X0694139Y0264387D01*
X0694090Y0264200D01*
X0694036Y0264014D01*
X0693978Y0263830D01*
X0693915Y0263647D01*
X0693847Y0263466D01*
X0693776Y0263286D01*
X0693699Y0263109D01*
X0693619Y0262933D01*
X0693534Y0262759D01*
X0693445Y0262588D01*
X0693352Y0262418D01*
X0693255Y0262251D01*
X0693153Y0262087D01*
X0693048Y0261925D01*
X0692938Y0261766D01*
X0692825Y0261609D01*
X0692708Y0261455D01*
X0692587Y0261304D01*
X0692463Y0261156D01*
X0692335Y0261011D01*
X0692203Y0260870D01*
X0692068Y0260732D01*
X0691930Y0260597D01*
X0691789Y0260465D01*
X0691644Y0260337D01*
X0691496Y0260213D01*
X0691345Y0260092D01*
X0691191Y0259975D01*
X0691034Y0259862D01*
X0690875Y0259752D01*
X0690713Y0259647D01*
X0690549Y0259545D01*
X0690382Y0259448D01*
X0690212Y0259355D01*
X0690041Y0259266D01*
X0689867Y0259181D01*
X0689691Y0259101D01*
X0689514Y0259024D01*
X0689334Y0258953D01*
X0689153Y0258885D01*
X0688970Y0258822D01*
X0688786Y0258764D01*
X0688600Y0258710D01*
X0688413Y0258661D01*
X0688225Y0258616D01*
X0688036Y0258576D01*
X0687846Y0258541D01*
X0687656Y0258510D01*
X0687464Y0258484D01*
X0687272Y0258463D01*
X0687079Y0258446D01*
X0686886Y0258434D01*
X0686693Y0258427D01*
X0686500Y0258425D01*
X0686307Y0258427D01*
X0686114Y0258434D01*
X0685921Y0258446D01*
X0685728Y0258463D01*
X0685536Y0258484D01*
X0685344Y0258510D01*
X0685154Y0258541D01*
X0684964Y0258576D01*
X0684775Y0258616D01*
X0684587Y0258661D01*
X0684400Y0258710D01*
X0684214Y0258764D01*
X0684030Y0258822D01*
X0683847Y0258885D01*
X0683666Y0258953D01*
X0683486Y0259024D01*
X0683309Y0259101D01*
X0683133Y0259181D01*
X0682959Y0259266D01*
X0682788Y0259355D01*
X0682618Y0259448D01*
X0682451Y0259545D01*
X0682287Y0259647D01*
X0682125Y0259752D01*
X0681966Y0259862D01*
X0681809Y0259975D01*
X0681655Y0260092D01*
X0681504Y0260213D01*
X0681356Y0260337D01*
X0681211Y0260465D01*
X0681070Y0260597D01*
X0680932Y0260732D01*
X0680797Y0260870D01*
X0680665Y0261011D01*
X0680537Y0261156D01*
X0680413Y0261304D01*
X0680292Y0261455D01*
X0680175Y0261609D01*
X0680062Y0261766D01*
X0679952Y0261925D01*
X0679847Y0262087D01*
X0679745Y0262251D01*
X0679648Y0262418D01*
X0679555Y0262588D01*
X0679466Y0262759D01*
X0679381Y0262933D01*
X0679301Y0263109D01*
X0679224Y0263286D01*
X0679153Y0263466D01*
X0679085Y0263647D01*
X0679022Y0263830D01*
X0678964Y0264014D01*
X0678910Y0264200D01*
X0678861Y0264387D01*
X0678816Y0264575D01*
X0678776Y0264764D01*
X0678741Y0264954D01*
X0678710Y0265144D01*
X0678684Y0265336D01*
X0678663Y0265528D01*
X0678646Y0265721D01*
X0678634Y0265914D01*
X0678627Y0266107D01*
X0678625Y0266300D01*
X0678625Y0341300D02*
X0678627Y0341493D01*
X0678634Y0341686D01*
X0678646Y0341879D01*
X0678663Y0342072D01*
X0678684Y0342264D01*
X0678710Y0342456D01*
X0678741Y0342646D01*
X0678776Y0342836D01*
X0678816Y0343025D01*
X0678861Y0343213D01*
X0678910Y0343400D01*
X0678964Y0343586D01*
X0679022Y0343770D01*
X0679085Y0343953D01*
X0679153Y0344134D01*
X0679224Y0344314D01*
X0679301Y0344491D01*
X0679381Y0344667D01*
X0679466Y0344841D01*
X0679555Y0345012D01*
X0679648Y0345182D01*
X0679745Y0345349D01*
X0679847Y0345513D01*
X0679952Y0345675D01*
X0680062Y0345834D01*
X0680175Y0345991D01*
X0680292Y0346145D01*
X0680413Y0346296D01*
X0680537Y0346444D01*
X0680665Y0346589D01*
X0680797Y0346730D01*
X0680932Y0346868D01*
X0681070Y0347003D01*
X0681211Y0347135D01*
X0681356Y0347263D01*
X0681504Y0347387D01*
X0681655Y0347508D01*
X0681809Y0347625D01*
X0681966Y0347738D01*
X0682125Y0347848D01*
X0682287Y0347953D01*
X0682451Y0348055D01*
X0682618Y0348152D01*
X0682788Y0348245D01*
X0682959Y0348334D01*
X0683133Y0348419D01*
X0683309Y0348499D01*
X0683486Y0348576D01*
X0683666Y0348647D01*
X0683847Y0348715D01*
X0684030Y0348778D01*
X0684214Y0348836D01*
X0684400Y0348890D01*
X0684587Y0348939D01*
X0684775Y0348984D01*
X0684964Y0349024D01*
X0685154Y0349059D01*
X0685344Y0349090D01*
X0685536Y0349116D01*
X0685728Y0349137D01*
X0685921Y0349154D01*
X0686114Y0349166D01*
X0686307Y0349173D01*
X0686500Y0349175D01*
X0686693Y0349173D01*
X0686886Y0349166D01*
X0687079Y0349154D01*
X0687272Y0349137D01*
X0687464Y0349116D01*
X0687656Y0349090D01*
X0687846Y0349059D01*
X0688036Y0349024D01*
X0688225Y0348984D01*
X0688413Y0348939D01*
X0688600Y0348890D01*
X0688786Y0348836D01*
X0688970Y0348778D01*
X0689153Y0348715D01*
X0689334Y0348647D01*
X0689514Y0348576D01*
X0689691Y0348499D01*
X0689867Y0348419D01*
X0690041Y0348334D01*
X0690212Y0348245D01*
X0690382Y0348152D01*
X0690549Y0348055D01*
X0690713Y0347953D01*
X0690875Y0347848D01*
X0691034Y0347738D01*
X0691191Y0347625D01*
X0691345Y0347508D01*
X0691496Y0347387D01*
X0691644Y0347263D01*
X0691789Y0347135D01*
X0691930Y0347003D01*
X0692068Y0346868D01*
X0692203Y0346730D01*
X0692335Y0346589D01*
X0692463Y0346444D01*
X0692587Y0346296D01*
X0692708Y0346145D01*
X0692825Y0345991D01*
X0692938Y0345834D01*
X0693048Y0345675D01*
X0693153Y0345513D01*
X0693255Y0345349D01*
X0693352Y0345182D01*
X0693445Y0345012D01*
X0693534Y0344841D01*
X0693619Y0344667D01*
X0693699Y0344491D01*
X0693776Y0344314D01*
X0693847Y0344134D01*
X0693915Y0343953D01*
X0693978Y0343770D01*
X0694036Y0343586D01*
X0694090Y0343400D01*
X0694139Y0343213D01*
X0694184Y0343025D01*
X0694224Y0342836D01*
X0694259Y0342646D01*
X0694290Y0342456D01*
X0694316Y0342264D01*
X0694337Y0342072D01*
X0694354Y0341879D01*
X0694366Y0341686D01*
X0694373Y0341493D01*
X0694375Y0341300D01*
X0694373Y0341107D01*
X0694366Y0340914D01*
X0694354Y0340721D01*
X0694337Y0340528D01*
X0694316Y0340336D01*
X0694290Y0340144D01*
X0694259Y0339954D01*
X0694224Y0339764D01*
X0694184Y0339575D01*
X0694139Y0339387D01*
X0694090Y0339200D01*
X0694036Y0339014D01*
X0693978Y0338830D01*
X0693915Y0338647D01*
X0693847Y0338466D01*
X0693776Y0338286D01*
X0693699Y0338109D01*
X0693619Y0337933D01*
X0693534Y0337759D01*
X0693445Y0337588D01*
X0693352Y0337418D01*
X0693255Y0337251D01*
X0693153Y0337087D01*
X0693048Y0336925D01*
X0692938Y0336766D01*
X0692825Y0336609D01*
X0692708Y0336455D01*
X0692587Y0336304D01*
X0692463Y0336156D01*
X0692335Y0336011D01*
X0692203Y0335870D01*
X0692068Y0335732D01*
X0691930Y0335597D01*
X0691789Y0335465D01*
X0691644Y0335337D01*
X0691496Y0335213D01*
X0691345Y0335092D01*
X0691191Y0334975D01*
X0691034Y0334862D01*
X0690875Y0334752D01*
X0690713Y0334647D01*
X0690549Y0334545D01*
X0690382Y0334448D01*
X0690212Y0334355D01*
X0690041Y0334266D01*
X0689867Y0334181D01*
X0689691Y0334101D01*
X0689514Y0334024D01*
X0689334Y0333953D01*
X0689153Y0333885D01*
X0688970Y0333822D01*
X0688786Y0333764D01*
X0688600Y0333710D01*
X0688413Y0333661D01*
X0688225Y0333616D01*
X0688036Y0333576D01*
X0687846Y0333541D01*
X0687656Y0333510D01*
X0687464Y0333484D01*
X0687272Y0333463D01*
X0687079Y0333446D01*
X0686886Y0333434D01*
X0686693Y0333427D01*
X0686500Y0333425D01*
X0686307Y0333427D01*
X0686114Y0333434D01*
X0685921Y0333446D01*
X0685728Y0333463D01*
X0685536Y0333484D01*
X0685344Y0333510D01*
X0685154Y0333541D01*
X0684964Y0333576D01*
X0684775Y0333616D01*
X0684587Y0333661D01*
X0684400Y0333710D01*
X0684214Y0333764D01*
X0684030Y0333822D01*
X0683847Y0333885D01*
X0683666Y0333953D01*
X0683486Y0334024D01*
X0683309Y0334101D01*
X0683133Y0334181D01*
X0682959Y0334266D01*
X0682788Y0334355D01*
X0682618Y0334448D01*
X0682451Y0334545D01*
X0682287Y0334647D01*
X0682125Y0334752D01*
X0681966Y0334862D01*
X0681809Y0334975D01*
X0681655Y0335092D01*
X0681504Y0335213D01*
X0681356Y0335337D01*
X0681211Y0335465D01*
X0681070Y0335597D01*
X0680932Y0335732D01*
X0680797Y0335870D01*
X0680665Y0336011D01*
X0680537Y0336156D01*
X0680413Y0336304D01*
X0680292Y0336455D01*
X0680175Y0336609D01*
X0680062Y0336766D01*
X0679952Y0336925D01*
X0679847Y0337087D01*
X0679745Y0337251D01*
X0679648Y0337418D01*
X0679555Y0337588D01*
X0679466Y0337759D01*
X0679381Y0337933D01*
X0679301Y0338109D01*
X0679224Y0338286D01*
X0679153Y0338466D01*
X0679085Y0338647D01*
X0679022Y0338830D01*
X0678964Y0339014D01*
X0678910Y0339200D01*
X0678861Y0339387D01*
X0678816Y0339575D01*
X0678776Y0339764D01*
X0678741Y0339954D01*
X0678710Y0340144D01*
X0678684Y0340336D01*
X0678663Y0340528D01*
X0678646Y0340721D01*
X0678634Y0340914D01*
X0678627Y0341107D01*
X0678625Y0341300D01*
X0702880Y0390300D02*
X0702882Y0390458D01*
X0702888Y0390615D01*
X0702898Y0390773D01*
X0702912Y0390930D01*
X0702930Y0391086D01*
X0702951Y0391243D01*
X0702977Y0391398D01*
X0703007Y0391553D01*
X0703040Y0391707D01*
X0703078Y0391860D01*
X0703119Y0392013D01*
X0703164Y0392164D01*
X0703213Y0392314D01*
X0703266Y0392462D01*
X0703322Y0392610D01*
X0703383Y0392755D01*
X0703446Y0392900D01*
X0703514Y0393042D01*
X0703585Y0393183D01*
X0703659Y0393322D01*
X0703737Y0393459D01*
X0703819Y0393594D01*
X0703903Y0393727D01*
X0703992Y0393858D01*
X0704083Y0393986D01*
X0704178Y0394113D01*
X0704275Y0394236D01*
X0704376Y0394358D01*
X0704480Y0394476D01*
X0704587Y0394592D01*
X0704697Y0394705D01*
X0704809Y0394816D01*
X0704925Y0394923D01*
X0705043Y0395028D01*
X0705163Y0395130D01*
X0705286Y0395228D01*
X0705412Y0395324D01*
X0705540Y0395416D01*
X0705670Y0395505D01*
X0705802Y0395591D01*
X0705937Y0395673D01*
X0706074Y0395752D01*
X0706212Y0395827D01*
X0706352Y0395899D01*
X0706495Y0395967D01*
X0706638Y0396032D01*
X0706784Y0396093D01*
X0706931Y0396150D01*
X0707079Y0396204D01*
X0707229Y0396254D01*
X0707379Y0396300D01*
X0707531Y0396342D01*
X0707684Y0396381D01*
X0707838Y0396415D01*
X0707993Y0396446D01*
X0708148Y0396472D01*
X0708304Y0396495D01*
X0708461Y0396514D01*
X0708618Y0396529D01*
X0708775Y0396540D01*
X0708933Y0396547D01*
X0709091Y0396550D01*
X0709248Y0396549D01*
X0709406Y0396544D01*
X0709563Y0396535D01*
X0709721Y0396522D01*
X0709877Y0396505D01*
X0710034Y0396484D01*
X0710189Y0396460D01*
X0710344Y0396431D01*
X0710499Y0396398D01*
X0710652Y0396362D01*
X0710805Y0396321D01*
X0710956Y0396277D01*
X0711106Y0396229D01*
X0711255Y0396178D01*
X0711403Y0396122D01*
X0711549Y0396063D01*
X0711694Y0396000D01*
X0711837Y0395933D01*
X0711978Y0395863D01*
X0712117Y0395790D01*
X0712255Y0395713D01*
X0712391Y0395632D01*
X0712524Y0395548D01*
X0712655Y0395461D01*
X0712784Y0395370D01*
X0712911Y0395276D01*
X0713036Y0395179D01*
X0713157Y0395079D01*
X0713277Y0394976D01*
X0713393Y0394870D01*
X0713507Y0394761D01*
X0713619Y0394649D01*
X0713727Y0394535D01*
X0713832Y0394417D01*
X0713935Y0394297D01*
X0714034Y0394175D01*
X0714130Y0394050D01*
X0714223Y0393922D01*
X0714313Y0393793D01*
X0714399Y0393661D01*
X0714483Y0393527D01*
X0714562Y0393391D01*
X0714639Y0393253D01*
X0714711Y0393113D01*
X0714780Y0392971D01*
X0714846Y0392828D01*
X0714908Y0392683D01*
X0714966Y0392536D01*
X0715021Y0392388D01*
X0715072Y0392239D01*
X0715119Y0392088D01*
X0715162Y0391937D01*
X0715201Y0391784D01*
X0715237Y0391630D01*
X0715268Y0391476D01*
X0715296Y0391321D01*
X0715320Y0391165D01*
X0715340Y0391008D01*
X0715356Y0390851D01*
X0715368Y0390694D01*
X0715376Y0390537D01*
X0715380Y0390379D01*
X0715380Y0390221D01*
X0715376Y0390063D01*
X0715368Y0389906D01*
X0715356Y0389749D01*
X0715340Y0389592D01*
X0715320Y0389435D01*
X0715296Y0389279D01*
X0715268Y0389124D01*
X0715237Y0388970D01*
X0715201Y0388816D01*
X0715162Y0388663D01*
X0715119Y0388512D01*
X0715072Y0388361D01*
X0715021Y0388212D01*
X0714966Y0388064D01*
X0714908Y0387917D01*
X0714846Y0387772D01*
X0714780Y0387629D01*
X0714711Y0387487D01*
X0714639Y0387347D01*
X0714562Y0387209D01*
X0714483Y0387073D01*
X0714399Y0386939D01*
X0714313Y0386807D01*
X0714223Y0386678D01*
X0714130Y0386550D01*
X0714034Y0386425D01*
X0713935Y0386303D01*
X0713832Y0386183D01*
X0713727Y0386065D01*
X0713619Y0385951D01*
X0713507Y0385839D01*
X0713393Y0385730D01*
X0713277Y0385624D01*
X0713157Y0385521D01*
X0713036Y0385421D01*
X0712911Y0385324D01*
X0712784Y0385230D01*
X0712655Y0385139D01*
X0712524Y0385052D01*
X0712391Y0384968D01*
X0712255Y0384887D01*
X0712117Y0384810D01*
X0711978Y0384737D01*
X0711837Y0384667D01*
X0711694Y0384600D01*
X0711549Y0384537D01*
X0711403Y0384478D01*
X0711255Y0384422D01*
X0711106Y0384371D01*
X0710956Y0384323D01*
X0710805Y0384279D01*
X0710652Y0384238D01*
X0710499Y0384202D01*
X0710344Y0384169D01*
X0710189Y0384140D01*
X0710034Y0384116D01*
X0709877Y0384095D01*
X0709721Y0384078D01*
X0709563Y0384065D01*
X0709406Y0384056D01*
X0709248Y0384051D01*
X0709091Y0384050D01*
X0708933Y0384053D01*
X0708775Y0384060D01*
X0708618Y0384071D01*
X0708461Y0384086D01*
X0708304Y0384105D01*
X0708148Y0384128D01*
X0707993Y0384154D01*
X0707838Y0384185D01*
X0707684Y0384219D01*
X0707531Y0384258D01*
X0707379Y0384300D01*
X0707229Y0384346D01*
X0707079Y0384396D01*
X0706931Y0384450D01*
X0706784Y0384507D01*
X0706638Y0384568D01*
X0706495Y0384633D01*
X0706352Y0384701D01*
X0706212Y0384773D01*
X0706074Y0384848D01*
X0705937Y0384927D01*
X0705802Y0385009D01*
X0705670Y0385095D01*
X0705540Y0385184D01*
X0705412Y0385276D01*
X0705286Y0385372D01*
X0705163Y0385470D01*
X0705043Y0385572D01*
X0704925Y0385677D01*
X0704809Y0385784D01*
X0704697Y0385895D01*
X0704587Y0386008D01*
X0704480Y0386124D01*
X0704376Y0386242D01*
X0704275Y0386364D01*
X0704178Y0386487D01*
X0704083Y0386614D01*
X0703992Y0386742D01*
X0703903Y0386873D01*
X0703819Y0387006D01*
X0703737Y0387141D01*
X0703659Y0387278D01*
X0703585Y0387417D01*
X0703514Y0387558D01*
X0703446Y0387700D01*
X0703383Y0387845D01*
X0703322Y0387990D01*
X0703266Y0388138D01*
X0703213Y0388286D01*
X0703164Y0388436D01*
X0703119Y0388587D01*
X0703078Y0388740D01*
X0703040Y0388893D01*
X0703007Y0389047D01*
X0702977Y0389202D01*
X0702951Y0389357D01*
X0702930Y0389514D01*
X0702912Y0389670D01*
X0702898Y0389827D01*
X0702888Y0389985D01*
X0702882Y0390142D01*
X0702880Y0390300D01*
X0730250Y0366300D02*
X0730252Y0366458D01*
X0730258Y0366615D01*
X0730268Y0366773D01*
X0730282Y0366930D01*
X0730300Y0367086D01*
X0730321Y0367243D01*
X0730347Y0367398D01*
X0730377Y0367553D01*
X0730410Y0367707D01*
X0730448Y0367860D01*
X0730489Y0368013D01*
X0730534Y0368164D01*
X0730583Y0368314D01*
X0730636Y0368462D01*
X0730692Y0368610D01*
X0730753Y0368755D01*
X0730816Y0368900D01*
X0730884Y0369042D01*
X0730955Y0369183D01*
X0731029Y0369322D01*
X0731107Y0369459D01*
X0731189Y0369594D01*
X0731273Y0369727D01*
X0731362Y0369858D01*
X0731453Y0369986D01*
X0731548Y0370113D01*
X0731645Y0370236D01*
X0731746Y0370358D01*
X0731850Y0370476D01*
X0731957Y0370592D01*
X0732067Y0370705D01*
X0732179Y0370816D01*
X0732295Y0370923D01*
X0732413Y0371028D01*
X0732533Y0371130D01*
X0732656Y0371228D01*
X0732782Y0371324D01*
X0732910Y0371416D01*
X0733040Y0371505D01*
X0733172Y0371591D01*
X0733307Y0371673D01*
X0733444Y0371752D01*
X0733582Y0371827D01*
X0733722Y0371899D01*
X0733865Y0371967D01*
X0734008Y0372032D01*
X0734154Y0372093D01*
X0734301Y0372150D01*
X0734449Y0372204D01*
X0734599Y0372254D01*
X0734749Y0372300D01*
X0734901Y0372342D01*
X0735054Y0372381D01*
X0735208Y0372415D01*
X0735363Y0372446D01*
X0735518Y0372472D01*
X0735674Y0372495D01*
X0735831Y0372514D01*
X0735988Y0372529D01*
X0736145Y0372540D01*
X0736303Y0372547D01*
X0736461Y0372550D01*
X0736618Y0372549D01*
X0736776Y0372544D01*
X0736933Y0372535D01*
X0737091Y0372522D01*
X0737247Y0372505D01*
X0737404Y0372484D01*
X0737559Y0372460D01*
X0737714Y0372431D01*
X0737869Y0372398D01*
X0738022Y0372362D01*
X0738175Y0372321D01*
X0738326Y0372277D01*
X0738476Y0372229D01*
X0738625Y0372178D01*
X0738773Y0372122D01*
X0738919Y0372063D01*
X0739064Y0372000D01*
X0739207Y0371933D01*
X0739348Y0371863D01*
X0739487Y0371790D01*
X0739625Y0371713D01*
X0739761Y0371632D01*
X0739894Y0371548D01*
X0740025Y0371461D01*
X0740154Y0371370D01*
X0740281Y0371276D01*
X0740406Y0371179D01*
X0740527Y0371079D01*
X0740647Y0370976D01*
X0740763Y0370870D01*
X0740877Y0370761D01*
X0740989Y0370649D01*
X0741097Y0370535D01*
X0741202Y0370417D01*
X0741305Y0370297D01*
X0741404Y0370175D01*
X0741500Y0370050D01*
X0741593Y0369922D01*
X0741683Y0369793D01*
X0741769Y0369661D01*
X0741853Y0369527D01*
X0741932Y0369391D01*
X0742009Y0369253D01*
X0742081Y0369113D01*
X0742150Y0368971D01*
X0742216Y0368828D01*
X0742278Y0368683D01*
X0742336Y0368536D01*
X0742391Y0368388D01*
X0742442Y0368239D01*
X0742489Y0368088D01*
X0742532Y0367937D01*
X0742571Y0367784D01*
X0742607Y0367630D01*
X0742638Y0367476D01*
X0742666Y0367321D01*
X0742690Y0367165D01*
X0742710Y0367008D01*
X0742726Y0366851D01*
X0742738Y0366694D01*
X0742746Y0366537D01*
X0742750Y0366379D01*
X0742750Y0366221D01*
X0742746Y0366063D01*
X0742738Y0365906D01*
X0742726Y0365749D01*
X0742710Y0365592D01*
X0742690Y0365435D01*
X0742666Y0365279D01*
X0742638Y0365124D01*
X0742607Y0364970D01*
X0742571Y0364816D01*
X0742532Y0364663D01*
X0742489Y0364512D01*
X0742442Y0364361D01*
X0742391Y0364212D01*
X0742336Y0364064D01*
X0742278Y0363917D01*
X0742216Y0363772D01*
X0742150Y0363629D01*
X0742081Y0363487D01*
X0742009Y0363347D01*
X0741932Y0363209D01*
X0741853Y0363073D01*
X0741769Y0362939D01*
X0741683Y0362807D01*
X0741593Y0362678D01*
X0741500Y0362550D01*
X0741404Y0362425D01*
X0741305Y0362303D01*
X0741202Y0362183D01*
X0741097Y0362065D01*
X0740989Y0361951D01*
X0740877Y0361839D01*
X0740763Y0361730D01*
X0740647Y0361624D01*
X0740527Y0361521D01*
X0740406Y0361421D01*
X0740281Y0361324D01*
X0740154Y0361230D01*
X0740025Y0361139D01*
X0739894Y0361052D01*
X0739761Y0360968D01*
X0739625Y0360887D01*
X0739487Y0360810D01*
X0739348Y0360737D01*
X0739207Y0360667D01*
X0739064Y0360600D01*
X0738919Y0360537D01*
X0738773Y0360478D01*
X0738625Y0360422D01*
X0738476Y0360371D01*
X0738326Y0360323D01*
X0738175Y0360279D01*
X0738022Y0360238D01*
X0737869Y0360202D01*
X0737714Y0360169D01*
X0737559Y0360140D01*
X0737404Y0360116D01*
X0737247Y0360095D01*
X0737091Y0360078D01*
X0736933Y0360065D01*
X0736776Y0360056D01*
X0736618Y0360051D01*
X0736461Y0360050D01*
X0736303Y0360053D01*
X0736145Y0360060D01*
X0735988Y0360071D01*
X0735831Y0360086D01*
X0735674Y0360105D01*
X0735518Y0360128D01*
X0735363Y0360154D01*
X0735208Y0360185D01*
X0735054Y0360219D01*
X0734901Y0360258D01*
X0734749Y0360300D01*
X0734599Y0360346D01*
X0734449Y0360396D01*
X0734301Y0360450D01*
X0734154Y0360507D01*
X0734008Y0360568D01*
X0733865Y0360633D01*
X0733722Y0360701D01*
X0733582Y0360773D01*
X0733444Y0360848D01*
X0733307Y0360927D01*
X0733172Y0361009D01*
X0733040Y0361095D01*
X0732910Y0361184D01*
X0732782Y0361276D01*
X0732656Y0361372D01*
X0732533Y0361470D01*
X0732413Y0361572D01*
X0732295Y0361677D01*
X0732179Y0361784D01*
X0732067Y0361895D01*
X0731957Y0362008D01*
X0731850Y0362124D01*
X0731746Y0362242D01*
X0731645Y0362364D01*
X0731548Y0362487D01*
X0731453Y0362614D01*
X0731362Y0362742D01*
X0731273Y0362873D01*
X0731189Y0363006D01*
X0731107Y0363141D01*
X0731029Y0363278D01*
X0730955Y0363417D01*
X0730884Y0363558D01*
X0730816Y0363700D01*
X0730753Y0363845D01*
X0730692Y0363990D01*
X0730636Y0364138D01*
X0730583Y0364286D01*
X0730534Y0364436D01*
X0730489Y0364587D01*
X0730448Y0364740D01*
X0730410Y0364893D01*
X0730377Y0365047D01*
X0730347Y0365202D01*
X0730321Y0365357D01*
X0730300Y0365514D01*
X0730282Y0365670D01*
X0730268Y0365827D01*
X0730258Y0365985D01*
X0730252Y0366142D01*
X0730250Y0366300D01*
X0702880Y0512300D02*
X0702882Y0512458D01*
X0702888Y0512615D01*
X0702898Y0512773D01*
X0702912Y0512930D01*
X0702930Y0513086D01*
X0702951Y0513243D01*
X0702977Y0513398D01*
X0703007Y0513553D01*
X0703040Y0513707D01*
X0703078Y0513860D01*
X0703119Y0514013D01*
X0703164Y0514164D01*
X0703213Y0514314D01*
X0703266Y0514462D01*
X0703322Y0514610D01*
X0703383Y0514755D01*
X0703446Y0514900D01*
X0703514Y0515042D01*
X0703585Y0515183D01*
X0703659Y0515322D01*
X0703737Y0515459D01*
X0703819Y0515594D01*
X0703903Y0515727D01*
X0703992Y0515858D01*
X0704083Y0515986D01*
X0704178Y0516113D01*
X0704275Y0516236D01*
X0704376Y0516358D01*
X0704480Y0516476D01*
X0704587Y0516592D01*
X0704697Y0516705D01*
X0704809Y0516816D01*
X0704925Y0516923D01*
X0705043Y0517028D01*
X0705163Y0517130D01*
X0705286Y0517228D01*
X0705412Y0517324D01*
X0705540Y0517416D01*
X0705670Y0517505D01*
X0705802Y0517591D01*
X0705937Y0517673D01*
X0706074Y0517752D01*
X0706212Y0517827D01*
X0706352Y0517899D01*
X0706495Y0517967D01*
X0706638Y0518032D01*
X0706784Y0518093D01*
X0706931Y0518150D01*
X0707079Y0518204D01*
X0707229Y0518254D01*
X0707379Y0518300D01*
X0707531Y0518342D01*
X0707684Y0518381D01*
X0707838Y0518415D01*
X0707993Y0518446D01*
X0708148Y0518472D01*
X0708304Y0518495D01*
X0708461Y0518514D01*
X0708618Y0518529D01*
X0708775Y0518540D01*
X0708933Y0518547D01*
X0709091Y0518550D01*
X0709248Y0518549D01*
X0709406Y0518544D01*
X0709563Y0518535D01*
X0709721Y0518522D01*
X0709877Y0518505D01*
X0710034Y0518484D01*
X0710189Y0518460D01*
X0710344Y0518431D01*
X0710499Y0518398D01*
X0710652Y0518362D01*
X0710805Y0518321D01*
X0710956Y0518277D01*
X0711106Y0518229D01*
X0711255Y0518178D01*
X0711403Y0518122D01*
X0711549Y0518063D01*
X0711694Y0518000D01*
X0711837Y0517933D01*
X0711978Y0517863D01*
X0712117Y0517790D01*
X0712255Y0517713D01*
X0712391Y0517632D01*
X0712524Y0517548D01*
X0712655Y0517461D01*
X0712784Y0517370D01*
X0712911Y0517276D01*
X0713036Y0517179D01*
X0713157Y0517079D01*
X0713277Y0516976D01*
X0713393Y0516870D01*
X0713507Y0516761D01*
X0713619Y0516649D01*
X0713727Y0516535D01*
X0713832Y0516417D01*
X0713935Y0516297D01*
X0714034Y0516175D01*
X0714130Y0516050D01*
X0714223Y0515922D01*
X0714313Y0515793D01*
X0714399Y0515661D01*
X0714483Y0515527D01*
X0714562Y0515391D01*
X0714639Y0515253D01*
X0714711Y0515113D01*
X0714780Y0514971D01*
X0714846Y0514828D01*
X0714908Y0514683D01*
X0714966Y0514536D01*
X0715021Y0514388D01*
X0715072Y0514239D01*
X0715119Y0514088D01*
X0715162Y0513937D01*
X0715201Y0513784D01*
X0715237Y0513630D01*
X0715268Y0513476D01*
X0715296Y0513321D01*
X0715320Y0513165D01*
X0715340Y0513008D01*
X0715356Y0512851D01*
X0715368Y0512694D01*
X0715376Y0512537D01*
X0715380Y0512379D01*
X0715380Y0512221D01*
X0715376Y0512063D01*
X0715368Y0511906D01*
X0715356Y0511749D01*
X0715340Y0511592D01*
X0715320Y0511435D01*
X0715296Y0511279D01*
X0715268Y0511124D01*
X0715237Y0510970D01*
X0715201Y0510816D01*
X0715162Y0510663D01*
X0715119Y0510512D01*
X0715072Y0510361D01*
X0715021Y0510212D01*
X0714966Y0510064D01*
X0714908Y0509917D01*
X0714846Y0509772D01*
X0714780Y0509629D01*
X0714711Y0509487D01*
X0714639Y0509347D01*
X0714562Y0509209D01*
X0714483Y0509073D01*
X0714399Y0508939D01*
X0714313Y0508807D01*
X0714223Y0508678D01*
X0714130Y0508550D01*
X0714034Y0508425D01*
X0713935Y0508303D01*
X0713832Y0508183D01*
X0713727Y0508065D01*
X0713619Y0507951D01*
X0713507Y0507839D01*
X0713393Y0507730D01*
X0713277Y0507624D01*
X0713157Y0507521D01*
X0713036Y0507421D01*
X0712911Y0507324D01*
X0712784Y0507230D01*
X0712655Y0507139D01*
X0712524Y0507052D01*
X0712391Y0506968D01*
X0712255Y0506887D01*
X0712117Y0506810D01*
X0711978Y0506737D01*
X0711837Y0506667D01*
X0711694Y0506600D01*
X0711549Y0506537D01*
X0711403Y0506478D01*
X0711255Y0506422D01*
X0711106Y0506371D01*
X0710956Y0506323D01*
X0710805Y0506279D01*
X0710652Y0506238D01*
X0710499Y0506202D01*
X0710344Y0506169D01*
X0710189Y0506140D01*
X0710034Y0506116D01*
X0709877Y0506095D01*
X0709721Y0506078D01*
X0709563Y0506065D01*
X0709406Y0506056D01*
X0709248Y0506051D01*
X0709091Y0506050D01*
X0708933Y0506053D01*
X0708775Y0506060D01*
X0708618Y0506071D01*
X0708461Y0506086D01*
X0708304Y0506105D01*
X0708148Y0506128D01*
X0707993Y0506154D01*
X0707838Y0506185D01*
X0707684Y0506219D01*
X0707531Y0506258D01*
X0707379Y0506300D01*
X0707229Y0506346D01*
X0707079Y0506396D01*
X0706931Y0506450D01*
X0706784Y0506507D01*
X0706638Y0506568D01*
X0706495Y0506633D01*
X0706352Y0506701D01*
X0706212Y0506773D01*
X0706074Y0506848D01*
X0705937Y0506927D01*
X0705802Y0507009D01*
X0705670Y0507095D01*
X0705540Y0507184D01*
X0705412Y0507276D01*
X0705286Y0507372D01*
X0705163Y0507470D01*
X0705043Y0507572D01*
X0704925Y0507677D01*
X0704809Y0507784D01*
X0704697Y0507895D01*
X0704587Y0508008D01*
X0704480Y0508124D01*
X0704376Y0508242D01*
X0704275Y0508364D01*
X0704178Y0508487D01*
X0704083Y0508614D01*
X0703992Y0508742D01*
X0703903Y0508873D01*
X0703819Y0509006D01*
X0703737Y0509141D01*
X0703659Y0509278D01*
X0703585Y0509417D01*
X0703514Y0509558D01*
X0703446Y0509700D01*
X0703383Y0509845D01*
X0703322Y0509990D01*
X0703266Y0510138D01*
X0703213Y0510286D01*
X0703164Y0510436D01*
X0703119Y0510587D01*
X0703078Y0510740D01*
X0703040Y0510893D01*
X0703007Y0511047D01*
X0702977Y0511202D01*
X0702951Y0511357D01*
X0702930Y0511514D01*
X0702912Y0511670D01*
X0702898Y0511827D01*
X0702888Y0511985D01*
X0702882Y0512142D01*
X0702880Y0512300D01*
X0730250Y0786300D02*
X0730252Y0786458D01*
X0730258Y0786615D01*
X0730268Y0786773D01*
X0730282Y0786930D01*
X0730300Y0787086D01*
X0730321Y0787243D01*
X0730347Y0787398D01*
X0730377Y0787553D01*
X0730410Y0787707D01*
X0730448Y0787860D01*
X0730489Y0788013D01*
X0730534Y0788164D01*
X0730583Y0788314D01*
X0730636Y0788462D01*
X0730692Y0788610D01*
X0730753Y0788755D01*
X0730816Y0788900D01*
X0730884Y0789042D01*
X0730955Y0789183D01*
X0731029Y0789322D01*
X0731107Y0789459D01*
X0731189Y0789594D01*
X0731273Y0789727D01*
X0731362Y0789858D01*
X0731453Y0789986D01*
X0731548Y0790113D01*
X0731645Y0790236D01*
X0731746Y0790358D01*
X0731850Y0790476D01*
X0731957Y0790592D01*
X0732067Y0790705D01*
X0732179Y0790816D01*
X0732295Y0790923D01*
X0732413Y0791028D01*
X0732533Y0791130D01*
X0732656Y0791228D01*
X0732782Y0791324D01*
X0732910Y0791416D01*
X0733040Y0791505D01*
X0733172Y0791591D01*
X0733307Y0791673D01*
X0733444Y0791752D01*
X0733582Y0791827D01*
X0733722Y0791899D01*
X0733865Y0791967D01*
X0734008Y0792032D01*
X0734154Y0792093D01*
X0734301Y0792150D01*
X0734449Y0792204D01*
X0734599Y0792254D01*
X0734749Y0792300D01*
X0734901Y0792342D01*
X0735054Y0792381D01*
X0735208Y0792415D01*
X0735363Y0792446D01*
X0735518Y0792472D01*
X0735674Y0792495D01*
X0735831Y0792514D01*
X0735988Y0792529D01*
X0736145Y0792540D01*
X0736303Y0792547D01*
X0736461Y0792550D01*
X0736618Y0792549D01*
X0736776Y0792544D01*
X0736933Y0792535D01*
X0737091Y0792522D01*
X0737247Y0792505D01*
X0737404Y0792484D01*
X0737559Y0792460D01*
X0737714Y0792431D01*
X0737869Y0792398D01*
X0738022Y0792362D01*
X0738175Y0792321D01*
X0738326Y0792277D01*
X0738476Y0792229D01*
X0738625Y0792178D01*
X0738773Y0792122D01*
X0738919Y0792063D01*
X0739064Y0792000D01*
X0739207Y0791933D01*
X0739348Y0791863D01*
X0739487Y0791790D01*
X0739625Y0791713D01*
X0739761Y0791632D01*
X0739894Y0791548D01*
X0740025Y0791461D01*
X0740154Y0791370D01*
X0740281Y0791276D01*
X0740406Y0791179D01*
X0740527Y0791079D01*
X0740647Y0790976D01*
X0740763Y0790870D01*
X0740877Y0790761D01*
X0740989Y0790649D01*
X0741097Y0790535D01*
X0741202Y0790417D01*
X0741305Y0790297D01*
X0741404Y0790175D01*
X0741500Y0790050D01*
X0741593Y0789922D01*
X0741683Y0789793D01*
X0741769Y0789661D01*
X0741853Y0789527D01*
X0741932Y0789391D01*
X0742009Y0789253D01*
X0742081Y0789113D01*
X0742150Y0788971D01*
X0742216Y0788828D01*
X0742278Y0788683D01*
X0742336Y0788536D01*
X0742391Y0788388D01*
X0742442Y0788239D01*
X0742489Y0788088D01*
X0742532Y0787937D01*
X0742571Y0787784D01*
X0742607Y0787630D01*
X0742638Y0787476D01*
X0742666Y0787321D01*
X0742690Y0787165D01*
X0742710Y0787008D01*
X0742726Y0786851D01*
X0742738Y0786694D01*
X0742746Y0786537D01*
X0742750Y0786379D01*
X0742750Y0786221D01*
X0742746Y0786063D01*
X0742738Y0785906D01*
X0742726Y0785749D01*
X0742710Y0785592D01*
X0742690Y0785435D01*
X0742666Y0785279D01*
X0742638Y0785124D01*
X0742607Y0784970D01*
X0742571Y0784816D01*
X0742532Y0784663D01*
X0742489Y0784512D01*
X0742442Y0784361D01*
X0742391Y0784212D01*
X0742336Y0784064D01*
X0742278Y0783917D01*
X0742216Y0783772D01*
X0742150Y0783629D01*
X0742081Y0783487D01*
X0742009Y0783347D01*
X0741932Y0783209D01*
X0741853Y0783073D01*
X0741769Y0782939D01*
X0741683Y0782807D01*
X0741593Y0782678D01*
X0741500Y0782550D01*
X0741404Y0782425D01*
X0741305Y0782303D01*
X0741202Y0782183D01*
X0741097Y0782065D01*
X0740989Y0781951D01*
X0740877Y0781839D01*
X0740763Y0781730D01*
X0740647Y0781624D01*
X0740527Y0781521D01*
X0740406Y0781421D01*
X0740281Y0781324D01*
X0740154Y0781230D01*
X0740025Y0781139D01*
X0739894Y0781052D01*
X0739761Y0780968D01*
X0739625Y0780887D01*
X0739487Y0780810D01*
X0739348Y0780737D01*
X0739207Y0780667D01*
X0739064Y0780600D01*
X0738919Y0780537D01*
X0738773Y0780478D01*
X0738625Y0780422D01*
X0738476Y0780371D01*
X0738326Y0780323D01*
X0738175Y0780279D01*
X0738022Y0780238D01*
X0737869Y0780202D01*
X0737714Y0780169D01*
X0737559Y0780140D01*
X0737404Y0780116D01*
X0737247Y0780095D01*
X0737091Y0780078D01*
X0736933Y0780065D01*
X0736776Y0780056D01*
X0736618Y0780051D01*
X0736461Y0780050D01*
X0736303Y0780053D01*
X0736145Y0780060D01*
X0735988Y0780071D01*
X0735831Y0780086D01*
X0735674Y0780105D01*
X0735518Y0780128D01*
X0735363Y0780154D01*
X0735208Y0780185D01*
X0735054Y0780219D01*
X0734901Y0780258D01*
X0734749Y0780300D01*
X0734599Y0780346D01*
X0734449Y0780396D01*
X0734301Y0780450D01*
X0734154Y0780507D01*
X0734008Y0780568D01*
X0733865Y0780633D01*
X0733722Y0780701D01*
X0733582Y0780773D01*
X0733444Y0780848D01*
X0733307Y0780927D01*
X0733172Y0781009D01*
X0733040Y0781095D01*
X0732910Y0781184D01*
X0732782Y0781276D01*
X0732656Y0781372D01*
X0732533Y0781470D01*
X0732413Y0781572D01*
X0732295Y0781677D01*
X0732179Y0781784D01*
X0732067Y0781895D01*
X0731957Y0782008D01*
X0731850Y0782124D01*
X0731746Y0782242D01*
X0731645Y0782364D01*
X0731548Y0782487D01*
X0731453Y0782614D01*
X0731362Y0782742D01*
X0731273Y0782873D01*
X0731189Y0783006D01*
X0731107Y0783141D01*
X0731029Y0783278D01*
X0730955Y0783417D01*
X0730884Y0783558D01*
X0730816Y0783700D01*
X0730753Y0783845D01*
X0730692Y0783990D01*
X0730636Y0784138D01*
X0730583Y0784286D01*
X0730534Y0784436D01*
X0730489Y0784587D01*
X0730448Y0784740D01*
X0730410Y0784893D01*
X0730377Y0785047D01*
X0730347Y0785202D01*
X0730321Y0785357D01*
X0730300Y0785514D01*
X0730282Y0785670D01*
X0730268Y0785827D01*
X0730258Y0785985D01*
X0730252Y0786142D01*
X0730250Y0786300D01*
M02*
