G75*
%MOIN*%
%OFA0B0*%
%FSLAX25Y25*%
%IPPOS*%
%LPD*%
%AMOC8*
5,1,8,0,0,1.08239X$1,22.5*
%
%ADD10C,0.08858*%
%ADD11C,0.10124*%
%ADD12C,0.05600*%
%ADD13R,0.05550X0.05550*%
%ADD14C,0.06000*%
%ADD15OC8,0.06300*%
%ADD16C,0.06300*%
%ADD17C,0.06400*%
%ADD18C,0.05600*%
%ADD19OC8,0.05600*%
%ADD20OC8,0.06400*%
%ADD21C,0.07400*%
%ADD22C,0.17500*%
%ADD23C,0.15000*%
%ADD24R,0.08700X0.08700*%
%ADD25R,0.08250X0.08250*%
%ADD26C,0.06800*%
%ADD27C,0.10000*%
%ADD28OC8,0.10000*%
%ADD29R,0.07400X0.07400*%
%ADD30C,0.20000*%
%ADD31C,0.01200*%
%ADD32C,0.03900*%
%ADD33C,0.02000*%
D10*
X0446500Y0051300D03*
X0471500Y0061300D03*
X0451500Y0096300D03*
X0476500Y0106300D03*
X0526500Y0096300D03*
X0551500Y0106300D03*
X0546500Y0061300D03*
X0521500Y0051300D03*
X0596500Y0051300D03*
X0621500Y0061300D03*
X0601500Y0096300D03*
X0626500Y0106300D03*
X0671500Y0051300D03*
X0696500Y0061300D03*
X0676500Y0096300D03*
X0701500Y0106300D03*
X0676500Y0171300D03*
X0701500Y0181300D03*
X0676500Y0246300D03*
X0701500Y0256300D03*
X0676500Y0321300D03*
X0701500Y0331300D03*
X0626500Y0331300D03*
X0601500Y0321300D03*
X0551500Y0331300D03*
X0526500Y0321300D03*
X0476500Y0331300D03*
X0451500Y0321300D03*
X0476500Y0256300D03*
X0451500Y0246300D03*
X0476500Y0181300D03*
X0451500Y0171300D03*
X0526500Y0171300D03*
X0551500Y0181300D03*
X0601500Y0171300D03*
X0626500Y0181300D03*
X0601500Y0246300D03*
X0626500Y0256300D03*
X0551500Y0256300D03*
X0526500Y0246300D03*
D11*
X0516500Y0266300D03*
X0481500Y0266300D03*
X0441500Y0266300D03*
X0441500Y0191300D03*
X0481500Y0191300D03*
X0516500Y0191300D03*
X0556500Y0191300D03*
X0591500Y0191300D03*
X0631500Y0191300D03*
X0666500Y0191300D03*
X0706500Y0191300D03*
X0706500Y0116300D03*
X0666500Y0116300D03*
X0631500Y0116300D03*
X0591500Y0116300D03*
X0556500Y0116300D03*
X0516500Y0116300D03*
X0481500Y0116300D03*
X0441500Y0116300D03*
X0441500Y0041300D03*
X0481500Y0041300D03*
X0516500Y0041300D03*
X0556500Y0041300D03*
X0591500Y0041300D03*
X0631500Y0041300D03*
X0666500Y0041300D03*
X0706500Y0041300D03*
X0706500Y0266300D03*
X0666500Y0266300D03*
X0631500Y0266300D03*
X0591500Y0266300D03*
X0556500Y0266300D03*
X0556500Y0341300D03*
X0591500Y0341300D03*
X0631500Y0341300D03*
X0666500Y0341300D03*
X0706500Y0341300D03*
X0516500Y0341300D03*
X0481500Y0341300D03*
X0441500Y0341300D03*
D12*
X0401500Y0348500D02*
X0401500Y0354100D01*
X0391500Y0354100D02*
X0391500Y0348500D01*
X0381500Y0348500D02*
X0381500Y0354100D01*
X0371500Y0354100D02*
X0371500Y0348500D01*
X0361500Y0348500D02*
X0361500Y0354100D01*
X0351500Y0354100D02*
X0351500Y0348500D01*
X0341500Y0348500D02*
X0341500Y0354100D01*
X0331500Y0354100D02*
X0331500Y0348500D01*
X0321500Y0348500D02*
X0321500Y0354100D01*
X0311500Y0354100D02*
X0311500Y0348500D01*
X0311500Y0324100D02*
X0311500Y0318500D01*
X0321500Y0318500D02*
X0321500Y0324100D01*
X0331500Y0324100D02*
X0331500Y0318500D01*
X0341500Y0318500D02*
X0341500Y0324100D01*
X0351500Y0324100D02*
X0351500Y0318500D01*
X0361500Y0318500D02*
X0361500Y0324100D01*
X0371500Y0324100D02*
X0371500Y0318500D01*
X0381500Y0318500D02*
X0381500Y0324100D01*
X0391500Y0324100D02*
X0391500Y0318500D01*
X0401500Y0318500D02*
X0401500Y0324100D01*
X0401500Y0304100D02*
X0401500Y0298500D01*
X0391500Y0298500D02*
X0391500Y0304100D01*
X0381500Y0304100D02*
X0381500Y0298500D01*
X0371500Y0298500D02*
X0371500Y0304100D01*
X0361500Y0304100D02*
X0361500Y0298500D01*
X0351500Y0298500D02*
X0351500Y0304100D01*
X0341500Y0304100D02*
X0341500Y0298500D01*
X0331500Y0298500D02*
X0331500Y0304100D01*
X0331500Y0274100D02*
X0331500Y0268500D01*
X0341500Y0268500D02*
X0341500Y0274100D01*
X0351500Y0274100D02*
X0351500Y0268500D01*
X0361500Y0268500D02*
X0361500Y0274100D01*
X0371500Y0274100D02*
X0371500Y0268500D01*
X0381500Y0268500D02*
X0381500Y0274100D01*
X0391500Y0274100D02*
X0391500Y0268500D01*
X0401500Y0268500D02*
X0401500Y0274100D01*
X0401500Y0249100D02*
X0401500Y0243500D01*
X0391500Y0243500D02*
X0391500Y0249100D01*
X0381500Y0249100D02*
X0381500Y0243500D01*
X0371500Y0243500D02*
X0371500Y0249100D01*
X0361500Y0249100D02*
X0361500Y0243500D01*
X0351500Y0243500D02*
X0351500Y0249100D01*
X0341500Y0249100D02*
X0341500Y0243500D01*
X0331500Y0243500D02*
X0331500Y0249100D01*
X0321500Y0249100D02*
X0321500Y0243500D01*
X0311500Y0243500D02*
X0311500Y0249100D01*
X0311500Y0219100D02*
X0311500Y0213500D01*
X0321500Y0213500D02*
X0321500Y0219100D01*
X0331500Y0219100D02*
X0331500Y0213500D01*
X0341500Y0213500D02*
X0341500Y0219100D01*
X0351500Y0219100D02*
X0351500Y0213500D01*
X0351500Y0199100D02*
X0351500Y0193500D01*
X0341500Y0193500D02*
X0341500Y0199100D01*
X0331500Y0199100D02*
X0331500Y0193500D01*
X0321500Y0193500D02*
X0321500Y0199100D01*
X0311500Y0199100D02*
X0311500Y0193500D01*
X0311500Y0169100D02*
X0311500Y0163500D01*
X0321500Y0163500D02*
X0321500Y0169100D01*
X0331500Y0169100D02*
X0331500Y0163500D01*
X0341500Y0163500D02*
X0341500Y0169100D01*
X0351500Y0169100D02*
X0351500Y0163500D01*
X0351500Y0149100D02*
X0351500Y0143500D01*
X0341500Y0143500D02*
X0341500Y0149100D01*
X0331500Y0149100D02*
X0331500Y0143500D01*
X0321500Y0143500D02*
X0321500Y0149100D01*
X0311500Y0149100D02*
X0311500Y0143500D01*
X0311500Y0119100D02*
X0311500Y0113500D01*
X0311500Y0104100D02*
X0311500Y0098500D01*
X0321500Y0098500D02*
X0321500Y0104100D01*
X0321500Y0113500D02*
X0321500Y0119100D01*
X0331500Y0119100D02*
X0331500Y0113500D01*
X0331500Y0104100D02*
X0331500Y0098500D01*
X0341500Y0098500D02*
X0341500Y0104100D01*
X0341500Y0113500D02*
X0341500Y0119100D01*
X0351500Y0119100D02*
X0351500Y0113500D01*
X0351500Y0104100D02*
X0351500Y0098500D01*
X0361500Y0098500D02*
X0361500Y0104100D01*
X0361500Y0113500D02*
X0361500Y0119100D01*
X0371500Y0119100D02*
X0371500Y0113500D01*
X0371500Y0104100D02*
X0371500Y0098500D01*
X0381500Y0098500D02*
X0381500Y0104100D01*
X0381500Y0113500D02*
X0381500Y0119100D01*
X0391500Y0119100D02*
X0391500Y0113500D01*
X0391500Y0104100D02*
X0391500Y0098500D01*
X0401500Y0098500D02*
X0401500Y0104100D01*
X0401500Y0113500D02*
X0401500Y0119100D01*
X0401500Y0143500D02*
X0401500Y0149100D01*
X0401500Y0163500D02*
X0401500Y0169100D01*
X0391500Y0169100D02*
X0391500Y0163500D01*
X0381500Y0163500D02*
X0381500Y0169100D01*
X0371500Y0169100D02*
X0371500Y0163500D01*
X0361500Y0163500D02*
X0361500Y0169100D01*
X0361500Y0149100D02*
X0361500Y0143500D01*
X0371500Y0143500D02*
X0371500Y0149100D01*
X0381500Y0149100D02*
X0381500Y0143500D01*
X0391500Y0143500D02*
X0391500Y0149100D01*
X0391500Y0193500D02*
X0391500Y0199100D01*
X0381500Y0199100D02*
X0381500Y0193500D01*
X0371500Y0193500D02*
X0371500Y0199100D01*
X0361500Y0199100D02*
X0361500Y0193500D01*
X0361500Y0213500D02*
X0361500Y0219100D01*
X0371500Y0219100D02*
X0371500Y0213500D01*
X0381500Y0213500D02*
X0381500Y0219100D01*
X0391500Y0219100D02*
X0391500Y0213500D01*
X0401500Y0213500D02*
X0401500Y0219100D01*
X0401500Y0199100D02*
X0401500Y0193500D01*
X0401500Y0074100D02*
X0401500Y0068500D01*
X0391500Y0068500D02*
X0391500Y0074100D01*
X0381500Y0074100D02*
X0381500Y0068500D01*
X0371500Y0068500D02*
X0371500Y0074100D01*
X0361500Y0074100D02*
X0361500Y0068500D01*
X0351500Y0068500D02*
X0351500Y0074100D01*
X0341500Y0074100D02*
X0341500Y0068500D01*
X0331500Y0068500D02*
X0331500Y0074100D01*
X0321500Y0074100D02*
X0321500Y0068500D01*
X0311500Y0068500D02*
X0311500Y0074100D01*
X0311500Y0054100D02*
X0311500Y0048500D01*
X0321500Y0048500D02*
X0321500Y0054100D01*
X0331500Y0054100D02*
X0331500Y0048500D01*
X0341500Y0048500D02*
X0341500Y0054100D01*
X0351500Y0054100D02*
X0351500Y0048500D01*
X0361500Y0048500D02*
X0361500Y0054100D01*
X0371500Y0054100D02*
X0371500Y0048500D01*
X0381500Y0048500D02*
X0381500Y0054100D01*
X0391500Y0054100D02*
X0391500Y0048500D01*
X0401500Y0048500D02*
X0401500Y0054100D01*
X0401500Y0024100D02*
X0401500Y0018500D01*
X0391500Y0018500D02*
X0391500Y0024100D01*
X0381500Y0024100D02*
X0381500Y0018500D01*
X0371500Y0018500D02*
X0371500Y0024100D01*
X0361500Y0024100D02*
X0361500Y0018500D01*
X0351500Y0018500D02*
X0351500Y0024100D01*
X0341500Y0024100D02*
X0341500Y0018500D01*
X0331500Y0018500D02*
X0331500Y0024100D01*
X0321500Y0024100D02*
X0321500Y0018500D01*
X0311500Y0018500D02*
X0311500Y0024100D01*
X0281500Y0038500D02*
X0281500Y0044100D01*
X0281500Y0048500D02*
X0281500Y0054100D01*
X0271500Y0054100D02*
X0271500Y0048500D01*
X0271500Y0044100D02*
X0271500Y0038500D01*
X0261500Y0038500D02*
X0261500Y0044100D01*
X0261500Y0048500D02*
X0261500Y0054100D01*
X0251500Y0054100D02*
X0251500Y0048500D01*
X0251500Y0044100D02*
X0251500Y0038500D01*
X0241500Y0038500D02*
X0241500Y0044100D01*
X0216500Y0024100D02*
X0216500Y0018500D01*
X0206500Y0018500D02*
X0206500Y0024100D01*
X0196500Y0024100D02*
X0196500Y0018500D01*
X0186500Y0018500D02*
X0186500Y0024100D01*
X0176500Y0024100D02*
X0176500Y0018500D01*
X0166500Y0018500D02*
X0166500Y0024100D01*
X0156500Y0024100D02*
X0156500Y0018500D01*
X0146500Y0018500D02*
X0146500Y0024100D01*
X0136500Y0024100D02*
X0136500Y0018500D01*
X0126500Y0018500D02*
X0126500Y0024100D01*
X0116500Y0024100D02*
X0116500Y0018500D01*
X0106500Y0018500D02*
X0106500Y0024100D01*
X0096500Y0024100D02*
X0096500Y0018500D01*
X0086500Y0018500D02*
X0086500Y0024100D01*
X0076500Y0024100D02*
X0076500Y0018500D01*
X0066500Y0018500D02*
X0066500Y0024100D01*
X0066500Y0078500D02*
X0066500Y0084100D01*
X0076500Y0084100D02*
X0076500Y0078500D01*
X0086500Y0078500D02*
X0086500Y0084100D01*
X0096500Y0084100D02*
X0096500Y0078500D01*
X0106500Y0078500D02*
X0106500Y0084100D01*
X0116500Y0084100D02*
X0116500Y0078500D01*
X0126500Y0078500D02*
X0126500Y0084100D01*
X0136500Y0084100D02*
X0136500Y0078500D01*
X0146500Y0078500D02*
X0146500Y0084100D01*
X0156500Y0084100D02*
X0156500Y0078500D01*
X0166500Y0078500D02*
X0166500Y0084100D01*
X0176500Y0084100D02*
X0176500Y0078500D01*
X0186500Y0078500D02*
X0186500Y0084100D01*
X0196500Y0084100D02*
X0196500Y0078500D01*
X0206500Y0078500D02*
X0206500Y0084100D01*
X0216500Y0084100D02*
X0216500Y0078500D01*
X0251500Y0078500D02*
X0251500Y0084100D01*
X0261500Y0084100D02*
X0261500Y0078500D01*
X0271500Y0078500D02*
X0271500Y0084100D01*
X0281500Y0084100D02*
X0281500Y0078500D01*
X0246500Y0208500D02*
X0246500Y0214100D01*
X0236500Y0214100D02*
X0236500Y0208500D01*
X0226500Y0208500D02*
X0226500Y0214100D01*
X0216500Y0214100D02*
X0216500Y0208500D01*
X0206500Y0208500D02*
X0206500Y0214100D01*
X0196500Y0214100D02*
X0196500Y0208500D01*
X0186500Y0208500D02*
X0186500Y0214100D01*
X0176500Y0214100D02*
X0176500Y0208500D01*
X0176500Y0238500D02*
X0176500Y0244100D01*
X0186500Y0244100D02*
X0186500Y0238500D01*
X0196500Y0238500D02*
X0196500Y0244100D01*
X0206500Y0244100D02*
X0206500Y0238500D01*
X0216500Y0238500D02*
X0216500Y0244100D01*
X0226500Y0244100D02*
X0226500Y0238500D01*
X0236500Y0238500D02*
X0236500Y0244100D01*
X0231500Y0253500D02*
X0231500Y0259100D01*
X0241500Y0259100D02*
X0241500Y0253500D01*
X0251500Y0253500D02*
X0251500Y0259100D01*
X0246500Y0244100D02*
X0246500Y0238500D01*
X0221500Y0253500D02*
X0221500Y0259100D01*
X0211500Y0259100D02*
X0211500Y0253500D01*
X0201500Y0253500D02*
X0201500Y0259100D01*
X0201500Y0288500D02*
X0201500Y0294100D01*
X0211500Y0294100D02*
X0211500Y0288500D01*
X0221500Y0288500D02*
X0221500Y0294100D01*
X0231500Y0294100D02*
X0231500Y0288500D01*
X0241500Y0288500D02*
X0241500Y0294100D01*
X0251500Y0294100D02*
X0251500Y0288500D01*
X0261500Y0288500D02*
X0261500Y0294100D01*
X0261500Y0318500D02*
X0261500Y0324100D01*
X0251500Y0324100D02*
X0251500Y0318500D01*
X0241500Y0318500D02*
X0241500Y0324100D01*
X0231500Y0324100D02*
X0231500Y0318500D01*
X0221500Y0318500D02*
X0221500Y0324100D01*
X0211500Y0324100D02*
X0211500Y0318500D01*
X0201500Y0318500D02*
X0201500Y0324100D01*
X0191500Y0324100D02*
X0191500Y0318500D01*
X0191500Y0294100D02*
X0191500Y0288500D01*
X0161500Y0288500D02*
X0161500Y0294100D01*
X0151500Y0294100D02*
X0151500Y0288500D01*
X0141500Y0288500D02*
X0141500Y0294100D01*
X0131500Y0294100D02*
X0131500Y0288500D01*
X0121500Y0288500D02*
X0121500Y0294100D01*
X0111500Y0294100D02*
X0111500Y0288500D01*
X0101500Y0288500D02*
X0101500Y0294100D01*
X0101500Y0318500D02*
X0101500Y0324100D01*
X0111500Y0324100D02*
X0111500Y0318500D01*
X0121500Y0318500D02*
X0121500Y0324100D01*
X0131500Y0324100D02*
X0131500Y0318500D01*
X0141500Y0318500D02*
X0141500Y0324100D01*
X0151500Y0324100D02*
X0151500Y0318500D01*
X0161500Y0318500D02*
X0161500Y0324100D01*
X0161500Y0368500D02*
X0161500Y0374100D01*
X0171500Y0374100D02*
X0171500Y0368500D01*
X0181500Y0368500D02*
X0181500Y0374100D01*
X0191500Y0374100D02*
X0191500Y0368500D01*
X0201500Y0368500D02*
X0201500Y0374100D01*
X0211500Y0374100D02*
X0211500Y0368500D01*
X0221500Y0368500D02*
X0221500Y0374100D01*
X0231500Y0374100D02*
X0231500Y0368500D01*
X0241500Y0368500D02*
X0241500Y0374100D01*
X0251500Y0374100D02*
X0251500Y0368500D01*
X0261500Y0368500D02*
X0261500Y0374100D01*
X0271500Y0374100D02*
X0271500Y0368500D01*
X0281500Y0368500D02*
X0281500Y0374100D01*
X0291500Y0374100D02*
X0291500Y0368500D01*
X0291500Y0428500D02*
X0291500Y0434100D01*
X0281500Y0434100D02*
X0281500Y0428500D01*
X0271500Y0428500D02*
X0271500Y0434100D01*
X0261500Y0434100D02*
X0261500Y0428500D01*
X0251500Y0428500D02*
X0251500Y0434100D01*
X0241500Y0434100D02*
X0241500Y0428500D01*
X0231500Y0428500D02*
X0231500Y0434100D01*
X0221500Y0434100D02*
X0221500Y0428500D01*
X0211500Y0428500D02*
X0211500Y0434100D01*
X0201500Y0434100D02*
X0201500Y0428500D01*
X0191500Y0428500D02*
X0191500Y0434100D01*
X0181500Y0434100D02*
X0181500Y0428500D01*
X0171500Y0428500D02*
X0171500Y0434100D01*
X0161500Y0434100D02*
X0161500Y0428500D01*
X0151500Y0428500D02*
X0151500Y0434100D01*
X0141500Y0434100D02*
X0141500Y0428500D01*
X0131500Y0428500D02*
X0131500Y0434100D01*
X0121500Y0434100D02*
X0121500Y0428500D01*
X0111500Y0428500D02*
X0111500Y0434100D01*
X0101500Y0434100D02*
X0101500Y0428500D01*
X0131500Y0463500D02*
X0131500Y0469100D01*
X0141500Y0469100D02*
X0141500Y0463500D01*
X0151500Y0463500D02*
X0151500Y0469100D01*
X0161500Y0469100D02*
X0161500Y0463500D01*
X0171500Y0463500D02*
X0171500Y0469100D01*
X0181500Y0469100D02*
X0181500Y0463500D01*
X0191500Y0463500D02*
X0191500Y0469100D01*
X0201500Y0469100D02*
X0201500Y0463500D01*
X0211500Y0463500D02*
X0211500Y0469100D01*
X0221500Y0469100D02*
X0221500Y0463500D01*
X0231500Y0463500D02*
X0231500Y0469100D01*
X0241500Y0469100D02*
X0241500Y0463500D01*
X0251500Y0463500D02*
X0251500Y0469100D01*
X0261500Y0469100D02*
X0261500Y0463500D01*
X0261500Y0523500D02*
X0261500Y0529100D01*
X0251500Y0529100D02*
X0251500Y0523500D01*
X0241500Y0523500D02*
X0241500Y0529100D01*
X0231500Y0529100D02*
X0231500Y0523500D01*
X0221500Y0523500D02*
X0221500Y0529100D01*
X0211500Y0529100D02*
X0211500Y0523500D01*
X0201500Y0523500D02*
X0201500Y0529100D01*
X0191500Y0529100D02*
X0191500Y0523500D01*
X0181500Y0523500D02*
X0181500Y0529100D01*
X0171500Y0529100D02*
X0171500Y0523500D01*
X0161500Y0523500D02*
X0161500Y0529100D01*
X0151500Y0529100D02*
X0151500Y0523500D01*
X0141500Y0523500D02*
X0141500Y0529100D01*
X0131500Y0529100D02*
X0131500Y0523500D01*
X0131500Y0558500D02*
X0131500Y0564100D01*
X0141500Y0564100D02*
X0141500Y0558500D01*
X0151500Y0558500D02*
X0151500Y0564100D01*
X0161500Y0564100D02*
X0161500Y0558500D01*
X0171500Y0558500D02*
X0171500Y0564100D01*
X0181500Y0564100D02*
X0181500Y0558500D01*
X0191500Y0558500D02*
X0191500Y0564100D01*
X0201500Y0564100D02*
X0201500Y0558500D01*
X0211500Y0558500D02*
X0211500Y0564100D01*
X0221500Y0564100D02*
X0221500Y0558500D01*
X0231500Y0558500D02*
X0231500Y0564100D01*
X0241500Y0564100D02*
X0241500Y0558500D01*
X0251500Y0558500D02*
X0251500Y0564100D01*
X0261500Y0564100D02*
X0261500Y0558500D01*
X0271500Y0558500D02*
X0271500Y0564100D01*
X0271500Y0618500D02*
X0271500Y0624100D01*
X0261500Y0624100D02*
X0261500Y0618500D01*
X0251500Y0618500D02*
X0251500Y0624100D01*
X0241500Y0624100D02*
X0241500Y0618500D01*
X0231500Y0618500D02*
X0231500Y0624100D01*
X0221500Y0624100D02*
X0221500Y0618500D01*
X0211500Y0618500D02*
X0211500Y0624100D01*
X0201500Y0624100D02*
X0201500Y0618500D01*
X0191500Y0618500D02*
X0191500Y0624100D01*
X0181500Y0624100D02*
X0181500Y0618500D01*
X0171500Y0618500D02*
X0171500Y0624100D01*
X0161500Y0624100D02*
X0161500Y0618500D01*
X0151500Y0618500D02*
X0151500Y0624100D01*
X0141500Y0624100D02*
X0141500Y0618500D01*
X0131500Y0618500D02*
X0131500Y0624100D01*
X0121500Y0624100D02*
X0121500Y0618500D01*
X0111500Y0618500D02*
X0111500Y0624100D01*
X0101500Y0624100D02*
X0101500Y0618500D01*
X0091500Y0618500D02*
X0091500Y0624100D01*
X0081500Y0624100D02*
X0081500Y0618500D01*
X0081500Y0564100D02*
X0081500Y0558500D01*
X0091500Y0558500D02*
X0091500Y0564100D01*
X0101500Y0564100D02*
X0101500Y0558500D01*
X0111500Y0558500D02*
X0111500Y0564100D01*
X0121500Y0564100D02*
X0121500Y0558500D01*
X0181500Y0663500D02*
X0181500Y0669100D01*
X0191500Y0669100D02*
X0191500Y0663500D01*
X0201500Y0663500D02*
X0201500Y0669100D01*
X0211500Y0669100D02*
X0211500Y0663500D01*
X0221500Y0663500D02*
X0221500Y0669100D01*
X0231500Y0669100D02*
X0231500Y0663500D01*
X0241500Y0663500D02*
X0241500Y0669100D01*
X0251500Y0669100D02*
X0251500Y0663500D01*
X0251500Y0693500D02*
X0251500Y0699100D01*
X0241500Y0699100D02*
X0241500Y0693500D01*
X0231500Y0693500D02*
X0231500Y0699100D01*
X0221500Y0699100D02*
X0221500Y0693500D01*
X0211500Y0693500D02*
X0211500Y0699100D01*
X0201500Y0699100D02*
X0201500Y0693500D01*
X0191500Y0693500D02*
X0191500Y0699100D01*
X0181500Y0699100D02*
X0181500Y0693500D01*
X0296500Y0689100D02*
X0296500Y0683500D01*
X0306500Y0683500D02*
X0306500Y0689100D01*
X0316500Y0689100D02*
X0316500Y0683500D01*
X0326500Y0683500D02*
X0326500Y0689100D01*
X0336500Y0689100D02*
X0336500Y0683500D01*
X0346500Y0683500D02*
X0346500Y0689100D01*
X0356500Y0689100D02*
X0356500Y0683500D01*
X0366500Y0683500D02*
X0366500Y0689100D01*
X0376500Y0689100D02*
X0376500Y0683500D01*
X0386500Y0683500D02*
X0386500Y0689100D01*
X0386500Y0713500D02*
X0386500Y0719100D01*
X0376500Y0719100D02*
X0376500Y0713500D01*
X0366500Y0713500D02*
X0366500Y0719100D01*
X0356500Y0719100D02*
X0356500Y0713500D01*
X0346500Y0713500D02*
X0346500Y0719100D01*
X0336500Y0719100D02*
X0336500Y0713500D01*
X0326500Y0713500D02*
X0326500Y0719100D01*
X0316500Y0719100D02*
X0316500Y0713500D01*
X0306500Y0713500D02*
X0306500Y0719100D01*
X0296500Y0719100D02*
X0296500Y0713500D01*
X0296500Y0664100D02*
X0296500Y0658500D01*
X0306500Y0658500D02*
X0306500Y0664100D01*
X0316500Y0664100D02*
X0316500Y0658500D01*
X0326500Y0658500D02*
X0326500Y0664100D01*
X0336500Y0664100D02*
X0336500Y0658500D01*
X0346500Y0658500D02*
X0346500Y0664100D01*
X0356500Y0664100D02*
X0356500Y0658500D01*
X0366500Y0658500D02*
X0366500Y0664100D01*
X0376500Y0664100D02*
X0376500Y0658500D01*
X0386500Y0658500D02*
X0386500Y0664100D01*
X0386500Y0634100D02*
X0386500Y0628500D01*
X0376500Y0628500D02*
X0376500Y0634100D01*
X0366500Y0634100D02*
X0366500Y0628500D01*
X0356500Y0628500D02*
X0356500Y0634100D01*
X0346500Y0634100D02*
X0346500Y0628500D01*
X0336500Y0628500D02*
X0336500Y0634100D01*
X0326500Y0634100D02*
X0326500Y0628500D01*
X0316500Y0628500D02*
X0316500Y0634100D01*
X0306500Y0634100D02*
X0306500Y0628500D01*
X0296500Y0628500D02*
X0296500Y0634100D01*
X0386500Y0604100D02*
X0386500Y0598500D01*
X0396500Y0598500D02*
X0396500Y0604100D01*
X0406500Y0604100D02*
X0406500Y0598500D01*
X0416500Y0598500D02*
X0416500Y0604100D01*
X0426500Y0604100D02*
X0426500Y0598500D01*
X0436500Y0598500D02*
X0436500Y0604100D01*
X0446500Y0604100D02*
X0446500Y0598500D01*
X0456500Y0598500D02*
X0456500Y0604100D01*
X0466500Y0604100D02*
X0466500Y0598500D01*
X0476500Y0598500D02*
X0476500Y0604100D01*
X0486500Y0604100D02*
X0486500Y0598500D01*
X0496500Y0598500D02*
X0496500Y0604100D01*
X0501500Y0608500D02*
X0501500Y0614100D01*
X0511500Y0614100D02*
X0511500Y0608500D01*
X0506500Y0604100D02*
X0506500Y0598500D01*
X0516500Y0598500D02*
X0516500Y0604100D01*
X0521500Y0608500D02*
X0521500Y0614100D01*
X0526500Y0604100D02*
X0526500Y0598500D01*
X0536500Y0598500D02*
X0536500Y0604100D01*
X0531500Y0608500D02*
X0531500Y0614100D01*
X0541500Y0614100D02*
X0541500Y0608500D01*
X0546500Y0604100D02*
X0546500Y0598500D01*
X0556500Y0598500D02*
X0556500Y0604100D01*
X0551500Y0608500D02*
X0551500Y0614100D01*
X0566500Y0604100D02*
X0566500Y0598500D01*
X0576500Y0598500D02*
X0576500Y0604100D01*
X0576500Y0633500D02*
X0576500Y0639100D01*
X0586500Y0639100D02*
X0586500Y0633500D01*
X0596500Y0633500D02*
X0596500Y0639100D01*
X0606500Y0639100D02*
X0606500Y0633500D01*
X0606500Y0663500D02*
X0606500Y0669100D01*
X0596500Y0669100D02*
X0596500Y0663500D01*
X0586500Y0663500D02*
X0586500Y0669100D01*
X0576500Y0669100D02*
X0576500Y0663500D01*
X0566500Y0663500D02*
X0566500Y0669100D01*
X0556500Y0669100D02*
X0556500Y0663500D01*
X0546500Y0663500D02*
X0546500Y0669100D01*
X0541500Y0688500D02*
X0541500Y0694100D01*
X0531500Y0694100D02*
X0531500Y0688500D01*
X0521500Y0688500D02*
X0521500Y0694100D01*
X0511500Y0694100D02*
X0511500Y0688500D01*
X0511500Y0718500D02*
X0511500Y0724100D01*
X0521500Y0724100D02*
X0521500Y0718500D01*
X0531500Y0718500D02*
X0531500Y0724100D01*
X0541500Y0724100D02*
X0541500Y0718500D01*
X0551500Y0718500D02*
X0551500Y0724100D01*
X0561500Y0724100D02*
X0561500Y0718500D01*
X0571500Y0718500D02*
X0571500Y0724100D01*
X0571500Y0694100D02*
X0571500Y0688500D01*
X0561500Y0688500D02*
X0561500Y0694100D01*
X0551500Y0694100D02*
X0551500Y0688500D01*
X0546500Y0639100D02*
X0546500Y0633500D01*
X0556500Y0633500D02*
X0556500Y0639100D01*
X0566500Y0639100D02*
X0566500Y0633500D01*
X0611500Y0599100D02*
X0611500Y0593500D01*
X0621500Y0593500D02*
X0621500Y0599100D01*
X0631500Y0599100D02*
X0631500Y0593500D01*
X0641500Y0593500D02*
X0641500Y0599100D01*
X0651500Y0599100D02*
X0651500Y0593500D01*
X0661500Y0593500D02*
X0661500Y0599100D01*
X0671500Y0599100D02*
X0671500Y0593500D01*
X0671500Y0569100D02*
X0671500Y0563500D01*
X0661500Y0563500D02*
X0661500Y0569100D01*
X0651500Y0569100D02*
X0651500Y0563500D01*
X0641500Y0563500D02*
X0641500Y0569100D01*
X0631500Y0569100D02*
X0631500Y0563500D01*
X0621500Y0563500D02*
X0621500Y0569100D01*
X0611500Y0569100D02*
X0611500Y0563500D01*
X0611500Y0534100D02*
X0611500Y0528500D01*
X0621500Y0528500D02*
X0621500Y0534100D01*
X0631500Y0534100D02*
X0631500Y0528500D01*
X0641500Y0528500D02*
X0641500Y0534100D01*
X0651500Y0534100D02*
X0651500Y0528500D01*
X0661500Y0528500D02*
X0661500Y0534100D01*
X0671500Y0534100D02*
X0671500Y0528500D01*
X0669300Y0466300D02*
X0663700Y0466300D01*
X0663700Y0456300D02*
X0669300Y0456300D01*
X0678700Y0456300D02*
X0684300Y0456300D01*
X0684300Y0446300D02*
X0678700Y0446300D01*
X0669300Y0446300D02*
X0663700Y0446300D01*
X0678700Y0436300D02*
X0684300Y0436300D01*
X0684300Y0426300D02*
X0678700Y0426300D01*
X0669300Y0426300D02*
X0663700Y0426300D01*
X0663700Y0406300D02*
X0669300Y0406300D01*
X0678700Y0406300D02*
X0684300Y0406300D01*
X0708700Y0406300D02*
X0714300Y0406300D01*
X0714300Y0426300D02*
X0708700Y0426300D01*
X0708700Y0446300D02*
X0714300Y0446300D01*
X0714300Y0456300D02*
X0708700Y0456300D01*
X0708700Y0466300D02*
X0714300Y0466300D01*
X0684300Y0466300D02*
X0678700Y0466300D01*
X0639300Y0466300D02*
X0633700Y0466300D01*
X0624300Y0466300D02*
X0618700Y0466300D01*
X0618700Y0456300D02*
X0624300Y0456300D01*
X0633700Y0456300D02*
X0639300Y0456300D01*
X0639300Y0446300D02*
X0633700Y0446300D01*
X0624300Y0446300D02*
X0618700Y0446300D01*
X0633700Y0436300D02*
X0639300Y0436300D01*
X0639300Y0426300D02*
X0633700Y0426300D01*
X0624300Y0426300D02*
X0618700Y0426300D01*
X0618700Y0406300D02*
X0624300Y0406300D01*
X0633700Y0406300D02*
X0639300Y0406300D01*
X0594300Y0406300D02*
X0588700Y0406300D01*
X0579300Y0406300D02*
X0573700Y0406300D01*
X0573700Y0426300D02*
X0579300Y0426300D01*
X0588700Y0426300D02*
X0594300Y0426300D01*
X0594300Y0436300D02*
X0588700Y0436300D01*
X0588700Y0446300D02*
X0594300Y0446300D01*
X0594300Y0456300D02*
X0588700Y0456300D01*
X0579300Y0456300D02*
X0573700Y0456300D01*
X0573700Y0446300D02*
X0579300Y0446300D01*
X0579300Y0466300D02*
X0573700Y0466300D01*
X0588700Y0466300D02*
X0594300Y0466300D01*
X0549300Y0466300D02*
X0543700Y0466300D01*
X0534300Y0466300D02*
X0528700Y0466300D01*
X0528700Y0456300D02*
X0534300Y0456300D01*
X0543700Y0456300D02*
X0549300Y0456300D01*
X0549300Y0446300D02*
X0543700Y0446300D01*
X0534300Y0446300D02*
X0528700Y0446300D01*
X0543700Y0436300D02*
X0549300Y0436300D01*
X0549300Y0426300D02*
X0543700Y0426300D01*
X0534300Y0426300D02*
X0528700Y0426300D01*
X0528700Y0406300D02*
X0534300Y0406300D01*
X0543700Y0406300D02*
X0549300Y0406300D01*
X0504300Y0406300D02*
X0498700Y0406300D01*
X0489300Y0406300D02*
X0483700Y0406300D01*
X0483700Y0426300D02*
X0489300Y0426300D01*
X0498700Y0426300D02*
X0504300Y0426300D01*
X0504300Y0436300D02*
X0498700Y0436300D01*
X0498700Y0446300D02*
X0504300Y0446300D01*
X0504300Y0456300D02*
X0498700Y0456300D01*
X0489300Y0456300D02*
X0483700Y0456300D01*
X0483700Y0446300D02*
X0489300Y0446300D01*
X0489300Y0466300D02*
X0483700Y0466300D01*
X0498700Y0466300D02*
X0504300Y0466300D01*
X0459300Y0466300D02*
X0453700Y0466300D01*
X0453700Y0456300D02*
X0459300Y0456300D01*
X0459300Y0446300D02*
X0453700Y0446300D01*
X0444300Y0446300D02*
X0438700Y0446300D01*
X0438700Y0456300D02*
X0444300Y0456300D01*
X0444300Y0466300D02*
X0438700Y0466300D01*
X0414300Y0466300D02*
X0408700Y0466300D01*
X0399300Y0466300D02*
X0393700Y0466300D01*
X0393700Y0456300D02*
X0399300Y0456300D01*
X0408700Y0456300D02*
X0414300Y0456300D01*
X0414300Y0446300D02*
X0408700Y0446300D01*
X0399300Y0446300D02*
X0393700Y0446300D01*
X0408700Y0436300D02*
X0414300Y0436300D01*
X0414300Y0426300D02*
X0408700Y0426300D01*
X0399300Y0426300D02*
X0393700Y0426300D01*
X0393700Y0406300D02*
X0399300Y0406300D01*
X0408700Y0406300D02*
X0414300Y0406300D01*
X0438700Y0406300D02*
X0444300Y0406300D01*
X0453700Y0406300D02*
X0459300Y0406300D01*
X0459300Y0426300D02*
X0453700Y0426300D01*
X0453700Y0436300D02*
X0459300Y0436300D01*
X0444300Y0426300D02*
X0438700Y0426300D01*
X0369300Y0426300D02*
X0363700Y0426300D01*
X0363700Y0436300D02*
X0369300Y0436300D01*
X0369300Y0446300D02*
X0363700Y0446300D01*
X0363700Y0456300D02*
X0369300Y0456300D01*
X0369300Y0466300D02*
X0363700Y0466300D01*
X0363700Y0406300D02*
X0369300Y0406300D01*
X0386500Y0538500D02*
X0386500Y0544100D01*
X0396500Y0544100D02*
X0396500Y0538500D01*
X0406500Y0538500D02*
X0406500Y0544100D01*
X0416500Y0544100D02*
X0416500Y0538500D01*
X0426500Y0538500D02*
X0426500Y0544100D01*
X0436500Y0544100D02*
X0436500Y0538500D01*
X0446500Y0538500D02*
X0446500Y0544100D01*
X0456500Y0544100D02*
X0456500Y0538500D01*
X0466500Y0538500D02*
X0466500Y0544100D01*
X0476500Y0544100D02*
X0476500Y0538500D01*
X0486500Y0538500D02*
X0486500Y0544100D01*
X0496500Y0544100D02*
X0496500Y0538500D01*
X0506500Y0538500D02*
X0506500Y0544100D01*
X0516500Y0544100D02*
X0516500Y0538500D01*
X0526500Y0538500D02*
X0526500Y0544100D01*
X0536500Y0544100D02*
X0536500Y0538500D01*
X0546500Y0538500D02*
X0546500Y0544100D01*
X0556500Y0544100D02*
X0556500Y0538500D01*
X0566500Y0538500D02*
X0566500Y0544100D01*
X0576500Y0544100D02*
X0576500Y0538500D01*
X0703700Y0661300D02*
X0709300Y0661300D01*
X0733700Y0661300D02*
X0739300Y0661300D01*
X0721500Y0708500D02*
X0721500Y0714100D01*
X0711500Y0714100D02*
X0711500Y0708500D01*
X0701500Y0708500D02*
X0701500Y0714100D01*
X0701500Y0738500D02*
X0701500Y0744100D01*
X0711500Y0744100D02*
X0711500Y0738500D01*
X0721500Y0738500D02*
X0721500Y0744100D01*
X0728700Y0341300D02*
X0734300Y0341300D01*
X0734300Y0331300D02*
X0728700Y0331300D01*
X0728700Y0321300D02*
X0734300Y0321300D01*
X0734300Y0311300D02*
X0728700Y0311300D01*
X0728700Y0301300D02*
X0734300Y0301300D01*
X0734300Y0291300D02*
X0728700Y0291300D01*
X0728700Y0281300D02*
X0734300Y0281300D01*
X0734300Y0271300D02*
X0728700Y0271300D01*
X0728700Y0261300D02*
X0734300Y0261300D01*
X0734300Y0201300D02*
X0728700Y0201300D01*
X0728700Y0191300D02*
X0734300Y0191300D01*
X0734300Y0181300D02*
X0728700Y0181300D01*
X0728700Y0171300D02*
X0734300Y0171300D01*
X0734300Y0161300D02*
X0728700Y0161300D01*
X0728700Y0151300D02*
X0734300Y0151300D01*
X0734300Y0141300D02*
X0728700Y0141300D01*
X0728700Y0131300D02*
X0734300Y0131300D01*
X0734300Y0121300D02*
X0728700Y0121300D01*
X0728700Y0076300D02*
X0734300Y0076300D01*
X0734300Y0066300D02*
X0728700Y0066300D01*
X0728700Y0056300D02*
X0734300Y0056300D01*
X0734300Y0046300D02*
X0728700Y0046300D01*
X0728700Y0036300D02*
X0734300Y0036300D01*
X0146500Y0208500D02*
X0146500Y0214100D01*
X0136500Y0214100D02*
X0136500Y0208500D01*
X0126500Y0208500D02*
X0126500Y0214100D01*
X0116500Y0214100D02*
X0116500Y0208500D01*
X0106500Y0208500D02*
X0106500Y0214100D01*
X0096500Y0214100D02*
X0096500Y0208500D01*
X0086500Y0208500D02*
X0086500Y0214100D01*
X0076500Y0214100D02*
X0076500Y0208500D01*
X0076500Y0238500D02*
X0076500Y0244100D01*
X0086500Y0244100D02*
X0086500Y0238500D01*
X0096500Y0238500D02*
X0096500Y0244100D01*
X0106500Y0244100D02*
X0106500Y0238500D01*
X0116500Y0238500D02*
X0116500Y0244100D01*
X0126500Y0244100D02*
X0126500Y0238500D01*
X0136500Y0238500D02*
X0136500Y0244100D01*
X0131500Y0253500D02*
X0131500Y0259100D01*
X0141500Y0259100D02*
X0141500Y0253500D01*
X0151500Y0253500D02*
X0151500Y0259100D01*
X0146500Y0244100D02*
X0146500Y0238500D01*
X0121500Y0253500D02*
X0121500Y0259100D01*
X0111500Y0259100D02*
X0111500Y0253500D01*
X0101500Y0253500D02*
X0101500Y0259100D01*
X0101500Y0368500D02*
X0101500Y0374100D01*
X0111500Y0374100D02*
X0111500Y0368500D01*
X0121500Y0368500D02*
X0121500Y0374100D01*
X0131500Y0374100D02*
X0131500Y0368500D01*
X0141500Y0368500D02*
X0141500Y0374100D01*
X0151500Y0374100D02*
X0151500Y0368500D01*
D13*
X0366500Y0416300D03*
X0396500Y0416300D03*
X0411500Y0416300D03*
X0396500Y0436300D03*
X0441500Y0436300D03*
X0441500Y0416300D03*
X0456500Y0416300D03*
X0486500Y0416300D03*
X0501500Y0416300D03*
X0486500Y0436300D03*
X0531500Y0436300D03*
X0531500Y0416300D03*
X0546500Y0416300D03*
X0576500Y0416300D03*
X0591500Y0416300D03*
X0576500Y0436300D03*
X0621500Y0436300D03*
X0621500Y0416300D03*
X0636500Y0416300D03*
X0666500Y0416300D03*
X0681500Y0416300D03*
X0666500Y0436300D03*
X0711500Y0436300D03*
X0711500Y0416300D03*
X0565510Y0512300D03*
X0555510Y0512300D03*
X0545510Y0512300D03*
X0535510Y0512300D03*
X0525510Y0512300D03*
X0515510Y0512300D03*
X0505510Y0512300D03*
X0495510Y0512300D03*
X0485510Y0512300D03*
X0475510Y0512300D03*
X0465510Y0512300D03*
X0455510Y0512300D03*
X0445510Y0512300D03*
X0435510Y0512300D03*
X0736500Y0695600D03*
X0736500Y0711300D03*
X0736500Y0719200D03*
X0736500Y0727100D03*
D14*
X0733500Y0606300D02*
X0739500Y0606300D01*
X0739500Y0596300D02*
X0733500Y0596300D01*
X0476500Y0688300D02*
X0476500Y0694300D01*
X0466500Y0694300D02*
X0466500Y0688300D01*
X0326500Y0539300D02*
X0326500Y0533300D01*
X0316500Y0533300D02*
X0316500Y0539300D01*
X0306500Y0539300D02*
X0306500Y0533300D01*
X0348500Y0416300D02*
X0354500Y0416300D01*
X0354500Y0406300D02*
X0348500Y0406300D01*
X0076500Y0638300D02*
X0076500Y0644300D01*
X0066500Y0644300D02*
X0066500Y0638300D01*
X0064500Y0601300D02*
X0058500Y0601300D01*
X0058500Y0591300D02*
X0064500Y0591300D01*
X0064500Y0581300D02*
X0058500Y0581300D01*
X0044500Y0581300D02*
X0038500Y0581300D01*
X0038500Y0591300D02*
X0044500Y0591300D01*
X0044500Y0601300D02*
X0038500Y0601300D01*
X0273500Y0761300D02*
X0279500Y0761300D01*
X0279500Y0771300D02*
X0273500Y0771300D01*
D15*
X0341500Y0441300D03*
D16*
X0341500Y0431300D03*
D17*
X0054700Y0621300D02*
X0048300Y0621300D01*
X0048300Y0631300D02*
X0054700Y0631300D01*
X0054700Y0641300D02*
X0048300Y0641300D01*
X0048300Y0651300D02*
X0054700Y0651300D01*
X0054700Y0661300D02*
X0048300Y0661300D01*
X0048300Y0671300D02*
X0054700Y0671300D01*
X0256500Y0783100D02*
X0256500Y0789500D01*
X0266500Y0789500D02*
X0266500Y0783100D01*
X0276500Y0783100D02*
X0276500Y0789500D01*
X0286500Y0789500D02*
X0286500Y0783100D01*
X0296500Y0783100D02*
X0296500Y0789500D01*
X0306500Y0789500D02*
X0306500Y0783100D01*
X0326500Y0783100D02*
X0326500Y0789500D01*
X0336500Y0789500D02*
X0336500Y0783100D01*
X0346500Y0783100D02*
X0346500Y0789500D01*
X0356500Y0789500D02*
X0356500Y0783100D01*
X0366500Y0783100D02*
X0366500Y0789500D01*
X0376500Y0789500D02*
X0376500Y0783100D01*
X0386500Y0783100D02*
X0386500Y0789500D01*
X0396500Y0789500D02*
X0396500Y0783100D01*
X0406500Y0783100D02*
X0406500Y0789500D01*
X0416500Y0789500D02*
X0416500Y0783100D01*
X0426500Y0783100D02*
X0426500Y0789500D01*
X0436500Y0789500D02*
X0436500Y0783100D01*
X0446500Y0783100D02*
X0446500Y0789500D01*
X0456500Y0789500D02*
X0456500Y0783100D01*
X0466500Y0783100D02*
X0466500Y0789500D01*
X0476500Y0789500D02*
X0476500Y0783100D01*
X0486500Y0783100D02*
X0486500Y0789500D01*
X0496500Y0789500D02*
X0496500Y0783100D01*
X0506500Y0783100D02*
X0506500Y0789500D01*
X0516500Y0789500D02*
X0516500Y0783100D01*
X0526500Y0783100D02*
X0526500Y0789500D01*
X0536500Y0789500D02*
X0536500Y0783100D01*
X0546500Y0783100D02*
X0546500Y0789500D01*
X0556500Y0789500D02*
X0556500Y0783100D01*
X0566500Y0783100D02*
X0566500Y0789500D01*
X0576500Y0789500D02*
X0576500Y0783100D01*
X0586500Y0783100D02*
X0586500Y0789500D01*
X0596500Y0789500D02*
X0596500Y0783100D01*
X0606500Y0783100D02*
X0606500Y0789500D01*
X0616500Y0789500D02*
X0616500Y0783100D01*
X0626500Y0783100D02*
X0626500Y0789500D01*
X0636500Y0789500D02*
X0636500Y0783100D01*
X0646500Y0783100D02*
X0646500Y0789500D01*
X0656500Y0789500D02*
X0656500Y0783100D01*
X0666500Y0783100D02*
X0666500Y0789500D01*
X0676500Y0789500D02*
X0676500Y0783100D01*
X0686500Y0783100D02*
X0686500Y0789500D01*
X0696500Y0789500D02*
X0696500Y0783100D01*
X0706500Y0783100D02*
X0706500Y0789500D01*
X0716500Y0789500D02*
X0716500Y0783100D01*
X0709700Y0641300D02*
X0703300Y0641300D01*
X0703300Y0621300D02*
X0709700Y0621300D01*
X0733300Y0621300D02*
X0739700Y0621300D01*
X0739700Y0641300D02*
X0733300Y0641300D01*
X0733300Y0581300D02*
X0739700Y0581300D01*
X0739700Y0561300D02*
X0733300Y0561300D01*
X0709700Y0561300D02*
X0703300Y0561300D01*
X0703300Y0581300D02*
X0709700Y0581300D01*
D18*
X0671500Y0641300D03*
X0661500Y0641300D03*
X0651500Y0641300D03*
X0641500Y0641300D03*
X0641500Y0671300D03*
X0651500Y0671300D03*
X0661500Y0671300D03*
X0671500Y0671300D03*
X0666500Y0691300D03*
X0656500Y0691300D03*
X0646500Y0691300D03*
X0636500Y0691300D03*
X0636500Y0721300D03*
X0646500Y0721300D03*
X0656500Y0721300D03*
X0666500Y0721300D03*
X0476500Y0666300D03*
X0476500Y0636300D03*
X0446500Y0636300D03*
X0446500Y0666300D03*
X0326500Y0511300D03*
X0326500Y0481300D03*
X0296500Y0481300D03*
X0296500Y0511300D03*
D19*
X0276500Y0511300D03*
X0276500Y0501300D03*
X0246500Y0441300D03*
X0236500Y0441300D03*
X0301500Y0351300D03*
X0301500Y0341300D03*
X0301500Y0246300D03*
X0301500Y0236300D03*
X0301500Y0196300D03*
X0301500Y0186300D03*
X0301500Y0146300D03*
X0301500Y0136300D03*
X0301500Y0101300D03*
X0301500Y0091300D03*
X0301500Y0051300D03*
X0301500Y0041300D03*
X0166500Y0231300D03*
X0166500Y0241300D03*
X0181500Y0311300D03*
X0181500Y0321300D03*
X0091500Y0321300D03*
X0091500Y0311300D03*
X0066500Y0241300D03*
X0066500Y0231300D03*
X0086500Y0171300D03*
X0086500Y0161300D03*
X0056500Y0081300D03*
X0056500Y0071300D03*
X0381500Y0486300D03*
X0371600Y0496300D03*
X0391400Y0496300D03*
X0481500Y0531300D03*
X0491500Y0531300D03*
X0606500Y0546300D03*
X0616500Y0546300D03*
X0626500Y0546300D03*
X0636500Y0546300D03*
X0646500Y0546300D03*
X0656500Y0546300D03*
X0666500Y0546300D03*
X0676500Y0546300D03*
X0686500Y0546300D03*
X0696500Y0546300D03*
X0691500Y0571300D03*
X0691500Y0601300D03*
X0671500Y0621300D03*
X0666500Y0631300D03*
X0656500Y0631300D03*
X0641500Y0621300D03*
X0621500Y0646300D03*
X0631500Y0661300D03*
X0631500Y0671300D03*
X0621500Y0676300D03*
X0606500Y0696300D03*
X0596600Y0706300D03*
X0586500Y0691300D03*
X0586500Y0721300D03*
X0616400Y0706300D03*
X0626500Y0711300D03*
X0626500Y0721300D03*
X0636500Y0731300D03*
X0646500Y0731300D03*
X0656500Y0731300D03*
X0666500Y0731300D03*
X0676500Y0721300D03*
X0686500Y0721300D03*
X0711500Y0701300D03*
X0721500Y0701300D03*
X0721500Y0671300D03*
X0711500Y0671300D03*
X0706500Y0651300D03*
X0691500Y0651300D03*
X0691500Y0641300D03*
X0681500Y0661300D03*
X0681500Y0671300D03*
X0676500Y0691300D03*
X0686500Y0691300D03*
X0736500Y0651300D03*
X0721500Y0606300D03*
X0721500Y0596300D03*
X0601500Y0596300D03*
X0601500Y0586300D03*
X0536500Y0656300D03*
X0536500Y0666300D03*
X0501500Y0711300D03*
X0501500Y0721300D03*
X0426500Y0666300D03*
X0426500Y0656300D03*
X0306500Y0766300D03*
X0296500Y0766300D03*
X0286500Y0766300D03*
X0286500Y0776300D03*
X0296500Y0776300D03*
X0306500Y0776300D03*
X0266500Y0776300D03*
X0266500Y0766300D03*
X0286500Y0716300D03*
X0286500Y0706300D03*
X0286500Y0656300D03*
X0286500Y0646300D03*
X0246500Y0656300D03*
X0236500Y0656300D03*
X0221500Y0656300D03*
X0211500Y0656300D03*
X0196500Y0656300D03*
X0186500Y0656300D03*
X0166500Y0676300D03*
X0166500Y0686300D03*
X0181500Y0706300D03*
X0191500Y0706300D03*
X0136500Y0641300D03*
X0116500Y0641300D03*
X0071500Y0631300D03*
X0061500Y0631300D03*
X0061500Y0651300D03*
X0071500Y0651300D03*
X0071500Y0661300D03*
X0071500Y0671300D03*
X0061500Y0671300D03*
X0061500Y0661300D03*
X0146500Y0551300D03*
X0156500Y0551300D03*
X0176500Y0536300D03*
X0186500Y0536300D03*
D20*
X0061500Y0536300D03*
X0061500Y0546300D03*
X0051500Y0546300D03*
X0051500Y0536300D03*
X0051500Y0526300D03*
X0051500Y0516300D03*
X0051500Y0506300D03*
X0061500Y0506300D03*
X0061500Y0516300D03*
X0061500Y0526300D03*
X0061500Y0476300D03*
X0061500Y0466300D03*
X0061500Y0456300D03*
X0061500Y0446300D03*
X0061500Y0436300D03*
X0061500Y0426300D03*
X0061500Y0416300D03*
X0061500Y0406300D03*
X0061500Y0396300D03*
X0061500Y0386300D03*
X0061500Y0376300D03*
X0061500Y0366300D03*
X0051500Y0366300D03*
X0051500Y0376300D03*
X0051500Y0386300D03*
X0051500Y0396300D03*
X0051500Y0406300D03*
X0051500Y0416300D03*
X0051500Y0426300D03*
X0051500Y0436300D03*
X0051500Y0446300D03*
X0051500Y0456300D03*
X0051500Y0466300D03*
X0051500Y0476300D03*
X0366500Y0671300D03*
X0501500Y0626300D03*
X0511500Y0626300D03*
X0666500Y0761300D03*
X0666500Y0771300D03*
X0676500Y0771300D03*
X0676500Y0761300D03*
X0686500Y0761300D03*
X0686500Y0771300D03*
X0696500Y0771300D03*
X0696500Y0761300D03*
X0706500Y0761300D03*
X0706500Y0771300D03*
X0716500Y0771300D03*
X0716500Y0761300D03*
D21*
X0208311Y0755709D03*
X0202839Y0766891D03*
X0197406Y0755709D03*
X0186500Y0755709D03*
X0181067Y0766891D03*
X0191933Y0766891D03*
X0175594Y0755709D03*
X0170161Y0766891D03*
X0166500Y0171300D03*
X0156500Y0171300D03*
X0146500Y0171300D03*
X0136500Y0171300D03*
X0126500Y0171300D03*
X0116500Y0171300D03*
X0106500Y0171300D03*
X0096500Y0171300D03*
X0096500Y0111300D03*
X0106500Y0111300D03*
X0116500Y0111300D03*
X0126500Y0111300D03*
X0136500Y0111300D03*
X0146500Y0111300D03*
X0156500Y0111300D03*
X0166500Y0111300D03*
X0176500Y0111300D03*
X0186500Y0111300D03*
X0196500Y0111300D03*
X0206500Y0111300D03*
X0216500Y0111300D03*
X0226500Y0111300D03*
X0236500Y0111300D03*
X0246500Y0111300D03*
X0246500Y0171300D03*
X0236500Y0171300D03*
X0226500Y0171300D03*
X0216500Y0171300D03*
X0206500Y0171300D03*
X0196500Y0171300D03*
X0186500Y0171300D03*
X0176500Y0171300D03*
D22*
X0096500Y0749095D03*
D23*
X0077602Y0761300D03*
X0096500Y0773111D03*
D24*
X0736500Y0735300D03*
X0736500Y0687300D03*
D25*
X0736500Y0680600D03*
X0736500Y0742000D03*
D26*
X0109900Y0716300D02*
X0103100Y0716300D01*
X0103100Y0706300D02*
X0109900Y0706300D01*
X0109900Y0696300D02*
X0103100Y0696300D01*
D27*
X0136500Y0716300D03*
X0051500Y0741300D03*
D28*
X0051500Y0761300D03*
X0136500Y0696300D03*
D29*
X0164689Y0755709D03*
D30*
X0137287Y0761300D03*
X0235713Y0761300D03*
D31*
X0029000Y0306300D02*
X0029000Y0017550D01*
X0039000Y0007550D01*
X0102750Y0007550D01*
X0116500Y0021300D01*
X0156500Y0021300D02*
X0170250Y0035050D01*
X0174000Y0028800D02*
X0174000Y0073800D01*
X0154000Y0073800D01*
X0151500Y0076300D01*
X0151500Y0105050D01*
X0190250Y0105050D01*
X0196500Y0111300D01*
X0186500Y0111300D02*
X0199000Y0123800D01*
X0271500Y0123800D01*
X0272750Y0125050D01*
X0267750Y0121300D02*
X0270250Y0118800D01*
X0304000Y0118800D01*
X0309000Y0123800D01*
X0345250Y0123800D01*
X0341500Y0132550D02*
X0344000Y0135050D01*
X0415250Y0135050D01*
X0396500Y0131300D02*
X0537750Y0131300D01*
X0580250Y0173800D01*
X0565250Y0165050D02*
X0475250Y0165050D01*
X0469000Y0158800D01*
X0354000Y0158800D01*
X0341500Y0146300D01*
X0331500Y0146300D02*
X0331500Y0166300D01*
X0345250Y0178800D02*
X0224000Y0178800D01*
X0216500Y0171300D01*
X0216500Y0181300D02*
X0316500Y0181300D01*
X0331500Y0196300D01*
X0331500Y0187550D02*
X0326500Y0182550D01*
X0331500Y0187550D02*
X0410250Y0187550D01*
X0400250Y0183800D02*
X0359000Y0183800D01*
X0352750Y0177550D01*
X0351500Y0196300D02*
X0351500Y0206300D01*
X0489000Y0206300D01*
X0502750Y0220050D01*
X0544000Y0220050D01*
X0551500Y0227550D01*
X0606500Y0227550D01*
X0611500Y0232550D01*
X0601500Y0246300D02*
X0625250Y0246300D01*
X0631500Y0252550D01*
X0679000Y0252550D01*
X0681500Y0250050D01*
X0710250Y0250050D01*
X0731500Y0271300D01*
X0726500Y0276300D02*
X0580250Y0276300D01*
X0550250Y0246300D01*
X0526500Y0246300D01*
X0540250Y0230050D02*
X0550250Y0240050D01*
X0540250Y0230050D02*
X0356500Y0230050D01*
X0356500Y0210050D01*
X0357750Y0203800D02*
X0492750Y0203800D01*
X0490250Y0200050D02*
X0527750Y0200050D01*
X0549000Y0221300D01*
X0701500Y0221300D01*
X0745250Y0265050D01*
X0745250Y0748800D01*
X0611500Y0748800D01*
X0597750Y0735050D01*
X0375250Y0735050D01*
X0371500Y0731300D01*
X0371500Y0708800D01*
X0364000Y0708800D01*
X0356500Y0716300D01*
X0366500Y0716300D02*
X0356500Y0726300D01*
X0156500Y0726300D01*
X0121500Y0691300D01*
X0032750Y0691300D01*
X0032750Y0487550D01*
X0037750Y0482550D01*
X0085250Y0482550D01*
X0097750Y0470050D01*
X0122750Y0470050D01*
X0119000Y0466300D02*
X0131500Y0466300D01*
X0134000Y0456300D02*
X0156500Y0456300D01*
X0156500Y0455050D01*
X0156500Y0456300D02*
X0194000Y0456300D01*
X0195250Y0455050D01*
X0250250Y0455050D01*
X0261500Y0466300D01*
X0252750Y0448800D02*
X0262750Y0438800D01*
X0264000Y0438800D01*
X0271500Y0431300D01*
X0276500Y0426300D02*
X0274000Y0423800D01*
X0261500Y0423800D01*
X0256500Y0418800D01*
X0245250Y0415050D02*
X0275250Y0415050D01*
X0286500Y0426300D01*
X0286500Y0446300D01*
X0296500Y0446300D01*
X0320250Y0470050D01*
X0336500Y0470050D01*
X0332750Y0465050D02*
X0320250Y0465050D01*
X0320250Y0405050D01*
X0325250Y0403800D02*
X0317750Y0396300D01*
X0196500Y0396300D01*
X0191500Y0398800D02*
X0187750Y0402550D01*
X0161500Y0402550D01*
X0156500Y0407550D01*
X0094000Y0407550D01*
X0092750Y0406300D01*
X0069000Y0406300D01*
X0070250Y0411300D02*
X0072750Y0413800D01*
X0164000Y0413800D01*
X0167750Y0410050D01*
X0181500Y0410050D01*
X0181500Y0431300D01*
X0180250Y0440050D02*
X0160250Y0440050D01*
X0151500Y0431300D01*
X0155250Y0423800D02*
X0129000Y0423800D01*
X0121500Y0431300D01*
X0129000Y0438800D01*
X0100250Y0438800D01*
X0094000Y0445050D01*
X0081500Y0438800D02*
X0069000Y0438800D01*
X0064000Y0441300D02*
X0056500Y0441300D01*
X0051500Y0436300D01*
X0051500Y0426300D02*
X0046500Y0426300D01*
X0046500Y0413800D01*
X0049000Y0411300D01*
X0070250Y0411300D01*
X0069000Y0416300D02*
X0167750Y0416300D01*
X0170250Y0413800D01*
X0166500Y0407550D02*
X0162750Y0411300D01*
X0091500Y0411300D01*
X0090250Y0410050D01*
X0092750Y0420050D02*
X0091500Y0421300D01*
X0056500Y0421300D01*
X0051500Y0416300D01*
X0051500Y0406300D02*
X0056500Y0401300D01*
X0071500Y0401300D01*
X0072750Y0400050D01*
X0155250Y0400050D01*
X0157750Y0397550D01*
X0180250Y0397550D01*
X0185250Y0392550D01*
X0201500Y0392550D01*
X0207750Y0386300D02*
X0191500Y0386300D01*
X0190250Y0387550D01*
X0159000Y0387550D01*
X0151500Y0395050D01*
X0072750Y0395050D01*
X0071500Y0393800D01*
X0064000Y0393800D01*
X0061500Y0396300D01*
X0056500Y0391300D02*
X0051500Y0396300D01*
X0056500Y0391300D02*
X0072750Y0391300D01*
X0074000Y0392550D01*
X0150250Y0392550D01*
X0157750Y0385050D01*
X0189000Y0385050D01*
X0190250Y0383800D01*
X0204000Y0383800D01*
X0205250Y0382550D01*
X0202750Y0378800D02*
X0200250Y0381300D01*
X0121500Y0381300D01*
X0117750Y0385050D01*
X0111500Y0378800D01*
X0109000Y0378800D01*
X0101500Y0371300D01*
X0086500Y0358800D02*
X0064000Y0381300D01*
X0049000Y0381300D01*
X0044000Y0386300D01*
X0044000Y0466300D01*
X0051500Y0466300D01*
X0056500Y0471300D02*
X0041500Y0471300D01*
X0041500Y0368800D01*
X0067750Y0342550D01*
X0245250Y0342550D01*
X0250250Y0347550D01*
X0239000Y0347550D02*
X0237750Y0348800D01*
X0224000Y0348800D01*
X0222750Y0350050D01*
X0120250Y0350050D01*
X0119000Y0348800D01*
X0071500Y0348800D01*
X0067750Y0352550D01*
X0067750Y0346300D02*
X0056500Y0357550D01*
X0056500Y0376300D01*
X0051500Y0376300D01*
X0067750Y0371300D02*
X0082750Y0356300D01*
X0230250Y0356300D01*
X0231500Y0355050D01*
X0229000Y0351300D02*
X0285250Y0351300D01*
X0301500Y0335050D01*
X0357750Y0335050D01*
X0366500Y0326300D01*
X0366500Y0308800D01*
X0334000Y0308800D01*
X0321500Y0321300D01*
X0335250Y0328800D02*
X0307750Y0328800D01*
X0286500Y0307550D01*
X0236500Y0307550D01*
X0231500Y0302550D01*
X0049000Y0302550D01*
X0049000Y0215050D01*
X0057750Y0185050D02*
X0031500Y0158800D01*
X0031500Y0025050D01*
X0052750Y0025050D01*
X0064000Y0013800D01*
X0069000Y0013800D01*
X0076500Y0021300D01*
X0066500Y0021300D02*
X0066500Y0063800D01*
X0057750Y0063800D01*
X0051500Y0070050D01*
X0051500Y0111300D01*
X0034000Y0111300D01*
X0034000Y0157550D01*
X0059000Y0182550D01*
X0145250Y0182550D01*
X0159000Y0196300D01*
X0151500Y0182550D02*
X0149000Y0180050D01*
X0086500Y0180050D01*
X0069000Y0162550D01*
X0069000Y0153800D01*
X0131500Y0153800D01*
X0132750Y0155050D01*
X0127750Y0156300D02*
X0134000Y0162550D01*
X0167750Y0162550D01*
X0176500Y0171300D01*
X0180250Y0165050D02*
X0280250Y0165050D01*
X0286500Y0170050D02*
X0302750Y0153800D01*
X0314000Y0153800D01*
X0321500Y0146300D01*
X0294000Y0151300D02*
X0056500Y0151300D01*
X0056500Y0173800D01*
X0057750Y0185050D02*
X0110250Y0185050D01*
X0121500Y0196300D01*
X0124000Y0203800D02*
X0209000Y0203800D01*
X0216500Y0211300D01*
X0224000Y0218800D01*
X0245250Y0218800D01*
X0286500Y0260050D01*
X0290250Y0262550D02*
X0290250Y0232550D01*
X0289000Y0232550D01*
X0287750Y0231300D01*
X0287750Y0223800D01*
X0289000Y0223800D01*
X0324000Y0223800D01*
X0331500Y0216300D01*
X0334000Y0208800D02*
X0344000Y0208800D01*
X0346500Y0211300D01*
X0346500Y0232550D01*
X0472750Y0232550D01*
X0526500Y0286300D01*
X0736500Y0286300D01*
X0741500Y0291300D01*
X0741500Y0357550D01*
X0734000Y0357550D01*
X0717750Y0373800D01*
X0717750Y0406300D01*
X0711500Y0406300D01*
X0681500Y0426300D02*
X0676500Y0431300D01*
X0641500Y0431300D01*
X0636500Y0426300D01*
X0642750Y0421300D02*
X0616500Y0421300D01*
X0606500Y0431300D01*
X0582750Y0431300D01*
X0525250Y0431300D01*
X0505250Y0411300D01*
X0480250Y0411300D01*
X0482750Y0421300D02*
X0506500Y0421300D01*
X0509000Y0423800D01*
X0509000Y0436300D01*
X0501500Y0436300D01*
X0496500Y0431300D02*
X0501500Y0426300D01*
X0496500Y0431300D02*
X0481500Y0431300D01*
X0479000Y0428800D01*
X0459000Y0428800D01*
X0456500Y0426300D01*
X0469000Y0421300D02*
X0377750Y0421300D01*
X0371500Y0431300D02*
X0406500Y0431300D01*
X0411500Y0426300D01*
X0416500Y0441300D02*
X0401500Y0441300D01*
X0396500Y0446300D01*
X0396500Y0456300D02*
X0379000Y0456300D01*
X0377750Y0455050D01*
X0371500Y0451300D02*
X0366500Y0456300D01*
X0371500Y0451300D02*
X0446500Y0451300D01*
X0449000Y0453800D01*
X0454000Y0453800D01*
X0456500Y0456300D01*
X0450250Y0451300D02*
X0445250Y0446300D01*
X0441500Y0446300D01*
X0436500Y0441300D02*
X0506500Y0441300D01*
X0586500Y0441300D01*
X0676500Y0441300D01*
X0681500Y0446300D01*
X0706500Y0451300D02*
X0616500Y0451300D01*
X0621500Y0446300D01*
X0616500Y0451300D02*
X0536500Y0451300D01*
X0531500Y0446300D01*
X0511500Y0446300D01*
X0506500Y0451300D01*
X0450250Y0451300D01*
X0441500Y0456300D02*
X0446500Y0461300D01*
X0526500Y0461300D01*
X0616500Y0461300D01*
X0706500Y0461300D01*
X0711500Y0456300D01*
X0706500Y0451300D02*
X0711500Y0446300D01*
X0646500Y0476300D02*
X0640250Y0482550D01*
X0550250Y0482550D01*
X0505250Y0482550D01*
X0507750Y0502550D02*
X0546500Y0502550D01*
X0555250Y0511300D01*
X0555510Y0512300D01*
X0565250Y0512550D02*
X0565510Y0512300D01*
X0565250Y0512550D02*
X0546500Y0531300D01*
X0526500Y0531300D01*
X0521500Y0536300D01*
X0521500Y0548800D01*
X0537750Y0548800D01*
X0541500Y0552550D01*
X0530250Y0563800D01*
X0400250Y0563800D01*
X0397750Y0566300D01*
X0284000Y0566300D01*
X0276500Y0558800D01*
X0276500Y0553800D01*
X0187750Y0553800D01*
X0185250Y0546300D02*
X0201500Y0546300D01*
X0221500Y0526300D01*
X0246500Y0551300D01*
X0299000Y0551300D01*
X0305250Y0557550D01*
X0315250Y0545050D02*
X0306500Y0536300D01*
X0270250Y0536300D01*
X0270250Y0537550D01*
X0270250Y0536300D02*
X0270250Y0526300D01*
X0261500Y0526300D01*
X0251500Y0526300D02*
X0274000Y0548800D01*
X0351500Y0548800D01*
X0354000Y0545050D02*
X0315250Y0545050D01*
X0316500Y0536300D02*
X0296500Y0516300D01*
X0207750Y0516300D01*
X0205250Y0513800D01*
X0066500Y0513800D01*
X0064000Y0511300D01*
X0056500Y0511300D01*
X0051500Y0516300D01*
X0051500Y0526300D01*
X0056500Y0531300D02*
X0046500Y0531300D01*
X0046500Y0503800D01*
X0049000Y0501300D01*
X0064000Y0501300D01*
X0071500Y0508800D01*
X0174000Y0508800D01*
X0175250Y0510050D01*
X0171500Y0495050D02*
X0072750Y0495050D01*
X0070250Y0497550D01*
X0057750Y0497550D01*
X0062750Y0492550D02*
X0067750Y0487550D01*
X0236500Y0487550D01*
X0236500Y0461300D01*
X0234000Y0458800D01*
X0219000Y0458800D01*
X0211500Y0466300D01*
X0217750Y0480050D02*
X0144000Y0480050D01*
X0142750Y0481300D01*
X0132750Y0481300D01*
X0127750Y0477550D02*
X0140250Y0477550D01*
X0127750Y0477550D02*
X0124000Y0481300D01*
X0112750Y0473800D02*
X0154000Y0473800D01*
X0161500Y0466300D01*
X0150250Y0452550D02*
X0149000Y0451300D01*
X0056500Y0451300D01*
X0051500Y0446300D01*
X0051500Y0456300D02*
X0056500Y0461300D01*
X0067750Y0461300D01*
X0084000Y0477550D01*
X0071500Y0490050D02*
X0069000Y0492550D01*
X0071500Y0490050D02*
X0199000Y0490050D01*
X0200250Y0491300D01*
X0190250Y0475050D02*
X0181500Y0466300D01*
X0181500Y0452550D02*
X0176500Y0447550D01*
X0181500Y0452550D02*
X0284000Y0452550D01*
X0304000Y0472550D01*
X0304000Y0493800D01*
X0362750Y0493800D01*
X0379000Y0490050D02*
X0380250Y0491300D01*
X0552750Y0491300D01*
X0570250Y0508800D01*
X0570250Y0541300D01*
X0566500Y0541300D01*
X0554000Y0533800D02*
X0534000Y0533800D01*
X0526500Y0541300D01*
X0521500Y0548800D02*
X0514000Y0548800D01*
X0506500Y0541300D01*
X0504000Y0533800D02*
X0496500Y0541300D01*
X0504000Y0533800D02*
X0512750Y0533800D01*
X0515250Y0531300D01*
X0515250Y0521300D02*
X0525250Y0521300D01*
X0531500Y0517550D02*
X0526500Y0512550D01*
X0525510Y0512300D01*
X0531500Y0517550D02*
X0531500Y0525050D01*
X0495250Y0525050D01*
X0494000Y0523800D01*
X0456500Y0523800D01*
X0460250Y0526300D02*
X0456500Y0530050D01*
X0452750Y0530050D01*
X0460250Y0526300D02*
X0492750Y0526300D01*
X0494000Y0527550D01*
X0535250Y0527550D01*
X0535250Y0512550D01*
X0535510Y0512300D01*
X0540250Y0506300D02*
X0486500Y0506300D01*
X0485510Y0512300D02*
X0485250Y0512550D01*
X0480250Y0517550D01*
X0424000Y0517550D01*
X0426500Y0521300D02*
X0409000Y0521300D01*
X0397750Y0510050D01*
X0397750Y0522550D02*
X0321500Y0522550D01*
X0306500Y0507550D01*
X0310250Y0517550D02*
X0320250Y0527550D01*
X0370250Y0527550D01*
X0384000Y0541300D01*
X0386500Y0541300D01*
X0382750Y0533800D02*
X0469000Y0533800D01*
X0472750Y0530050D01*
X0466500Y0541300D02*
X0474000Y0548800D01*
X0477750Y0548800D01*
X0481500Y0552550D01*
X0505250Y0567550D02*
X0511500Y0573800D01*
X0616500Y0573800D01*
X0620250Y0577550D02*
X0631500Y0566300D01*
X0626500Y0560050D02*
X0620250Y0553800D01*
X0542750Y0553800D01*
X0541500Y0552550D01*
X0535250Y0552550D02*
X0531500Y0556300D01*
X0437750Y0556300D01*
X0429000Y0548800D02*
X0436500Y0541300D01*
X0429000Y0548800D02*
X0357750Y0548800D01*
X0354000Y0545050D01*
X0357750Y0571300D02*
X0429000Y0571300D01*
X0434000Y0576300D01*
X0577750Y0576300D01*
X0579000Y0577550D01*
X0620250Y0577550D01*
X0614000Y0588800D02*
X0605250Y0588800D01*
X0602750Y0591300D01*
X0536500Y0591300D01*
X0531500Y0596300D01*
X0531500Y0611300D01*
X0529000Y0618800D02*
X0529000Y0638800D01*
X0536500Y0646300D01*
X0560250Y0646300D01*
X0561500Y0645050D01*
X0596500Y0645050D01*
X0596500Y0656300D01*
X0586500Y0666300D01*
X0596500Y0666300D02*
X0596500Y0665050D01*
X0635250Y0626300D01*
X0677750Y0626300D01*
X0684000Y0620050D01*
X0687750Y0616300D02*
X0571500Y0616300D01*
X0556500Y0601300D01*
X0546500Y0601300D02*
X0546500Y0616300D01*
X0544000Y0618800D01*
X0529000Y0618800D01*
X0521500Y0611300D01*
X0511500Y0611300D02*
X0511500Y0626300D01*
X0506500Y0626300D02*
X0501500Y0626300D01*
X0506500Y0626300D02*
X0506500Y0601300D01*
X0495250Y0608800D02*
X0494000Y0608800D01*
X0486500Y0601300D01*
X0479000Y0593800D01*
X0471500Y0593800D01*
X0467750Y0590050D01*
X0466500Y0601300D02*
X0447750Y0620050D01*
X0455250Y0627550D01*
X0447750Y0620050D02*
X0439000Y0628800D01*
X0402750Y0628800D01*
X0392750Y0638800D01*
X0334000Y0638800D01*
X0326500Y0631300D01*
X0316500Y0631300D02*
X0326500Y0641300D01*
X0394000Y0641300D01*
X0404000Y0631300D01*
X0471500Y0631300D01*
X0471500Y0645050D01*
X0471500Y0631300D02*
X0476500Y0631300D01*
X0476500Y0601300D01*
X0481500Y0586300D02*
X0356500Y0586300D01*
X0355250Y0587550D01*
X0329000Y0587550D01*
X0321500Y0580050D01*
X0126500Y0580050D01*
X0125250Y0581300D01*
X0120250Y0581300D01*
X0101500Y0562550D01*
X0101500Y0561300D01*
X0111500Y0576300D02*
X0124000Y0588800D01*
X0266500Y0588800D01*
X0285250Y0607550D01*
X0291500Y0607550D02*
X0291500Y0598800D01*
X0276500Y0607550D02*
X0269000Y0600050D01*
X0092750Y0600050D01*
X0111500Y0576300D02*
X0041500Y0576300D01*
X0041500Y0491300D01*
X0044000Y0502550D02*
X0044000Y0541300D01*
X0056500Y0541300D01*
X0061500Y0546300D01*
X0061500Y0536300D02*
X0056500Y0531300D01*
X0061500Y0526300D02*
X0069000Y0518800D01*
X0194000Y0518800D01*
X0201500Y0526300D01*
X0206500Y0521300D02*
X0206500Y0537550D01*
X0191500Y0537550D01*
X0185250Y0543800D01*
X0147750Y0543800D01*
X0147750Y0540050D02*
X0107750Y0540050D01*
X0097750Y0550050D01*
X0089000Y0553800D02*
X0081500Y0561300D01*
X0076500Y0556300D02*
X0076500Y0568800D01*
X0084000Y0568800D01*
X0091500Y0561300D01*
X0089000Y0553800D02*
X0130250Y0553800D01*
X0140250Y0543800D01*
X0147750Y0540050D02*
X0161500Y0526300D01*
X0141500Y0526300D02*
X0131500Y0536300D01*
X0119000Y0536300D01*
X0119000Y0533800D01*
X0119000Y0536300D02*
X0107750Y0536300D01*
X0107750Y0530050D02*
X0102750Y0530050D01*
X0076500Y0556300D01*
X0061500Y0591300D02*
X0062750Y0592550D01*
X0197750Y0592550D01*
X0187750Y0596300D02*
X0046500Y0596300D01*
X0041500Y0591300D01*
X0041500Y0601300D02*
X0061500Y0601300D01*
X0061500Y0631300D02*
X0051500Y0631300D01*
X0051500Y0651300D02*
X0061500Y0651300D01*
X0066500Y0656300D02*
X0066500Y0666300D01*
X0140250Y0666300D01*
X0147750Y0673800D01*
X0156500Y0665050D01*
X0166500Y0661300D02*
X0169000Y0663800D01*
X0186500Y0646300D01*
X0197750Y0651300D02*
X0211500Y0651300D01*
X0212750Y0650050D01*
X0217750Y0647550D02*
X0270250Y0647550D01*
X0281500Y0651300D02*
X0281500Y0693800D01*
X0292750Y0693800D01*
X0301500Y0691300D02*
X0301500Y0668800D01*
X0319000Y0668800D01*
X0321500Y0666300D01*
X0321500Y0650050D01*
X0309000Y0643800D02*
X0296500Y0631300D01*
X0299000Y0623800D02*
X0286500Y0623800D01*
X0277750Y0615050D01*
X0354000Y0615050D01*
X0356500Y0612550D01*
X0359000Y0618800D02*
X0379000Y0618800D01*
X0382750Y0615050D01*
X0422750Y0615050D01*
X0436500Y0601300D01*
X0426500Y0601300D02*
X0415250Y0612550D01*
X0370250Y0612550D01*
X0367750Y0615050D01*
X0359000Y0618800D02*
X0357750Y0620050D01*
X0289000Y0620050D01*
X0287750Y0618800D01*
X0295250Y0611300D02*
X0226500Y0611300D01*
X0226500Y0603800D01*
X0226500Y0611300D02*
X0131500Y0611300D01*
X0121500Y0621300D01*
X0122750Y0577550D02*
X0124000Y0576300D01*
X0281500Y0576300D01*
X0282750Y0577550D01*
X0329000Y0577550D01*
X0335250Y0583800D01*
X0352750Y0583800D01*
X0411500Y0583800D01*
X0415250Y0580050D01*
X0424000Y0576300D02*
X0381500Y0576300D01*
X0377750Y0580050D01*
X0381500Y0596300D02*
X0386500Y0601300D01*
X0381500Y0596300D02*
X0304000Y0596300D01*
X0291500Y0583800D01*
X0284000Y0575050D02*
X0281500Y0572550D01*
X0277750Y0572550D01*
X0284000Y0575050D02*
X0360250Y0575050D01*
X0361500Y0573800D01*
X0427750Y0573800D01*
X0432750Y0578800D01*
X0524000Y0578800D01*
X0526500Y0581300D01*
X0656500Y0581300D01*
X0671500Y0596300D01*
X0661500Y0596300D02*
X0651500Y0596300D01*
X0649000Y0603800D02*
X0689000Y0603800D01*
X0691500Y0601300D01*
X0716500Y0601300D01*
X0721500Y0596300D01*
X0736500Y0596300D01*
X0736500Y0581300D01*
X0696500Y0611300D02*
X0596500Y0611300D01*
X0579000Y0593800D01*
X0544000Y0593800D01*
X0536500Y0601300D01*
X0526500Y0601300D02*
X0526500Y0581300D01*
X0551500Y0611300D02*
X0551500Y0617550D01*
X0532750Y0636300D01*
X0540250Y0640050D02*
X0544000Y0643800D01*
X0559000Y0643800D01*
X0566500Y0636300D01*
X0561500Y0630050D02*
X0566500Y0625050D01*
X0575250Y0625050D01*
X0556500Y0621300D02*
X0556500Y0636300D01*
X0556500Y0621300D02*
X0641500Y0621300D01*
X0636500Y0631300D02*
X0651500Y0631300D01*
X0651500Y0641300D01*
X0651500Y0631300D02*
X0656500Y0631300D01*
X0637750Y0651300D02*
X0635250Y0651300D01*
X0612750Y0673800D01*
X0446500Y0673800D01*
X0441500Y0678800D01*
X0331500Y0678800D01*
X0331500Y0691300D01*
X0334000Y0693800D01*
X0336500Y0693800D01*
X0336500Y0700050D01*
X0329000Y0703800D02*
X0400250Y0703800D01*
X0387750Y0716300D02*
X0386500Y0716300D01*
X0387750Y0716300D02*
X0375250Y0728800D01*
X0371500Y0745050D02*
X0364000Y0752550D01*
X0347750Y0752550D01*
X0341500Y0771300D02*
X0356500Y0786300D01*
X0341500Y0771300D02*
X0292750Y0771300D01*
X0291500Y0770050D01*
X0296500Y0766300D02*
X0286500Y0756300D01*
X0255250Y0756300D01*
X0247750Y0748800D01*
X0224000Y0748800D01*
X0205250Y0730050D01*
X0180250Y0711300D02*
X0236500Y0711300D01*
X0251500Y0696300D01*
X0241500Y0696300D02*
X0229000Y0683800D01*
X0206500Y0683800D01*
X0206500Y0660050D01*
X0197750Y0651300D01*
X0179000Y0632550D01*
X0072750Y0632550D01*
X0071500Y0631300D01*
X0071500Y0651300D02*
X0066500Y0656300D01*
X0061500Y0661300D02*
X0051500Y0661300D01*
X0051500Y0671300D02*
X0061500Y0671300D01*
X0071500Y0671300D02*
X0087750Y0687550D01*
X0156500Y0687550D01*
X0180250Y0711300D01*
X0176500Y0723800D02*
X0309000Y0723800D01*
X0311500Y0721300D01*
X0311500Y0671300D01*
X0336500Y0671300D01*
X0346500Y0661300D01*
X0351500Y0656300D02*
X0351500Y0670050D01*
X0355250Y0670050D01*
X0366500Y0671300D02*
X0366500Y0661300D01*
X0376500Y0661300D02*
X0384000Y0653800D01*
X0414000Y0653800D01*
X0417750Y0650050D01*
X0422750Y0648800D02*
X0417750Y0643800D01*
X0309000Y0643800D01*
X0306500Y0631300D02*
X0299000Y0623800D01*
X0307750Y0610050D02*
X0317750Y0600050D01*
X0325250Y0605050D02*
X0330250Y0600050D01*
X0345250Y0600050D01*
X0337750Y0592550D02*
X0327750Y0592550D01*
X0325250Y0590050D01*
X0337750Y0592550D02*
X0447750Y0592550D01*
X0456500Y0601300D01*
X0446500Y0601300D02*
X0427750Y0620050D01*
X0381500Y0620050D01*
X0377750Y0623800D01*
X0354000Y0623800D01*
X0346500Y0631300D01*
X0350250Y0647550D02*
X0350250Y0655050D01*
X0351500Y0656300D01*
X0336500Y0686300D02*
X0344000Y0693800D01*
X0421500Y0693800D01*
X0440250Y0712550D01*
X0466500Y0691300D02*
X0454000Y0678800D01*
X0447750Y0678800D01*
X0445250Y0661300D02*
X0541500Y0661300D01*
X0550250Y0652550D01*
X0585250Y0652550D01*
X0571500Y0648800D02*
X0422750Y0648800D01*
X0445250Y0661300D02*
X0430250Y0676300D01*
X0321500Y0676300D01*
X0321500Y0691300D01*
X0324000Y0693800D01*
X0326500Y0693800D01*
X0326500Y0700050D01*
X0329000Y0703800D02*
X0316500Y0716300D01*
X0306500Y0716300D02*
X0306500Y0693800D01*
X0304000Y0693800D01*
X0301500Y0691300D01*
X0316500Y0661300D02*
X0277750Y0622550D01*
X0277750Y0615050D02*
X0276500Y0613800D01*
X0169000Y0613800D01*
X0161500Y0621300D01*
X0191500Y0621300D02*
X0217750Y0647550D01*
X0221500Y0656300D02*
X0221500Y0666300D01*
X0211500Y0666300D02*
X0211500Y0656300D01*
X0221500Y0686300D02*
X0191500Y0686300D01*
X0169000Y0663800D01*
X0166500Y0661300D02*
X0071500Y0661300D01*
X0065250Y0695050D02*
X0119000Y0748800D01*
X0144000Y0748800D01*
X0190250Y0795050D01*
X0387750Y0795050D01*
X0396500Y0786300D01*
X0401500Y0791300D02*
X0395250Y0797550D01*
X0030250Y0797550D01*
X0030250Y0372550D01*
X0072750Y0330050D01*
X0192750Y0330050D01*
X0201500Y0321300D01*
X0211500Y0321300D02*
X0219000Y0313800D01*
X0270250Y0313800D01*
X0279000Y0310050D02*
X0297750Y0328800D01*
X0297750Y0312550D02*
X0264000Y0278800D01*
X0065250Y0278800D01*
X0060250Y0283800D02*
X0060250Y0267550D01*
X0081500Y0246300D01*
X0099000Y0263800D01*
X0289000Y0263800D01*
X0290250Y0262550D01*
X0292750Y0263800D02*
X0285250Y0271300D01*
X0081500Y0271300D01*
X0060250Y0283800D02*
X0104000Y0283800D01*
X0111500Y0291300D01*
X0101500Y0291300D02*
X0094000Y0298800D01*
X0085250Y0298800D01*
X0121500Y0291300D02*
X0130250Y0300050D01*
X0235250Y0300050D01*
X0235250Y0282550D02*
X0210250Y0282550D01*
X0201500Y0291300D01*
X0194000Y0306300D02*
X0197750Y0310050D01*
X0279000Y0310050D01*
X0261500Y0338800D02*
X0070250Y0338800D01*
X0067750Y0346300D02*
X0220250Y0346300D01*
X0227750Y0352550D02*
X0229000Y0351300D01*
X0227750Y0352550D02*
X0116500Y0352550D01*
X0141500Y0371300D02*
X0149000Y0363800D01*
X0155250Y0363800D01*
X0156500Y0362550D01*
X0151500Y0371300D02*
X0159000Y0378800D01*
X0194000Y0378800D01*
X0196500Y0376300D01*
X0196500Y0363800D01*
X0205250Y0363800D01*
X0202750Y0378800D02*
X0347750Y0378800D01*
X0352750Y0383800D01*
X0351500Y0376300D02*
X0386500Y0411300D01*
X0435250Y0411300D01*
X0426500Y0431300D02*
X0416500Y0441300D01*
X0414000Y0443800D02*
X0411500Y0446300D01*
X0414000Y0443800D02*
X0434000Y0443800D01*
X0436500Y0441300D01*
X0426500Y0431300D02*
X0471500Y0431300D01*
X0477750Y0437550D01*
X0472750Y0425050D02*
X0469000Y0421300D01*
X0482750Y0421300D02*
X0462750Y0401300D01*
X0382750Y0401300D01*
X0366500Y0385050D01*
X0362750Y0381300D02*
X0429000Y0381300D01*
X0407750Y0375050D02*
X0400250Y0367550D01*
X0310250Y0367550D01*
X0306500Y0363800D01*
X0289000Y0363800D01*
X0281500Y0371300D01*
X0291500Y0371300D02*
X0381500Y0371300D01*
X0369000Y0358800D02*
X0414000Y0358800D01*
X0415250Y0357550D01*
X0507750Y0357550D01*
X0511500Y0361300D02*
X0497750Y0375050D01*
X0407750Y0375050D01*
X0415250Y0355050D02*
X0404000Y0343800D01*
X0375250Y0343800D01*
X0349000Y0343800D01*
X0341500Y0351300D01*
X0332750Y0340050D02*
X0326500Y0346300D01*
X0326500Y0363800D01*
X0312750Y0363800D01*
X0319000Y0358800D02*
X0276500Y0358800D01*
X0270250Y0347550D02*
X0261500Y0338800D01*
X0249000Y0358800D02*
X0086500Y0358800D01*
X0075250Y0376300D02*
X0087750Y0388800D01*
X0147750Y0388800D01*
X0152750Y0397550D02*
X0069000Y0397550D01*
X0061500Y0426300D02*
X0087750Y0426300D01*
X0089000Y0425050D01*
X0100250Y0420050D02*
X0081500Y0438800D01*
X0071500Y0448800D02*
X0064000Y0441300D01*
X0071500Y0448800D02*
X0154000Y0448800D01*
X0155250Y0447550D01*
X0154000Y0443800D02*
X0226500Y0443800D01*
X0231500Y0466300D02*
X0217750Y0480050D01*
X0230250Y0502550D02*
X0105250Y0502550D01*
X0094000Y0498800D02*
X0239000Y0498800D01*
X0281500Y0456300D01*
X0276500Y0450050D02*
X0289000Y0450050D01*
X0276500Y0450050D02*
X0276500Y0426300D01*
X0290250Y0423800D02*
X0312750Y0423800D01*
X0292750Y0420050D02*
X0292750Y0407550D01*
X0290250Y0423800D02*
X0269000Y0402550D01*
X0219000Y0402550D01*
X0216500Y0400050D01*
X0211500Y0388800D02*
X0192750Y0388800D01*
X0191500Y0390050D01*
X0160250Y0390050D01*
X0152750Y0397550D01*
X0156500Y0403800D02*
X0102750Y0403800D01*
X0100250Y0420050D02*
X0159000Y0420050D01*
X0166500Y0407550D02*
X0179000Y0407550D01*
X0180250Y0406300D01*
X0184000Y0400050D02*
X0160250Y0400050D01*
X0156500Y0403800D01*
X0184000Y0400050D02*
X0185250Y0398800D01*
X0207750Y0386300D02*
X0209000Y0385050D01*
X0217750Y0385050D01*
X0220250Y0382550D01*
X0236500Y0406300D02*
X0245250Y0415050D01*
X0272750Y0392550D02*
X0340250Y0392550D01*
X0340250Y0407550D01*
X0329000Y0398800D02*
X0329000Y0436300D01*
X0366500Y0436300D01*
X0371500Y0431300D02*
X0366500Y0426300D01*
X0366500Y0446300D02*
X0347750Y0446300D01*
X0347750Y0462550D01*
X0360250Y0475050D01*
X0464000Y0475050D01*
X0545250Y0475050D01*
X0546500Y0476300D01*
X0636500Y0476300D01*
X0616500Y0461300D02*
X0621500Y0456300D01*
X0607750Y0457550D02*
X0606500Y0456300D01*
X0591500Y0456300D01*
X0591500Y0446300D02*
X0586500Y0441300D01*
X0582750Y0437550D02*
X0582750Y0431300D01*
X0591500Y0426300D02*
X0586500Y0421300D01*
X0551500Y0421300D01*
X0546500Y0426300D01*
X0524000Y0450050D02*
X0520250Y0453800D01*
X0504000Y0453800D01*
X0501500Y0456300D01*
X0501500Y0446300D02*
X0506500Y0441300D01*
X0526500Y0461300D02*
X0531500Y0456300D01*
X0539000Y0486300D02*
X0465250Y0486300D01*
X0457750Y0503800D02*
X0280250Y0503800D01*
X0277750Y0506300D01*
X0240250Y0506300D01*
X0234000Y0512550D01*
X0224000Y0518800D02*
X0231500Y0526300D01*
X0224000Y0518800D02*
X0209000Y0518800D01*
X0206500Y0521300D01*
X0202750Y0517550D02*
X0201500Y0516300D01*
X0061500Y0516300D01*
X0044000Y0502550D02*
X0061500Y0485050D01*
X0167750Y0485050D01*
X0169000Y0483800D01*
X0172750Y0493800D02*
X0171500Y0495050D01*
X0197750Y0458800D02*
X0076500Y0458800D01*
X0061500Y0466300D02*
X0056500Y0471300D01*
X0107750Y0530050D02*
X0127750Y0530050D01*
X0131500Y0526300D01*
X0121500Y0561300D02*
X0131500Y0571300D01*
X0270250Y0571300D01*
X0266500Y0567550D02*
X0265250Y0568800D01*
X0149000Y0568800D01*
X0141500Y0561300D01*
X0176500Y0555050D02*
X0185250Y0546300D01*
X0201500Y0561300D02*
X0211500Y0561300D01*
X0211500Y0621300D02*
X0201500Y0621300D01*
X0241500Y0621300D02*
X0260250Y0640050D01*
X0251500Y0621300D02*
X0281500Y0651300D01*
X0321500Y0608800D02*
X0377750Y0608800D01*
X0409000Y0608800D01*
X0416500Y0601300D01*
X0425250Y0577550D02*
X0424000Y0576300D01*
X0407750Y0558800D02*
X0394000Y0558800D01*
X0387750Y0552550D01*
X0394000Y0561300D02*
X0285250Y0561300D01*
X0281500Y0557550D01*
X0327750Y0518800D02*
X0316500Y0507550D01*
X0327750Y0518800D02*
X0362750Y0518800D01*
X0379000Y0490050D02*
X0306500Y0490050D01*
X0306500Y0463800D01*
X0325250Y0461300D02*
X0335250Y0461300D01*
X0351500Y0477550D01*
X0337750Y0486300D02*
X0325250Y0473800D01*
X0325250Y0461300D02*
X0325250Y0403800D01*
X0337750Y0376300D02*
X0351500Y0376300D01*
X0356500Y0375050D02*
X0362750Y0381300D01*
X0369000Y0358800D02*
X0361500Y0351300D01*
X0350250Y0332550D02*
X0361500Y0321300D01*
X0352750Y0312550D01*
X0342750Y0312550D01*
X0341500Y0301300D02*
X0349000Y0293800D01*
X0410250Y0293800D01*
X0420250Y0293800D02*
X0525250Y0293800D01*
X0519000Y0288800D02*
X0476500Y0246300D01*
X0451500Y0246300D01*
X0441500Y0276300D02*
X0400250Y0235050D01*
X0342750Y0235050D01*
X0331500Y0226300D02*
X0341500Y0216300D01*
X0334000Y0208800D02*
X0321500Y0196300D01*
X0331500Y0226300D02*
X0294000Y0226300D01*
X0291500Y0228800D01*
X0292750Y0228800D01*
X0292750Y0263800D01*
X0276500Y0267550D02*
X0244000Y0267550D01*
X0236500Y0241300D02*
X0227750Y0232550D01*
X0201500Y0232550D01*
X0196500Y0227550D01*
X0172750Y0227550D01*
X0170250Y0223800D02*
X0210250Y0223800D01*
X0215250Y0228800D01*
X0221500Y0228800D02*
X0214000Y0221300D01*
X0134000Y0221300D01*
X0132750Y0222550D01*
X0119000Y0226300D02*
X0167750Y0226300D01*
X0170250Y0223800D01*
X0174000Y0233800D02*
X0199000Y0233800D01*
X0206500Y0241300D01*
X0196500Y0241300D02*
X0189000Y0248800D01*
X0269000Y0248800D01*
X0247750Y0202550D02*
X0230250Y0185050D01*
X0205250Y0185050D01*
X0196500Y0176300D01*
X0196500Y0171300D01*
X0206500Y0171300D02*
X0216500Y0181300D01*
X0222750Y0195050D02*
X0217750Y0200050D01*
X0107750Y0200050D01*
X0096500Y0211300D01*
X0106500Y0211300D02*
X0114000Y0218800D01*
X0199000Y0218800D01*
X0206500Y0211300D01*
X0202750Y0195050D02*
X0179000Y0195050D01*
X0177750Y0196300D01*
X0181500Y0191300D02*
X0167750Y0177550D01*
X0112750Y0177550D01*
X0106500Y0171300D01*
X0094000Y0165050D02*
X0092750Y0163800D01*
X0094000Y0165050D02*
X0140250Y0165050D01*
X0146500Y0171300D01*
X0127750Y0156300D02*
X0074000Y0156300D01*
X0072750Y0157550D01*
X0061500Y0147550D02*
X0131500Y0147550D01*
X0145250Y0140050D02*
X0152750Y0147550D01*
X0145250Y0140050D02*
X0075250Y0140050D01*
X0065250Y0130050D01*
X0061500Y0122550D02*
X0055250Y0122550D01*
X0042750Y0135050D01*
X0042750Y0153800D01*
X0046500Y0143800D02*
X0081500Y0143800D01*
X0076500Y0122550D02*
X0094000Y0122550D01*
X0096500Y0111300D02*
X0051500Y0111300D01*
X0061500Y0122550D02*
X0069000Y0115050D01*
X0076500Y0122550D01*
X0076500Y0105050D02*
X0110250Y0105050D01*
X0116500Y0111300D01*
X0105250Y0097550D02*
X0101500Y0101300D01*
X0081500Y0101300D01*
X0076500Y0105050D02*
X0076500Y0081300D01*
X0082750Y0073800D02*
X0099000Y0073800D01*
X0106500Y0081300D01*
X0096500Y0081300D02*
X0087750Y0090050D01*
X0084000Y0090050D01*
X0080250Y0093800D02*
X0134000Y0093800D01*
X0146500Y0081300D01*
X0156500Y0081300D02*
X0177750Y0102550D01*
X0245250Y0102550D01*
X0252750Y0110050D01*
X0252750Y0117550D01*
X0255250Y0117550D01*
X0252750Y0117550D02*
X0242750Y0117550D01*
X0236500Y0121300D02*
X0267750Y0121300D01*
X0265250Y0117550D02*
X0267750Y0115050D01*
X0294000Y0115050D01*
X0302750Y0108800D02*
X0294000Y0100050D01*
X0255250Y0100050D01*
X0255250Y0106300D01*
X0255250Y0100050D02*
X0225250Y0100050D01*
X0206500Y0081300D01*
X0201500Y0086300D02*
X0199000Y0088800D01*
X0174000Y0088800D01*
X0166500Y0081300D01*
X0176500Y0081300D02*
X0176500Y0063800D01*
X0324000Y0063800D01*
X0331500Y0071300D01*
X0341500Y0071300D02*
X0349000Y0063800D01*
X0442750Y0063800D01*
X0450250Y0071300D01*
X0451500Y0061300D02*
X0466500Y0076300D01*
X0480250Y0070050D02*
X0471500Y0061300D01*
X0466500Y0057550D02*
X0469000Y0055050D01*
X0516500Y0055050D01*
X0522750Y0061300D01*
X0546500Y0061300D01*
X0550250Y0096300D02*
X0526500Y0096300D01*
X0467750Y0096300D01*
X0455250Y0108800D01*
X0389000Y0108800D01*
X0381500Y0101300D01*
X0384000Y0093800D02*
X0391500Y0101300D01*
X0384000Y0093800D02*
X0309000Y0093800D01*
X0306500Y0096300D01*
X0231500Y0096300D01*
X0216500Y0081300D01*
X0201500Y0086300D02*
X0201500Y0073800D01*
X0234000Y0073800D01*
X0250250Y0090050D01*
X0260250Y0090050D01*
X0241500Y0106300D02*
X0240250Y0105050D01*
X0212750Y0105050D01*
X0206500Y0111300D01*
X0226500Y0111300D02*
X0236500Y0121300D01*
X0247750Y0147550D02*
X0266500Y0128800D01*
X0359000Y0128800D01*
X0371500Y0116300D01*
X0381500Y0116300D02*
X0396500Y0131300D01*
X0389000Y0138800D02*
X0449000Y0138800D01*
X0472750Y0156300D02*
X0474000Y0157550D01*
X0472750Y0156300D02*
X0365250Y0156300D01*
X0364000Y0155050D01*
X0369000Y0153800D02*
X0361500Y0146300D01*
X0369000Y0153800D02*
X0532750Y0153800D01*
X0537750Y0158800D01*
X0526500Y0171300D02*
X0550250Y0171300D01*
X0556500Y0177550D01*
X0604000Y0177550D01*
X0606500Y0175050D01*
X0629000Y0175050D01*
X0634000Y0180050D01*
X0680250Y0180050D01*
X0685250Y0175050D01*
X0725250Y0175050D01*
X0731500Y0181300D01*
X0730250Y0172550D02*
X0684000Y0172550D01*
X0679000Y0177550D01*
X0635250Y0177550D01*
X0629000Y0171300D01*
X0601500Y0171300D01*
X0582750Y0128800D02*
X0550250Y0096300D01*
X0582750Y0128800D02*
X0719000Y0128800D01*
X0731500Y0141300D01*
X0731500Y0131300D02*
X0726500Y0126300D01*
X0655250Y0126300D01*
X0625250Y0096300D01*
X0601500Y0096300D01*
X0627750Y0067550D02*
X0710250Y0067550D01*
X0731500Y0046300D01*
X0739000Y0046300D01*
X0739000Y0033800D01*
X0712750Y0007550D01*
X0415250Y0007550D01*
X0414000Y0008800D01*
X0364000Y0008800D01*
X0362750Y0010050D01*
X0376500Y0005050D02*
X0297750Y0005050D01*
X0261500Y0041300D01*
X0261500Y0051300D01*
X0271500Y0051300D02*
X0271500Y0041300D01*
X0282750Y0030050D01*
X0356500Y0030050D01*
X0359000Y0032550D01*
X0352750Y0036300D02*
X0422750Y0036300D01*
X0444000Y0057550D01*
X0466500Y0057550D01*
X0451500Y0061300D02*
X0364000Y0061300D01*
X0362750Y0060050D01*
X0356500Y0056300D02*
X0356500Y0043800D01*
X0364000Y0043800D01*
X0371500Y0051300D01*
X0356500Y0056300D02*
X0351500Y0061300D01*
X0237750Y0061300D01*
X0236500Y0060050D01*
X0246500Y0056300D02*
X0221500Y0056300D01*
X0186500Y0021300D01*
X0174000Y0028800D02*
X0166500Y0021300D01*
X0186500Y0067550D02*
X0297750Y0067550D01*
X0309000Y0078800D01*
X0344000Y0078800D01*
X0351500Y0071300D01*
X0361500Y0081300D02*
X0371500Y0071300D01*
X0381500Y0071300D02*
X0392750Y0082550D01*
X0702750Y0082550D01*
X0739000Y0118800D01*
X0739000Y0161300D01*
X0731500Y0161300D01*
X0686500Y0161300D01*
X0676500Y0171300D01*
X0721500Y0201300D02*
X0532750Y0201300D01*
X0524000Y0192550D01*
X0524000Y0177550D01*
X0485250Y0177550D01*
X0479000Y0171300D01*
X0451500Y0171300D01*
X0471500Y0177550D02*
X0474000Y0175050D01*
X0479000Y0175050D01*
X0492750Y0188800D01*
X0490250Y0200050D02*
X0489000Y0201300D01*
X0406500Y0201300D01*
X0401500Y0196300D01*
X0402750Y0177550D02*
X0471500Y0177550D01*
X0477750Y0208800D02*
X0495250Y0226300D01*
X0477750Y0208800D02*
X0379000Y0208800D01*
X0371500Y0216300D01*
X0372750Y0226300D02*
X0381500Y0226300D01*
X0391500Y0216300D01*
X0395250Y0238800D02*
X0325250Y0238800D01*
X0316500Y0230050D01*
X0331500Y0246300D02*
X0324000Y0253800D01*
X0320250Y0253800D01*
X0320250Y0275050D01*
X0126500Y0275050D01*
X0104000Y0248800D02*
X0157750Y0248800D01*
X0157750Y0258800D01*
X0157750Y0248800D02*
X0189000Y0248800D01*
X0174000Y0233800D02*
X0171500Y0236300D01*
X0165250Y0236300D01*
X0162750Y0233800D01*
X0114000Y0233800D01*
X0106500Y0241300D01*
X0104000Y0248800D02*
X0096500Y0241300D01*
X0086500Y0241300D02*
X0081500Y0246300D01*
X0117750Y0227550D02*
X0119000Y0226300D01*
X0116500Y0211300D02*
X0124000Y0203800D01*
X0170250Y0155050D02*
X0180250Y0165050D01*
X0199000Y0155050D02*
X0205250Y0161300D01*
X0252750Y0161300D01*
X0246500Y0171300D02*
X0249000Y0173800D01*
X0374000Y0173800D01*
X0381500Y0166300D01*
X0391500Y0166300D02*
X0402750Y0177550D01*
X0381500Y0146300D02*
X0389000Y0138800D01*
X0391500Y0116300D02*
X0384000Y0108800D01*
X0302750Y0108800D01*
X0307750Y0081300D02*
X0361500Y0081300D01*
X0362750Y0086300D02*
X0482750Y0086300D01*
X0480250Y0070050D02*
X0727750Y0070050D01*
X0731500Y0066300D01*
X0706500Y0061300D02*
X0696500Y0061300D01*
X0672750Y0061300D01*
X0640250Y0028800D01*
X0389000Y0028800D01*
X0381500Y0021300D01*
X0385250Y0013800D02*
X0329000Y0013800D01*
X0321500Y0021300D01*
X0305250Y0038800D02*
X0301500Y0035050D01*
X0286500Y0035050D01*
X0281500Y0041300D02*
X0281500Y0051300D01*
X0297750Y0071300D02*
X0307750Y0081300D01*
X0297750Y0071300D02*
X0196500Y0071300D01*
X0196500Y0081300D01*
X0186500Y0081300D02*
X0186500Y0067550D01*
X0156500Y0111300D02*
X0141500Y0126300D01*
X0057750Y0126300D01*
X0064000Y0067550D02*
X0112750Y0067550D01*
X0126500Y0081300D01*
X0136500Y0081300D02*
X0119000Y0063800D01*
X0085250Y0063800D01*
X0196500Y0187550D02*
X0200250Y0187550D01*
X0196500Y0187550D02*
X0192750Y0191300D01*
X0166500Y0282550D02*
X0176500Y0292550D01*
X0160250Y0306300D02*
X0180250Y0326300D01*
X0185250Y0326300D01*
X0160250Y0306300D02*
X0029000Y0306300D01*
X0141500Y0431300D02*
X0154000Y0443800D01*
X0140250Y0445050D02*
X0135250Y0445050D01*
X0129000Y0438800D01*
X0132750Y0455050D02*
X0134000Y0456300D01*
X0119000Y0466300D02*
X0115250Y0462550D01*
X0149000Y0335050D02*
X0151500Y0332550D01*
X0350250Y0332550D01*
X0332750Y0340050D02*
X0402750Y0340050D01*
X0406500Y0336300D01*
X0404000Y0332550D02*
X0422750Y0332550D01*
X0441500Y0351300D01*
X0495250Y0351300D01*
X0497750Y0355050D02*
X0499000Y0353800D01*
X0517750Y0353800D01*
X0514000Y0350050D02*
X0532750Y0350050D01*
X0580250Y0397550D01*
X0556500Y0327550D02*
X0550250Y0321300D01*
X0526500Y0321300D01*
X0491500Y0321300D01*
X0485250Y0315050D01*
X0477750Y0313800D02*
X0514000Y0350050D01*
X0497750Y0355050D02*
X0415250Y0355050D01*
X0400250Y0336300D02*
X0404000Y0332550D01*
X0400250Y0336300D02*
X0386500Y0336300D01*
X0371500Y0321300D01*
X0372750Y0312550D02*
X0381500Y0321300D01*
X0382750Y0313800D02*
X0477750Y0313800D01*
X0470250Y0300050D02*
X0647750Y0300050D01*
X0654000Y0306300D01*
X0739000Y0306300D01*
X0739000Y0323800D01*
X0731500Y0331300D01*
X0727750Y0325050D02*
X0681500Y0325050D01*
X0679000Y0327550D01*
X0631500Y0327550D01*
X0629000Y0325050D01*
X0606500Y0325050D01*
X0604000Y0327550D01*
X0556500Y0327550D01*
X0546500Y0308800D02*
X0399000Y0308800D01*
X0391500Y0301300D01*
X0385250Y0308800D02*
X0387750Y0311300D01*
X0501500Y0311300D01*
X0507750Y0317550D01*
X0519000Y0288800D02*
X0729000Y0288800D01*
X0731500Y0291300D01*
X0731500Y0281300D02*
X0726500Y0276300D01*
X0731500Y0261300D02*
X0716500Y0246300D01*
X0676500Y0246300D01*
X0721500Y0201300D02*
X0731500Y0191300D01*
X0730250Y0172550D02*
X0731500Y0171300D01*
X0731500Y0121300D02*
X0706500Y0096300D01*
X0676500Y0096300D01*
X0670250Y0090050D01*
X0342750Y0090050D01*
X0324000Y0058800D02*
X0331500Y0051300D01*
X0326500Y0045050D02*
X0330250Y0041300D01*
X0402750Y0041300D01*
X0405250Y0043800D01*
X0405250Y0047550D02*
X0407750Y0047550D01*
X0409000Y0046300D01*
X0409000Y0038800D01*
X0305250Y0038800D01*
X0324000Y0058800D02*
X0249000Y0058800D01*
X0246500Y0056300D01*
X0251500Y0051300D02*
X0251500Y0041300D01*
X0350250Y0033800D02*
X0352750Y0036300D01*
X0366500Y0027550D02*
X0371500Y0032550D01*
X0400250Y0032550D01*
X0405250Y0047550D02*
X0401500Y0051300D01*
X0406500Y0096300D02*
X0451500Y0096300D01*
X0406500Y0096300D02*
X0401500Y0101300D01*
X0356500Y0202550D02*
X0357750Y0203800D01*
X0361500Y0246300D02*
X0361500Y0258800D01*
X0380250Y0258800D01*
X0382750Y0255050D02*
X0372750Y0255050D01*
X0382750Y0255050D02*
X0391500Y0246300D01*
X0384000Y0263800D02*
X0391500Y0271300D01*
X0394000Y0278800D02*
X0401500Y0271300D01*
X0394000Y0278800D02*
X0324000Y0278800D01*
X0324000Y0265050D01*
X0320250Y0275050D02*
X0320250Y0278800D01*
X0322750Y0281300D01*
X0361500Y0281300D01*
X0366500Y0286300D01*
X0362750Y0290050D02*
X0430250Y0290050D01*
X0441500Y0276300D02*
X0492750Y0276300D01*
X0499000Y0282550D01*
X0510250Y0286300D02*
X0372750Y0286300D01*
X0366500Y0308800D02*
X0385250Y0308800D01*
X0381500Y0312550D02*
X0382750Y0313800D01*
X0401500Y0301300D02*
X0404000Y0303800D01*
X0647750Y0303800D01*
X0659000Y0315050D01*
X0659000Y0321300D02*
X0601500Y0321300D01*
X0659000Y0321300D02*
X0665250Y0315050D01*
X0727750Y0315050D01*
X0731500Y0311300D01*
X0731500Y0321300D02*
X0727750Y0325050D01*
X0611500Y0486300D02*
X0539000Y0486300D01*
X0540250Y0506300D02*
X0545250Y0511300D01*
X0545510Y0512300D01*
X0566500Y0521300D02*
X0554000Y0533800D01*
X0576500Y0541300D02*
X0586500Y0551300D01*
X0636500Y0551300D01*
X0651500Y0566300D01*
X0656500Y0546300D02*
X0641500Y0531300D01*
X0651500Y0531300D02*
X0661500Y0541300D01*
X0667750Y0541300D01*
X0672750Y0546300D01*
X0676500Y0546300D01*
X0671500Y0541300D02*
X0691500Y0541300D01*
X0696500Y0546300D01*
X0671500Y0541300D02*
X0661500Y0531300D01*
X0611500Y0566300D02*
X0571500Y0566300D01*
X0567750Y0570050D01*
X0614000Y0588800D02*
X0621500Y0596300D01*
X0631500Y0606300D01*
X0675250Y0606300D01*
X0676500Y0607550D01*
X0696500Y0611300D02*
X0696500Y0647550D01*
X0691500Y0651300D02*
X0685250Y0651300D01*
X0670250Y0666300D01*
X0625250Y0666300D01*
X0615250Y0676300D01*
X0526500Y0676300D01*
X0511500Y0691300D01*
X0521500Y0691300D02*
X0529000Y0698800D01*
X0554000Y0698800D01*
X0561500Y0691300D01*
X0559000Y0683800D02*
X0551500Y0691300D01*
X0551500Y0681300D02*
X0701500Y0681300D01*
X0721500Y0701300D01*
X0721500Y0711300D01*
X0724000Y0718800D02*
X0730250Y0712550D01*
X0730250Y0661300D01*
X0736500Y0661300D01*
X0736500Y0651300D01*
X0736500Y0641300D01*
X0706500Y0651300D02*
X0706500Y0661300D01*
X0706500Y0651300D02*
X0691500Y0651300D01*
X0681500Y0671300D02*
X0671500Y0671300D01*
X0665250Y0683800D02*
X0559000Y0683800D01*
X0551500Y0681300D02*
X0541500Y0691300D01*
X0539000Y0713800D02*
X0531500Y0721300D01*
X0521500Y0721300D01*
X0505250Y0716300D02*
X0387750Y0716300D01*
X0401500Y0768800D02*
X0330250Y0768800D01*
X0321500Y0760050D01*
X0306500Y0776300D02*
X0306500Y0786300D01*
X0296500Y0786300D02*
X0296500Y0776300D01*
X0286500Y0776300D02*
X0286500Y0786300D01*
X0266500Y0786300D02*
X0266500Y0776300D01*
X0290250Y0756300D02*
X0270250Y0736300D01*
X0232750Y0736300D01*
X0232750Y0730050D02*
X0267750Y0730050D01*
X0279000Y0741300D01*
X0600250Y0741300D01*
X0610250Y0751300D01*
X0691500Y0751300D01*
X0691500Y0763800D01*
X0689000Y0766300D01*
X0671500Y0766300D01*
X0666500Y0761300D01*
X0671500Y0756300D02*
X0290250Y0756300D01*
X0231500Y0696300D02*
X0221500Y0686300D01*
X0214000Y0688800D02*
X0221500Y0696300D01*
X0214000Y0688800D02*
X0179000Y0688800D01*
X0176500Y0691300D01*
X0165250Y0691300D01*
X0147750Y0673800D01*
X0144000Y0691300D02*
X0176500Y0723800D01*
X0337750Y0580050D02*
X0339000Y0578800D01*
X0345250Y0578800D01*
X0390250Y0623800D02*
X0394000Y0627550D01*
X0397750Y0627550D01*
X0395250Y0562550D02*
X0394000Y0561300D01*
X0405250Y0530050D02*
X0397750Y0522550D01*
X0411500Y0501300D02*
X0282750Y0501300D01*
X0277750Y0496300D01*
X0272750Y0496300D01*
X0332750Y0440050D02*
X0339000Y0446300D01*
X0347750Y0446300D01*
X0381500Y0486300D02*
X0430250Y0486300D01*
X0431500Y0487550D01*
X0412750Y0500050D02*
X0411500Y0501300D01*
X0427750Y0520050D02*
X0426500Y0521300D01*
X0427750Y0520050D02*
X0497750Y0520050D01*
X0505250Y0512550D01*
X0505510Y0512300D01*
X0506500Y0512550D01*
X0515250Y0521300D01*
X0465510Y0512300D02*
X0465250Y0511300D01*
X0457750Y0503800D01*
X0495250Y0608800D02*
X0495250Y0645050D01*
X0539000Y0713800D02*
X0597750Y0713800D01*
X0625250Y0686300D01*
X0651500Y0686300D01*
X0656500Y0691300D01*
X0661500Y0696300D02*
X0651500Y0696300D01*
X0646500Y0691300D01*
X0646500Y0676300D02*
X0621500Y0676300D01*
X0617750Y0687550D02*
X0615250Y0687550D01*
X0606500Y0696300D01*
X0601500Y0691300D01*
X0586500Y0691300D01*
X0591500Y0695050D02*
X0576500Y0710050D01*
X0562750Y0710050D01*
X0571500Y0721300D02*
X0576500Y0726300D01*
X0582750Y0726300D01*
X0572750Y0745050D02*
X0491500Y0745050D01*
X0491500Y0760050D02*
X0620250Y0760050D01*
X0646500Y0786300D01*
X0666500Y0786300D02*
X0666500Y0771300D01*
X0676500Y0771300D02*
X0676500Y0786300D01*
X0686500Y0786300D02*
X0686500Y0771300D01*
X0686500Y0761300D02*
X0679000Y0753800D01*
X0606500Y0753800D01*
X0597750Y0745050D01*
X0601500Y0732550D02*
X0500250Y0732550D01*
X0487750Y0720050D01*
X0457750Y0763800D02*
X0604000Y0763800D01*
X0626500Y0786300D01*
X0616500Y0786300D02*
X0597750Y0767550D01*
X0464000Y0767550D01*
X0459000Y0771300D02*
X0541500Y0771300D01*
X0556500Y0786300D01*
X0526500Y0786300D02*
X0517750Y0777550D01*
X0470250Y0777550D01*
X0467750Y0775050D01*
X0459000Y0771300D02*
X0456500Y0768800D01*
X0401500Y0768800D01*
X0401500Y0791300D01*
X0551500Y0721300D02*
X0560250Y0730050D01*
X0601500Y0730050D01*
X0630250Y0701300D01*
X0701500Y0701300D01*
X0701500Y0711300D01*
X0711500Y0711300D01*
X0711500Y0701300D02*
X0701500Y0701300D01*
X0689000Y0718800D02*
X0724000Y0718800D01*
X0720250Y0722550D02*
X0701500Y0741300D01*
X0711500Y0741300D02*
X0721500Y0741300D01*
X0720250Y0722550D02*
X0734000Y0722550D01*
X0736500Y0720050D01*
X0736500Y0719200D01*
X0689000Y0718800D02*
X0686500Y0721300D01*
X0676500Y0721300D02*
X0671500Y0726300D01*
X0646500Y0726300D01*
X0646500Y0721300D01*
X0656500Y0721300D01*
X0646500Y0726300D02*
X0646500Y0731300D01*
X0671500Y0756300D02*
X0676500Y0761300D01*
X0696500Y0771300D02*
X0696500Y0786300D01*
X0706500Y0786300D02*
X0706500Y0771300D01*
X0716500Y0771300D02*
X0716500Y0786300D01*
X0661500Y0696300D02*
X0666500Y0691300D01*
X0666500Y0685050D02*
X0665250Y0683800D01*
X0651500Y0671300D02*
X0646500Y0676300D01*
X0621500Y0646300D02*
X0636500Y0631300D01*
X0649000Y0603800D02*
X0641500Y0596300D01*
X0601500Y0732550D02*
X0614000Y0745050D01*
X0580250Y0752550D02*
X0572750Y0745050D01*
X0337750Y0376300D02*
X0336500Y0375050D01*
X0320250Y0360050D02*
X0319000Y0358800D01*
X0261500Y0371300D02*
X0249000Y0358800D01*
X0351500Y0263800D02*
X0384000Y0263800D01*
X0351500Y0263800D02*
X0351500Y0246300D01*
X0621500Y0061300D02*
X0627750Y0067550D01*
X0706500Y0061300D02*
X0731500Y0036300D01*
D32*
X0580250Y0173800D03*
X0565250Y0165050D03*
X0537750Y0158800D03*
X0492750Y0188800D03*
X0492750Y0203800D03*
X0495250Y0226300D03*
X0499000Y0282550D03*
X0510250Y0286300D03*
X0525250Y0293800D03*
X0546500Y0308800D03*
X0507750Y0317550D03*
X0485250Y0315050D03*
X0470250Y0300050D03*
X0430250Y0290050D03*
X0420250Y0293800D03*
X0410250Y0293800D03*
X0385250Y0308800D03*
X0381500Y0312550D03*
X0372750Y0312550D03*
X0362750Y0290050D03*
X0366500Y0286300D03*
X0372750Y0286300D03*
X0380250Y0258800D03*
X0372750Y0255050D03*
X0395250Y0238800D03*
X0372750Y0226300D03*
X0356500Y0210050D03*
X0356500Y0202550D03*
X0352750Y0177550D03*
X0345250Y0178800D03*
X0326500Y0182550D03*
X0294000Y0151300D03*
X0280250Y0165050D03*
X0286500Y0170050D03*
X0252750Y0161300D03*
X0247750Y0147550D03*
X0242750Y0117550D03*
X0241500Y0106300D03*
X0255250Y0106300D03*
X0255250Y0117550D03*
X0265250Y0117550D03*
X0272750Y0125050D03*
X0294000Y0115050D03*
X0260250Y0090050D03*
X0236500Y0060050D03*
X0286500Y0035050D03*
X0326500Y0045050D03*
X0350250Y0033800D03*
X0359000Y0032550D03*
X0366500Y0027550D03*
X0362750Y0010050D03*
X0376500Y0005050D03*
X0385250Y0013800D03*
X0400250Y0032550D03*
X0405250Y0043800D03*
X0362750Y0060050D03*
X0362750Y0086300D03*
X0342750Y0090050D03*
X0345250Y0123800D03*
X0341500Y0132550D03*
X0364000Y0155050D03*
X0400250Y0183800D03*
X0410250Y0187550D03*
X0415250Y0135050D03*
X0449000Y0138800D03*
X0474000Y0157550D03*
X0482750Y0086300D03*
X0466500Y0076300D03*
X0450250Y0071300D03*
X0316500Y0230050D03*
X0342750Y0235050D03*
X0324000Y0265050D03*
X0286500Y0260050D03*
X0276500Y0267550D03*
X0269000Y0248800D03*
X0291500Y0228800D03*
X0289000Y0223800D03*
X0247750Y0202550D03*
X0222750Y0195050D03*
X0202750Y0195050D03*
X0200250Y0187550D03*
X0192750Y0191300D03*
X0181500Y0191300D03*
X0177750Y0196300D03*
X0159000Y0196300D03*
X0151500Y0182550D03*
X0121500Y0196300D03*
X0132750Y0222550D03*
X0117750Y0227550D03*
X0157750Y0258800D03*
X0166500Y0282550D03*
X0176500Y0292550D03*
X0194000Y0306300D03*
X0185250Y0326300D03*
X0220250Y0346300D03*
X0231500Y0355050D03*
X0239000Y0347550D03*
X0250250Y0347550D03*
X0270250Y0347550D03*
X0276500Y0358800D03*
X0272750Y0392550D03*
X0292750Y0407550D03*
X0292750Y0420050D03*
X0312750Y0423800D03*
X0320250Y0405050D03*
X0329000Y0398800D03*
X0340250Y0407550D03*
X0352750Y0383800D03*
X0356500Y0375050D03*
X0366500Y0385050D03*
X0381500Y0371300D03*
X0400250Y0367550D03*
X0429000Y0381300D03*
X0435250Y0411300D03*
X0472750Y0425050D03*
X0477750Y0437550D03*
X0480250Y0411300D03*
X0524000Y0450050D03*
X0546500Y0476300D03*
X0550250Y0482550D03*
X0539000Y0486300D03*
X0507750Y0502550D03*
X0505250Y0482550D03*
X0486500Y0506300D03*
X0472750Y0530050D03*
X0456500Y0523800D03*
X0452750Y0530050D03*
X0437750Y0556300D03*
X0425250Y0577550D03*
X0415250Y0580050D03*
X0407750Y0558800D03*
X0395250Y0562550D03*
X0387750Y0552550D03*
X0382750Y0533800D03*
X0362750Y0518800D03*
X0362750Y0493800D03*
X0351500Y0477550D03*
X0337750Y0486300D03*
X0325250Y0473800D03*
X0332750Y0465050D03*
X0336500Y0470050D03*
X0351500Y0450050D03*
X0332750Y0440050D03*
X0306500Y0463800D03*
X0289000Y0450050D03*
X0281500Y0456300D03*
X0252750Y0448800D03*
X0226500Y0443800D03*
X0197750Y0458800D03*
X0190250Y0475050D03*
X0200250Y0491300D03*
X0202750Y0517550D03*
X0230250Y0502550D03*
X0234000Y0512550D03*
X0272750Y0496300D03*
X0306500Y0507550D03*
X0310250Y0517550D03*
X0316500Y0507550D03*
X0351500Y0548800D03*
X0357750Y0571300D03*
X0352750Y0583800D03*
X0345250Y0578800D03*
X0337750Y0580050D03*
X0337750Y0592550D03*
X0345250Y0600050D03*
X0356500Y0612550D03*
X0357750Y0620050D03*
X0367750Y0615050D03*
X0377750Y0608800D03*
X0390250Y0623800D03*
X0397750Y0627550D03*
X0417750Y0650050D03*
X0447750Y0678800D03*
X0440250Y0712550D03*
X0400250Y0703800D03*
X0375250Y0728800D03*
X0371500Y0745050D03*
X0347750Y0752550D03*
X0321500Y0760050D03*
X0291500Y0770050D03*
X0232750Y0736300D03*
X0232750Y0730050D03*
X0205250Y0730050D03*
X0144000Y0691300D03*
X0156500Y0665050D03*
X0186500Y0646300D03*
X0212750Y0650050D03*
X0226500Y0603800D03*
X0197750Y0592550D03*
X0187750Y0596300D03*
X0187750Y0553800D03*
X0176500Y0555050D03*
X0147750Y0543800D03*
X0140250Y0543800D03*
X0119000Y0533800D03*
X0107750Y0536300D03*
X0107750Y0530050D03*
X0097750Y0550050D03*
X0122750Y0577550D03*
X0092750Y0600050D03*
X0175250Y0510050D03*
X0172750Y0493800D03*
X0169000Y0483800D03*
X0156500Y0455050D03*
X0150250Y0452550D03*
X0155250Y0447550D03*
X0140250Y0445050D03*
X0132750Y0455050D03*
X0122750Y0470050D03*
X0115250Y0462550D03*
X0112750Y0473800D03*
X0124000Y0481300D03*
X0132750Y0481300D03*
X0140250Y0477550D03*
X0176500Y0447550D03*
X0180250Y0440050D03*
X0170250Y0413800D03*
X0180250Y0406300D03*
X0185250Y0398800D03*
X0191500Y0398800D03*
X0196500Y0396300D03*
X0201500Y0392550D03*
X0205250Y0382550D03*
X0211500Y0388800D03*
X0220250Y0382550D03*
X0216500Y0400050D03*
X0236500Y0406300D03*
X0256500Y0418800D03*
X0205250Y0363800D03*
X0156500Y0362550D03*
X0149000Y0335050D03*
X0116500Y0352550D03*
X0117750Y0385050D03*
X0102750Y0403800D03*
X0090250Y0410050D03*
X0092750Y0420050D03*
X0089000Y0425050D03*
X0094000Y0445050D03*
X0076500Y0458800D03*
X0084000Y0477550D03*
X0069000Y0492550D03*
X0062750Y0492550D03*
X0057750Y0497550D03*
X0041500Y0491300D03*
X0069000Y0438800D03*
X0069000Y0416300D03*
X0069000Y0406300D03*
X0069000Y0397550D03*
X0075250Y0376300D03*
X0067750Y0371300D03*
X0067750Y0352550D03*
X0070250Y0338800D03*
X0085250Y0298800D03*
X0065250Y0278800D03*
X0081500Y0271300D03*
X0126500Y0275050D03*
X0172750Y0227550D03*
X0215250Y0228800D03*
X0221500Y0228800D03*
X0244000Y0267550D03*
X0235250Y0282550D03*
X0235250Y0300050D03*
X0270250Y0313800D03*
X0297750Y0312550D03*
X0297750Y0328800D03*
X0320250Y0360050D03*
X0312750Y0363800D03*
X0336500Y0375050D03*
X0375250Y0343800D03*
X0400250Y0336300D03*
X0406500Y0336300D03*
X0342750Y0312550D03*
X0335250Y0328800D03*
X0377750Y0421300D03*
X0377750Y0455050D03*
X0412750Y0500050D03*
X0397750Y0510050D03*
X0405250Y0530050D03*
X0424000Y0517550D03*
X0431500Y0487550D03*
X0465250Y0486300D03*
X0464000Y0475050D03*
X0515250Y0531300D03*
X0525250Y0521300D03*
X0535250Y0552550D03*
X0505250Y0567550D03*
X0481500Y0552550D03*
X0481500Y0586300D03*
X0467750Y0590050D03*
X0455250Y0627550D03*
X0471500Y0645050D03*
X0495250Y0645050D03*
X0532750Y0636300D03*
X0540250Y0640050D03*
X0561500Y0630050D03*
X0575250Y0625050D03*
X0571500Y0648800D03*
X0585250Y0652550D03*
X0617750Y0687550D03*
X0591500Y0695050D03*
X0562750Y0710050D03*
X0582750Y0726300D03*
X0597750Y0745050D03*
X0614000Y0745050D03*
X0580250Y0752550D03*
X0505250Y0716300D03*
X0487750Y0720050D03*
X0491500Y0745050D03*
X0491500Y0760050D03*
X0467750Y0775050D03*
X0464000Y0767550D03*
X0457750Y0763800D03*
X0355250Y0670050D03*
X0350250Y0647550D03*
X0321500Y0650050D03*
X0287750Y0618800D03*
X0295250Y0611300D03*
X0291500Y0607550D03*
X0285250Y0607550D03*
X0276500Y0607550D03*
X0291500Y0598800D03*
X0291500Y0583800D03*
X0277750Y0572550D03*
X0270250Y0571300D03*
X0266500Y0567550D03*
X0281500Y0557550D03*
X0270250Y0537550D03*
X0305250Y0557550D03*
X0325250Y0590050D03*
X0317750Y0600050D03*
X0325250Y0605050D03*
X0321500Y0608800D03*
X0307750Y0610050D03*
X0277750Y0622550D03*
X0260250Y0640050D03*
X0270250Y0647550D03*
X0292750Y0693800D03*
X0326500Y0700050D03*
X0336500Y0700050D03*
X0377750Y0580050D03*
X0567750Y0570050D03*
X0579000Y0577550D03*
X0616500Y0573800D03*
X0626500Y0560050D03*
X0676500Y0607550D03*
X0687750Y0616300D03*
X0684000Y0620050D03*
X0696500Y0647550D03*
X0666500Y0685050D03*
X0637750Y0651300D03*
X0566500Y0521300D03*
X0611500Y0486300D03*
X0636500Y0476300D03*
X0646500Y0476300D03*
X0607750Y0457550D03*
X0582750Y0437550D03*
X0580250Y0397550D03*
X0642750Y0421300D03*
X0659000Y0315050D03*
X0611500Y0232550D03*
X0550250Y0240050D03*
X0517750Y0353800D03*
X0511500Y0361300D03*
X0507750Y0357550D03*
X0495250Y0351300D03*
X0199000Y0155050D03*
X0170250Y0155050D03*
X0152750Y0147550D03*
X0131500Y0147550D03*
X0132750Y0155050D03*
X0092750Y0163800D03*
X0081500Y0143800D03*
X0072750Y0157550D03*
X0061500Y0147550D03*
X0046500Y0143800D03*
X0042750Y0153800D03*
X0056500Y0173800D03*
X0049000Y0215050D03*
X0065250Y0130050D03*
X0057750Y0126300D03*
X0069000Y0115050D03*
X0081500Y0101300D03*
X0080250Y0093800D03*
X0084000Y0090050D03*
X0082750Y0073800D03*
X0085250Y0063800D03*
X0064000Y0067550D03*
X0105250Y0097550D03*
X0094000Y0122550D03*
X0170250Y0035050D03*
X0147750Y0388800D03*
X0159000Y0420050D03*
X0155250Y0423800D03*
X0105250Y0502550D03*
X0094000Y0498800D03*
X0065250Y0695050D03*
D33*
X0066500Y0641300D02*
X0051500Y0641300D01*
X0276500Y0771300D02*
X0276500Y0786300D01*
X0371500Y0471300D02*
X0406500Y0471300D01*
X0407125Y0470675D01*
X0407750Y0471300D01*
X0451500Y0471300D01*
X0456500Y0466300D01*
X0456500Y0467550D01*
X0462750Y0467550D01*
X0466500Y0471300D01*
X0496500Y0471300D01*
X0497125Y0470675D01*
X0497750Y0471300D01*
X0541500Y0471300D01*
X0542125Y0470675D01*
X0542750Y0471300D01*
X0586500Y0471300D01*
X0587125Y0470675D01*
X0587750Y0471300D01*
X0631500Y0471300D01*
X0632125Y0470675D01*
X0632750Y0471300D01*
X0676500Y0471300D01*
X0681500Y0466300D01*
X0636500Y0466300D02*
X0632125Y0470675D01*
X0591500Y0466300D02*
X0587125Y0470675D01*
X0546500Y0466300D02*
X0542125Y0470675D01*
X0501500Y0466300D02*
X0497125Y0470675D01*
X0411500Y0466300D02*
X0407125Y0470675D01*
X0371500Y0471300D02*
X0366500Y0466300D01*
X0362750Y0462550D01*
X0351500Y0462550D01*
X0351500Y0450050D01*
X0351500Y0431300D02*
X0341500Y0431300D01*
X0351500Y0431300D02*
X0351500Y0416300D01*
M02*
